<svg width="22" height="22" viewBox="0 0 22 22" fill="none" xmlns="http://www.w3.org/2000/svg">
<path d="M21.5438 19.3911C21.1656 18.9423 20.8884 18.5822 20.6655 17.9382C20.2046 16.2002 20.7436 14.2081 20.7436 14.2081L20.7406 14.2101C21.0941 13.1363 21.2884 11.9885 21.2884 10.7943C21.2886 4.83254 16.5225 0 10.6443 0C4.76631 0 0 4.83254 0 10.7941C0 15.4082 2.85583 19.3431 6.87106 20.888L6.86908 20.8886C6.86908 20.8886 6.89438 20.8988 6.94014 20.9155C7.46638 21.1139 8.0122 21.2701 8.57431 21.3828C10.7497 21.8804 14.942 22.4447 20.7788 21.4527C22.2286 21.2008 22.2564 20.2372 21.5438 19.3911ZM10.7448 15.7738C10.038 15.7738 9.46487 15.1924 9.46487 14.4758C9.46487 13.7589 10.038 13.1781 10.7448 13.1781C11.4515 13.1781 12.0248 13.7591 12.0248 14.4758C12.0248 15.1926 11.4517 15.7738 10.7448 15.7738ZM12.0248 10.7105C12.0248 11.4275 11.4517 12.0083 10.7448 12.0083C10.038 12.0083 9.46487 11.4273 9.46487 10.7105V7.52425C9.46487 6.80749 10.038 6.22625 10.7448 6.22625C11.4515 6.22625 12.0248 6.80749 12.0248 7.52425V10.7105Z" fill="#FF602C"/>
</svg>
