<svg width="20" height="20" viewBox="0 0 20 20" fill="none" xmlns="http://www.w3.org/2000/svg">
<path d="M10 0C8.02219 0 6.08879 0.58649 4.4443 1.6853C2.79981 2.78412 1.51809 4.3459 0.761209 6.17316C0.00433296 8.00043 -0.193701 10.0111 0.192152 11.9509C0.578004 13.8907 1.53041 15.6725 2.92894 17.0711C4.32746 18.4696 6.10929 19.422 8.0491 19.8078C9.98891 20.1937 11.9996 19.9957 13.8268 19.2388C15.6541 18.4819 17.2159 17.2002 18.3147 15.5557C19.4135 13.9112 20 11.9778 20 10C20 7.34783 18.9464 4.8043 17.0711 2.92893C15.1957 1.05357 12.6522 0 10 0V0ZM10 18.6667C9.33334 18.6667 8.52 17.4467 7.96 15.3333H12.04C11.48 17.4467 10.6667 18.6667 10 18.6667ZM7.67334 14C7.47543 12.8991 7.36177 11.7848 7.33334 10.6667H12.6667C12.6426 11.7845 12.5334 12.8988 12.34 14H7.67334ZM1.36667 10.6667H6.03334C6.05853 11.7838 6.16324 12.8977 6.34667 14H2.34667C1.79835 12.9664 1.46499 11.8325 1.36667 10.6667ZM10 1.33333C10.6667 1.33333 11.48 2.55333 12.04 4.66667H7.96C8.52 2.55333 9.33334 1.33333 10 1.33333ZM12.3267 6C12.5246 7.10085 12.6382 8.21519 12.6667 9.33333H7.33334C7.35737 8.21553 7.46657 7.1012 7.66 6H12.3267ZM6 9.33333H1.33334C1.42336 8.16935 1.74763 7.03556 2.28667 6H6.28667C6.11218 7.1029 6.01638 8.21683 6 9.33333V9.33333ZM14 10.6667H18.6667C18.5766 11.8306 18.2524 12.9644 17.7133 14H13.7133C13.8878 12.8971 13.9836 11.7832 14 10.6667ZM14 9.33333C13.9748 8.21619 13.8701 7.10226 13.6867 6H17.6867C18.235 7.03357 18.5684 8.16746 18.6667 9.33333H14ZM16.8333 4.66667H13.4067C13.1764 3.60656 12.79 2.58654 12.26 1.64C14.0652 2.13381 15.6639 3.1949 16.82 4.66667H16.8333ZM7.74 1.64C7.21001 2.58654 6.82357 3.60656 6.59334 4.66667H3.18C4.33612 3.1949 5.93477 2.13381 7.74 1.64V1.64ZM3.18 15.3333H6.59334C6.82357 16.3934 7.21001 17.4135 7.74 18.36C5.93477 17.8662 4.33612 16.8051 3.18 15.3333V15.3333ZM12.26 18.36C12.79 17.4135 13.1764 16.3934 13.4067 15.3333H16.82C15.6639 16.8051 14.0652 17.8662 12.26 18.36V18.36Z" fill="black"/>
</svg>
