<svg width="18" height="18" viewBox="0 0 18 18" fill="none" xmlns="http://www.w3.org/2000/svg">
<path d="M9 0C4.0374 0 0 4.0374 0 9C0 13.9626 4.0374 18 9 18C13.9626 18 18 13.9626 18 9C18 4.0374 13.9626 0 9 0ZM14.7036 13.808V12.6012C14.7036 11.1856 13.556 10.0424 12.1472 10.0424C12.1462 10.0424 12.1456 10.043 12.1446 10.043V10.0424H10.6734C11.7422 9.4512 12.4674 8.3134 12.4674 7.0064C12.4674 5.093 10.914 3.5392 9.0002 3.5392C7.0864 3.5392 5.5328 5.093 5.5328 7.0064C5.5328 8.3134 6.2578 9.4512 7.327 10.0424H5.8532C4.44 10.0424 3.2968 11.1856 3.2968 12.6012V13.808C2.1992 12.5082 1.5358 10.8304 1.5358 9C1.5358 4.884 4.8842 1.5356 9.0002 1.5356C13.1162 1.5356 16.4644 4.884 16.4644 9C16.4644 10.8304 15.8012 12.5082 14.7036 13.808Z" fill="#60646B"/>
</svg>
