<svg width="83" height="32" viewBox="0 0 83 32" fill="none" xmlns="http://www.w3.org/2000/svg">
<g clip-path="url(#clip0)">
<path d="M75.8371 16.9438C74.6284 16.3146 74.2702 15.7303 74.2702 15.0561C74.315 14.382 74.8075 13.7528 76.0162 13.7528C77.404 13.7528 78.2994 14.6516 78.6575 15.146C78.7918 15.3258 79.0157 15.3707 79.1947 15.2359L82.0151 13.3483C82.1942 13.2134 82.239 12.9438 82.1046 12.764C81.5227 11.8651 79.6424 9.61792 76.1505 9.61792C71.6737 9.61792 69.7039 12.4943 69.7039 15.5505C69.7039 18.8314 72.6138 20.1797 73.4644 20.5842C75.6581 21.6629 78.2546 22.4719 78.2546 24.3146C78.2546 25.6629 77.3145 26.4719 75.7028 26.4719C73.8673 26.4719 73.0167 25.0786 72.7034 24.3595C72.6138 24.1348 72.3452 24.0449 72.1661 24.1348L69.1219 25.573C68.9428 25.6629 68.8085 25.8876 68.8981 26.1123C69.883 28.4494 71.808 30.6966 75.7924 30.6966C80.2692 30.6966 82.9552 27.4606 82.9552 24.0898C82.9552 21.528 81.657 19.9999 78.8813 18.5617L75.8371 16.9438Z" fill="#0F1319"/>
<path d="M61.2875 22.9213C61.2875 24.719 60.2578 26.4269 57.9747 26.4269C55.5124 26.4269 54.5723 24.719 54.5723 22.9213V10.5617C54.5723 10.337 54.3932 10.1572 54.1694 10.1572H50.3641C50.1403 10.1572 49.9612 10.337 49.9612 10.5617V22.6516C49.9612 27.3707 52.7368 30.6516 57.9747 30.6516C63.2573 30.6516 65.9434 27.3707 65.9434 22.6516V10.5617C65.9434 10.337 65.7643 10.1572 65.5405 10.1572H61.7352C61.5113 10.1572 61.3323 10.337 61.3323 10.5617V22.9213H61.2875Z" fill="#0F1319"/>
<path d="M46.335 28.3595L44.4547 26.4269C45.6187 24.7191 46.2454 22.5618 46.2454 20.0899C46.2454 13.5281 42.082 9.573 35.2325 9.573C31.5615 9.573 28.562 10.2921 27.1294 10.5618C26.9504 10.6067 26.8608 10.6966 26.8161 10.8764C26.5475 11.8651 25.7416 15.5505 25.7416 19.4606C25.7416 26.6966 29.7708 30.6966 35.8592 30.6966C37.6499 30.6966 39.3064 30.337 40.6942 29.6629C41.5448 30.6067 42.2611 31.4157 42.6192 31.8651C42.7535 32.0449 43.0221 32.0449 43.2012 31.9101C43.6041 31.5505 46.0663 29.2584 46.335 28.9887C46.4693 28.809 46.4693 28.5393 46.335 28.3595ZM35.8145 26.1573C32.0092 26.1573 30.4423 23.2359 30.4423 19.3258C30.4423 17.3483 30.6661 15.7303 30.8004 14.8764C30.8452 14.6966 30.9347 14.5618 31.1138 14.5168C32.0092 14.337 33.6656 14.0224 35.5458 14.0224C39.2616 14.0224 41.5448 16.2247 41.5448 20.3146C41.5448 21.3033 41.3657 22.2022 41.0076 22.9663L39.2168 21.1685C39.0825 20.9887 38.8139 20.9887 38.6348 21.1685C38.0081 21.7528 36.5307 23.146 35.904 23.7303C35.7249 23.8651 35.7249 24.1348 35.8592 24.3146C36.1726 24.6741 36.7098 25.2584 37.3366 25.9775C36.8889 26.1123 36.3517 26.1573 35.8145 26.1573Z" fill="#44DC00"/>
<path d="M17.5043 30.0673H21.3096C21.5334 30.0673 21.7125 29.8876 21.7125 29.6628V10.5617C21.7125 10.337 21.5334 10.1572 21.3096 10.1572H17.5043C17.2805 10.1572 17.1014 10.337 17.1014 10.5617V29.6179C17.1014 29.8876 17.2805 30.0673 17.5043 30.0673Z" fill="#0F1319"/>
<path d="M11.1025 4.35955C12.1321 4.35955 13.4752 4.67416 14.5496 5.21348C14.7735 5.30337 14.9973 5.21348 15.0868 5.03371L16.4299 2.02247C16.5194 1.8427 16.4299 1.57303 16.2508 1.48315C14.8182 0.719101 12.8932 0 10.8339 0C5.1931 0 2.82039 3.46067 2.82039 8.58427V10.1573H0.402913C0.179072 10.1573 0 10.3371 0 10.5618V14.0674C0 14.2921 0.179072 14.4719 0.402913 14.4719H2.82039V29.618C2.82039 29.8427 2.99946 30.0225 3.2233 30.0225H7.02859C7.25243 30.0225 7.4315 29.8427 7.4315 29.618V14.5169H13.0723C13.2961 14.5169 13.4752 14.3371 13.4752 14.1124V10.6067C13.4752 10.382 13.2961 10.2022 13.0723 10.2022H7.47627V8.85393C7.47627 6.29214 7.87918 4.35955 11.1025 4.35955Z" fill="#0F1319"/>
</g>
<defs>
<clipPath id="clip0">
<rect width="83" height="32" fill="white"/>
</clipPath>
</defs>
</svg>
