<svg width="350" height="229" viewBox="0 0 350 229" fill="none" xmlns="http://www.w3.org/2000/svg">
<g clip-path="url(#clip0)">
<path d="M290.374 149.934L212.982 226.88C211.144 228.708 208.081 228.708 206.141 226.88L63.6088 85.169C61.771 83.3417 61.771 80.2963 63.6088 78.3676L141.001 1.42117C142.839 -0.406055 145.902 -0.406055 147.842 1.42117L290.374 143.133C292.211 144.96 292.211 148.005 290.374 149.934Z" fill="#ECEDDA"/>
<path d="M276.794 131.763V108.111C276.794 105.167 274.343 102.731 271.382 102.731H182.963H160.297C157.336 102.731 154.886 105.167 154.886 108.111V131.763H276.794Z" fill="#FF6030"/>
<path d="M276.794 133.184H154.886C154.171 133.184 153.559 132.575 153.559 131.865V108.212C153.559 104.558 156.622 101.512 160.297 101.512H271.382C275.058 101.512 278.121 104.558 278.121 108.212V131.865C278.121 132.575 277.508 133.184 276.794 133.184ZM156.213 130.444H275.466V108.111C275.466 105.878 273.629 104.05 271.382 104.05H160.297C158.051 104.05 156.213 105.878 156.213 108.111V130.444Z" fill="#510066"/>
<path d="M276.794 131.763V187.291C276.794 190.234 274.343 192.671 271.382 192.671H160.297C157.336 192.671 154.886 190.234 154.886 187.291V177.545V131.763H276.794Z" fill="white"/>
<path d="M271.382 193.99H160.297C156.622 193.99 153.559 190.945 153.559 187.29V131.763C153.559 131.053 154.171 130.444 154.886 130.444H276.794C277.508 130.444 278.121 131.053 278.121 131.763V187.29C278.121 191.046 275.058 193.99 271.382 193.99ZM156.213 133.184V187.392C156.213 189.625 158.051 191.453 160.297 191.453H271.382C273.629 191.453 275.466 189.625 275.466 187.392V133.184H156.213Z" fill="#510066"/>
<path d="M225.949 123.439H217.372C216.658 123.439 216.045 122.83 216.045 122.119C216.045 121.409 216.658 120.8 217.372 120.8H225.949C226.663 120.8 227.276 121.409 227.276 122.119C227.276 122.83 226.663 123.439 225.949 123.439Z" fill="#510066"/>
<path d="M244.632 112.07H234.524V122.119H244.632V112.07Z" fill="white"/>
<path d="M244.633 123.439H234.525C233.81 123.439 233.197 122.83 233.197 122.119V112.07C233.197 111.359 233.81 110.75 234.525 110.75H244.633C245.347 110.75 245.96 111.359 245.96 112.07V122.119C245.96 122.83 245.347 123.439 244.633 123.439ZM235.852 120.8H243.305V113.389H235.852V120.8Z" fill="#510066"/>
<path d="M262.704 123.135C262.398 123.135 261.99 123.033 261.786 122.729L252.086 113.085C251.575 112.577 251.575 111.765 252.086 111.258C252.597 110.75 253.413 110.75 253.924 111.258L263.623 120.901C264.134 121.409 264.134 122.221 263.623 122.729C263.419 123.033 263.011 123.135 262.704 123.135Z" fill="#510066"/>
<path d="M253.005 123.135C252.699 123.135 252.29 123.033 252.086 122.729C251.575 122.221 251.575 121.409 252.086 120.901L261.786 111.258C262.296 110.75 263.113 110.75 263.623 111.258C264.134 111.765 264.134 112.577 263.623 113.085L253.924 122.729C253.72 123.033 253.413 123.135 253.005 123.135Z" fill="#510066"/>
<path d="M339.177 153.69C344.421 153.69 348.672 149.463 348.672 144.249C348.672 139.035 344.421 134.809 339.177 134.809C333.933 134.809 329.682 139.035 329.682 144.249C329.682 149.463 333.933 153.69 339.177 153.69Z" fill="#F6DF4A"/>
<path d="M339.177 155.01C333.255 155.01 328.354 150.137 328.354 144.249C328.354 138.361 333.255 133.489 339.177 133.489C345.099 133.489 350 138.361 350 144.249C350 150.238 345.099 155.01 339.177 155.01ZM339.177 136.128C334.685 136.128 331.009 139.783 331.009 144.249C331.009 148.716 334.685 152.37 339.177 152.37C343.67 152.37 347.345 148.716 347.345 144.249C347.345 139.783 343.67 136.128 339.177 136.128Z" fill="#510066"/>
<path d="M328.048 105.268C333.292 105.268 337.543 101.042 337.543 95.8278C337.543 90.6138 333.292 86.3871 328.048 86.3871C322.804 86.3871 318.553 90.6138 318.553 95.8278C318.553 101.042 322.804 105.268 328.048 105.268Z" fill="#FF6030"/>
<path d="M328.048 106.588C322.126 106.588 317.226 101.715 317.226 95.8278C317.226 89.94 322.126 85.0674 328.048 85.0674C333.97 85.0674 338.871 89.94 338.871 95.8278C338.871 101.715 333.97 106.588 328.048 106.588ZM328.048 87.7068C323.556 87.7068 319.88 91.3612 319.88 95.8278C319.88 100.294 323.556 103.949 328.048 103.949C332.541 103.949 336.216 100.294 336.216 95.8278C336.216 91.3612 332.541 87.7068 328.048 87.7068Z" fill="#510066"/>
<path d="M26.2395 140.899C31.4836 140.899 35.7348 136.673 35.7348 131.459C35.7348 126.245 31.4836 122.018 26.2395 122.018C20.9953 122.018 16.7441 126.245 16.7441 131.459C16.7441 136.673 20.9953 140.899 26.2395 140.899Z" fill="#FF6030"/>
<path d="M26.2396 142.219C20.3178 142.219 15.417 137.346 15.417 131.459C15.417 125.571 20.3178 120.698 26.2396 120.698C32.1614 120.698 37.0623 125.571 37.0623 131.459C37.0623 137.448 32.2635 142.219 26.2396 142.219ZM26.2396 123.338C21.7472 123.338 18.0716 126.992 18.0716 131.459C18.0716 135.925 21.7472 139.58 26.2396 139.58C30.732 139.58 34.4077 135.925 34.4077 131.459C34.4077 126.992 30.8341 123.338 26.2396 123.338Z" fill="#510066"/>
<path d="M10.8225 88.9249C16.0666 88.9249 20.3178 84.6982 20.3178 79.4842C20.3178 74.2703 16.0666 70.0436 10.8225 70.0436C5.57835 70.0436 1.32715 74.2703 1.32715 79.4842C1.32715 84.6982 5.57835 88.9249 10.8225 88.9249Z" fill="#F6DF4A"/>
<path d="M10.8226 90.2446C4.90082 90.2446 0 85.4735 0 79.4842C0 73.5965 4.90082 68.7239 10.8226 68.7239C16.7445 68.7239 21.6453 73.5965 21.6453 79.4842C21.6453 85.4735 16.7445 90.2446 10.8226 90.2446ZM10.8226 71.3632C6.33022 71.3632 2.65461 75.0177 2.65461 79.4842C2.65461 83.9508 6.33022 87.6052 10.8226 87.6052C15.3151 87.6052 18.9907 83.9508 18.9907 79.4842C18.9907 75.0177 15.3151 71.3632 10.8226 71.3632Z" fill="#510066"/>
<path d="M210.021 25.5811L206.549 20.9116L201.853 17.4601L206.549 14.0087L210.021 9.33914L213.492 14.0087L218.086 17.4601L213.492 20.9116L210.021 25.5811Z" fill="#FF6030"/>
<path d="M210.02 26.9008C209.612 26.9008 209.203 26.6978 208.999 26.3932L205.63 21.9267L201.137 18.5768C200.831 18.3737 200.627 17.9677 200.627 17.5616C200.627 17.1556 200.831 16.7495 201.137 16.5465L205.63 13.1966L208.999 8.73007C209.203 8.42553 209.612 8.2225 210.02 8.2225C210.429 8.2225 210.837 8.42553 211.041 8.73007L214.41 13.1966L218.903 16.5465C219.209 16.7495 219.413 17.1556 219.413 17.5616C219.413 17.9677 219.209 18.3737 218.903 18.5768L214.41 21.9267L211.041 26.3932C210.837 26.6978 210.429 26.9008 210.02 26.9008ZM204.098 17.4601L207.366 19.8964C207.468 19.9979 207.57 20.0995 207.672 20.201L210.122 23.4494L212.573 20.201C212.675 20.0995 212.777 19.9979 212.879 19.8964L216.146 17.4601L212.879 15.0238C212.777 14.9223 212.675 14.8208 212.573 14.7193L210.122 11.4709L207.672 14.7193C207.57 14.8208 207.468 14.9223 207.366 15.0238L204.098 17.4601Z" fill="#510066"/>
<path d="M144.473 210.029L141.001 205.461L136.305 202.01L141.001 198.457L144.473 193.889L147.944 198.457L152.641 202.01L147.944 205.461L144.473 210.029Z" fill="#F6DF4A"/>
<path d="M144.472 211.349C144.064 211.349 143.656 211.146 143.451 210.841L140.082 206.375L135.59 203.025C135.283 202.822 135.079 202.416 135.079 202.01C135.079 201.604 135.283 201.198 135.59 200.995L140.082 197.645L143.451 193.178C143.656 192.874 144.064 192.671 144.472 192.671C144.881 192.671 145.289 192.874 145.493 193.178L148.863 197.645L153.355 200.995C153.661 201.198 153.866 201.604 153.866 202.01C153.866 202.416 153.661 202.822 153.355 203.025L148.863 206.375L145.493 210.841C145.289 211.247 144.881 211.349 144.472 211.349ZM138.551 202.01L141.818 204.446C141.92 204.548 142.022 204.649 142.124 204.751L144.574 207.999L147.025 204.751C147.127 204.649 147.229 204.548 147.331 204.446L150.598 202.01L147.331 199.574C147.229 199.472 147.127 199.37 147.025 199.269L144.574 196.021L142.124 199.269C142.022 199.37 141.92 199.472 141.818 199.574L138.551 202.01Z" fill="#510066"/>
<path d="M154.886 164.044H94.6469C94.3406 164.044 93.9322 163.943 93.728 163.638L16.5401 87.0977C16.0296 86.5901 16.0296 85.778 16.5401 85.2704C17.0506 84.7629 17.8674 84.7629 18.3779 85.2704L95.1574 161.405H154.886C155.601 161.405 156.213 162.014 156.213 162.724C156.213 163.435 155.601 164.044 154.886 164.044Z" fill="#510066"/>
<path d="M32.877 125.469C32.5707 125.469 32.1623 125.368 31.9581 125.063C31.4476 124.556 31.4476 123.744 31.9581 123.236L76.678 78.7736C77.1885 78.2661 78.0053 78.2661 78.5158 78.7736C79.0263 79.2812 79.0263 80.0933 78.5158 80.6009L33.7959 125.063C33.5917 125.368 33.2854 125.469 32.877 125.469Z" fill="#510066"/>
<path d="M332.95 138.666C332.643 138.666 332.235 138.565 332.031 138.26L259.335 65.9831H199.607C198.892 65.9831 198.279 65.374 198.279 64.6634C198.279 63.9529 198.892 63.3438 199.607 63.3438H259.846C260.152 63.3438 260.561 63.4453 260.765 63.7498L333.767 136.331C334.277 136.839 334.277 137.651 333.767 138.158C333.664 138.463 333.256 138.666 332.95 138.666Z" fill="#510066"/>
<path d="M276.794 149.02C276.488 149.02 276.079 148.919 275.875 148.614C275.365 148.107 275.365 147.295 275.875 146.787L320.595 102.325C321.105 101.817 321.922 101.817 322.433 102.325C322.943 102.832 322.943 103.644 322.433 104.152L277.713 148.716C277.509 148.919 277.1 149.02 276.794 149.02Z" fill="#510066"/>
<path d="M208.693 102.731V119.277C208.693 122.221 206.242 124.657 203.281 124.657H154.886V116.13L199.197 102.731H208.693Z" fill="#510066"/>
<path d="M194.194 26.1902C197.155 26.1902 199.606 28.6265 199.606 31.5704V36.849" fill="white"/>
<path d="M199.606 38.1687C198.891 38.1687 198.279 37.5596 198.279 36.849V31.5704C198.279 29.3371 196.441 27.5099 194.194 27.5099C193.48 27.5099 192.867 26.9008 192.867 26.1902C192.867 25.4796 193.48 24.8705 194.194 24.8705C197.87 24.8705 200.933 27.9159 200.933 31.5704V36.849C200.933 37.5596 200.321 38.1687 199.606 38.1687Z" fill="#510066"/>
<path d="M199.607 55.2228V31.5704C199.607 28.6265 197.156 26.1902 194.195 26.1902H105.776H83.008C80.0471 26.1902 77.5967 28.6265 77.5967 31.5704V55.2228H199.607Z" fill="#F6DF4A"/>
<path d="M199.606 56.5424H77.6984C76.9837 56.5424 76.3711 55.9334 76.3711 55.2228V31.5704C76.3711 27.9159 79.4341 24.8705 83.1097 24.8705H194.195C197.871 24.8705 200.934 27.9159 200.934 31.5704V55.2228C200.934 55.9334 200.321 56.5424 199.606 56.5424ZM79.0257 53.9031H198.279V31.5704C198.279 29.3371 196.441 27.5099 194.195 27.5099H83.1097C80.8635 27.5099 79.0257 29.3371 79.0257 31.5704V53.9031Z" fill="#510066"/>
<path d="M199.606 55.2228V110.75C199.606 113.694 197.156 116.13 194.195 116.13H83.1096C80.1487 116.13 77.6982 113.694 77.6982 110.75V101.005V55.2228H199.606Z" fill="white"/>
<path d="M194.195 117.45H83.1097C79.4341 117.45 76.3711 114.405 76.3711 110.75V55.2228C76.3711 54.9182 76.4732 54.5122 76.7795 54.3092C76.9837 54.1061 77.3921 53.9031 77.6984 53.9031H199.606C200.321 53.9031 200.934 54.5122 200.934 55.2228V110.75C200.934 114.405 197.871 117.45 194.195 117.45ZM79.0257 56.5424V110.75C79.0257 112.983 80.8635 114.811 83.1097 114.811H194.195C196.441 114.811 198.279 112.983 198.279 110.75V56.5424H79.0257Z" fill="#510066"/>
<path d="M148.76 46.8988H140.184C139.469 46.8988 138.856 46.2897 138.856 45.5791C138.856 44.8685 139.469 44.2594 140.184 44.2594H148.76C149.475 44.2594 150.087 44.8685 150.087 45.5791C150.087 46.2897 149.475 46.8988 148.76 46.8988Z" fill="#510066"/>
<path d="M167.445 35.5294H157.337V45.5791H167.445V35.5294Z" fill="white"/>
<path d="M167.445 46.8987H157.337C156.622 46.8987 156.01 46.2897 156.01 45.5791V35.5293C156.01 34.8188 156.622 34.2097 157.337 34.2097H167.445C168.16 34.2097 168.772 34.8188 168.772 35.5293V45.5791C168.772 46.2897 168.16 46.8987 167.445 46.8987ZM158.664 44.2594H166.118V36.849H158.664V44.2594Z" fill="#510066"/>
<path d="M185.516 46.5942C185.21 46.5942 184.801 46.4927 184.597 46.1882L174.898 36.5445C174.387 36.0369 174.387 35.2248 174.898 34.7172C175.408 34.2097 176.225 34.2097 176.735 34.7172L186.435 44.3609C186.945 44.8685 186.945 45.6806 186.435 46.1882C186.231 46.3912 185.822 46.5942 185.516 46.5942Z" fill="#510066"/>
<path d="M175.816 46.5942C175.51 46.5942 175.102 46.4927 174.898 46.1882C174.387 45.6806 174.387 44.8685 174.898 44.3609L184.597 34.7172C185.108 34.2097 185.924 34.2097 186.435 34.7172C186.945 35.2248 186.945 36.0369 186.435 36.5445L176.735 46.1882C176.531 46.3912 176.225 46.5942 175.816 46.5942Z" fill="#510066"/>
<path d="M226.867 74.6117C226.561 74.6117 226.153 74.5101 225.948 74.2056C225.438 73.698 225.438 72.886 225.948 72.3784L234.218 64.1559L226.255 56.2379C225.744 55.7303 225.744 54.9182 226.255 54.4107C226.765 53.9031 227.582 53.9031 228.092 54.4107L237.077 63.3438C237.281 63.5468 237.486 63.9528 237.486 64.2574C237.486 64.5619 237.384 64.968 237.077 65.171L227.888 74.3071C227.582 74.5101 227.276 74.6117 226.867 74.6117Z" fill="#510066"/>
<path d="M115.373 173.079C115.067 173.079 114.658 172.977 114.454 172.673C113.944 172.165 113.944 171.353 114.454 170.845L122.724 162.623L114.76 154.705C114.25 154.197 114.25 153.385 114.76 152.878C115.271 152.37 116.088 152.37 116.598 152.878L125.583 161.811C126.094 162.318 126.094 163.131 125.583 163.638L116.394 172.774C116.088 172.977 115.781 173.079 115.373 173.079Z" fill="#510066"/>
<path d="M79.4336 149.02C79.1273 149.02 78.7189 148.919 78.5147 148.614C78.0042 148.107 78.0042 147.295 78.5147 146.787L81.0672 144.249C81.5777 143.742 82.3945 143.742 82.905 144.249C83.4155 144.757 83.4155 145.569 82.905 146.076L80.3525 148.614C80.1483 148.919 79.842 149.02 79.4336 149.02ZM86.7848 141.813C86.4785 141.813 86.0701 141.711 85.8659 141.407C85.3554 140.899 85.3554 140.087 85.8659 139.58L88.4184 137.042C88.9289 136.534 89.7458 136.534 90.2563 137.042C90.7668 137.549 90.7668 138.361 90.2563 138.869L87.7037 141.407C87.4995 141.711 87.0911 141.813 86.7848 141.813ZM94.034 134.504C93.7277 134.504 93.3193 134.402 93.1151 134.098C92.6046 133.59 92.6046 132.778 93.1151 132.271L95.6676 129.733C96.1781 129.225 96.9949 129.225 97.5054 129.733C98.0159 130.24 98.0159 131.053 97.5054 131.56L94.9529 134.098C94.7487 134.402 94.4424 134.504 94.034 134.504ZM101.385 127.297C101.079 127.297 100.67 127.195 100.466 126.891C99.9558 126.383 99.9558 125.571 100.466 125.063L103.019 122.526C103.529 122.018 104.346 122.018 104.857 122.526C105.367 123.033 105.367 123.845 104.857 124.353L102.304 126.891C101.998 127.195 101.691 127.297 101.385 127.297ZM108.634 120.089C108.328 120.089 107.92 119.988 107.715 119.683C107.205 119.176 107.205 118.364 107.715 117.856L110.268 115.318C110.778 114.811 111.595 114.811 112.106 115.318C112.616 115.826 112.616 116.638 112.106 117.145L109.553 119.683C109.349 119.886 109.043 120.089 108.634 120.089ZM115.986 112.78C115.679 112.78 115.271 112.679 115.067 112.374C114.556 111.867 114.556 111.055 115.067 110.547L117.619 108.009C118.13 107.502 118.946 107.502 119.457 108.009C119.967 108.517 119.967 109.329 119.457 109.836L116.904 112.374C116.598 112.679 116.292 112.78 115.986 112.78ZM123.235 105.573C122.928 105.573 122.52 105.471 122.316 105.167C121.805 104.659 121.805 103.847 122.316 103.34L124.868 100.802C125.379 100.294 126.196 100.294 126.706 100.802C127.217 101.309 127.217 102.122 126.706 102.629L124.154 105.167C123.949 105.37 123.643 105.573 123.235 105.573ZM130.586 98.264C130.28 98.264 129.871 98.1625 129.667 97.858C129.156 97.3504 129.156 96.5383 129.667 96.0308L132.219 93.493C132.73 92.9854 133.547 92.9854 134.057 93.493C134.568 94.0005 134.568 94.8126 134.057 95.3202L131.505 97.858C131.198 98.1625 130.892 98.264 130.586 98.264ZM287.106 93.493H283.43C282.715 93.493 282.103 92.8839 282.103 92.1733C282.103 91.4627 282.715 90.8536 283.43 90.8536H287.106C287.82 90.8536 288.433 91.4627 288.433 92.1733C288.433 92.8839 287.82 93.493 287.106 93.493ZM276.691 93.493H273.016C272.301 93.493 271.689 92.8839 271.689 92.1733C271.689 91.4627 272.301 90.8536 273.016 90.8536H276.691C277.406 90.8536 278.019 91.4627 278.019 92.1733C278.019 92.8839 277.508 93.493 276.691 93.493ZM266.379 93.493H262.704C261.989 93.493 261.376 92.8839 261.376 92.1733C261.376 91.4627 261.989 90.8536 262.704 90.8536H266.379C267.094 90.8536 267.707 91.4627 267.707 92.1733C267.707 92.8839 267.196 93.493 266.379 93.493ZM256.067 93.493H252.392C251.677 93.493 251.064 92.8839 251.064 92.1733C251.064 91.4627 251.677 90.8536 252.392 90.8536H256.067C256.782 90.8536 257.395 91.4627 257.395 92.1733C257.395 92.8839 256.782 93.493 256.067 93.493ZM245.755 93.493H242.079C241.365 93.493 240.752 92.8839 240.752 92.1733C240.752 91.4627 241.365 90.8536 242.079 90.8536H245.755C246.47 90.8536 247.082 91.4627 247.082 92.1733C247.082 92.8839 246.47 93.493 245.755 93.493ZM235.443 93.493H231.767C231.053 93.493 230.44 92.8839 230.44 92.1733C230.44 91.4627 231.053 90.8536 231.767 90.8536H235.443C236.158 90.8536 236.77 91.4627 236.77 92.1733C236.77 92.8839 236.158 93.493 235.443 93.493ZM225.131 93.493H221.455C220.74 93.493 220.128 92.8839 220.128 92.1733C220.128 91.4627 220.74 90.8536 221.455 90.8536H225.131C225.846 90.8536 226.458 91.4627 226.458 92.1733C226.458 92.8839 225.846 93.493 225.131 93.493ZM214.819 93.493H211.143C210.428 93.493 209.816 92.8839 209.816 92.1733C209.816 91.4627 210.428 90.8536 211.143 90.8536H214.819C215.533 90.8536 216.146 91.4627 216.146 92.1733C216.146 92.8839 215.533 93.493 214.819 93.493ZM204.507 93.493H200.831C200.116 93.493 199.504 92.8839 199.504 92.1733C199.504 91.4627 200.116 90.8536 200.831 90.8536H204.507C205.221 90.8536 205.834 91.4627 205.834 92.1733C205.834 92.8839 205.221 93.493 204.507 93.493ZM194.194 93.493H190.519C189.804 93.493 189.191 92.8839 189.191 92.1733C189.191 91.4627 189.804 90.8536 190.519 90.8536H194.194C194.909 90.8536 195.522 91.4627 195.522 92.1733C195.522 92.8839 194.909 93.493 194.194 93.493ZM183.882 93.493H180.207C179.492 93.493 178.879 92.8839 178.879 92.1733C178.879 91.4627 179.492 90.8536 180.207 90.8536H183.882C184.597 90.8536 185.21 91.4627 185.21 92.1733C185.21 92.8839 184.597 93.493 183.882 93.493ZM173.57 93.493H169.895C169.18 93.493 168.567 92.8839 168.567 92.1733C168.567 91.4627 169.18 90.8536 169.895 90.8536H173.57C174.285 90.8536 174.897 91.4627 174.897 92.1733C174.897 92.8839 174.285 93.493 173.57 93.493ZM163.156 93.493H159.48C158.766 93.493 158.153 92.8839 158.153 92.1733C158.153 91.4627 158.766 90.8536 159.48 90.8536H163.156C163.871 90.8536 164.483 91.4627 164.483 92.1733C164.483 92.8839 163.973 93.493 163.156 93.493ZM152.844 93.493H149.168C148.453 93.493 147.841 92.8839 147.841 92.1733C147.841 91.4627 148.453 90.8536 149.168 90.8536H152.844C153.558 90.8536 154.171 91.4627 154.171 92.1733C154.171 92.8839 153.661 93.493 152.844 93.493ZM142.532 93.493H138.856C138.141 93.493 137.529 92.8839 137.529 92.1733C137.529 91.4627 138.141 90.8536 138.856 90.8536H142.532C143.246 90.8536 143.859 91.4627 143.859 92.1733C143.859 92.8839 143.348 93.493 142.532 93.493Z" fill="#510066"/>
<path d="M180.309 204.243V217.034L198.585 204.243H223.497C228.602 204.243 232.789 200.081 232.789 195.005V170.947C232.789 165.871 228.602 161.709 223.497 161.709H180.411C175.306 161.709 171.12 165.871 171.12 170.947V195.005C171.018 200.081 175.204 204.243 180.309 204.243Z" fill="#F6DF4A"/>
<path d="M180.309 218.353C180.105 218.353 179.9 218.353 179.696 218.252C179.288 218.049 178.982 217.541 178.982 217.034V205.461C173.774 204.852 169.69 200.386 169.69 195.005V170.947C169.69 165.161 174.489 160.39 180.309 160.39H223.395C229.215 160.39 234.014 165.161 234.014 170.947V195.005C234.014 200.792 229.215 205.563 223.395 205.563H198.891L181.024 218.049C180.819 218.252 180.513 218.353 180.309 218.353ZM180.309 163.029C175.919 163.029 172.345 166.582 172.345 170.947V195.005C172.345 199.37 175.919 202.923 180.309 202.923C180.615 202.923 181.024 203.025 181.228 203.329C181.432 203.532 181.636 203.939 181.636 204.243V214.496L197.768 203.228C197.972 203.025 198.279 203.025 198.585 203.025H223.497C227.888 203.025 231.461 199.472 231.461 195.107V171.048C231.461 166.683 227.888 163.131 223.497 163.131H180.309V163.029Z" fill="#510066"/>
<path d="M218.29 184.042H185.312C184.597 184.042 183.984 183.433 183.984 182.722C183.984 182.012 184.597 181.403 185.312 181.403H218.29C219.005 181.403 219.617 182.012 219.617 182.722C219.617 183.433 219.107 184.042 218.29 184.042Z" fill="#510066"/>
<path d="M218.29 174.601H185.312C184.597 174.601 183.984 173.992 183.984 173.282C183.984 172.571 184.597 171.962 185.312 171.962H218.29C219.005 171.962 219.617 172.571 219.617 173.282C219.617 173.992 219.107 174.601 218.29 174.601Z" fill="#510066"/>
<path d="M218.29 193.584H185.312C184.597 193.584 183.984 192.975 183.984 192.265C183.984 191.554 184.597 190.945 185.312 190.945H218.29C219.005 190.945 219.617 191.554 219.617 192.265C219.617 192.975 219.107 193.584 218.29 193.584Z" fill="#510066"/>
</g>
<defs>
<clipPath id="clip0">
<rect width="350" height="228.2" fill="white"/>
</clipPath>
</defs>
</svg>
