<svg width="48" height="54" viewBox="0 0 48 54" fill="none" xmlns="http://www.w3.org/2000/svg">
<path d="M22.0098 6.8316V24.6162C22.0098 34.9636 29.2534 43.0476 37.89 43.3709H43.4621C45.4123 43.3709 46.2481 40.7841 45.1337 39.1673L22.0098 6.8316Z" fill="#F1663E"/>
<path d="M43.4622 45.3109H24.2387C14.4877 45.3109 6.4082 35.9336 6.4082 24.6161V10.0651C6.4082 4.89135 9.75143 0.364356 14.2091 0.0409995C16.9951 -0.282357 19.7811 1.33442 21.7313 3.92127L46.5268 38.1971C47.6412 39.4905 47.6412 41.4307 47.084 43.0475C46.2482 44.3409 45.1338 45.3109 43.4622 45.3109ZM14.4877 3.59792C11.7017 3.92127 9.75145 6.50813 9.75145 9.7417V24.2928C9.75145 33.6701 16.1593 41.1073 24.2387 41.1073H43.4622C43.7408 41.1073 43.7408 40.784 44.0194 40.784C44.0194 40.784 44.0194 40.4606 44.0194 40.1372L19.2239 5.86143C18.1095 4.568 16.4379 3.59792 14.4877 3.59792Z" fill="#510066"/>
<path d="M8.91522 16.8555L0 10.7118L8.91522 4.56805V16.8555Z" fill="#510066"/>
<path d="M22.0095 53.395C21.1737 53.395 20.3379 52.4249 20.3379 51.4548V38.1971C20.3379 37.2271 21.1737 36.257 22.0095 36.257C22.8452 36.257 23.681 37.2271 23.681 38.1971V51.4548C23.681 52.4249 22.8452 53.395 22.0095 53.395Z" fill="#510066"/>
<path d="M16.4372 53.395C15.6014 53.395 14.7656 52.4249 14.7656 51.4548V38.1971C14.7656 37.2271 15.6014 36.257 16.4372 36.257C17.273 36.257 18.1088 37.2271 18.1088 38.1971V51.4548C18.1088 52.4249 17.273 53.395 16.4372 53.395Z" fill="#510066"/>
<path d="M15.5 13C13.75 13 12 11.6 12 9.5C12 7.4 13.4 6 15.5 6C17.6 6 19 7.4 19 9.5C19 11.6 17.6 13 15.5 13ZM15.5 8.80001C15.15 8.80001 14.8 9.15 14.8 9.5C14.8 9.85 15.15 10.2 15.5 10.2C15.85 10.2 16.2 9.85 16.2 9.5C16.2 9.15 16.2 8.80001 15.5 8.80001Z" fill="#510066"/>
</svg>
