<svg width="330" height="217" viewBox="0 0 330 217" fill="none" xmlns="http://www.w3.org/2000/svg">
<g clip-path="url(#clip0)">
<path d="M142.905 122.945H114.078C113.224 122.945 112.561 122.281 112.561 121.428V92.5167C112.561 91.6636 113.224 91.0001 114.078 91.0001H142.905C143.759 91.0001 144.423 91.6636 144.423 92.5167V121.333C144.423 122.187 143.759 122.945 142.905 122.945ZM115.595 119.912H141.388V94.0334H115.595V119.912Z" fill="#F6DF4A"/>
<path d="M142.905 94.0334H114.078C113.224 94.0334 112.561 93.3698 112.561 92.5167V63.7C112.561 62.8469 113.224 62.1833 114.078 62.1833H142.905C143.759 62.1833 144.423 62.8469 144.423 63.7V92.5167C144.423 93.3698 143.759 94.0334 142.905 94.0334ZM115.595 91H141.388V65.2167H115.595V91Z" fill="#F6DF4A"/>
<path d="M171.732 94.0334H142.905C142.051 94.0334 141.388 93.3698 141.388 92.5167V63.7C141.388 62.8469 142.051 62.1833 142.905 62.1833H171.732C172.586 62.1833 173.25 62.8469 173.25 63.7V92.5167C173.25 93.3698 172.586 94.0334 171.732 94.0334ZM144.422 91H170.215V65.2167H144.422V91Z" fill="#F6DF4A"/>
<path d="M114.077 122.945H85.1549C84.3015 122.945 83.6377 122.281 83.6377 121.428V92.5167C83.6377 91.6636 84.3015 91.0001 85.1549 91.0001H113.983C114.836 91.0001 115.5 91.6636 115.5 92.5167V121.333C115.595 122.187 114.836 122.945 114.077 122.945ZM86.6722 119.912H112.465V94.0334H86.6722V119.912Z" fill="#F6DF4A"/>
<path d="M114.077 94.0334H85.1549C84.3015 94.0334 83.6377 93.3698 83.6377 92.5167V63.7C83.6377 62.8469 84.3015 62.1833 85.1549 62.1833H113.983C114.836 62.1833 115.5 62.8469 115.5 63.7V92.5167C115.595 93.3698 114.836 94.0334 114.077 94.0334ZM86.6722 91H112.465V65.2167H86.6722V91Z" fill="#F6DF4A"/>
<path d="M85.1544 122.945H56.3268C55.4734 122.945 54.8096 122.281 54.8096 121.428V92.5167C54.8096 91.6636 55.4734 91.0001 56.3268 91.0001H85.1544C86.0078 91.0001 86.6716 91.6636 86.6716 92.5167V121.333C86.6716 122.187 86.0078 122.945 85.1544 122.945ZM57.8441 119.912H83.6372V94.0334H57.8441V119.912Z" fill="#F6DF4A"/>
<path d="M56.3272 151.762H27.4997C26.6462 151.762 25.9824 151.098 25.9824 150.245V121.428C25.9824 120.575 26.6462 119.911 27.4997 119.911H56.3272C57.1807 119.911 57.8445 120.575 57.8445 121.428V150.245C57.8445 151.098 57.1807 151.762 56.3272 151.762ZM29.0169 148.728H54.81V122.945H29.0169V148.728Z" fill="#F6DF4A"/>
<path d="M101.845 150.434H14.0352V171.763H101.845V150.434Z" fill="#FF6030"/>
<path d="M101.94 173.279H14.0348C13.1814 173.279 12.5176 172.616 12.5176 171.763V150.434C12.5176 149.581 13.1814 148.918 14.0348 148.918H101.845C102.699 148.918 103.362 149.581 103.362 150.434V171.763C103.457 172.616 102.793 173.279 101.94 173.279ZM15.5521 170.341H100.423V152.046H15.5521V170.341Z" fill="#510066"/>
<path d="M101.845 171.763H14.0352V193.091H101.845V171.763Z" fill="#ECEDDA"/>
<path d="M101.94 194.702H14.0348C13.1814 194.702 12.5176 194.039 12.5176 193.186V171.857C12.5176 171.004 13.1814 170.341 14.0348 170.341H101.845C102.699 170.341 103.362 171.004 103.362 171.857V193.186C103.457 194.039 102.793 194.702 101.94 194.702ZM15.5521 191.669H100.423V173.374H15.5521V191.669Z" fill="#510066"/>
<path d="M101.845 193.185H14.0352V214.514H101.845V193.185Z" fill="#FF6030"/>
<path d="M101.94 216.03H14.0348C13.1814 216.03 12.5176 215.367 12.5176 214.514V193.185C12.5176 192.332 13.1814 191.669 14.0348 191.669H101.845C102.699 191.669 103.362 192.332 103.362 193.185V214.514C103.457 215.367 102.793 216.03 101.94 216.03ZM15.5521 212.997H100.423V194.702H15.5521V212.997Z" fill="#510066"/>
<path d="M144.327 150.434H101.939V171.763H144.327V150.434Z" fill="white"/>
<path d="M144.327 173.279H101.939C101.086 173.279 100.422 172.616 100.422 171.763V150.434C100.422 149.581 101.086 148.918 101.939 148.918H144.327C145.181 148.918 145.844 149.581 145.844 150.434V171.763C145.844 172.616 145.181 173.279 144.327 173.279ZM103.456 170.341H142.81V152.046H103.456V170.341Z" fill="#510066"/>
<path d="M144.327 171.763H101.939V193.091H144.327V171.763Z" fill="white"/>
<path d="M144.327 194.702H101.939C101.086 194.702 100.422 194.039 100.422 193.186V171.857C100.422 171.004 101.086 170.341 101.939 170.341H144.327C145.181 170.341 145.844 171.004 145.844 171.857V193.186C145.844 194.039 145.181 194.702 144.327 194.702ZM103.456 191.669H142.81V173.374H103.456V191.669Z" fill="#510066"/>
<path d="M144.327 193.185H101.939V214.514H144.327V193.185Z" fill="white"/>
<path d="M144.327 216.03H101.939C101.086 216.03 100.422 215.367 100.422 214.514V193.185C100.422 192.332 101.086 191.669 101.939 191.669H144.327C145.181 191.669 145.844 192.332 145.844 193.185V214.514C145.844 215.367 145.181 216.03 144.327 216.03ZM103.456 212.997H142.81V194.702H103.456V212.997Z" fill="#510066"/>
<path d="M144.328 121.428H85.0605V150.245H144.328V121.428Z" fill="#ECEDDA"/>
<path d="M144.327 151.762H85.0602C84.2068 151.762 83.543 151.098 83.543 150.245V121.428C83.543 120.575 84.2068 119.911 85.0602 119.911H144.327C145.181 119.911 145.845 120.575 145.845 121.428V150.245C145.845 151.098 145.181 151.762 144.327 151.762ZM86.5775 148.728H142.81V122.945H86.5775V148.728Z" fill="#510066"/>
<path d="M56.4822 150.208H85.1201V121.391H56.4822V150.208Z" fill="white"/>
<path d="M85.0604 151.762H56.4225C55.5691 151.762 54.9053 151.098 54.9053 150.245V121.428C54.9053 120.575 55.5691 119.911 56.4225 119.911H85.0604C85.9139 119.911 86.5777 120.575 86.5777 121.428V150.245C86.5777 151.098 85.9139 151.762 85.0604 151.762ZM57.9398 148.728H83.5432V122.945H57.9398V148.728Z" fill="#510066"/>
<path d="M1.51724 100.195C0.663793 100.195 0 99.5313 0 98.6781C0 97.825 0.663793 97.1615 1.51724 97.1615C1.99138 97.1615 50.8276 96.4031 93.6896 77.5396C112.655 69.1979 129.155 58.676 144.991 48.4385C162.06 37.4427 178.181 27.1104 197.241 19.2427C218.862 10.2375 240.293 6.06665 264.664 6.06665C265.517 6.06665 266.181 6.73019 266.181 7.58332C266.181 8.43644 265.517 9.09999 264.664 9.09999C211.94 9.09999 180.172 29.4802 146.603 50.9979C130.578 61.2354 114.078 71.8521 94.8276 80.3833C51.3965 99.4365 1.99138 100.195 1.51724 100.195Z" fill="#510066"/>
<path d="M66.5686 57.5386C65.9997 57.5386 65.3359 57.1594 65.1462 56.5907C64.8617 55.8323 65.241 54.9792 65.9997 54.6001C79.6548 49.4813 94.5428 41.8032 108.957 32.324C113.888 29.1011 118.629 25.7834 123.56 22.0865C124.224 21.6125 125.172 21.7073 125.646 22.3709C126.12 23.0344 126.026 23.9823 125.362 24.4563C120.431 28.1532 115.594 31.5657 110.663 34.7886C96.06 44.2678 80.9824 52.1355 67.1376 57.349C66.9479 57.5386 66.7583 57.5386 66.5686 57.5386Z" fill="#510066"/>
<path d="M124.888 33.2719C124.793 33.2719 124.793 33.2719 124.888 33.2719C123.94 33.1771 123.371 32.5136 123.371 31.6604L123.845 24.3615L116.922 21.8969C116.164 21.6125 115.69 20.7594 115.974 20.0011C116.259 19.2427 117.112 18.7688 117.871 19.0531L125.836 21.8969C126.5 22.0865 126.879 22.75 126.879 23.4136L126.405 31.85C126.31 32.6084 125.647 33.2719 124.888 33.2719Z" fill="#510066"/>
<path d="M262.103 15.3563C261.819 15.3563 261.44 15.2615 261.155 15.0719C260.491 14.5979 260.302 13.65 260.871 12.9865L265.043 7.29898L260.017 2.65419C259.448 2.08544 259.353 1.13752 259.922 0.473978C260.491 -0.0947727 261.44 -0.189564 262.103 0.379186L268.172 5.9719C268.741 6.54065 268.836 7.39377 268.362 7.96252L263.336 14.6927C263.052 15.1667 262.577 15.3563 262.103 15.3563Z" fill="#510066"/>
<path d="M32.3362 162.568H22.569C21.7155 162.568 21.0518 161.904 21.0518 161.051C21.0518 160.198 21.7155 159.534 22.569 159.534H32.3362C33.1897 159.534 33.8535 160.198 33.8535 161.051C33.8535 161.904 33.1897 162.568 32.3362 162.568Z" fill="#510066"/>
<path d="M138.733 136.31H128.965C128.112 136.31 127.448 135.647 127.448 134.794C127.448 133.941 128.112 133.277 128.965 133.277H138.733C139.586 133.277 140.25 133.941 140.25 134.794C140.25 135.647 139.586 136.31 138.733 136.31Z" fill="#510066"/>
<path d="M32.3362 183.991H22.569C21.7155 183.991 21.0518 183.327 21.0518 182.474C21.0518 181.621 21.7155 180.957 22.569 180.957H32.3362C33.1897 180.957 33.8535 181.621 33.8535 182.474C33.8535 183.327 33.1897 183.991 32.3362 183.991Z" fill="#510066"/>
<path d="M32.3362 205.414H22.569C21.7155 205.414 21.0518 204.75 21.0518 203.897C21.0518 203.044 21.7155 202.38 22.569 202.38H32.3362C33.1897 202.38 33.8535 203.044 33.8535 203.897C33.8535 204.75 33.1897 205.414 32.3362 205.414Z" fill="#510066"/>
<path d="M235.552 96.9719V49.6708H205.681C179.035 49.6708 155.992 69.0083 145.371 97.0667C175.526 97.2563 205.492 96.6875 235.552 96.9719Z" fill="#510066"/>
<path d="M145.371 97.0667C141.293 107.683 139.018 119.627 139.018 132.14C139.018 177.64 168.888 214.608 205.681 214.608H235.552V96.9719C205.492 96.6875 175.526 97.2563 145.371 97.0667Z" fill="#FF6030"/>
<path d="M235.552 216.125H205.681C187.379 216.125 170.216 207.309 157.319 191.384C144.517 175.554 137.5 154.51 137.5 132.14C137.5 109.769 144.517 88.725 157.319 72.8948C170.216 56.9698 187.379 48.1542 205.681 48.1542H235.552C236.405 48.1542 237.069 48.8177 237.069 49.6708C237.069 50.524 236.405 51.1875 235.552 51.1875H205.681C169.741 51.1875 140.534 87.4927 140.534 132.14C140.534 176.786 169.741 213.092 205.681 213.092H235.552C236.405 213.092 237.069 213.755 237.069 214.608C237.069 215.462 236.405 216.125 235.552 216.125Z" fill="#510066"/>
<path d="M169.647 121.428H139.776C138.923 121.428 138.259 120.765 138.259 119.911C138.259 119.058 138.923 118.395 139.776 118.395H169.647C170.5 118.395 171.164 119.058 171.164 119.911C171.164 120.765 170.5 121.428 169.647 121.428Z" fill="#510066"/>
<path d="M175.621 98.3938H145.751C144.897 98.3938 144.233 97.7303 144.233 96.8771C144.233 96.024 144.897 95.3605 145.751 95.3605H175.621C176.475 95.3605 177.139 96.024 177.139 96.8771C177.139 97.7303 176.38 98.3938 175.621 98.3938Z" fill="#510066"/>
<path d="M170.216 150.814H140.819C139.966 150.814 139.302 150.15 139.302 149.297C139.302 148.444 139.966 147.78 140.819 147.78H170.216C171.069 147.78 171.733 148.444 171.733 149.297C171.733 150.15 171.069 150.814 170.216 150.814Z" fill="#510066"/>
<path d="M176.569 172.9H147.551C146.698 172.9 146.034 172.237 146.034 171.383C146.034 170.53 146.698 169.867 147.551 169.867H176.569C177.422 169.867 178.086 170.53 178.086 171.383C178.086 172.237 177.422 172.9 176.569 172.9Z" fill="#510066"/>
<path d="M189.939 193.754H160.258C159.405 193.754 158.741 193.091 158.741 192.238C158.741 191.384 159.405 190.721 160.258 190.721H189.939C190.793 190.721 191.457 191.384 191.457 192.238C191.457 193.091 190.793 193.754 189.939 193.754Z" fill="#510066"/>
<path d="M209.759 209.679H179.888C179.035 209.679 178.371 209.016 178.371 208.163C178.371 207.309 179.035 206.646 179.888 206.646H209.759C210.612 206.646 211.276 207.309 211.276 208.163C211.276 209.016 210.612 209.679 209.759 209.679Z" fill="#510066"/>
<path d="M234.794 214.608C271.192 214.608 300.699 177.686 300.699 132.14C300.699 86.5934 271.192 49.6708 234.794 49.6708C198.395 49.6708 168.889 86.5934 168.889 132.14C168.889 177.686 198.395 214.608 234.794 214.608Z" fill="#F6DF4A"/>
<path d="M234.794 216.125C216.776 216.125 199.802 207.309 187 191.384C174.388 175.554 167.371 154.51 167.371 132.14C167.371 109.769 174.294 88.725 187 72.8948C199.707 56.9698 216.681 48.1542 234.794 48.1542C252.811 48.1542 269.785 56.9698 282.587 72.8948C295.199 88.725 302.216 109.769 302.216 132.14C302.216 154.51 295.294 175.554 282.587 191.384C269.785 207.309 252.811 216.125 234.794 216.125ZM234.794 51.1875C199.328 51.1875 170.406 87.4927 170.406 132.14C170.406 176.786 199.233 213.092 234.794 213.092C270.354 213.092 299.181 176.786 299.181 132.14C299.181 87.4927 270.259 51.1875 234.794 51.1875Z" fill="#510066"/>
<path d="M235.931 195.934C263.584 195.934 286 167.372 286 132.14C286 96.9067 263.584 68.3448 235.931 68.3448C208.279 68.3448 185.862 96.9067 185.862 132.14C185.862 167.372 208.279 195.934 235.931 195.934Z" fill="white"/>
<path d="M235.931 197.451C207.483 197.451 184.345 168.16 184.345 132.14C184.345 96.1188 207.483 66.8281 235.931 66.8281C264.379 66.8281 287.517 96.1188 287.517 132.14C287.612 168.16 264.379 197.451 235.931 197.451ZM235.931 69.8615C209.095 69.8615 187.284 97.825 187.284 132.14C187.284 166.454 209.095 194.418 235.931 194.418C262.767 194.418 284.577 166.454 284.577 132.14C284.577 97.7302 262.767 69.8615 235.931 69.8615Z" fill="#510066"/>
<path d="M262.957 147.496C262.957 137.827 258.026 132.708 252.337 129.391C249.302 127.684 245.604 126.547 241.716 125.599V105.693C250.061 107.399 255.75 112.518 255.75 112.518L261.725 100.574C255.845 95.6448 249.871 92.4219 241.716 91.474V81.0469H232.043V91.474C222.656 92.7063 210.233 98.6781 210.233 115.077C210.233 130.813 222.656 136.121 232.043 138.491V158.966C222.371 157.544 215.544 150.719 215.544 150.719L208.621 162.473C208.621 162.473 217.914 171.763 232.043 172.805V183.612H241.716V172.331C257.742 169.108 262.957 155.932 262.957 147.496ZM231.475 123.134C225.975 121.713 224.457 117.921 224.457 114.414C224.457 112.707 225.216 107.304 232.138 105.693V123.324C231.854 123.324 231.664 123.229 231.475 123.134ZM241.716 158.397V140.671C247.5 142.567 249.207 145.41 249.207 149.297C249.207 152.046 247.975 156.596 241.716 158.397Z" fill="#510066"/>
<path d="M275.474 148.349L328.482 177.45L310.655 183.706L327.155 206.646L315.775 214.893L299.086 192.238L287.896 207.404L275.474 148.349Z" fill="#FF6030"/>
<path d="M315.776 216.409C315.302 216.409 314.828 216.22 314.543 215.841L299.087 194.892L289.13 208.352C288.75 208.826 288.181 209.016 287.612 208.921C287.043 208.826 286.569 208.352 286.474 207.783L274.052 148.633C273.957 148.065 274.147 147.496 274.621 147.117C275.095 146.738 275.759 146.738 276.233 147.022L329.242 176.218C329.811 176.502 330.095 177.071 330 177.64C329.905 178.208 329.526 178.777 328.957 178.967L313.026 184.559L328.293 205.793C328.768 206.456 328.673 207.404 327.914 207.878L316.535 216.125C316.44 216.315 316.061 216.409 315.776 216.409ZM299.087 190.721C299.561 190.721 300.035 190.91 300.319 191.29L316.155 212.713L325.069 206.267L309.423 184.559C309.138 184.18 309.043 183.706 309.233 183.232C309.423 182.758 309.707 182.379 310.181 182.284L324.88 177.166L277.75 151.193L288.75 203.707L297.949 191.29C298.138 191.005 298.612 190.721 299.087 190.721Z" fill="#510066"/>
<path d="M274.146 148.349L269.215 202.286C269.215 202.286 280.499 192.522 283.06 188.73L274.146 148.349Z" fill="#510066"/>
<path d="M134.466 166.075C132.759 166.075 131.242 164.653 131.242 162.852V159.724C131.242 158.018 132.665 156.501 134.466 156.501C136.173 156.501 137.69 157.923 137.69 159.724V162.852C137.596 164.653 136.173 166.075 134.466 166.075Z" fill="white"/>
<path d="M134.466 167.592C131.906 167.592 129.725 165.506 129.725 162.852V159.724C129.725 157.165 131.811 154.984 134.466 154.984C137.121 154.984 139.207 157.07 139.207 159.724V162.852C139.113 165.506 137.026 167.592 134.466 167.592ZM134.466 158.113C133.518 158.113 132.759 158.871 132.759 159.819V162.947C132.759 163.895 133.518 164.653 134.466 164.653C135.414 164.653 136.173 163.895 136.173 162.947V159.819C136.078 158.871 135.319 158.113 134.466 158.113Z" fill="#510066"/>
<path d="M70.7417 140.576C69.0348 140.576 67.5176 139.154 67.5176 137.353V134.225C67.5176 132.519 68.94 131.002 70.7417 131.002C72.4486 131.002 73.9658 132.424 73.9658 134.225V137.353C73.9658 139.154 72.5434 140.576 70.7417 140.576Z" fill="white"/>
<path d="M70.7414 142.093C68.181 142.093 66 140.007 66 137.448V134.32C66 131.76 68.0862 129.58 70.7414 129.58C73.3017 129.58 75.4827 131.666 75.4827 134.32V137.448C75.4827 139.913 73.3965 142.093 70.7414 142.093ZM70.7414 132.614C69.7931 132.614 69.0345 133.372 69.0345 134.32V137.448C69.0345 138.396 69.7931 139.154 70.7414 139.154C71.6896 139.154 72.4483 138.396 72.4483 137.448V134.32C72.4483 133.372 71.6896 132.614 70.7414 132.614Z" fill="#510066"/>
<path d="M134.466 187.214C132.759 187.214 131.242 185.792 131.242 183.991V180.863C131.242 179.156 132.665 177.64 134.466 177.64C136.173 177.64 137.69 179.062 137.69 180.863V183.991C137.596 185.792 136.173 187.214 134.466 187.214Z" fill="white"/>
<path d="M134.466 188.73C131.906 188.73 129.725 186.645 129.725 183.991V180.863C129.725 178.303 131.811 176.123 134.466 176.123C137.121 176.123 139.207 178.208 139.207 180.863V183.991C139.113 186.645 137.026 188.73 134.466 188.73ZM134.466 179.251C133.518 179.251 132.759 180.009 132.759 180.957V184.085C132.759 185.033 133.518 185.792 134.466 185.792C135.414 185.792 136.173 185.033 136.173 184.085V180.957C136.078 180.009 135.319 179.251 134.466 179.251Z" fill="#510066"/>
<path d="M134.466 208.352C132.759 208.352 131.242 206.93 131.242 205.129V202.001C131.242 200.295 132.665 198.778 134.466 198.778C136.173 198.778 137.69 200.2 137.69 202.001V205.129C137.596 206.93 136.173 208.352 134.466 208.352Z" fill="white"/>
<path d="M134.466 209.869C131.906 209.869 129.725 207.783 129.725 205.129V202.001C129.725 199.442 131.811 197.356 134.466 197.356C137.121 197.356 139.207 199.442 139.207 202.001V205.129C139.113 207.783 137.026 209.869 134.466 209.869ZM134.466 200.39C133.518 200.39 132.759 201.148 132.759 202.096V205.224C132.759 206.172 133.518 206.93 134.466 206.93C135.414 206.93 136.173 206.172 136.173 205.224V202.096C136.078 201.148 135.319 200.39 134.466 200.39Z" fill="#510066"/>
</g>
<defs>
<clipPath id="clip0">
<rect width="330" height="216.409" fill="white"/>
</clipPath>
</defs>
</svg>
