<svg width="258" height="141" viewBox="0 0 258 141" fill="none" xmlns="http://www.w3.org/2000/svg">
<g clip-path="url(#clip0)">
<path d="M32.2649 88.5717C31.9186 88.5717 31.63 88.4545 31.3414 88.2202L29.0327 85.877C28.5132 85.3498 28.5132 84.5297 29.0327 84.0611C29.5522 83.5339 30.3602 83.5339 30.822 84.0611L33.1307 86.4042C33.6501 86.9314 33.6501 87.7516 33.1307 88.2202C32.9575 88.4545 32.6112 88.5717 32.2649 88.5717ZM25.4542 81.6008C25.1079 81.6008 24.8193 81.4836 24.5307 81.2493L22.0488 78.7304C21.5293 78.2032 21.5293 77.383 22.0488 76.9144C22.5683 76.3872 23.3763 76.3872 23.8381 76.9144L26.3199 79.4333C26.8394 79.9605 26.8394 80.7806 26.3199 81.2493C26.0891 81.4836 25.7428 81.6008 25.4542 81.6008ZM18.4126 74.5127C18.0662 74.5127 17.7777 74.3955 17.4891 74.1612L15.0072 71.6423C14.4877 71.1151 14.4877 70.295 15.0072 69.8263C15.5266 69.2991 16.3347 69.2991 16.7964 69.8263L19.2783 72.3452C19.7978 72.8725 19.7978 73.6926 19.2783 74.1612C19.1052 74.3955 18.7589 74.5127 18.4126 74.5127ZM11.4287 67.4246C11.0824 67.4246 10.7938 67.3074 10.5052 67.0731L10.2166 66.7802C9.46625 66.0187 8.71591 65.1986 8.02329 64.3199C7.56155 63.7927 7.61927 62.9726 8.19645 62.5039C8.71591 62.0353 9.52396 62.0939 9.98571 62.6797C10.6206 63.4412 11.3132 64.2027 12.0058 64.9643L12.2944 65.2572C12.8139 65.7844 12.8139 66.6045 12.2944 67.0731C12.0636 67.3074 11.775 67.4246 11.4287 67.4246ZM5.42598 59.4578C4.96423 59.4578 4.56021 59.2235 4.32933 58.8135C3.75215 57.759 3.23269 56.646 2.71323 55.4744C2.42464 54.8301 2.71323 54.0686 3.40584 53.7757C4.04074 53.4828 4.79108 53.7757 5.07967 54.4786C5.54141 55.533 6.00316 56.5875 6.58034 57.5833C6.92665 58.2277 6.69578 58.9892 6.06088 59.3407C5.88772 59.3993 5.65685 59.4578 5.42598 59.4578ZM1.96289 50.0852C1.38571 50.0852 0.866246 49.6751 0.693092 49.0893C0.462219 47.9177 0.231347 46.6876 0.115911 45.4574C0.0581926 44.7545 0.519938 44.1101 1.27027 44.0515C1.96289 43.9929 2.59779 44.4616 2.65551 45.2231C2.77094 46.3361 2.9441 47.5077 3.23269 48.6207C3.40584 49.3236 2.9441 50.0266 2.25148 50.1437C2.13604 50.0852 2.07833 50.0852 1.96289 50.0852ZM1.27027 40.0681C1.21255 40.0681 1.21255 40.0681 1.15484 40.0681C0.462219 40.0096 -0.0572436 39.4238 0.000474487 38.6622C0.115911 37.4321 0.231347 36.2019 0.462219 34.9717C0.577656 34.2688 1.27027 33.8002 1.96289 33.9173C2.65551 34.0345 3.11725 34.7374 3.00182 35.4404C2.82866 36.5534 2.65551 37.725 2.59779 38.838C2.48235 39.5409 1.96289 40.0681 1.27027 40.0681ZM76.881 35.6747C76.5347 35.6747 76.2461 35.5575 75.9575 35.3232L73.4756 32.8043C72.9562 32.2771 72.9562 31.457 73.4756 30.9884C73.9951 30.4611 74.8031 30.4611 75.2649 30.9884L77.7468 33.5073C78.2662 34.0345 78.2662 34.8546 77.7468 35.3232C77.5159 35.5575 77.1696 35.6747 76.881 35.6747ZM3.40584 30.2854C3.23269 30.2854 3.11725 30.2854 2.9441 30.2268C2.3092 29.9925 1.96289 29.231 2.19376 28.528C2.59779 27.3565 3.11725 26.2435 3.63672 25.1304C3.92531 24.4861 4.73336 24.2518 5.36826 24.5447C6.00316 24.8376 6.23403 25.6577 5.94544 26.302C5.42598 27.2979 4.96423 28.3523 4.61792 29.4653C4.38705 29.9925 3.92531 30.2854 3.40584 30.2854ZM69.8394 28.5866C69.4931 28.5866 69.2045 28.4695 68.9159 28.2351L66.434 25.7162C65.9146 25.189 65.9146 24.3689 66.434 23.9003C66.9535 23.3731 67.7615 23.3731 68.2233 23.9003L70.7052 26.4192C71.2246 26.9464 71.2246 27.7665 70.7052 28.2351C70.532 28.4109 70.1857 28.5866 69.8394 28.5866ZM8.19645 21.5571C7.90786 21.5571 7.67698 21.4985 7.44611 21.2642C6.86893 20.8542 6.75349 20.0341 7.21524 19.4483C7.96557 18.4524 8.71591 17.5152 9.58168 16.6365C10.0434 16.1093 10.8515 16.1093 11.3709 16.5779C11.8904 17.0465 11.8904 17.8666 11.4287 18.3938C10.6783 19.214 9.92799 20.0926 9.23537 21.0299C8.94678 21.3814 8.54276 21.5571 8.19645 21.5571ZM62.8555 21.44C62.5092 21.44 62.2206 21.3228 61.932 21.0885L59.4501 18.5696C58.9307 18.0424 58.9307 17.2223 59.4501 16.7536C59.9696 16.2264 60.7776 16.2264 61.2394 16.7536L63.7213 19.2725C64.2407 19.7997 64.2407 20.6199 63.7213 21.0885C63.4904 21.3228 63.2018 21.44 62.8555 21.44ZM55.583 14.6448C55.2944 14.6448 55.0636 14.5862 54.8327 14.4105C53.9092 13.7075 52.9857 13.1217 52.0045 12.5359C51.3696 12.1845 51.1964 11.3643 51.5428 10.7786C51.8891 10.1342 52.6971 9.95845 53.2743 10.3099C54.3132 10.9543 55.3521 11.5987 56.3334 12.3602C56.9105 12.7702 57.026 13.5904 56.6219 14.1761C56.3911 14.469 55.987 14.6448 55.583 14.6448ZM15.2381 14.5276C14.834 14.5276 14.43 14.3519 14.1991 14.0004C13.7951 13.4146 13.9105 12.5945 14.4877 12.1845C15.4689 11.4815 16.5079 10.7786 17.5468 10.1928C18.1817 9.84129 18.932 10.0756 19.2783 10.6614C19.6246 11.3058 19.4515 12.0673 18.8166 12.4188C17.8354 13.0046 16.9119 13.5904 15.9884 14.2933C15.7575 14.469 15.4689 14.5276 15.2381 14.5276ZM46.8676 9.95845C46.7521 9.95845 46.579 9.95845 46.4636 9.89987C45.4246 9.54839 44.328 9.19692 43.2313 8.90402C42.5387 8.72828 42.1347 8.02533 42.3079 7.32238C42.481 6.61943 43.1736 6.20938 43.8662 6.38512C45.0206 6.67801 46.2327 7.02949 47.387 7.43954C48.0797 7.67386 48.426 8.43539 48.1374 9.07976C47.9065 9.60697 47.387 9.95845 46.8676 9.95845ZM23.9535 9.89987C23.434 9.89987 22.9146 9.54839 22.7414 9.02118C22.5105 8.31823 22.8568 7.61528 23.5495 7.38096C24.7038 6.97091 25.8582 6.61943 27.0703 6.32654C27.7629 6.1508 28.4555 6.61943 28.6287 7.2638C28.8018 7.96675 28.3401 8.6697 27.7052 8.84544C26.6085 9.13834 25.5119 9.43123 24.473 9.78271C24.2421 9.84129 24.1266 9.89987 23.9535 9.89987ZM37.1709 7.96675H37.1132C36.0166 7.90817 34.8622 7.90817 33.7079 7.96675C33.0152 8.02533 32.3803 7.43954 32.3803 6.73659C32.3226 6.03364 32.8998 5.38927 33.5924 5.38927C34.8045 5.33069 36.0166 5.33069 37.2287 5.38927C37.9213 5.44785 38.4985 6.03364 38.4407 6.73659C38.4407 7.43954 37.8636 7.96675 37.1709 7.96675Z" fill="#510066"/>
<path d="M115.494 46.219L208.767 140.883H67.5306L51.7158 127C51.7158 127 100.545 119.209 114.167 99.4089" fill="#ECEDDA"/>
<path d="M75.0344 131.745C61.2975 131.745 48.3109 126.297 38.6142 116.455C28.8599 106.556 23.5498 93.4338 23.5498 79.492C23.5498 65.5501 28.8599 52.3698 38.6142 42.4699C48.3686 32.5701 61.2975 27.1808 75.0344 27.1808C88.7713 27.1808 101.758 32.6286 111.455 42.4699C121.209 52.3698 126.519 65.4916 126.519 79.4334C126.519 93.3752 121.151 106.556 111.455 116.397C101.758 126.297 88.7713 131.745 75.0344 131.745ZM75.0344 46.7462C57.2572 46.7462 42.8277 61.4496 42.8277 79.4334C42.8277 97.4172 57.3149 112.121 75.0344 112.121C92.7538 112.121 107.241 97.4172 107.241 79.4334C107.241 61.4496 92.8116 46.7462 75.0344 46.7462Z" fill="#FF6030"/>
<path d="M99.2178 32.3943C101.411 34.0931 103.662 35.7919 105.798 37.5493C109.78 40.7126 113.647 44.1102 116.88 48.0935C118.496 50.0852 119.881 52.1941 121.151 54.4201C121.497 55.0059 121.843 55.5917 122.132 56.1775L145.508 32.2772L133.906 33.0973L131.02 22.8459L121.786 21.3814L122.478 8.55261L99.2178 32.3943Z" fill="#F6DF4A"/>
<path d="M106.664 72.0524C106.26 70.4122 105.682 68.8891 105.047 67.3075C104.182 64.9643 103.085 62.7383 101.7 60.6881C100.315 58.5792 98.8139 57.6419 97.1401 55.826C95.4663 53.9515 92.6381 51.6083 90.3293 50.5539C88.0783 49.4994 86.4045 48.6793 84.1535 47.7421L25.9736 106.848C25.9736 106.848 53.4475 99.3503 49.1186 130.866L106.664 72.0524Z" fill="#F6DF4A"/>
<path d="M122.651 8.61113L121.9 21.44L131.597 23.0216L133.675 33.1558L146.084 32.2185L150.99 4.39343L122.651 8.61113Z" fill="#ECEDDA"/>
<path d="M33.4201 139.711C42.7281 139.711 50.2738 132.053 50.2738 122.606C50.2738 113.159 42.7281 105.501 33.4201 105.501C24.1121 105.501 16.5664 113.159 16.5664 122.606C16.5664 132.053 24.1121 139.711 33.4201 139.711Z" fill="white"/>
<path d="M33.42 140.766C23.5502 140.766 15.5273 132.623 15.5273 122.606C15.5273 112.589 23.5502 104.447 33.42 104.447C43.2898 104.447 51.3126 112.589 51.3126 122.606C51.3126 132.623 43.2898 140.766 33.42 140.766ZM33.42 106.555C24.7045 106.555 17.6052 113.761 17.6052 122.606C17.6052 131.452 24.7045 138.657 33.42 138.657C42.1354 138.657 49.2347 131.452 49.2347 122.606C49.177 113.761 42.1354 106.555 33.42 106.555Z" fill="#510066"/>
<path d="M21.5299 111.535C21.2413 111.535 21.0105 111.418 20.7796 111.242C20.3756 110.832 20.3756 110.129 20.7796 109.719L82.5957 47.3905C82.9997 46.9805 83.6923 46.9805 84.0964 47.3905C84.5004 47.8006 84.5004 48.5036 84.0964 48.9136L22.2803 111.183C22.0494 111.418 21.8185 111.535 21.5299 111.535Z" fill="#510066"/>
<path d="M121.901 57.8762C121.613 57.8762 121.382 57.759 121.151 57.5833C120.747 57.1732 120.747 56.4703 121.151 56.0602L145.104 31.6913L150.241 5.50641L123.113 9.54837L99.6797 33.1558C99.2756 33.5658 98.583 33.5658 98.179 33.1558C97.775 32.7457 97.775 32.0428 98.179 31.6327L121.843 7.791C122.017 7.61526 122.19 7.4981 122.421 7.4981L151.395 3.16324C151.741 3.10466 152.088 3.22182 152.319 3.45614C152.549 3.69046 152.665 4.04193 152.607 4.39341L147.124 32.3357C147.066 32.57 147.009 32.7457 146.835 32.8629L122.651 57.4661C122.478 57.759 122.19 57.8762 121.901 57.8762Z" fill="#510066"/>
<path d="M45.4821 135.611C45.1935 135.611 44.9626 135.494 44.7317 135.318C44.3277 134.908 44.3277 134.205 44.7317 133.795L105.567 71.9352C105.971 71.5252 106.663 71.5252 107.067 71.9352C107.471 72.3453 107.471 73.0482 107.067 73.4583L46.2324 135.318C46.0015 135.494 45.7707 135.611 45.4821 135.611Z" fill="#510066"/>
<path d="M148.509 15.2891C148.509 15.2891 141.583 15.3477 139.62 6.03361L151.626 4.21765L149.432 15.2305L148.509 15.2891Z" fill="#520066"/>
<path d="M149.432 16.4021H148.509C148.336 16.4021 146.431 16.3436 144.295 15.1134C142.275 13.9418 139.678 11.4815 138.581 6.32653C138.523 6.03364 138.581 5.74074 138.754 5.50642C138.928 5.27211 139.158 5.09637 139.447 5.03779L151.452 3.22184C151.799 3.16326 152.145 3.28042 152.376 3.51473C152.607 3.74905 152.722 4.10052 152.664 4.452L150.471 15.4649C150.356 16.0507 149.952 16.4021 149.432 16.4021ZM148.509 14.2347H148.566L150.298 5.565L140.89 6.9709C142.91 14.1761 148.393 14.2347 148.509 14.2347Z" fill="#510066"/>
<path d="M133.676 34.2102C133.157 34.2102 132.753 33.8587 132.637 33.3315L130.733 23.9589L121.786 22.4358C121.267 22.3186 120.863 21.85 120.921 21.3228L121.613 8.49396C121.671 7.90817 122.133 7.43954 122.71 7.49812C123.287 7.5567 123.749 8.02533 123.691 8.61112L123.056 20.5027L131.772 21.9672C132.176 22.0257 132.522 22.3772 132.637 22.7873L134.542 31.9842L146.086 31.1641C146.663 31.1055 147.182 31.5742 147.24 32.1599C147.298 32.7457 146.836 33.2729 146.259 33.3315L133.792 34.2102C133.734 34.2102 133.676 34.2102 133.676 34.2102Z" fill="#510066"/>
<path d="M49.985 118.623C49.6964 118.623 49.4655 118.506 49.2347 118.33C48.8306 117.92 48.8306 117.217 49.2347 116.807L102.335 63.2654C102.739 62.8554 103.432 62.8554 103.836 63.2654C104.24 63.6755 104.24 64.3784 103.836 64.7885L50.7353 118.33C50.5045 118.506 50.2159 118.623 49.985 118.623Z" fill="#510066"/>
<path d="M117.687 50.3194C117.399 50.3194 117.168 50.2023 116.937 50.0265C116.533 49.6165 116.533 48.9135 116.937 48.5035L132.925 32.3942C133.329 31.9842 134.021 31.9842 134.425 32.3942C134.829 32.8043 134.829 33.5072 134.425 33.9173L118.437 50.0265C118.207 50.2023 117.976 50.3194 117.687 50.3194Z" fill="#510066"/>
<path d="M38.441 106.848C38.1525 106.848 37.9216 106.731 37.6907 106.555C37.2867 106.145 37.2867 105.442 37.6907 105.032L91.0222 51.1396C91.4263 50.7295 92.1189 50.7295 92.5229 51.1396C92.9269 51.5496 92.9269 52.2526 92.5229 52.6626L39.1914 106.555C38.9605 106.731 38.7296 106.848 38.441 106.848Z" fill="#510066"/>
<path d="M106.317 38.2521C106.028 38.2521 105.798 38.135 105.567 37.9592C105.163 37.5492 105.163 36.8462 105.567 36.4362L121.151 20.6784C121.555 20.2683 122.247 20.2683 122.651 20.6784C123.055 21.0884 123.055 21.7914 122.651 22.2014L107.067 37.9592C106.836 38.135 106.606 38.2521 106.317 38.2521Z" fill="#510066"/>
<path d="M32.9576 130.866C37.4522 130.866 41.0958 127.168 41.0958 122.606C41.0958 118.044 37.4522 114.346 32.9576 114.346C28.463 114.346 24.8193 118.044 24.8193 122.606C24.8193 127.168 28.463 130.866 32.9576 130.866Z" fill="#510066"/>
<path d="M145.162 60.1023L147.24 57.2905L150.01 55.1816L147.24 53.0142L145.162 50.2024L143.084 53.0142L140.313 55.1816L143.084 57.2905L145.162 60.1023Z" fill="#F6DF4A"/>
<path d="M145.162 61.1567C144.815 61.1567 144.527 60.9809 144.296 60.7466L142.276 58.052L139.621 56.0017C139.332 55.826 139.217 55.4745 139.217 55.123C139.217 54.7715 139.39 54.4786 139.621 54.2443L142.276 52.194L144.296 49.4994C144.469 49.2065 144.815 49.0894 145.162 49.0894C145.508 49.0894 145.797 49.2651 146.028 49.4994L148.048 52.194L150.703 54.2443C150.991 54.4201 151.107 54.7715 151.107 55.123C151.107 55.4745 150.934 55.7674 150.703 56.0017L148.048 58.052L146.028 60.7466C145.797 60.9809 145.508 61.1567 145.162 61.1567ZM142.045 55.1816L143.719 56.4703C143.777 56.5289 143.892 56.5875 143.95 56.7046L145.219 58.4034L146.489 56.7046C146.547 56.6461 146.605 56.5289 146.72 56.4703L148.394 55.1816L146.605 53.8928C146.547 53.8343 146.432 53.7757 146.374 53.6585L145.104 51.9597L143.834 53.6585C143.777 53.7171 143.719 53.8343 143.603 53.8928L142.045 55.1816Z" fill="#510066"/>
<path d="M96.2741 17.0466L98.352 14.2348L101.122 12.126L98.352 9.95853L96.2741 7.14673L94.1963 9.95853L91.4258 12.126L94.1963 14.2348L96.2741 17.0466Z" fill="#FF6030"/>
<path d="M96.2741 18.101C95.9278 18.101 95.6392 17.9253 95.4083 17.6909L93.3882 14.9963L90.7331 12.946C90.4445 12.7703 90.3291 12.4188 90.3291 12.0673C90.3291 11.7159 90.5023 11.423 90.7331 11.1887L93.3882 9.13839L95.4083 6.44375C95.5815 6.15085 95.9278 6.03369 96.2741 6.03369C96.6204 6.03369 96.909 6.20943 97.1398 6.44375L99.16 9.13839L101.815 11.1887C102.104 11.3644 102.219 11.7159 102.219 12.0673C102.219 12.4188 102.046 12.7117 101.815 12.946L99.16 14.9963L97.1398 17.6909C96.909 17.9253 96.6204 18.101 96.2741 18.101ZM93.1573 12.1259L94.8311 13.4147C94.8888 13.4732 95.0043 13.5318 95.062 13.649L96.3318 15.3478L97.6016 13.649C97.6593 13.5904 97.717 13.4732 97.8325 13.4147L99.5063 12.1259L97.8325 10.8372C97.7747 10.7786 97.6593 10.72 97.6016 10.6029L96.3318 8.90407L95.062 10.6029C95.0043 10.6614 94.9466 10.7786 94.8311 10.8372L93.1573 12.1259Z" fill="#510066"/>
<path d="M217.713 140.883L238.665 141V33.5073L217.713 140.883Z" fill="#510066"/>
<path d="M160.803 33.5073C160.803 80.2535 151.279 126.062 140.14 139.77C154.223 139.77 201.321 139.77 218.694 139.77C232.027 126.414 238.607 65.0229 238.607 33.5073C238.664 33.5073 176.906 33.5073 160.803 33.5073Z" fill="white"/>
<path d="M218.752 140.824H140.14C139.735 140.824 139.331 140.59 139.158 140.239C138.985 139.887 139.043 139.418 139.274 139.126C144.584 132.623 149.778 117.92 153.53 98.8231C157.455 78.9061 159.648 55.7088 159.648 33.5073C159.648 32.9215 160.11 32.4529 160.687 32.4529H238.549C239.126 32.4529 239.588 32.9215 239.588 33.5073C239.588 62.7969 233.47 126.414 219.386 140.531C219.271 140.766 218.982 140.824 218.752 140.824ZM142.275 138.715H218.29C230.988 125.184 237.452 65.4915 237.568 34.6203H161.842C161.726 78.086 153.242 122.665 142.275 138.715Z" fill="#510066"/>
<path d="M222.446 51.3739H202.822C202.245 51.3739 201.783 50.9052 201.783 50.3194C201.783 49.7336 202.245 49.265 202.822 49.265H222.446C223.023 49.265 223.485 49.7336 223.485 50.3194C223.543 50.9052 223.023 51.3739 222.446 51.3739Z" fill="#510066"/>
<path d="M222.446 66.1944H202.822C202.245 66.1944 201.783 65.7258 201.783 65.14C201.783 64.5542 202.245 64.0856 202.822 64.0856H222.446C223.023 64.0856 223.485 64.5542 223.485 65.14C223.485 65.7258 223.023 66.1944 222.446 66.1944Z" fill="#510066"/>
<path d="M220.137 81.015H170.557C169.98 81.015 169.519 80.5463 169.519 79.9606C169.519 79.3748 169.98 78.9061 170.557 78.9061H220.137C220.715 78.9061 221.176 79.3748 221.176 79.9606C221.176 80.5463 220.715 81.015 220.137 81.015Z" fill="#510066"/>
<path d="M218.291 95.8355H168.711C168.134 95.8355 167.672 95.3669 167.672 94.7811C167.672 94.1953 168.134 93.7267 168.711 93.7267H218.291C218.868 93.7267 219.33 94.1953 219.33 94.7811C219.33 95.3669 218.926 95.8355 218.291 95.8355Z" fill="#510066"/>
<path d="M215.463 110.656H165.883C165.305 110.656 164.844 110.187 164.844 109.602C164.844 109.016 165.305 108.547 165.883 108.547H215.463C216.04 108.547 216.501 109.016 216.501 109.602C216.501 110.187 216.04 110.656 215.463 110.656Z" fill="#510066"/>
<path d="M211.133 125.477H189.027C188.45 125.477 187.988 125.008 187.988 124.422C187.988 123.836 188.45 123.368 189.027 123.368H211.133C211.71 123.368 212.172 123.836 212.172 124.422C212.172 125.008 211.71 125.477 211.133 125.477Z" fill="#510066"/>
<path d="M164.324 34.6203C164.266 34.6203 164.266 34.6203 164.324 34.6203C163.689 34.6203 163.227 34.0931 163.285 33.5073C163.285 33.3901 163.458 30.1097 164.67 26.7707C166.402 22.1429 169.403 19.6826 173.386 19.6826C177.657 19.6826 180.774 22.1429 182.448 26.8293C183.66 30.1683 183.66 33.4487 183.66 33.6245C183.66 34.2102 183.198 34.6789 182.621 34.6789C182.044 34.6789 181.582 34.2102 181.582 33.6245C181.582 33.5659 181.582 30.5198 180.485 27.5322C179.1 23.7832 176.733 21.85 173.444 21.85C166.056 21.85 165.478 33.5659 165.478 33.683C165.305 34.1517 164.844 34.6203 164.324 34.6203Z" fill="#510066"/>
<path d="M177.368 34.6203C177.31 34.6203 177.31 34.6203 177.368 34.6203C176.733 34.6203 176.271 34.0931 176.329 33.5073C176.329 33.3901 176.502 30.1097 177.714 26.7707C179.446 22.1429 182.447 19.6826 186.43 19.6826C190.701 19.6826 193.818 22.1429 195.492 26.8293C196.704 30.1683 196.704 33.4487 196.704 33.6245C196.704 34.2102 196.242 34.6789 195.665 34.6789C195.087 34.6789 194.626 34.2102 194.626 33.6245C194.626 33.5659 194.626 30.5198 193.529 27.5322C192.144 23.7832 189.777 21.85 186.487 21.85C179.1 21.85 178.522 33.5659 178.522 33.683C178.349 34.1517 177.887 34.6203 177.368 34.6203Z" fill="#510066"/>
<path d="M190.355 34.6203C189.72 34.6203 189.259 34.0931 189.316 33.5073C189.316 33.3901 189.49 30.1097 190.702 26.7707C192.433 22.1429 195.435 19.6826 199.417 19.6826C203.688 19.6826 206.805 22.1429 208.479 26.8293C209.691 30.1683 209.691 33.4487 209.691 33.6245C209.691 34.2102 209.229 34.6789 208.652 34.6789C208.075 34.6789 207.613 34.2102 207.613 33.6245C207.613 33.5659 207.613 30.5198 206.516 27.5322C205.131 23.7832 202.765 21.85 199.475 21.85C192.087 21.85 191.51 33.5659 191.51 33.683C191.394 34.1517 190.932 34.6203 190.355 34.6203Z" fill="#510066"/>
<path d="M203.399 34.6203C202.764 34.6203 202.303 34.0931 202.36 33.5073C202.36 33.3901 202.533 30.1097 203.746 26.7707C205.477 22.1429 208.478 19.6826 212.461 19.6826C216.732 19.6826 219.849 22.1429 221.523 26.8293C222.735 30.1683 222.735 33.4487 222.735 33.6245C222.735 34.2102 222.273 34.6789 221.696 34.6789C221.119 34.6789 220.657 34.2102 220.657 33.6245C220.657 33.5659 220.657 30.5198 219.56 27.5322C218.175 23.7832 215.809 21.85 212.519 21.85C205.131 21.85 204.554 33.5659 204.554 33.683C204.438 34.1517 203.976 34.6203 203.399 34.6203Z" fill="#510066"/>
<path d="M216.443 34.6203C215.808 34.6203 215.347 34.0931 215.404 33.5073C215.404 33.3901 215.577 30.1097 216.79 26.7707C218.521 22.1429 221.522 19.6826 225.505 19.6826C229.776 19.6826 232.893 22.1429 234.567 26.8293C235.779 30.1683 235.779 33.4487 235.779 33.6245C235.779 34.2102 235.317 34.6789 234.74 34.6789C234.163 34.6789 233.701 34.2102 233.701 33.6245C233.701 33.5659 233.701 30.5198 232.604 27.5322C231.219 23.7832 228.853 21.85 225.563 21.85C218.117 21.85 217.598 33.5659 217.598 33.683C217.482 34.1517 217.02 34.6203 216.443 34.6203Z" fill="#510066"/>
<path d="M219.099 32.3943V41.8255L232.316 32.3943H250.324C254.018 32.3943 257.019 29.3482 257.019 25.5991V7.79103C257.019 4.04197 254.018 0.99585 250.324 0.99585H219.099C215.405 0.99585 212.403 4.04197 212.403 7.79103V25.5991C212.403 29.3482 215.405 32.3943 219.099 32.3943Z" fill="#F6DF4A"/>
<path d="M219.098 42.8214C218.925 42.8214 218.81 42.7628 218.637 42.7042C218.29 42.5285 218.117 42.177 218.117 41.8255V33.273C214.366 32.8043 211.422 29.5239 211.422 25.5405V7.79103C211.422 3.51475 214.885 0 219.098 0H250.324C254.537 0 258 3.51475 258 7.79103V25.5991C258 29.8754 254.537 33.3901 250.324 33.3901H232.604L219.618 42.6456C219.502 42.7628 219.272 42.8214 219.098 42.8214ZM219.098 1.93311C215.924 1.93311 213.327 4.56917 213.327 7.79103V25.5991C213.327 28.8209 215.924 31.457 219.098 31.457C219.329 31.457 219.618 31.5742 219.791 31.7499C219.964 31.9256 220.08 32.16 220.08 32.4528V40.0096L231.739 31.6327C231.912 31.5156 232.085 31.457 232.316 31.457H250.324C253.498 31.457 256.096 28.8209 256.096 25.5991V7.79103C256.096 4.56917 253.498 1.93311 250.324 1.93311H219.098Z" fill="#510066"/>
<path d="M246.688 17.5151H222.793C222.273 17.5151 221.812 17.1051 221.812 16.5193C221.812 15.9921 222.216 15.5234 222.793 15.5234H246.688C247.208 15.5234 247.669 15.9335 247.669 16.5193C247.612 17.0465 247.208 17.5151 246.688 17.5151Z" fill="#510066"/>
<path d="M246.688 10.4857H222.793C222.273 10.4857 221.812 10.0757 221.812 9.48986C221.812 8.96265 222.216 8.49402 222.793 8.49402H246.688C247.208 8.49402 247.669 8.90407 247.669 9.48986C247.612 10.0757 247.208 10.4857 246.688 10.4857Z" fill="#510066"/>
<path d="M246.688 24.4861H222.793C222.273 24.4861 221.812 24.076 221.812 23.4902C221.812 22.963 222.216 22.4944 222.793 22.4944H246.688C247.208 22.4944 247.669 22.9044 247.669 23.4902C247.612 24.076 247.208 24.4861 246.688 24.4861Z" fill="#510066"/>
<path d="M183.371 70.0021C189.97 70.0021 195.319 64.5732 195.319 57.8763C195.319 51.1793 189.97 45.7504 183.371 45.7504C176.773 45.7504 171.424 51.1793 171.424 57.8763C171.424 64.5732 176.773 70.0021 183.371 70.0021Z" fill="#ECEDDA"/>
<path d="M183.371 70.998C176.214 70.998 170.442 65.0815 170.442 57.8762C170.442 50.6124 176.272 44.7545 183.371 44.7545C190.528 44.7545 196.3 50.671 196.3 57.8762C196.358 65.1401 190.528 70.998 183.371 70.998ZM183.371 46.6876C177.311 46.6876 172.347 51.7254 172.347 57.8762C172.347 64.0271 177.311 69.0649 183.371 69.0649C189.432 69.0649 194.395 64.0271 194.395 57.8762C194.395 51.7254 189.489 46.6876 183.371 46.6876Z" fill="#510066"/>
<path d="M185.16 63.1484H189.027C189.027 63.1484 189.027 62.1526 189.027 61.2153C189.027 59.3408 187.815 57.642 185.218 57.642H181.639C179.042 57.642 177.83 59.3408 177.83 61.2153C177.83 62.1526 177.83 63.1484 177.83 63.1484H181.697H185.16Z" fill="#FF6030"/>
<path d="M188.97 64.1443H177.772C177.253 64.1443 176.791 63.7342 176.791 63.1484V61.2153C176.791 59.0479 178.292 56.6461 181.582 56.6461H185.16C188.45 56.6461 189.951 58.9893 189.951 61.2153V63.1484C189.951 63.7342 189.547 64.1443 188.97 64.1443ZM178.753 62.2111H188.046V61.2739C188.046 60.0437 187.296 58.6964 185.218 58.6964H181.639C179.561 58.6964 178.811 60.0437 178.811 61.2739V62.2111H178.753Z" fill="#510066"/>
<path d="M183.372 57.6419C185.125 57.6419 186.546 56.1995 186.546 54.4201C186.546 52.6407 185.125 51.1982 183.372 51.1982C181.619 51.1982 180.197 52.6407 180.197 54.4201C180.197 56.1995 181.619 57.6419 183.372 57.6419Z" fill="white"/>
<path d="M183.372 58.6378C181.063 58.6378 179.216 56.7633 179.216 54.4201C179.216 52.0769 181.063 50.2024 183.372 50.2024C185.68 50.2024 187.527 52.0769 187.527 54.4201C187.585 56.7633 185.68 58.6378 183.372 58.6378ZM183.372 52.1355C182.159 52.1355 181.121 53.1314 181.121 54.4201C181.121 55.6503 182.102 56.7047 183.372 56.7047C184.584 56.7047 185.623 55.7088 185.623 54.4201C185.623 53.1899 184.641 52.1355 183.372 52.1355Z" fill="#510066"/>
<path d="M74.9764 133.033C67.1268 133.033 59.5657 131.334 52.4664 127.937C52.1778 127.761 51.9469 127.468 51.8892 127.175C51.8315 126.824 51.9469 126.472 52.1778 126.238L67.5885 110.597C67.8194 110.363 68.2234 110.246 68.5697 110.305C70.6476 110.773 72.8409 111.007 74.9764 111.007C92.061 111.007 105.913 96.8899 105.913 79.6091C105.913 62.3282 92.0033 48.2106 74.9764 48.2106C57.9496 48.2106 44.0395 62.3282 44.0395 79.6091C44.0395 82.3037 44.3858 84.9983 45.0785 87.6344C45.1939 87.9859 45.0785 88.3959 44.7899 88.6888L29.4369 103.978C29.206 104.212 28.8597 104.329 28.5134 104.271C28.1671 104.212 27.8785 103.978 27.763 103.685C23.8959 96.0698 21.9912 87.8101 21.9912 79.199C21.9912 64.8471 27.5322 51.3153 37.5174 41.1811C47.5026 31.0469 60.8355 25.4233 74.9764 25.4233C89.1174 25.4233 102.45 31.0469 112.436 41.1811C122.421 51.3153 127.962 64.8471 127.962 79.199C127.962 93.5509 122.421 107.083 112.436 117.217C102.45 127.41 89.1174 133.033 74.9764 133.033ZM54.7751 126.648C61.1818 129.46 67.9348 130.866 74.9764 130.866C103.027 130.866 125.884 107.668 125.884 79.199C125.884 50.7295 103.027 27.5322 74.9764 27.5322C46.9254 27.5322 24.0691 50.7295 24.0691 79.199C24.0691 86.99 25.7429 94.4296 28.9751 101.401L42.8275 87.4587C42.1926 84.8812 41.904 82.1865 41.904 79.4919C41.904 60.9809 56.7375 45.926 74.9764 45.926C93.2154 45.926 108.049 60.9809 108.049 79.4919C108.049 98.0029 93.2154 113.058 74.9764 113.058C72.8409 113.058 70.763 112.882 68.6852 112.472L54.7751 126.648Z" fill="#510066"/>
<path d="M94.7741 140.766H55.7567C55.1795 140.766 54.7178 140.297 54.7178 139.711C54.7178 139.125 55.1795 138.657 55.7567 138.657H94.7741C95.3513 138.657 95.8131 139.125 95.8131 139.711C95.8131 140.297 95.3513 140.766 94.7741 140.766Z" fill="#510066"/>
<path d="M44.9638 46.3361V53.4828L35.0363 46.3361H23.2618C20.4913 46.3361 18.1826 44.0515 18.1826 41.1811V32.0428C18.1826 29.231 20.4336 26.8878 23.2618 26.8878H44.9638C47.7343 26.8878 50.043 29.1724 50.043 32.0428V41.2397C50.043 44.0515 47.7343 46.3361 44.9638 46.3361Z" fill="#ECEDDA"/>
<path d="M44.9635 54.4786C44.7903 54.4786 44.5595 54.42 44.3863 54.3029L34.6897 47.3319H23.2615C19.9138 47.3319 17.2588 44.5787 17.2588 41.2397V32.0428C17.2588 28.6452 19.9715 25.9506 23.2615 25.9506H44.9635C48.3111 25.9506 50.9662 28.7038 50.9662 32.0428V41.2397C50.9662 44.2858 48.7729 46.8047 45.887 47.2734V53.4828C45.887 53.8342 45.7138 54.1857 45.3675 54.3614C45.3098 54.42 45.1366 54.4786 44.9635 54.4786ZM23.2615 27.8837C21.0105 27.8837 19.1635 29.7582 19.1635 32.0428V41.2397C19.1635 43.5243 21.0105 45.3988 23.2615 45.3988H35.036C35.2091 45.3988 35.44 45.4574 35.6132 45.5746L44.04 51.6082V46.3947C44.04 46.1604 44.1554 45.8675 44.3286 45.6917C44.5017 45.516 44.7326 45.3988 45.0212 45.3988C47.2722 45.3988 49.1192 43.5243 49.1192 41.2397V32.0428C49.1192 29.7582 47.2722 27.8837 45.0212 27.8837H23.2615Z" fill="#510066"/>
<path d="M42.1931 35.3232H26.032C25.5125 35.3232 25.0508 34.9132 25.0508 34.3274C25.0508 33.8002 25.4548 33.3315 26.032 33.3315H42.2508C42.7702 33.3315 43.232 33.7416 43.232 34.3274C43.1743 34.9132 42.7125 35.3232 42.1931 35.3232Z" fill="#510066"/>
<path d="M42.1931 40.6539H26.032C25.5125 40.6539 25.0508 40.2439 25.0508 39.6581C25.0508 39.1309 25.4548 38.6622 26.032 38.6622H42.2508C42.7702 38.6622 43.232 39.0723 43.232 39.6581C43.1743 40.1853 42.7125 40.6539 42.1931 40.6539Z" fill="#510066"/>
<path d="M81.4404 48.1521C81.4404 48.1521 100.372 57.6419 96.3317 82.8309C99.6793 79.4334 106.663 72.0524 106.663 72.0524C106.663 72.0524 101.93 52.0769 81.4404 48.1521Z" fill="#510066"/>
</g>
<defs>
<clipPath id="clip0">
<rect width="258" height="141" fill="white"/>
</clipPath>
</defs>
</svg>
