<svg width="429" height="271" viewBox="0 0 429 271" fill="none" xmlns="http://www.w3.org/2000/svg">
<g clip-path="url(#clip0_637:1110)">
<path d="M153.609 246.313V266.007C153.609 268.781 151.395 271 148.628 271H16.7446C13.9769 271 11.7627 268.781 11.7627 266.007V123.018C11.7627 120.244 13.9769 118.025 16.7446 118.025H105.036" fill="#510066"/>
<path d="M164.819 236.05V255.744C164.819 258.518 162.605 260.737 159.838 260.737H27.9546C25.1869 260.737 22.9727 258.518 22.9727 255.744V112.755C22.9727 109.981 25.1869 107.762 27.9546 107.762H116.246" fill="white"/>
<path d="M159.837 262.54H27.9541C24.2177 262.54 21.3115 259.489 21.3115 255.883V112.755C21.3115 109.01 24.356 106.098 27.9541 106.098H116.245C117.214 106.098 117.906 106.791 117.906 107.762C117.906 108.733 117.214 109.426 116.245 109.426H27.9541C26.1551 109.426 24.6328 110.952 24.6328 112.755V255.744C24.6328 257.547 26.1551 259.073 27.9541 259.073H159.837C161.636 259.073 163.158 257.547 163.158 255.744V236.05C163.158 235.079 163.85 234.386 164.819 234.386C165.788 234.386 166.48 235.079 166.48 236.05V255.744C166.48 259.489 163.573 262.54 159.837 262.54Z" fill="#510066"/>
<path d="M125.379 142.851H22.9727V113.864C22.9727 110.536 25.7404 107.762 29.0617 107.762H116.246L125.379 142.851Z" fill="#ECEDDA"/>
<path d="M41.1459 128.715L49.8643 128.715L49.8643 119.977L41.1459 119.977L41.1459 128.715Z" fill="#FF6030"/>
<path d="M49.8195 130.368H41.1011C40.1324 130.368 39.4404 129.675 39.4404 128.704V119.967C39.4404 118.996 40.1324 118.302 41.1011 118.302H49.8195C50.7882 118.302 51.4801 118.996 51.4801 119.967V128.704C51.4801 129.536 50.7882 130.368 49.8195 130.368ZM42.7617 127.04H48.1588V121.631H42.7617V127.04Z" fill="#510066"/>
<path d="M57.4935 128.715L66.2119 128.715L66.2119 119.977L57.4935 119.977L57.4935 128.715Z" fill="#F6DF4A"/>
<path d="M66.2872 130.368H57.5688C56.6001 130.368 55.9082 129.675 55.9082 128.704V119.967C55.9082 118.996 56.6001 118.302 57.5688 118.302H66.2872C67.2559 118.302 67.9479 118.996 67.9479 119.967V128.704C67.9479 129.536 67.1176 130.368 66.2872 130.368ZM59.2295 127.04H64.6266V121.631H59.2295V127.04Z" fill="#510066"/>
<path d="M82.7555 119.967H74.0371V128.704H82.7555V119.967Z" fill="#ECEDDA"/>
<path d="M82.6173 130.368H73.8989C72.9302 130.368 72.2383 129.675 72.2383 128.704V119.967C72.2383 118.996 72.9302 118.302 73.8989 118.302H82.6173C83.586 118.302 84.278 118.996 84.278 119.967V128.704C84.278 129.536 83.586 130.368 82.6173 130.368ZM75.698 127.04H81.0951V121.631H75.698V127.04Z" fill="#510066"/>
<path d="M280.372 83.0753H402.429C404.92 83.0753 406.996 85.1556 406.996 87.652V228.838C406.996 231.335 404.92 233.415 402.429 233.415H253.11C250.619 233.415 248.543 231.335 248.543 228.838V220.378" fill="#510066"/>
<path d="M269.716 72.6735H391.773C394.264 72.6735 396.34 74.7539 396.34 77.2503V218.298C396.34 220.794 394.264 222.875 391.773 222.875H242.453C239.963 222.875 237.887 220.794 237.887 218.298V206.093" fill="white"/>
<path d="M391.774 224.678H242.454C238.994 224.678 236.227 221.904 236.227 218.437V206.232C236.227 205.261 236.918 204.568 237.887 204.568C238.856 204.568 239.548 205.261 239.548 206.232V218.437C239.548 220.101 240.932 221.349 242.454 221.349H391.774C393.434 221.349 394.68 219.962 394.68 218.437V77.2503C394.68 75.586 393.296 74.3378 391.774 74.3378H269.716C268.748 74.3378 268.056 73.6443 268.056 72.6735C268.056 71.7027 268.748 71.0092 269.716 71.0092H391.774C395.233 71.0092 398.001 73.783 398.001 77.2503V218.298C398.139 221.765 395.233 224.678 391.774 224.678Z" fill="#510066"/>
<path d="M273.038 104.711H391.359C394.126 104.711 396.341 102.492 396.341 99.7181V77.6664C396.341 74.8926 394.126 72.6735 391.359 72.6735H273.038C270.27 72.6735 268.056 74.8926 268.056 77.6664V99.7181C268.056 102.492 270.27 104.711 273.038 104.711Z" fill="#FF6030"/>
<path d="M352.887 94.8639H345.552C344.584 94.8639 343.892 94.1704 343.892 93.1996C343.892 92.2288 344.584 91.5353 345.552 91.5353H352.887C353.855 91.5353 354.547 92.2288 354.547 93.1996C354.547 94.1704 353.717 94.8639 352.887 94.8639Z" fill="#510066"/>
<path d="M368.941 84.6009H360.223V93.3384H368.941V84.6009Z" fill="white"/>
<path d="M368.802 94.8639H360.084C359.115 94.8639 358.423 94.1705 358.423 93.1996V84.6009C358.423 83.63 359.115 82.9366 360.084 82.9366H368.802C369.771 82.9366 370.463 83.63 370.463 84.6009V93.3383C370.463 94.1705 369.771 94.8639 368.802 94.8639ZM361.883 91.5354H367.28V86.1265H361.883V91.5354Z" fill="#510066"/>
<path d="M384.301 94.5865C383.886 94.5865 383.471 94.4478 383.194 94.0317L374.891 85.7103C374.199 85.0169 374.199 84.0461 374.891 83.3526C375.583 82.6592 376.552 82.6592 377.244 83.3526L385.547 91.674C386.239 92.3674 386.239 93.3383 385.547 94.0317C385.132 94.4478 384.717 94.5865 384.301 94.5865Z" fill="#510066"/>
<path d="M375.998 94.5865C375.583 94.5865 375.168 94.4478 374.891 94.0317C374.199 93.3383 374.199 92.3674 374.891 91.674L383.194 83.3526C383.886 82.6592 384.855 82.6592 385.547 83.3526C386.239 84.0461 386.239 85.0169 385.547 85.7103L377.244 94.0317C376.967 94.4478 376.413 94.5865 375.998 94.5865Z" fill="#510066"/>
<path d="M395.787 106.375H278.711C277.743 106.375 277.051 105.682 277.051 104.711C277.051 103.74 277.743 103.047 278.711 103.047H395.787C396.756 103.047 397.448 103.74 397.448 104.711C397.448 105.682 396.617 106.375 395.787 106.375Z" fill="#510066"/>
<path d="M231.936 46.1838C231.383 46.1838 230.968 45.9064 230.553 45.4903L227.37 41.1909L223.08 38.0011C222.664 37.7237 222.388 37.1689 222.388 36.6142C222.388 36.0594 222.664 35.6433 223.08 35.2273L227.37 32.0374L230.553 27.738C230.829 27.3219 231.383 27.0446 231.936 27.0446C232.49 27.0446 232.905 27.3219 233.32 27.738L236.503 32.0374L240.793 35.2273C241.208 35.5046 241.485 36.0594 241.485 36.6142C241.485 37.1689 241.208 37.585 240.793 38.0011L236.503 41.1909L233.32 45.4903C232.905 45.9064 232.352 46.1838 231.936 46.1838ZM226.816 36.7528L229.445 38.8332C229.584 38.9719 229.722 38.9719 229.722 39.1106L231.798 41.7457L233.874 39.1106C234.012 38.9719 234.012 38.8332 234.151 38.8332L236.78 36.7528L234.151 34.6725C234.012 34.5338 233.874 34.5338 233.874 34.3951L231.798 31.76L229.722 34.3951C229.584 34.5338 229.584 34.6725 229.445 34.6725L226.816 36.7528Z" fill="#510066"/>
<path d="M108.219 82.6592C107.665 82.6592 107.25 82.3818 106.835 81.9657L103.791 77.805L99.5005 74.6152C99.0854 74.3378 98.8086 73.783 98.8086 73.2283C98.8086 72.6735 99.0854 72.2575 99.5005 71.8414L103.791 68.6515L106.973 64.3521C107.25 63.9361 107.804 63.6587 108.357 63.6587C108.911 63.6587 109.326 63.9361 109.741 64.3521L112.924 68.6515L117.214 71.8414C117.629 72.1188 117.906 72.6735 117.906 73.2283C117.906 73.783 117.629 74.1991 117.214 74.6152L112.924 77.805L109.741 82.1044C109.326 82.5205 108.772 82.6592 108.219 82.6592ZM103.237 73.2283L105.866 75.3086C106.005 75.4473 106.143 75.4473 106.143 75.586L108.219 78.2211L110.295 75.586C110.433 75.4473 110.433 75.3086 110.571 75.3086L113.201 73.2283L110.571 71.1479C110.433 71.0092 110.295 71.0092 110.295 70.8706L108.219 68.2355L106.143 70.8706C106.005 71.0092 106.005 71.1479 105.866 71.1479L103.237 73.2283Z" fill="#510066"/>
<path d="M198.586 262.817C198.032 262.817 197.617 262.54 197.202 262.124L194.019 257.824L189.729 254.635C189.314 254.357 189.037 253.802 189.037 253.248C189.037 252.693 189.314 252.277 189.729 251.861L194.019 248.671L197.202 244.372C197.479 243.955 198.032 243.678 198.586 243.678C199.139 243.678 199.555 243.955 199.97 244.372L203.153 248.671L207.443 251.861C207.858 252.138 208.135 252.693 208.135 253.248C208.135 253.802 207.858 254.219 207.443 254.635L203.153 257.824L199.97 262.124C199.555 262.54 199.139 262.817 198.586 262.817ZM193.604 253.386L196.233 255.467C196.372 255.605 196.51 255.605 196.51 255.744L198.586 258.379L200.662 255.744C200.8 255.605 200.8 255.467 200.938 255.467L203.568 253.386L200.938 251.306C200.8 251.167 200.662 251.167 200.662 251.029L198.586 248.394L196.51 251.029C196.372 251.167 196.372 251.306 196.233 251.306L193.604 253.386Z" fill="#510066"/>
<path d="M196.925 49.7897C196.095 49.7897 195.264 49.0962 195.264 48.2641L193.742 19.9714C193.742 19.0005 194.434 18.3071 195.264 18.1684C196.233 18.1684 196.925 18.8618 197.063 19.694L198.586 47.9867C198.586 48.9575 197.894 49.7897 196.925 49.7897Z" fill="#510066"/>
<path d="M344.168 246.313H304.174C303.206 246.313 302.514 245.62 302.514 244.649C302.514 243.678 303.206 242.985 304.174 242.985H344.168C345.137 242.985 345.829 243.678 345.829 244.649C345.829 245.62 344.999 246.313 344.168 246.313Z" fill="#510066"/>
<path d="M80.8176 96.8055H40.8237C39.855 96.8055 39.1631 96.1121 39.1631 95.1413C39.1631 94.1704 39.855 93.477 40.8237 93.477H80.8176C81.7863 93.477 82.4782 94.1704 82.4782 95.1413C82.4782 96.1121 81.6479 96.8055 80.8176 96.8055Z" fill="#510066"/>
<path d="M163.297 44.3808L175.752 41.0522L168.141 1.66431L149.182 6.65714L163.297 44.3808Z" fill="#FF6030"/>
<path d="M163.297 46.0451C162.605 46.0451 161.913 45.629 161.775 44.9355L147.659 7.21189C147.521 6.79582 147.521 6.24106 147.798 5.96368C148.074 5.54761 148.351 5.27023 148.766 5.13154L167.725 1.3154e-05C168.141 -0.138677 168.694 1.31577e-05 168.971 0.138703C169.386 0.416083 169.663 0.832152 169.663 1.24822L177.274 40.6362C177.412 41.4683 176.859 42.3004 176.029 42.5778L163.574 45.9064C163.574 46.0451 163.435 46.0451 163.297 46.0451ZM151.257 7.76665L164.266 42.3004L173.676 39.804L166.618 3.60595L151.257 7.76665Z" fill="#510066"/>
<path d="M149.458 62.6878C148.905 62.6878 148.351 62.4104 148.074 61.8557L133.959 37.5849C133.544 36.7528 133.82 35.782 134.512 35.3659C135.343 34.9498 136.311 35.2272 136.726 35.9207L150.842 60.1914C151.257 61.0235 150.98 61.9944 150.288 62.4104C150.012 62.5491 149.735 62.6878 149.458 62.6878Z" fill="#510066"/>
<path d="M231.938 242.846C231.522 242.846 231.107 242.707 230.692 242.291L218.237 228.7C217.684 228.006 217.684 227.035 218.376 226.342C219.068 225.787 220.036 225.787 220.728 226.481L233.183 240.072C233.737 240.766 233.737 241.736 233.045 242.43C232.629 242.707 232.353 242.846 231.938 242.846Z" fill="#510066"/>
<path d="M174.921 71.9801C180.042 71.9801 184.193 67.8198 184.193 62.6879C184.193 57.5559 180.042 53.3956 174.921 53.3956C169.801 53.3956 165.649 57.5559 165.649 62.6879C165.649 67.8198 169.801 71.9801 174.921 71.9801Z" fill="#FF6030"/>
<path d="M174.921 73.6443C172.984 73.6443 171.185 73.0896 169.386 72.1188C166.895 70.5932 165.096 68.2354 164.404 65.4616C162.882 59.6367 166.341 53.673 172.153 52.1474C177.966 50.6218 183.916 54.0891 185.439 59.914C186.131 62.6878 185.715 65.6003 184.331 68.2354C182.809 70.7319 180.457 72.5348 177.689 73.2283C176.72 73.5056 175.752 73.6443 174.921 73.6443ZM174.921 55.1986C174.229 55.1986 173.676 55.3373 172.984 55.476C171.046 56.0307 169.386 57.2789 168.417 58.9432C167.448 60.7462 167.172 62.6878 167.587 64.6295C168.14 66.5712 169.386 68.2354 171.046 69.2063C172.845 70.1771 174.783 70.4545 176.72 70.0384C178.658 69.4836 180.318 68.2354 181.287 66.5712C182.256 64.7682 182.532 62.8265 182.117 60.8849C181.287 57.4176 178.242 55.1986 174.921 55.1986Z" fill="#510066"/>
<path d="M372.261 183.625C372.122 183.625 369.632 184.319 365.618 185.29C365.48 185.29 365.203 185.29 365.203 185.151L303.621 130.646C303.482 130.507 304.728 128.704 287.43 133.281C287.291 133.281 287.153 133.281 287.153 133.281C287.014 133.281 287.014 133.142 287.014 133.004C284.662 123.989 273.176 78.4985 272.207 75.4473C270.131 68.0968 265.011 64.6295 258.368 66.0164C254.909 66.7099 252.418 68.3741 250.757 71.1479C250.619 71.2866 250.48 71.4253 250.342 71.2866C250.203 71.2866 250.065 71.1479 250.065 71.0093C249.788 70.0384 249.65 69.345 249.512 68.7902C247.436 61.4396 241.485 57.8337 234.704 59.6367C232.075 60.3301 229.861 61.8557 228.062 64.2134C227.923 64.3521 227.785 64.3521 227.646 64.3521C227.508 64.3521 227.37 64.2134 227.37 64.0748C226.124 60.7462 223.91 57.9724 221.281 56.4468C218.651 54.9212 215.607 54.5052 212.424 55.476C204.812 57.695 203.013 64.6295 204.536 70.5932C204.674 71.1479 204.812 71.7027 204.951 72.2575C204.951 72.3961 204.951 72.5348 204.812 72.6735C204.674 72.8122 204.536 72.8122 204.397 72.8122C202.183 71.9801 199.831 71.9801 197.34 72.5348C194.433 73.2283 191.942 75.0313 190.559 77.5277C188.76 80.5789 188.344 84.7395 189.313 88.9002C189.313 89.0389 189.313 89.1776 189.175 89.3163C189.036 89.455 188.898 89.455 188.76 89.455C183.362 89.0389 180.18 91.3967 178.519 93.477C178.381 93.6157 178.242 93.6157 178.104 93.6157C177.965 93.6157 177.827 93.477 177.827 93.3383C176.582 89.8711 174.644 87.236 172.015 85.8491C169.385 84.3235 166.341 83.9074 163.158 84.7395C160.252 85.433 157.899 87.0973 156.377 89.3163C156.239 89.455 156.1 89.455 155.962 89.455C155.823 89.455 155.685 89.3163 155.685 89.1776C154.44 85.5717 152.364 82.7979 149.734 81.1336C147.105 79.608 144.061 79.192 140.878 80.0241C133.958 81.8271 131.329 88.0681 132.159 93.0609C132.436 94.4478 132.713 95.8347 132.851 96.9443C132.851 97.083 132.851 97.2216 132.713 97.3603C132.574 97.499 132.436 97.499 132.298 97.499C129.945 96.6669 127.177 96.6669 124.548 97.499C119.289 99.1633 114.307 103.879 116.383 112.061C118.044 118.441 126.209 150.756 129.668 164.348C129.668 164.486 129.668 164.764 129.53 164.764C129.392 164.902 129.115 164.902 128.976 164.764C126.624 162.545 124.825 161.019 123.579 160.048C116.522 154.223 108.91 153.946 103.098 159.632C100.745 161.851 99.4999 165.318 99.4999 168.924C99.4999 172.946 101.161 176.691 103.928 179.465C104.482 179.881 105.035 180.574 105.727 181.129C105.866 181.268 105.866 181.406 105.866 181.545C105.866 181.684 105.727 181.822 105.589 181.822C105.589 181.822 70.0234 192.779 70.0234 192.918L128.423 245.481C128.561 245.62 165.926 237.298 191.527 230.364C202.598 227.313 211.04 220.101 216.16 209.422C218.928 203.735 219.897 198.604 220.312 195.969C220.312 195.83 220.45 195.691 220.589 195.691C220.727 195.691 220.865 195.691 221.004 195.691C225.294 198.743 229.307 201.516 232.628 203.735C240.932 209.56 250.065 212.334 260.721 212.334C267.363 212.334 274.56 211.225 283.001 209.144C293.657 206.371 369.632 186.815 372.953 185.983C373.645 185.844 374.06 185.151 373.783 184.458C373.645 183.764 372.953 183.348 372.261 183.625Z" fill="#F6DF4A"/>
<path d="M119.428 249.503C118.736 249.503 118.044 248.948 117.768 248.255C117.491 247.423 118.044 246.452 119.013 246.175C119.428 246.036 165.096 234.525 190.836 227.451C201.077 224.678 208.826 218.159 213.531 208.174C217.129 200.684 217.683 193.75 217.683 193.75C217.821 192.779 218.513 192.086 219.482 192.224C220.451 192.363 221.143 193.056 221.004 194.027C221.004 194.305 220.451 201.378 216.576 209.56C211.456 220.378 202.737 227.729 191.666 230.78C165.926 237.853 120.259 249.364 119.705 249.503C119.705 249.364 119.567 249.503 119.428 249.503Z" fill="#510066"/>
<path d="M260.721 212.75C249.927 212.75 240.794 209.838 232.49 204.013C228.616 201.239 223.772 197.91 218.513 194.166C199.277 180.713 175.475 164.07 170.355 160.048C167.31 157.552 165.373 153.946 165.234 150.062C164.957 146.04 166.48 142.157 169.524 139.245C176.028 132.726 184.055 135.084 187.93 138.274C190.282 140.215 199.277 146.595 204.536 150.34C200.938 136.61 190.144 94.5865 188.76 89.1776C187.653 84.8782 188.068 80.5788 190.006 77.2503C191.528 74.6152 194.019 72.8122 197.063 72.1187C205.09 70.1771 210.348 75.3086 212.147 81.2723C213.808 86.8199 222.665 123.157 223.08 124.821C223.357 125.653 222.803 126.624 221.835 126.901C221.004 127.179 220.036 126.624 219.759 125.653C219.62 125.237 210.487 87.7907 208.826 82.2431C207.581 78.0824 203.983 73.9217 197.755 75.4473C195.541 76.0021 193.88 77.2503 192.773 79.0532C191.251 81.5496 190.974 84.8782 191.943 88.3455C193.604 94.8639 208.688 153.252 208.826 153.807C208.965 154.501 208.688 155.194 208.134 155.61C207.581 156.026 206.75 156.026 206.197 155.61C205.505 155.055 189.037 143.683 185.715 140.77C182.809 138.413 176.72 136.61 171.738 141.602C169.386 143.96 168.279 146.873 168.417 149.924C168.555 152.975 170.078 155.749 172.292 157.552C177.274 161.574 201.076 178.217 220.312 191.531C225.571 195.275 230.415 198.604 234.289 201.378C247.021 210.254 261.275 211.779 282.171 206.371C292.827 203.597 378.212 181.822 379.042 181.545C379.873 181.268 380.841 181.822 381.118 182.793C381.395 183.625 380.841 184.596 379.873 184.874C379.042 185.151 293.796 206.787 283.002 209.699C274.837 211.641 267.364 212.75 260.721 212.75Z" fill="#510066"/>
<path d="M357.592 208.867C356.9 208.867 356.208 208.312 355.932 207.619C355.655 206.787 356.208 205.816 357.177 205.538C385.823 198.188 426.509 187.786 426.924 187.786C427.754 187.509 428.723 188.064 429 189.034C429.277 189.866 428.723 190.837 427.755 191.115C427.339 191.253 386.654 201.655 358.007 208.867C357.869 208.867 357.731 208.867 357.592 208.867Z" fill="#510066"/>
<path d="M342.508 173.778C341.816 173.778 341.124 173.224 340.848 172.53C340.571 171.698 341.124 170.727 342.093 170.45L355.378 166.983C356.209 166.705 357.177 167.26 357.454 168.231C357.731 169.063 357.177 170.034 356.209 170.311L342.923 173.778C342.785 173.778 342.647 173.778 342.508 173.778Z" fill="#510066"/>
<path d="M77.2202 212.75C76.5282 212.75 75.8363 212.196 75.5595 211.502C75.2828 210.67 75.8363 209.699 76.805 209.422L90.0902 205.954C90.9205 205.677 91.8892 206.232 92.166 207.203C92.4427 208.035 91.8892 209.006 90.9205 209.283L77.6353 212.75C77.4969 212.75 77.3586 212.75 77.2202 212.75Z" fill="#510066"/>
<path d="M1.6606 191.253C0.968668 191.253 0.276732 190.699 -4.22373e-05 190.005C-0.276816 189.173 0.276732 188.202 1.24544 187.925C29.8916 180.574 79.1574 168.092 79.5725 167.953C80.4029 167.676 81.3716 168.231 81.6483 169.202C81.9251 170.034 81.3716 171.005 80.4029 171.282C79.8493 171.421 30.5835 184.041 2.07576 191.253C1.93738 191.253 1.79899 191.253 1.6606 191.253Z" fill="#510066"/>
<path d="M239.963 122.047C239.271 122.047 238.579 121.492 238.302 120.799C238.163 120.383 226.539 73.3669 224.878 66.9872C223.91 63.2426 221.972 60.3301 219.481 58.8045C217.544 57.695 215.33 57.4176 212.839 58.111C206.75 59.7753 205.781 65.1842 206.888 69.6223C207.718 72.9509 208.41 75.3086 208.41 75.3086C208.687 76.1407 208.134 77.1116 207.303 77.3889C206.473 77.6663 205.504 77.1116 205.227 76.2794C205.227 76.2794 204.535 73.9217 203.705 70.4544C202.183 64.3521 204.12 57.1402 212.008 54.9212C215.191 53.9503 218.374 54.3664 221.142 55.892C224.463 57.8337 227.093 61.5783 228.2 66.1551C229.722 72.5348 241.485 119.551 241.623 119.967C241.9 120.799 241.346 121.77 240.378 122.047C240.239 122.047 240.101 122.047 239.963 122.047Z" fill="#510066"/>
<path d="M260.03 117.47C259.338 117.47 258.646 116.916 258.369 116.222C258.231 115.806 247.99 74.8925 246.329 69.4836C244.669 63.6587 240.24 60.8849 235.12 62.2718C230.138 63.6587 228.616 68.5128 228.478 68.7902C228.201 69.6223 227.232 70.1771 226.402 69.8997C225.571 69.6223 225.018 68.6515 225.295 67.8194C225.433 67.542 227.509 61.0236 234.151 59.0819C241.071 57.1402 247.298 61.0236 249.374 68.5128C251.035 74.0604 260.999 113.726 261.414 115.39C261.69 116.222 261.137 117.193 260.168 117.47C260.307 117.47 260.168 117.47 260.03 117.47Z" fill="#510066"/>
<path d="M286.046 136.471C285.354 136.471 284.662 135.916 284.385 135.223C284.247 134.668 270.131 79.4693 269.163 76.1407C267.917 71.98 265.15 67.4033 258.645 68.6515C251.588 70.0384 251.726 76.6955 251.726 76.9729C251.726 77.9437 251.034 78.6372 250.065 78.6372C249.097 78.6372 248.405 77.9437 248.405 77.1116C248.266 73.783 250.065 66.9872 257.953 65.3229C264.873 63.936 270.131 67.542 272.346 75.0312C273.314 78.4985 287.015 131.894 287.568 134.252C287.845 135.084 287.291 136.055 286.323 136.332C286.323 136.471 286.184 136.471 286.046 136.471Z" fill="#510066"/>
<path d="M265.15 141.048C257.4 141.048 254.356 137.303 254.079 137.026C253.525 136.332 253.664 135.223 254.356 134.668C255.048 134.113 256.155 134.252 256.708 134.945C256.847 135.223 260.86 139.661 272.069 136.748C284.524 133.558 315.938 125.653 316.215 125.514C317.045 125.237 318.014 125.792 318.29 126.763C318.567 127.595 318.014 128.566 317.045 128.843C316.768 128.982 285.354 136.887 272.9 140.077C269.993 140.632 267.364 141.048 265.15 141.048Z" fill="#510066"/>
<path d="M168.14 145.347C167.448 145.347 166.756 144.792 166.479 144.099C166.341 143.683 154.993 99.302 153.056 91.3966C152.087 87.652 150.288 84.8782 147.936 83.4913C145.998 82.3818 143.784 82.1044 141.293 82.6592C135.481 84.1848 134.235 89.3163 134.789 92.3675C135.619 96.5282 136.173 99.718 136.173 99.718C136.311 100.55 135.757 101.521 134.927 101.66C133.958 101.798 133.128 101.244 132.99 100.411C132.99 100.411 132.298 97.2216 131.606 93.0609C130.637 87.9294 133.405 81.411 140.601 79.608C143.922 78.7759 147.105 79.1919 149.735 80.7175C152.917 82.6592 155.132 86.1264 156.377 90.7032C158.315 98.6085 169.662 142.851 169.801 143.405C170.077 144.237 169.524 145.208 168.555 145.486C168.417 145.347 168.278 145.347 168.14 145.347Z" fill="#510066"/>
<path d="M188.483 142.435C187.791 142.435 187.099 141.88 186.822 141.186C183.916 129.675 176.858 102.214 175.336 96.1121C174.367 92.3675 172.568 89.5937 170.216 88.2068C168.278 87.0973 166.064 86.8199 163.573 87.3746C158.453 88.6229 157.346 92.6449 157.069 94.3091C156.931 95.28 156.1 95.8347 155.131 95.696C154.163 95.5573 153.609 94.7252 153.748 93.7544C154.44 89.0389 157.899 85.433 162.743 84.1848C166.064 83.3526 169.247 83.7687 171.876 85.2943C175.059 87.236 177.273 90.7032 178.519 95.28C180.041 101.244 187.099 128.843 190.005 140.354C190.282 141.186 189.728 142.157 188.76 142.435C188.76 142.435 188.621 142.435 188.483 142.435Z" fill="#510066"/>
<path d="M190.836 90.8419C180.18 88.7615 177.412 97.0829 177.412 97.0829L188.345 140.077L207.165 154.084L190.836 90.8419Z" fill="#510066"/>
<path d="M207.165 155.887C206.75 155.887 206.473 155.749 206.196 155.61L187.376 141.464C187.099 141.186 186.822 140.909 186.822 140.493L175.89 97.499C175.751 97.2216 175.89 96.8055 175.89 96.5282C175.89 96.3895 179.211 86.6812 191.251 89.1776C191.943 89.3163 192.358 89.7323 192.496 90.4258L208.826 153.668C208.964 154.362 208.687 155.055 208.134 155.471C207.719 155.749 207.442 155.887 207.165 155.887ZM189.728 139.245L204.259 150.062L189.452 92.3675C182.394 91.3966 179.764 95.8347 179.073 97.3603L189.728 139.245Z" fill="#510066"/>
<path d="M132.022 170.866C131.33 170.866 130.638 170.311 130.361 169.618C130.223 169.063 117.768 119.967 115.692 111.923C113.478 103.463 118.598 98.6085 124.134 96.8055C127.455 95.696 131.053 95.9734 133.821 97.499C136.727 99.0246 138.664 101.798 139.772 105.543C142.124 114.142 150.842 149.369 150.842 149.646C151.119 150.479 150.566 151.449 149.597 151.727C148.767 152.004 147.798 151.449 147.521 150.479C147.383 150.062 138.803 114.974 136.45 106.375C135.62 103.463 134.236 101.521 132.16 100.411C130.084 99.302 127.455 99.1633 124.964 99.8567C122.473 100.689 116.799 103.324 118.737 110.952C120.812 118.996 133.267 168.092 133.406 168.647C133.682 169.479 133.129 170.45 132.16 170.727C132.299 170.866 132.16 170.866 132.022 170.866Z" fill="#510066"/>
<path d="M59.5063 196.385C58.8144 196.385 58.1224 195.83 57.8457 195.137C57.5689 194.305 58.1224 193.334 59.0911 193.056L107.942 180.297C108.772 180.019 109.741 180.574 110.018 181.545C110.294 182.377 109.741 183.348 108.772 183.625L59.9215 196.385C59.7831 196.385 59.6447 196.385 59.5063 196.385Z" fill="#510066"/>
<path d="M179.073 232.722C171.6 232.722 162.467 230.225 151.949 221.626C131.606 204.845 109.603 185.428 103.375 179.465C100.469 176.691 98.8086 172.808 98.8086 168.647C98.8086 164.902 100.192 161.435 102.545 159.077C108.496 153.252 116.384 153.391 123.58 159.493C125.932 161.435 129.669 164.902 132.852 167.815C135.62 170.311 138.249 172.808 139.494 173.778C147.244 180.158 153.61 181.129 160.391 176.83C161.221 176.414 162.19 176.552 162.743 177.384C163.159 178.217 163.02 179.187 162.19 179.742C151.672 186.261 142.954 180.99 137.419 176.414C136.035 175.304 133.544 172.946 130.638 170.311C127.455 167.399 123.857 164.07 121.504 162.128C115.692 157.274 109.603 156.997 104.898 161.574C103.099 163.238 102.13 165.873 102.13 168.786C102.13 171.975 103.375 175.027 105.59 177.246C111.817 183.209 133.682 202.626 153.887 219.269C171.462 233.692 184.193 229.67 192.773 227.035C193.465 226.897 194.019 226.619 194.572 226.481C195.403 226.203 196.371 226.758 196.648 227.59C196.925 228.422 196.371 229.393 195.541 229.67C194.988 229.809 194.434 230.087 193.742 230.225C190.144 231.196 185.162 232.722 179.073 232.722Z" fill="#510066"/>
<path d="M171.876 138.69C169.108 137.858 162.189 137.996 157.899 143.683C153.471 149.508 154.578 157.413 159.975 161.712C166.064 166.567 197.478 190.421 216.852 202.348C216.852 202.348 219.343 199.436 218.789 192.363C218.789 192.363 176.996 163.377 171.322 158.8C165.649 154.223 166.202 144.931 171.876 138.69Z" fill="#510066"/>
<path d="M396.478 109.426C395.509 109.426 394.817 108.733 394.817 107.762V77.2503C394.817 75.586 393.434 74.3378 391.911 74.3378H269.854C268.885 74.3378 268.193 73.6443 268.193 72.6735C268.193 71.7027 268.885 71.0092 269.854 71.0092H391.911C395.371 71.0092 398.139 73.783 398.139 77.2503V107.762C398.139 108.733 397.308 109.426 396.478 109.426Z" fill="#510066"/>
<path d="M22.9722 146.595C22.0035 146.595 21.3115 145.902 21.3115 144.931V112.755C21.3115 109.01 24.356 106.098 27.9541 106.098H116.245C117.214 106.098 117.906 106.791 117.906 107.762C117.906 108.733 117.214 109.426 116.245 109.426H27.9541C26.1551 109.426 24.6328 110.952 24.6328 112.755V144.931C24.6328 145.902 23.9409 146.595 22.9722 146.595Z" fill="#510066"/>
<path d="M124.825 144.515H22.9722C22.0035 144.515 21.3115 143.821 21.3115 142.851C21.3115 141.88 22.0035 141.186 22.9722 141.186H124.825C125.794 141.186 126.486 141.88 126.486 142.851C126.486 143.821 125.794 144.515 124.825 144.515Z" fill="#510066"/>
</g>
<defs>
<clipPath id="clip0_637:1110">
<rect width="429" height="271" fill="white"/>
</clipPath>
</defs>
</svg>
