<svg width="548" height="362" viewBox="0 0 548 362" fill="none" xmlns="http://www.w3.org/2000/svg">
<g clip-path="url(#clip0)">
<path d="M196.219 330.252V355.437C196.219 358.985 193.391 361.823 189.855 361.823H21.3893C17.8538 361.823 15.0254 358.985 15.0254 355.437V172.575C15.0254 169.028 17.8538 166.19 21.3893 166.19H134.171" fill="#3C004B"/>
<path d="M210.537 317.127V342.312C210.537 345.86 207.709 348.698 204.173 348.698H35.7076C32.1721 348.698 29.3438 345.86 29.3438 342.312V159.628C29.3438 156.08 32.1721 153.242 35.7076 153.242H148.49" fill="white"/>
<path d="M204.174 351.003H35.7078C30.9349 351.003 27.2227 347.101 27.2227 342.49V159.628C27.2227 154.839 31.1117 151.114 35.7078 151.114H148.49C149.727 151.114 150.611 152.001 150.611 153.242C150.611 154.484 149.727 155.371 148.49 155.371H35.7078C33.4098 155.371 31.4652 157.322 31.4652 159.628V342.49C31.4652 344.796 33.4098 346.747 35.7078 346.747H204.174C206.472 346.747 208.416 344.796 208.416 342.49V317.304C208.416 316.063 209.3 315.176 210.537 315.176C211.775 315.176 212.659 316.063 212.659 317.304V342.49C212.659 347.101 208.947 351.003 204.174 351.003Z" fill="#3C004B"/>
<path d="M160.157 197.938H29.3438V161.046C29.3438 156.79 32.8792 153.242 37.1218 153.242H148.49L160.157 197.938Z" fill="#ECEDDA"/>
<path d="M52.5585 179.798L63.6953 179.798L63.6953 168.624L52.5585 168.624L52.5585 179.798Z" fill="#FF6030"/>
<path d="M63.6379 181.975H52.5012C51.2638 181.975 50.3799 181.089 50.3799 179.847V168.673C50.3799 167.432 51.2638 166.545 52.5012 166.545H63.6379C64.8754 166.545 65.7592 167.432 65.7592 168.673V179.847C65.7592 181.089 64.8754 181.975 63.6379 181.975ZM54.6225 177.719H61.5167V170.802H54.6225V177.719Z" fill="#3C004B"/>
<path d="M73.4404 179.798L84.5771 179.798L84.5771 168.624L73.4404 168.624L73.4404 179.798Z" fill="#F6DF4A"/>
<path d="M84.6741 181.975H73.5373C72.2999 181.975 71.416 181.089 71.416 179.847V168.673C71.416 167.432 72.2999 166.545 73.5373 166.545H84.6741C85.9115 166.545 86.7954 167.432 86.7954 168.673V179.847C86.7954 181.089 85.7347 181.975 84.6741 181.975ZM75.6586 177.719H82.5528V170.802H75.6586V177.719Z" fill="#3C004B"/>
<path d="M105.711 168.851H94.5742V180.024H105.711V168.851Z" fill="#ECEDDA"/>
<path d="M105.534 181.975H94.3977C93.1602 181.975 92.2764 181.089 92.2764 179.847V168.673C92.2764 167.432 93.1602 166.545 94.3977 166.545H105.534C106.772 166.545 107.656 167.432 107.656 168.673V179.847C107.656 181.089 106.772 181.975 105.534 181.975ZM96.6957 177.719H103.59V170.802H96.6957V177.719Z" fill="#3C004B"/>
<path d="M358.143 121.672H514.058C517.24 121.672 519.892 124.332 519.892 127.525V307.904C519.892 311.096 517.24 313.757 514.058 313.757H323.319C320.137 313.757 317.485 311.096 317.485 307.904V297.085" fill="#3C004B"/>
<path d="M344.532 108.192H500.447C503.629 108.192 506.28 110.852 506.28 114.045V294.424C506.28 297.617 503.629 300.277 500.447 300.277H309.708C306.526 300.277 303.874 297.617 303.874 294.424V278.816" fill="white"/>
<path d="M500.447 302.583H309.708C305.288 302.583 301.753 299.036 301.753 294.602V278.994C301.753 277.752 302.637 276.865 303.874 276.865C305.112 276.865 305.996 277.752 305.996 278.994V294.602C305.996 296.73 307.763 298.326 309.708 298.326H500.447C502.568 298.326 504.159 296.553 504.159 294.602V114.222C504.159 112.094 502.392 110.498 500.447 110.498H344.532C343.295 110.498 342.411 109.611 342.411 108.369C342.411 107.128 343.295 106.241 344.532 106.241H500.447C504.867 106.241 508.402 109.788 508.402 114.222V294.424C508.579 298.858 504.867 302.583 500.447 302.583Z" fill="#3C004B"/>
<path d="M348.775 149.163H499.917C503.452 149.163 506.281 146.325 506.281 142.778V114.577C506.281 111.03 503.452 108.192 499.917 108.192H348.775C345.24 108.192 342.411 111.03 342.411 114.577V142.778C342.411 146.325 345.24 149.163 348.775 149.163Z" fill="#FF6030"/>
<path d="M450.774 136.57H441.404C440.167 136.57 439.283 135.683 439.283 134.442C439.283 133.2 440.167 132.314 441.404 132.314H450.774C452.011 132.314 452.895 133.2 452.895 134.442C452.895 135.683 451.834 136.57 450.774 136.57Z" fill="#3C004B"/>
<path d="M471.279 123.445H460.143V134.619H471.279V123.445Z" fill="white"/>
<path d="M471.103 136.57H459.966C458.729 136.57 457.845 135.683 457.845 134.442V123.268C457.845 122.026 458.729 121.14 459.966 121.14H471.103C472.34 121.14 473.224 122.026 473.224 123.268V134.442C473.224 135.683 472.34 136.57 471.103 136.57ZM462.264 132.314H469.158V125.396H462.264V132.314Z" fill="#3C004B"/>
<path d="M488.603 128.766L492.315 125.042C493.199 124.155 493.199 122.913 492.315 122.026C491.432 121.14 490.194 121.14 489.31 122.026L485.598 125.751L481.886 122.026C481.002 121.14 479.765 121.14 478.881 122.026C477.997 122.913 477.997 124.155 478.881 125.042L482.593 128.766L478.881 132.491C477.997 133.378 477.997 134.619 478.881 135.506C479.234 135.861 479.765 136.216 480.295 136.216C480.825 136.216 481.356 136.038 481.709 135.506L485.421 131.781L489.134 135.506C489.487 135.861 490.017 136.216 490.548 136.216C491.078 136.216 491.608 136.038 491.962 135.506C492.846 134.619 492.846 133.378 491.962 132.491L488.603 128.766Z" fill="#3C004B"/>
<path d="M505.574 151.291H356.023C354.785 151.291 353.901 150.405 353.901 149.163C353.901 147.922 354.785 147.035 356.023 147.035H505.574C506.811 147.035 507.695 147.922 507.695 149.163C507.695 150.405 506.634 151.291 505.574 151.291Z" fill="#3C004B"/>
<path d="M296.274 74.3155C295.567 74.3155 295.036 73.9608 294.506 73.4287L290.44 67.9304L284.96 63.8511C284.43 63.4963 284.076 62.7869 284.076 62.0774C284.076 61.368 284.43 60.8359 284.96 60.3038L290.44 56.2244L294.506 50.7261C294.859 50.194 295.567 49.8393 296.274 49.8393C296.981 49.8393 297.511 50.194 298.041 50.7261L302.107 56.2244L307.587 60.3038C308.117 60.6585 308.471 61.368 308.471 62.0774C308.471 62.7869 308.117 63.319 307.587 63.8511L302.107 67.9304L298.041 73.4287C297.511 74.1382 296.804 74.3155 296.274 74.3155ZM289.733 62.2548L293.092 64.9152C293.268 65.0926 293.445 65.0926 293.445 65.27L296.097 68.6399L298.748 65.27C298.925 65.0926 298.925 64.9152 299.102 64.9152L302.461 62.2548L299.102 59.5943C298.925 59.4169 298.748 59.417 298.748 59.2396L296.097 55.8697L293.445 59.2396C293.268 59.417 293.268 59.5943 293.092 59.5943L289.733 62.2548Z" fill="#3C004B"/>
<path d="M138.236 121.14C137.529 121.14 136.999 120.785 136.469 120.253L132.58 114.755L127.1 110.675C126.569 110.32 126.216 109.611 126.216 108.902C126.216 108.192 126.569 107.66 127.1 107.128L132.58 103.048L136.646 97.5502C136.999 97.0181 137.706 96.6634 138.413 96.6634C139.12 96.6634 139.651 97.0181 140.181 97.5502L144.247 103.048L149.727 107.128C150.257 107.483 150.611 108.192 150.611 108.902C150.611 109.611 150.257 110.143 149.727 110.675L144.247 114.755L140.181 120.253C139.651 120.785 138.944 121.14 138.236 121.14ZM131.873 109.079L135.231 111.739C135.408 111.917 135.585 111.917 135.585 112.094L138.236 115.464L140.888 112.094C141.065 111.917 141.065 111.739 141.242 111.739L144.6 109.079L141.242 106.418C141.065 106.241 140.888 106.241 140.888 106.064L138.236 102.694L135.585 106.064C135.408 106.241 135.408 106.418 135.231 106.418L131.873 109.079Z" fill="#3C004B"/>
<path d="M253.67 351.358C252.963 351.358 252.433 351.003 251.902 350.471L247.837 344.973L242.357 340.894C241.826 340.539 241.473 339.829 241.473 339.12C241.473 338.411 241.826 337.878 242.357 337.346L247.837 333.267L251.902 327.769C252.256 327.237 252.963 326.882 253.67 326.882C254.377 326.882 254.907 327.237 255.438 327.769L259.504 333.267L264.984 337.346C265.514 337.701 265.867 338.411 265.867 339.12C265.867 339.829 265.514 340.362 264.984 340.894L259.504 344.973L255.438 350.471C254.907 351.003 254.377 351.358 253.67 351.358ZM247.306 339.297L250.665 341.958C250.842 342.135 251.018 342.135 251.018 342.313L253.67 345.682L256.322 342.313C256.498 342.135 256.498 341.958 256.675 341.958L260.034 339.297L256.675 336.637C256.498 336.46 256.322 336.46 256.322 336.282L253.67 332.912L251.018 336.282C250.842 336.46 250.842 336.637 250.665 336.637L247.306 339.297Z" fill="#510066"/>
<path d="M251.549 79.1043C250.489 79.1043 249.428 78.2175 249.428 77.1533L247.483 40.7937C247.483 39.5522 248.367 38.6653 249.428 38.488C250.665 38.488 251.549 39.3748 251.726 40.439L253.671 76.6212C253.671 78.0402 252.787 78.927 251.549 79.1043Z" fill="#510066"/>
<path d="M439.637 330.252H388.549C387.312 330.252 386.428 329.365 386.428 328.123C386.428 326.882 387.312 325.995 388.549 325.995H439.637C440.874 325.995 441.758 326.882 441.758 328.123C441.758 329.365 440.697 330.252 439.637 330.252Z" fill="#3C004B"/>
<path d="M103.235 139.053H52.1477C50.9102 139.053 50.0264 138.167 50.0264 136.925C50.0264 135.683 50.9102 134.797 52.1477 134.797H103.235C104.473 134.797 105.357 135.683 105.357 136.925C105.357 138.167 104.296 139.053 103.235 139.053Z" fill="#3C004B"/>
<path d="M208.593 72.0098L224.502 67.9304L212.128 2.12836L187.91 8.51346L208.593 72.0098Z" fill="#FF6030"/>
<path d="M208.593 74.1381C207.709 74.1381 206.825 73.6061 206.648 72.7192L185.966 9.22291C185.789 8.69082 185.789 7.98136 186.143 7.62663C186.496 7.09454 186.85 6.73981 187.38 6.56245L211.598 -1.97366e-05C212.128 -0.177384 212.835 -1.97291e-05 213.189 0.177344C213.719 0.532072 214.073 1.06416 214.073 1.59626L226.447 67.3983C226.624 68.4625 225.917 69.5267 224.856 69.8814L208.946 74.1381C208.946 74.1381 208.77 74.1381 208.593 74.1381ZM190.739 9.93237L210.007 69.5267L222.028 66.3341L210.537 4.78881L190.739 9.93237Z" fill="#3C004B"/>
<path d="M190.916 95.4219C190.209 95.4219 189.502 95.0671 189.148 94.3577L171.117 63.319C170.587 62.2548 170.941 61.0132 171.824 60.4811C172.885 59.949 174.122 60.3038 174.653 61.1906L192.684 92.2293C193.214 93.2935 192.861 94.535 191.977 95.0671C191.623 95.4219 191.27 95.4219 190.916 95.4219Z" fill="#510066"/>
<path d="M296.272 325.818C295.742 325.818 295.212 325.64 294.681 325.108L278.772 307.727C278.065 306.84 278.065 305.598 278.949 304.711C279.832 304.002 281.07 304.002 281.954 304.889L297.863 322.27C298.57 323.157 298.57 324.399 297.687 325.286C297.156 325.64 296.803 325.818 296.272 325.818Z" fill="#510066"/>
<path d="M223.442 107.483C229.983 107.483 235.285 102.162 235.285 95.5992C235.285 89.0361 229.983 83.7158 223.442 83.7158C216.9 83.7158 211.598 89.0361 211.598 95.5992C211.598 102.162 216.9 107.483 223.442 107.483Z" fill="#FF6030"/>
<path d="M223.442 109.434C220.967 109.434 218.669 108.724 216.371 107.483C213.189 105.532 210.891 102.516 210.007 98.9691C208.063 91.5198 212.482 83.8932 219.907 81.9422C227.331 79.9911 234.932 84.4252 236.877 91.8745C237.761 95.4218 237.23 99.1465 235.463 102.516C233.518 105.709 230.513 108.015 226.978 108.901C225.74 109.256 224.503 109.434 223.442 109.434ZM223.442 85.8442C222.558 85.8442 221.851 86.0215 220.967 86.1989C218.492 86.9083 216.371 88.5046 215.134 90.633C213.896 92.9387 213.543 95.4218 214.073 97.9049C214.78 100.388 216.371 102.516 218.492 103.758C220.79 104.999 223.265 105.354 225.74 104.822C228.215 104.113 230.336 102.516 231.574 100.388C232.811 98.0823 233.165 95.5992 232.634 93.1161C231.574 88.682 227.685 85.8442 223.442 85.8442Z" fill="#3C004B"/>
<path d="M475.522 250.083C475.345 250.083 472.163 250.97 467.037 252.212C466.86 252.212 466.507 252.212 466.507 252.034L387.842 182.33C387.665 182.153 389.256 179.847 367.16 185.7C366.983 185.7 366.806 185.7 366.806 185.7C366.629 185.7 366.629 185.523 366.629 185.345C363.624 173.817 348.952 115.641 347.714 111.739C345.063 102.339 338.522 97.9049 330.037 99.6786C325.618 100.565 322.436 102.694 320.314 106.241C320.138 106.418 319.961 106.596 319.784 106.418C319.607 106.418 319.43 106.241 319.43 106.064C319.077 104.822 318.9 103.935 318.723 103.226C316.072 93.8255 308.471 89.2141 299.809 91.5198C296.45 92.4066 293.621 94.3576 291.323 97.3728C291.147 97.5502 290.97 97.5502 290.793 97.5502C290.616 97.5502 290.44 97.3728 290.44 97.1955C288.849 92.9387 286.02 89.3914 282.661 87.4404C279.303 85.4894 275.414 84.9573 271.348 86.1989C261.625 89.0367 259.327 97.9049 261.272 105.532C261.449 106.241 261.625 106.95 261.802 107.66C261.802 107.837 261.802 108.015 261.625 108.192C261.449 108.369 261.272 108.369 261.095 108.369C258.267 107.305 255.261 107.305 252.08 108.015C248.367 108.901 245.185 111.207 243.418 114.4C241.12 118.302 240.589 123.623 241.827 128.944C241.827 129.121 241.827 129.298 241.65 129.476C241.473 129.653 241.296 129.653 241.12 129.653C234.225 129.121 230.16 132.136 228.038 134.797C227.861 134.974 227.685 134.974 227.508 134.974C227.331 134.974 227.154 134.797 227.154 134.619C225.563 130.185 223.089 126.815 219.73 125.042C216.371 123.091 212.482 122.559 208.416 123.623C204.704 124.51 201.699 126.638 199.754 129.476C199.578 129.653 199.401 129.653 199.224 129.653C199.047 129.653 198.87 129.476 198.87 129.298C197.28 124.687 194.628 121.14 191.269 119.011C187.91 117.06 184.021 116.528 179.956 117.592C171.117 119.898 167.758 127.879 168.819 134.265C169.172 136.038 169.526 137.812 169.703 139.231C169.703 139.408 169.703 139.585 169.526 139.763C169.349 139.94 169.172 139.94 168.996 139.94C165.99 138.876 162.455 138.876 159.096 139.94C152.379 142.069 146.015 148.099 148.667 158.563C150.788 166.722 161.218 208.048 165.637 225.43C165.637 225.607 165.637 225.962 165.46 225.962C165.283 226.139 164.93 226.139 164.753 225.962C161.748 223.124 159.45 221.173 157.859 219.931C148.843 212.482 139.121 212.127 131.696 219.399C128.691 222.237 127.1 226.671 127.1 231.283C127.1 236.426 129.221 241.215 132.757 244.762C133.464 245.294 134.171 246.181 135.055 246.891C135.232 247.068 135.232 247.245 135.232 247.423C135.232 247.6 135.055 247.777 134.878 247.777C134.878 247.777 89.4473 261.789 89.4473 261.967L164.4 329.72C164.576 329.897 212.305 319.255 245.009 310.387C259.15 306.485 269.934 297.262 276.474 283.605C280.01 276.333 281.247 269.771 281.778 266.401C281.778 266.223 281.954 266.046 282.131 266.046C282.308 266.046 282.485 266.046 282.661 266.046C288.141 269.948 293.268 273.495 297.51 276.333C308.117 283.782 319.784 287.33 333.396 287.33C341.881 287.33 351.073 285.911 361.856 283.25C375.468 279.703 472.517 254.695 476.76 253.631C477.643 253.453 478.174 252.566 477.82 251.68C477.29 250.438 476.406 249.906 475.522 250.083Z" fill="#F6DF4A"/>
<path d="M152.555 334.331C151.671 334.331 150.787 333.622 150.434 332.735C150.08 331.671 150.787 330.429 152.025 330.074C152.555 329.897 210.891 315.176 243.771 306.13C256.852 302.583 266.751 294.247 272.762 281.477C277.358 271.899 278.065 263.031 278.065 263.031C278.242 261.789 279.125 260.902 280.363 261.08C281.6 261.257 282.484 262.144 282.307 263.386C282.307 263.74 281.6 272.786 276.651 283.25C270.11 297.085 258.973 306.485 244.831 310.387C211.951 319.433 153.616 334.154 152.909 334.331C152.909 334.331 152.732 334.331 152.555 334.331Z" fill="#3C004B"/>
<path d="M333.042 287.33C319.253 287.33 307.586 283.605 296.98 276.156C292.03 272.609 285.843 268.352 279.125 263.563C254.554 246.536 223.972 225.252 217.431 220.109C213.542 216.916 211.067 212.305 210.891 207.339C210.537 202.195 212.482 197.229 216.371 193.504C224.679 185.168 234.932 188.183 239.882 192.263C242.887 194.746 254.377 202.904 261.094 207.693C256.498 190.134 242.71 136.393 240.942 129.476C239.528 123.977 240.058 118.479 242.533 114.222C244.478 110.853 247.66 108.547 251.549 107.66C261.802 105.177 268.519 111.739 270.817 119.366C272.938 126.461 284.252 172.93 284.782 175.058C285.136 176.122 284.429 177.364 283.191 177.719C282.131 178.074 280.893 177.364 280.54 176.123C280.363 175.59 268.696 127.702 266.574 120.608C264.983 115.287 260.387 109.966 252.433 111.917C249.604 112.626 247.483 114.222 246.069 116.528C244.124 119.721 243.771 123.977 245.008 128.412C247.129 136.748 266.398 211.418 266.574 212.127C266.751 213.014 266.398 213.901 265.691 214.433C264.983 214.965 263.923 214.965 263.216 214.433C262.332 213.724 241.296 199.18 237.053 195.455C233.341 192.44 225.563 190.134 219.199 196.519C216.194 199.535 214.78 203.259 214.956 207.161C215.133 211.063 217.078 214.611 219.906 216.916C226.27 222.06 256.675 243.343 281.247 260.37C287.964 265.159 294.151 269.416 299.101 272.963C315.364 284.315 333.572 286.266 360.265 279.348C373.876 275.801 482.946 247.955 484.007 247.6C485.067 247.245 486.305 247.955 486.658 249.196C487.012 250.261 486.305 251.502 485.067 251.857C484.007 252.212 375.114 279.88 361.325 283.605C351.073 285.911 341.527 287.33 333.042 287.33Z" fill="#3C004B"/>
<path d="M456.785 282.364C455.901 282.364 455.017 281.654 454.663 280.767C454.31 279.703 455.017 278.462 456.254 278.107C492.846 268.706 544.818 255.404 545.348 255.404C546.409 255.049 547.646 255.759 548 257C548.354 258.065 547.646 259.306 546.409 259.661C545.879 259.838 493.907 273.141 457.315 282.364C457.138 282.364 456.961 282.364 456.785 282.364Z" fill="#3C004B"/>
<path d="M437.515 237.49C436.631 237.49 435.747 236.781 435.394 235.894C435.04 234.83 435.747 233.588 436.985 233.234L453.955 228.8C455.016 228.445 456.253 229.154 456.607 230.396C456.96 231.46 456.253 232.702 455.016 233.056L438.045 237.49C437.869 237.49 437.692 237.49 437.515 237.49Z" fill="#3C004B"/>
<path d="M98.6391 287.33C97.7552 287.33 96.8713 286.62 96.5178 285.734C96.1642 284.669 96.8713 283.428 98.1087 283.073L115.079 278.639C116.14 278.284 117.377 278.994 117.731 280.235C118.084 281.299 117.377 282.541 116.14 282.896L99.1694 287.33C98.9926 287.33 98.8158 287.33 98.6391 287.33Z" fill="#3C004B"/>
<path d="M2.1205 260.016C1.23663 260.016 0.352761 259.306 -0.000786945 258.419C-0.354335 257.355 0.352761 256.114 1.59018 255.759C38.1824 246.359 101.114 230.396 101.644 230.219C102.705 229.864 103.942 230.573 104.296 231.815C104.65 232.879 103.942 234.121 102.705 234.475C101.998 234.653 39.0663 250.793 2.65083 260.016C2.47405 260.016 2.29728 260.016 2.1205 260.016Z" fill="#3C004B"/>
<path d="M306.526 171.511C305.642 171.511 304.758 170.802 304.404 169.915C304.228 169.383 289.379 109.256 287.257 101.097C286.02 96.3086 283.545 92.584 280.363 90.633C277.888 89.2141 275.06 88.8593 271.878 89.7462C264.1 91.8745 262.863 98.7917 264.277 104.467C265.337 108.724 266.221 111.739 266.221 111.739C266.575 112.803 265.868 114.045 264.807 114.4C263.746 114.754 262.509 114.045 262.155 112.981C262.155 112.981 261.272 109.966 260.211 105.532C258.266 97.7275 260.741 88.5046 270.817 85.6668C274.883 84.4252 278.949 84.9573 282.484 86.9083C286.727 89.3914 290.086 94.1803 291.5 100.033C293.444 108.192 308.47 168.318 308.647 168.85C309.001 169.915 308.294 171.156 307.056 171.511C306.879 171.511 306.703 171.511 306.526 171.511Z" fill="#3C004B"/>
<path d="M332.159 165.481C331.275 165.481 330.391 164.771 330.037 163.884C329.86 163.352 316.779 111.03 314.658 104.113C312.537 96.6634 306.88 93.1161 300.339 94.8897C293.975 96.6634 292.031 102.871 291.854 103.226C291.501 104.29 290.263 104.999 289.202 104.645C288.142 104.29 287.435 103.048 287.788 101.984C287.965 101.63 290.617 93.2935 299.102 90.8104C307.94 88.3273 315.895 93.2935 318.547 102.871C320.668 109.966 333.396 160.692 333.926 162.82C334.28 163.884 333.573 165.126 332.335 165.481C332.512 165.481 332.335 165.481 332.159 165.481Z" fill="#3C004B"/>
<path d="M365.392 189.779C364.508 189.779 363.624 189.07 363.27 188.183C363.094 187.474 345.063 116.883 343.825 112.626C342.234 107.305 338.699 101.452 330.39 103.048C321.375 104.822 321.552 113.336 321.552 113.69C321.552 114.932 320.668 115.819 319.43 115.819C318.193 115.819 317.309 114.932 317.309 113.868C317.132 109.611 319.43 100.92 329.506 98.7917C338.345 97.0181 345.063 101.63 347.891 111.207C349.128 115.641 366.629 183.926 367.336 186.942C367.69 188.006 366.983 189.247 365.745 189.602C365.745 189.779 365.568 189.779 365.392 189.779Z" fill="#3C004B"/>
<path d="M338.698 195.632C328.799 195.632 324.91 190.844 324.556 190.489C323.849 189.602 324.026 188.183 324.91 187.474C325.794 186.764 327.208 186.942 327.915 187.828C328.092 188.183 333.218 193.859 347.537 190.134C363.447 186.055 403.574 175.945 403.928 175.768C404.989 175.413 406.226 176.122 406.58 177.364C406.933 178.606 406.226 179.67 404.989 180.024C404.635 180.202 364.507 190.312 348.598 194.391C344.885 195.278 341.527 195.632 338.698 195.632Z" fill="#3C004B"/>
<path d="M214.78 201.308C213.896 201.308 213.012 200.599 212.659 199.712C212.482 199.18 197.987 142.423 195.512 132.314C194.274 127.525 191.976 123.977 188.971 122.204C186.496 120.785 183.668 120.43 180.486 121.14C173.061 123.091 171.47 129.653 172.178 133.555C173.238 138.876 173.945 142.955 173.945 142.955C174.122 144.02 173.415 145.261 172.354 145.438C171.117 145.616 170.056 144.906 169.88 143.842C169.88 143.842 168.996 139.763 168.112 134.442C166.874 127.879 170.41 119.543 179.602 117.238C183.845 116.173 187.91 116.705 191.269 118.656C195.335 121.14 198.163 125.574 199.754 131.427C202.229 141.536 216.725 198.116 216.901 198.825C217.255 199.889 216.548 201.131 215.31 201.486C215.134 201.308 214.957 201.308 214.78 201.308Z" fill="#3C004B"/>
<path d="M240.766 197.406C239.882 197.406 238.999 196.697 238.645 195.81C234.933 181.089 225.917 145.971 223.973 138.167C222.735 133.378 220.437 129.83 217.432 128.057C214.957 126.638 212.129 126.283 208.947 126.993C202.406 128.589 200.992 133.732 200.639 135.861C200.462 137.102 199.401 137.812 198.164 137.634C196.926 137.457 196.219 136.393 196.396 135.151C197.28 129.121 201.699 124.51 207.886 122.913C212.129 121.849 216.195 122.381 219.553 124.332C223.619 126.815 226.448 131.249 228.039 137.102C229.983 144.729 238.999 180.024 242.711 194.746C243.064 195.81 242.357 197.051 241.12 197.406C241.12 197.406 240.943 197.406 240.766 197.406Z" fill="#3C004B"/>
<path d="M243.77 131.604C230.159 128.944 226.623 139.585 226.623 139.585L240.588 194.568L264.629 212.482L243.77 131.604Z" fill="#3C004B"/>
<path d="M264.63 214.61C264.1 214.61 263.746 214.433 263.393 214.256L239.351 196.342C238.998 195.987 238.644 195.632 238.644 195.1L224.502 140.118C224.326 139.763 224.502 139.231 224.502 138.876C224.502 138.699 228.745 126.283 244.124 129.476C245.008 129.653 245.539 130.185 245.715 131.072L266.575 211.95C266.751 212.837 266.398 213.724 265.691 214.256C265.337 214.433 264.984 214.61 264.63 214.61ZM242.357 193.327L260.918 207.161L242.003 133.378C232.988 132.136 229.629 137.812 228.745 139.763L242.357 193.327Z" fill="#3C004B"/>
<path d="M168.641 233.766C167.757 233.766 166.874 233.056 166.52 232.169C166.343 231.46 150.434 168.673 147.782 158.386C144.954 147.567 151.494 141.359 158.565 139.053C162.808 137.634 167.404 137.989 170.939 139.94C174.652 141.891 177.127 145.438 178.541 150.227C181.546 161.224 192.683 206.274 192.683 206.629C193.036 207.693 192.329 208.935 191.092 209.29C190.031 209.644 188.794 208.935 188.44 207.693C188.263 207.161 177.303 162.288 174.298 151.291C173.237 147.567 171.47 145.084 168.818 143.665C166.167 142.246 162.808 142.069 159.626 142.955C156.444 144.02 149.196 147.389 151.671 157.144C154.323 167.432 170.232 230.218 170.409 230.928C170.763 231.992 170.056 233.234 168.818 233.588C168.995 233.766 168.818 233.766 168.641 233.766Z" fill="#3C004B"/>
<path d="M76.0121 266.578C75.1282 266.578 74.2444 265.869 73.8908 264.982C73.5373 263.918 74.2444 262.676 75.4818 262.321L137.883 246.004C138.944 245.649 140.181 246.359 140.535 247.6C140.888 248.664 140.181 249.906 138.944 250.261L76.5424 266.578C76.3657 266.401 76.1889 266.578 76.0121 266.578Z" fill="#3C004B"/>
<path d="M228.745 312.87C219.199 312.87 207.532 309.678 194.097 298.681C168.111 277.22 140.004 252.389 132.049 244.762C128.337 241.215 126.216 236.249 126.216 230.928C126.216 226.139 127.984 221.705 130.989 218.69C138.59 211.241 148.666 211.418 157.858 219.222C160.864 221.705 165.636 226.139 169.702 229.864C173.238 233.056 176.596 236.249 178.187 237.49C188.087 245.649 196.218 246.891 204.88 241.392C205.941 240.86 207.178 241.038 207.885 242.102C208.416 243.166 208.239 244.408 207.178 245.117C193.744 253.453 182.607 246.713 175.536 240.86C173.768 239.441 170.586 236.426 166.874 233.056C162.808 229.332 158.212 225.075 155.207 222.592C147.782 216.384 140.004 216.029 133.994 221.882C131.696 224.011 130.458 227.381 130.458 231.105C130.458 235.185 132.049 239.087 134.878 241.925C142.833 249.551 170.763 274.382 196.572 295.666C219.022 314.112 235.285 308.968 246.245 305.598C247.129 305.421 247.836 305.066 248.544 304.889C249.604 304.534 250.842 305.243 251.195 306.308C251.549 307.372 250.842 308.613 249.781 308.968C249.074 309.146 248.367 309.5 247.483 309.678C242.887 310.919 236.523 312.87 228.745 312.87Z" fill="#3C004B"/>
<path d="M219.553 192.795C216.017 191.731 207.179 191.908 201.699 199.18C196.042 206.629 197.456 216.739 204.35 222.237C212.128 228.445 252.256 258.951 277.005 274.205C277.005 274.205 280.186 270.48 279.479 261.435C279.479 261.435 226.094 224.365 218.846 218.512C211.598 212.659 212.305 200.599 219.553 192.795Z" fill="#3C004B"/>
<path d="M506.458 155.371C505.22 155.371 504.336 154.484 504.336 153.242V114.222C504.336 112.094 502.569 110.498 500.624 110.498H344.709C343.472 110.498 342.588 109.611 342.588 108.369C342.588 107.128 343.472 106.241 344.709 106.241H500.624C505.043 106.241 508.579 109.788 508.579 114.222V153.242C508.579 154.307 507.518 155.371 506.458 155.371Z" fill="#3C004B"/>
<path d="M29.3439 202.904C28.1065 202.904 27.2227 202.018 27.2227 200.776V159.628C27.2227 154.839 31.1117 151.114 35.7078 151.114H148.49C149.727 151.114 150.611 152.001 150.611 153.242C150.611 154.484 149.727 155.371 148.49 155.371H35.7078C33.4098 155.371 31.4652 157.322 31.4652 159.628V200.776C31.4652 201.84 30.5814 202.904 29.3439 202.904Z" fill="#3C004B"/>
<path d="M159.45 200.067H29.3439C28.1065 200.067 27.2227 199.18 27.2227 197.938C27.2227 196.697 28.1065 195.81 29.3439 195.81H159.45C160.687 195.81 161.571 196.697 161.571 197.938C161.571 199.18 160.687 200.067 159.45 200.067Z" fill="#3C004B"/>
</g>
<defs>
<clipPath id="clip0">
<rect width="548" height="362" fill="white"/>
</clipPath>
</defs>
</svg>
