<svg width="330" height="212" viewBox="0 0 330 212" fill="none" xmlns="http://www.w3.org/2000/svg">
<g clip-path="url(#clip0)">
<path d="M253.944 152.743H234.159C219.728 152.743 212.921 162.227 212.921 172.349C212.921 177.456 212.921 182.927 212.921 182.927H234.34H253.762H275.182C275.182 182.927 275.182 177.456 275.182 172.349C275.182 162.227 268.465 152.743 253.944 152.743Z" fill="#510066"/>
<path d="M244.051 152.652C253.875 152.652 261.839 144.65 261.839 134.779C261.839 124.908 253.875 116.905 244.051 116.905C234.226 116.905 226.262 124.908 226.262 134.779C226.262 144.65 234.226 152.652 244.051 152.652Z" fill="#510066"/>
<path d="M154.653 180.921C200.267 180.921 237.244 143.768 237.244 97.938C237.244 52.1078 200.267 14.9551 154.653 14.9551C109.04 14.9551 72.0625 52.1078 72.0625 97.938C72.0625 143.768 109.04 180.921 154.653 180.921Z" fill="#ECEDDA"/>
<path d="M181.972 139.612C181.972 139.612 171.716 145.266 171.716 156.391C171.716 167.425 171.716 175.632 171.716 181.286C171.716 189.401 166.997 197.7 155.742 197.7H153.474C142.219 197.7 137.5 189.401 137.5 181.286C137.5 175.541 137.5 167.425 137.5 156.391C137.5 145.357 127.244 139.612 127.244 139.612" fill="#FF602C"/>
<path d="M171.716 181.833C171.716 189.949 166.997 197.609 155.743 197.609H153.474C142.219 197.609 137.5 189.949 137.5 181.833" fill="#ECEDDA"/>
<path d="M202.665 99.9441C202.665 117.909 192.863 133.593 178.341 141.891C171.353 145.904 164.001 145.265 154.744 145.265C146.031 145.265 138.044 145.904 131.147 141.891C116.625 133.593 106.823 117.909 106.823 99.9441C106.823 73.3167 128.333 51.7047 154.835 51.7047C181.336 51.7047 202.665 73.3167 202.665 99.9441Z" fill="#F6DF4A"/>
<path d="M188.87 112.984C188.87 125.842 181.881 136.967 171.535 142.895C166.543 145.721 154.654 145.266 154.654 145.266C154.654 145.266 142.764 145.721 137.772 142.895C127.426 136.967 120.438 125.842 120.438 112.984C120.438 94.0168 135.776 78.6057 154.654 78.6057C173.532 78.6057 188.87 94.0168 188.87 112.984Z" fill="white"/>
<path d="M99.5627 200.253L95.3878 194.69L89.7607 190.496L95.3878 186.21L99.5627 180.647L103.738 186.21L109.274 190.496L103.738 194.69L99.5627 200.253Z" fill="#F6DF4A"/>
<path d="M99.5628 201.53C99.1998 201.53 98.8368 201.347 98.5645 200.983L94.4803 195.511L89.0348 191.408C88.7625 191.134 88.4902 190.769 88.4902 190.404C88.4902 190.04 88.6718 189.675 89.0348 189.401L94.4803 185.298L98.5645 179.826C98.8368 179.553 99.1998 179.279 99.5628 179.279C99.9259 179.279 100.289 179.462 100.561 179.826L104.645 185.298L110.091 189.401C110.363 189.675 110.635 190.04 110.635 190.404C110.635 190.769 110.454 191.134 110.091 191.408L104.645 195.511L100.561 200.983C100.289 201.347 99.9259 201.53 99.5628 201.53ZM91.8483 190.496L96.114 193.687C96.2048 193.779 96.2955 193.87 96.3863 193.961L99.5628 198.247L102.739 193.961C102.83 193.87 102.921 193.779 103.012 193.687L107.277 190.496L103.012 187.304C102.921 187.213 102.83 187.122 102.739 187.03L99.5628 182.745L96.3863 187.03C96.2955 187.122 96.2048 187.213 96.114 187.304L91.8483 190.496Z" fill="#510066"/>
<path d="M286.707 156.573C286.344 156.573 285.981 156.391 285.709 156.026L281.625 150.554L276.179 146.451C275.907 146.177 275.635 145.813 275.635 145.448C275.635 145.083 275.816 144.718 276.179 144.445L281.625 140.341L285.709 134.87C285.981 134.596 286.344 134.323 286.707 134.323C287.07 134.323 287.433 134.505 287.706 134.87L291.79 140.341L297.236 144.445C297.508 144.718 297.78 145.083 297.78 145.448C297.78 145.813 297.599 146.177 297.236 146.451L291.79 150.554L287.706 156.026C287.524 156.391 287.161 156.573 286.707 156.573ZM279.084 145.539L283.349 148.731C283.44 148.822 283.531 148.913 283.622 149.004L286.798 153.29L289.975 149.004C290.066 148.913 290.156 148.822 290.247 148.731L294.513 145.539L290.247 142.347C290.156 142.256 290.066 142.165 289.975 142.074L286.798 137.788L283.622 142.074C283.531 142.165 283.44 142.256 283.349 142.347L279.084 145.539Z" fill="#510066"/>
<path d="M126.065 46.1421L123.705 42.8592L120.438 40.4883L123.705 38.0262L126.065 34.8345L128.515 38.0262L131.692 40.4883L128.515 42.8592L126.065 46.1421Z" fill="#FF6030"/>
<path d="M126.065 47.3275C125.702 47.3275 125.339 47.1452 125.066 46.7804L122.797 43.6799L119.712 41.4002C119.439 41.1266 119.167 40.7619 119.167 40.3971C119.167 40.0323 119.349 39.6676 119.712 39.394L122.797 37.1143L125.066 34.0138C125.339 33.7402 125.702 33.4667 126.065 33.4667C126.428 33.4667 126.791 33.6491 127.063 34.0138L129.332 37.1143L132.418 39.394C132.69 39.6676 132.962 40.0323 132.962 40.3971C132.962 40.7619 132.781 41.1266 132.418 41.4002L129.332 43.6799L127.063 46.7804C126.791 47.1452 126.428 47.3275 126.065 47.3275ZM122.525 40.4883L124.34 41.8561C124.431 41.9473 124.522 42.0385 124.613 42.1297L125.974 43.9535L127.335 42.1297C127.426 42.0385 127.517 41.9473 127.608 41.8561L129.423 40.4883L127.608 39.1205C127.517 39.0293 127.426 38.9381 127.335 38.8469L125.974 37.0231L124.613 38.8469C124.522 38.9381 124.431 39.0293 124.34 39.1205L122.525 40.4883Z" fill="#510066"/>
<path d="M181.972 46.1421L179.612 42.8592L176.436 40.4883L179.612 38.0262L181.972 34.8345L184.422 38.0262L187.599 40.4883L184.422 42.8592L181.972 46.1421Z" fill="#F6DF4A"/>
<path d="M181.972 47.3275C181.609 47.3275 181.246 47.1452 180.974 46.7804L178.705 43.6799L175.619 41.4002C175.347 41.1266 175.074 40.7619 175.074 40.3971C175.074 40.0323 175.256 39.6676 175.619 39.394L178.705 37.1143L180.974 34.0138C181.246 33.7402 181.609 33.4667 181.972 33.4667C182.335 33.4667 182.698 33.6491 182.97 34.0138L185.239 37.1143L188.325 39.394C188.597 39.6676 188.87 40.0323 188.87 40.3971C188.87 40.7619 188.688 41.1266 188.325 41.4002L185.239 43.6799L182.97 46.7804C182.789 47.1452 182.426 47.3275 181.972 47.3275ZM178.523 40.4883L180.338 41.8561C180.429 41.9473 180.52 42.0385 180.611 42.1297L181.972 43.9535L183.333 42.1297C183.424 42.0385 183.515 41.9473 183.606 41.8561L185.421 40.4883L183.606 39.1205C183.515 39.0293 183.424 38.9381 183.333 38.8469L181.972 37.0231L180.611 38.8469C180.52 38.9381 180.429 39.0293 180.338 39.1205L178.523 40.4883Z" fill="#510066"/>
<path d="M279.266 115.902V128.122L296.51 115.902H320.017C324.827 115.902 328.73 111.981 328.73 107.148V84.1683C328.73 79.3352 324.827 75.4141 320.017 75.4141H279.357C274.547 75.4141 270.644 79.3352 270.644 84.1683V107.148C270.553 111.981 274.456 115.902 279.266 115.902Z" fill="#F6DF4A"/>
<path d="M279.266 129.398C279.084 129.398 278.903 129.307 278.721 129.216C278.267 129.034 278.086 128.578 278.086 128.122V117.088C273.185 116.449 269.373 112.255 269.373 107.148V84.1683C269.373 78.6057 273.82 74.1374 279.357 74.1374H320.017C325.553 74.1374 330 78.6057 330 84.1683V107.148C330 112.711 325.553 117.179 320.017 117.179H296.964L280.083 129.125C279.81 129.307 279.538 129.398 279.266 129.398ZM279.266 76.6907C275.091 76.6907 271.733 80.0647 271.733 84.2595V107.239C271.733 111.434 275.091 114.808 279.266 114.808C279.629 114.808 279.901 114.899 280.173 115.173C280.446 115.446 280.536 115.72 280.536 116.085V125.842L295.784 115.082C295.965 114.899 296.238 114.808 296.51 114.808H320.017C324.192 114.808 327.55 111.434 327.55 107.239V84.1683C327.55 79.9735 324.192 76.5995 320.017 76.5995H279.266V76.6907Z" fill="#510066"/>
<path d="M315.207 96.6613H284.076C283.35 96.6613 282.806 96.1141 282.806 95.3846C282.806 94.6551 283.35 94.108 284.076 94.108H315.207C315.933 94.108 316.477 94.6551 316.477 95.3846C316.477 96.1141 315.842 96.6613 315.207 96.6613Z" fill="#510066"/>
<path d="M315.207 87.7247H284.076C283.35 87.7247 282.806 87.1775 282.806 86.448C282.806 85.7185 283.35 85.1714 284.076 85.1714H315.207C315.933 85.1714 316.477 85.7185 316.477 86.448C316.477 87.1775 315.842 87.7247 315.207 87.7247Z" fill="#510066"/>
<path d="M315.207 105.689H284.076C283.35 105.689 282.806 105.142 282.806 104.412C282.806 103.683 283.35 103.136 284.076 103.136H315.207C315.933 103.136 316.477 103.683 316.477 104.412C316.477 105.142 315.842 105.689 315.207 105.689Z" fill="#510066"/>
<path d="M69.4304 132.408H68.6136C75.5112 128.578 80.14 121.191 80.14 112.802C80.14 100.4 70.1565 90.3692 57.8132 90.3692C45.47 90.3692 35.4865 100.4 35.4865 112.802C35.4865 121.191 40.1152 128.578 47.0129 132.408H46.1961C27.9535 132.408 19.7852 144.718 19.7852 156.847V169.248C19.7852 170.069 20.4205 170.707 21.2373 170.707H94.2984C95.1152 170.707 95.7505 170.069 95.7505 169.248V156.847C95.7505 144.718 87.5822 132.408 69.4304 132.408Z" fill="#510066"/>
<path d="M246.048 176.452H267.467C267.467 176.452 267.467 170.981 267.467 165.874C267.467 155.752 260.66 146.269 246.229 146.269H226.444C212.013 146.269 205.206 155.752 205.206 165.874C205.206 170.981 205.206 176.452 205.206 176.452H226.625H246.048Z" fill="#F6DF4A"/>
<path d="M267.558 177.729H205.297C204.571 177.729 204.026 177.182 204.026 176.452V165.966C204.026 155.57 211.015 145.083 226.535 145.083H246.32C261.84 145.083 268.828 155.57 268.828 165.966V176.544C268.738 177.182 268.193 177.729 267.558 177.729ZM206.477 175.267H266.196V165.966C266.196 157.485 260.932 147.636 246.229 147.636H226.444C211.741 147.636 206.477 157.485 206.477 165.966V175.267Z" fill="#510066"/>
<path d="M236.428 146.269C246.252 146.269 254.216 138.266 254.216 128.395C254.216 118.524 246.252 110.522 236.428 110.522C226.603 110.522 218.639 118.524 218.639 128.395C218.639 138.266 226.603 146.269 236.428 146.269Z" fill="white"/>
<path d="M236.428 147.454C225.9 147.454 217.368 138.882 217.368 128.304C217.368 117.726 225.9 109.154 236.428 109.154C246.956 109.154 255.487 117.726 255.487 128.304C255.396 138.882 246.865 147.454 236.428 147.454ZM236.428 111.708C227.352 111.708 219.909 119.185 219.909 128.304C219.909 137.423 227.352 144.901 236.428 144.901C245.504 144.901 252.946 137.423 252.946 128.304C252.946 119.185 245.504 111.708 236.428 111.708Z" fill="#510066"/>
<path d="M149.662 146.269C149.118 146.269 148.573 145.813 148.391 145.266L138.045 95.2023C137.863 94.5639 138.317 93.8344 139.043 93.7432C139.679 93.5608 140.405 94.0168 140.495 94.7463L150.842 144.81C151.023 145.448 150.57 146.177 149.844 146.269C149.844 146.269 149.753 146.269 149.662 146.269Z" fill="#510066"/>
<path d="M158.829 146.269C158.738 146.269 158.648 146.269 158.557 146.269C157.921 146.086 157.468 145.448 157.558 144.81L167.905 94.7463C168.086 94.108 168.722 93.652 169.357 93.7432C169.992 93.9256 170.446 94.5639 170.355 95.2023L160.009 145.266C159.918 145.904 159.464 146.269 158.829 146.269Z" fill="#510066"/>
<path d="M148.119 109.793C147.756 109.793 147.393 109.61 147.211 109.337L139.769 101.038C139.315 100.491 139.315 99.7618 139.86 99.2146C140.405 98.7587 141.131 98.7587 141.675 99.3058L148.119 106.419L153.292 99.397C153.565 99.0322 153.928 98.8499 154.291 98.8499C154.654 98.8499 155.017 99.0322 155.289 99.397L160.553 106.419L166.906 99.3058C167.36 98.7587 168.177 98.7587 168.721 99.2146C169.266 99.6706 169.266 100.491 168.812 101.038L161.461 109.337C161.188 109.61 160.825 109.793 160.462 109.793C160.099 109.793 159.736 109.61 159.555 109.246L154.381 102.315L149.299 109.246C148.936 109.61 148.573 109.793 148.119 109.793C148.21 109.793 148.21 109.793 148.119 109.793Z" fill="#510066"/>
<path d="M155.833 198.885H153.564C141.675 198.885 136.32 190.04 136.32 181.194V156.299C136.32 146.086 126.79 140.706 126.699 140.615C126.064 140.25 125.883 139.521 126.246 138.882C126.609 138.244 127.335 138.061 127.97 138.426C128.424 138.7 138.861 144.627 138.861 156.299V181.194C138.861 188.216 142.673 196.332 153.564 196.332H155.833C166.724 196.332 170.536 188.125 170.536 181.194V156.299C170.536 144.627 180.973 138.7 181.427 138.426C182.062 138.061 182.789 138.335 183.152 138.882C183.515 139.521 183.242 140.25 182.698 140.615C182.607 140.706 173.077 146.086 173.077 156.299V181.194C172.987 190.04 167.723 198.885 155.833 198.885Z" fill="#510066"/>
<path d="M171.716 183.748H137.591C136.865 183.748 136.32 183.2 136.32 182.471C136.32 181.741 136.865 181.194 137.591 181.194H171.716C172.442 181.194 172.987 181.741 172.987 182.471C172.987 183.2 172.442 183.748 171.716 183.748Z" fill="#510066"/>
<path d="M171.716 174.081H137.591C136.865 174.081 136.32 173.534 136.32 172.805C136.32 172.075 136.865 171.528 137.591 171.528H171.716C172.442 171.528 172.987 172.075 172.987 172.805C172.987 173.534 172.442 174.081 171.716 174.081Z" fill="#510066"/>
<path d="M171.716 164.415H137.591C136.865 164.415 136.32 163.868 136.32 163.139C136.32 162.409 136.865 161.862 137.591 161.862H171.716C172.442 161.862 172.987 162.409 172.987 163.139C172.987 163.777 172.442 164.415 171.716 164.415Z" fill="#510066"/>
<path d="M171.716 154.658H137.591C136.865 154.658 136.32 154.111 136.32 153.381C136.32 152.652 136.865 152.105 137.591 152.105H171.716C172.442 152.105 172.987 152.652 172.987 153.381C172.987 154.111 172.442 154.658 171.716 154.658Z" fill="#510066"/>
<path d="M154.653 41.765C153.927 41.765 153.383 41.2178 153.383 40.4883V7.29521C153.383 6.56569 153.927 6.01855 154.653 6.01855C155.379 6.01855 155.924 6.56569 155.924 7.29521V40.4883C155.924 41.2178 155.379 41.765 154.653 41.765Z" fill="#510066"/>
<path d="M112.269 76.7819C111.906 76.7819 111.634 76.6907 111.362 76.4171L80.8667 45.6861C80.4129 45.2302 80.4129 44.4095 80.8667 43.8623C81.3205 43.4064 82.1373 43.4064 82.6819 43.8623L113.177 74.5021C113.631 74.9581 113.631 75.7788 113.177 76.3259C112.905 76.5995 112.632 76.7819 112.269 76.7819Z" fill="#510066"/>
<path d="M192.59 198.885H116.443C115.717 198.885 115.173 198.338 115.173 197.608C115.173 196.879 115.717 196.332 116.443 196.332H192.59C193.316 196.332 193.861 196.879 193.861 197.608C193.77 198.338 193.226 198.885 192.59 198.885Z" fill="#510066"/>
<path d="M175.891 211.834H133.053C132.327 211.834 131.782 211.287 131.782 210.557C131.782 209.828 132.327 209.281 133.053 209.281H175.891C176.617 209.281 177.162 209.828 177.162 210.557C177.162 211.287 176.617 211.834 175.891 211.834Z" fill="#510066"/>
<path d="M148.754 146.542C142.219 146.542 136.048 146.177 130.421 142.986C114.992 134.232 105.462 117.726 105.462 99.9441C105.462 72.6783 127.516 50.5192 154.653 50.5192C181.79 50.5192 203.845 72.6783 203.845 99.9441C203.845 117.726 194.315 134.232 178.886 142.986C172.442 146.633 165.635 146.633 157.83 146.542C155.833 146.542 153.655 146.542 151.568 146.542C150.66 146.542 149.752 146.542 148.754 146.542ZM154.653 52.9813C128.878 52.9813 107.912 74.0462 107.912 99.9441C107.912 116.814 116.988 132.499 131.601 140.797C137.5 144.171 144.035 144.08 151.568 143.989C153.655 143.989 155.833 143.989 157.83 143.989C165.635 144.08 171.716 144.08 177.615 140.797C192.228 132.499 201.303 116.814 201.303 99.9441C201.394 74.0462 180.429 52.9813 154.653 52.9813Z" fill="#510066"/>
<path d="M36.1215 69.0307C21.237 69.0307 9.16602 56.9025 9.16602 41.9473H36.1215V69.0307Z" fill="#F6DF4A"/>
<path d="M36.1216 70.3074C20.511 70.3074 7.89551 57.5408 7.89551 41.9473C7.89551 41.2178 8.44006 40.6707 9.16614 40.6707H36.1216C36.8476 40.6707 37.3922 41.2178 37.3922 41.9473V69.0307C37.3922 69.669 36.7569 70.3074 36.1216 70.3074ZM10.4368 43.224C11.0721 56.4465 21.6909 67.1157 34.851 67.7541V43.224H10.4368Z" fill="#510066"/>
<path d="M20.4209 19.8794C24.8681 16.6878 30.2229 14.864 36.0315 14.864C50.916 14.864 62.9869 26.9922 62.9869 41.9474C62.9869 56.9025 50.916 69.0308 36.0315 69.0308V41.9474L20.4209 19.8794Z" fill="#FF6030"/>
<path d="M36.1216 70.3074C35.3955 70.3074 34.851 69.7602 34.851 69.0307V42.3121L19.4219 20.6089C19.0589 20.0618 19.1496 19.2411 19.6942 18.8763C24.5044 15.4111 30.1315 13.5873 36.0308 13.5873C51.5506 13.5873 64.2569 26.2627 64.2569 41.9473C64.2569 57.632 51.6414 70.3074 36.1216 70.3074ZM22.2355 20.153L37.1199 41.2178C37.3015 41.4002 37.3922 41.6738 37.3922 41.9473V67.7541C51.0061 67.1157 61.8064 55.8082 61.8064 41.9473C61.8064 27.7217 50.28 16.1406 36.1216 16.1406C31.1298 16.0494 26.3196 17.5084 22.2355 20.153Z" fill="#510066"/>
<path d="M11.3449 14.864L26.9554 36.9319H0C0 27.8129 4.4472 19.7882 11.3449 14.864Z" fill="#510066"/>
<path d="M224.629 27.8129H215.825V50.884H224.629V27.8129Z" fill="#FF6030"/>
<path d="M224.538 52.0694H215.734C215.008 52.0694 214.464 51.5223 214.464 50.7928V27.8129C214.464 27.0834 215.008 26.5363 215.734 26.5363H224.538C225.264 26.5363 225.809 27.0834 225.809 27.8129V50.884C225.809 51.5223 225.264 52.0694 224.538 52.0694ZM217.096 49.6073H223.358V29.0896H217.096V49.6073Z" fill="#510066"/>
<path d="M284.166 37.935H275.362V50.8839H284.166V37.935Z" fill="#FF6030"/>
<path d="M284.075 52.0694H275.272C274.546 52.0694 274.001 51.5223 274.001 50.7928V37.8438C274.001 37.1143 274.546 36.5671 275.272 36.5671H284.075C284.801 36.5671 285.346 37.1143 285.346 37.8438V50.7928C285.346 51.5223 284.801 52.0694 284.075 52.0694ZM276.633 49.6073H282.895V39.1205H276.633V49.6073Z" fill="#510066"/>
<path d="M239.513 13.4049H230.709V50.7927H239.513V13.4049Z" fill="white"/>
<path d="M239.422 52.0694H230.618C229.892 52.0694 229.348 51.5223 229.348 50.7928V13.4049C229.348 12.6754 229.892 12.1282 230.618 12.1282H239.422C240.148 12.1282 240.693 12.6754 240.693 13.4049V50.7928C240.693 51.5223 240.148 52.0694 239.422 52.0694ZM231.98 49.6073H238.242V14.6816H231.98V49.6073Z" fill="#510066"/>
<path d="M254.398 20.7001H245.595V50.7928H254.398V20.7001Z" fill="#ECEDDA"/>
<path d="M254.308 52.0695H245.504C244.778 52.0695 244.233 51.5223 244.233 50.7928V20.7001C244.233 19.9706 244.778 19.4235 245.504 19.4235H254.308C255.034 19.4235 255.578 19.9706 255.578 20.7001V50.7928C255.578 51.5223 255.034 52.0695 254.308 52.0695ZM246.865 49.6073H253.128V21.9768H246.865V49.6073Z" fill="#510066"/>
<path d="M269.282 1.27667H260.479V50.884H269.282V1.27667Z" fill="#F6DF4A"/>
<path d="M269.192 52.0694H260.479C259.753 52.0694 259.208 51.5223 259.208 50.7928V1.27666C259.208 0.547139 259.753 0 260.479 0H269.282C270.008 0 270.553 0.547139 270.553 1.27666V50.884C270.462 51.5223 269.918 52.0694 269.192 52.0694ZM261.749 49.6073H268.012V2.55332H261.749V49.6073Z" fill="#510066"/>
<path d="M109.728 14.7728C111.733 14.7728 113.358 13.1397 113.358 11.1252C113.358 9.11068 111.733 7.4776 109.728 7.4776C107.723 7.4776 106.098 9.11068 106.098 11.1252C106.098 13.1397 107.723 14.7728 109.728 14.7728Z" fill="#F6DF4A"/>
<path d="M109.728 16.0494C107.005 16.0494 104.827 13.8609 104.827 11.1252C104.827 8.38949 107.005 6.20093 109.728 6.20093C112.451 6.20093 114.629 8.38949 114.629 11.1252C114.629 13.8609 112.451 16.0494 109.728 16.0494ZM109.728 8.75425C108.458 8.75425 107.368 9.84852 107.368 11.1252C107.368 12.4018 108.458 13.4961 109.728 13.4961C110.999 13.4961 112.088 12.4018 112.088 11.1252C112.088 9.84852 111.09 8.75425 109.728 8.75425Z" fill="#510066"/>
<path d="M78.688 46.051C80.693 46.051 82.3183 44.4179 82.3183 42.4033C82.3183 40.3888 80.693 38.7557 78.688 38.7557C76.683 38.7557 75.0576 40.3888 75.0576 42.4033C75.0576 44.4179 76.683 46.051 78.688 46.051Z" fill="#F6DF4A"/>
<path d="M78.6881 47.3276C75.9653 47.3276 73.7871 45.139 73.7871 42.4033C73.7871 39.6676 75.9653 37.4791 78.6881 37.4791C81.4109 37.4791 83.5891 39.6676 83.5891 42.4033C83.5891 45.139 81.4109 47.3276 78.6881 47.3276ZM78.6881 40.0324C77.4175 40.0324 76.3284 41.1267 76.3284 42.4033C76.3284 43.68 77.4175 44.7743 78.6881 44.7743C79.9587 44.7743 81.0478 43.68 81.0478 42.4033C81.0478 41.1267 80.0495 40.0324 78.6881 40.0324Z" fill="#510066"/>
<path d="M81.7743 40.3059C81.4113 40.3059 81.139 40.2147 80.8667 39.9412C80.4129 39.4852 80.4129 38.6645 80.8667 38.1174L105.825 13.0401C106.279 12.5842 107.096 12.5842 107.641 13.0401C108.094 13.4961 108.094 14.3168 107.641 14.8639L82.6819 39.9412C82.4096 40.2147 82.0466 40.3059 81.7743 40.3059Z" fill="#510066"/>
<path d="M75.0581 43.68H65.5284C64.8024 43.68 64.2578 43.1328 64.2578 42.4033C64.2578 41.6738 64.8024 41.1266 65.5284 41.1266H75.1489C75.875 41.1266 76.4195 41.6738 76.4195 42.4033C76.3287 43.1328 75.7842 43.68 75.0581 43.68Z" fill="#510066"/>
<path d="M76.6006 162.136H101.741C101.741 162.136 101.741 155.661 101.741 149.734C101.741 137.788 93.754 126.754 76.8728 126.754H53.6385C36.6665 126.754 28.7705 137.879 28.7705 149.734C28.7705 155.661 28.7705 162.136 28.7705 162.136H53.9108H76.6006Z" fill="#FF6030"/>
<path d="M101.741 163.686H28.6797C27.8629 163.686 27.2275 163.048 27.2275 162.227V149.825C27.2275 137.606 35.3959 125.386 53.6384 125.386H76.8727C95.1153 125.386 103.284 137.697 103.284 149.825V162.227C103.193 162.956 102.558 163.686 101.741 163.686ZM30.2226 160.677H100.289V149.734C100.289 139.794 94.117 128.213 76.8727 128.213H53.6384C36.3034 128.213 30.2226 139.794 30.2226 149.734V160.677Z" fill="#510066"/>
<path d="M65.2555 126.663C76.7842 126.663 86.1301 117.273 86.1301 105.689C86.1301 94.1056 76.7842 84.7154 65.2555 84.7154C53.7267 84.7154 44.3809 94.1056 44.3809 105.689C44.3809 117.273 53.7267 126.663 65.2555 126.663Z" fill="white"/>
<path d="M65.2555 128.122C52.9122 128.122 42.9287 118.091 42.9287 105.689C42.9287 93.2872 52.9122 83.2563 65.2555 83.2563C77.5987 83.2563 87.5822 93.2872 87.5822 105.689C87.5822 118.091 77.5079 128.122 65.2555 128.122ZM65.2555 86.1744C54.5459 86.1744 45.833 94.9287 45.833 105.689C45.833 116.449 54.5459 125.204 65.2555 125.204C75.965 125.204 84.6779 116.449 84.6779 105.689C84.6779 94.9287 75.965 86.1744 65.2555 86.1744Z" fill="#510066"/>
<path d="M193.862 73.2255C193.499 73.2255 193.227 73.1343 192.955 72.8607C192.501 72.4048 192.501 71.5841 192.955 71.0369L204.39 59.547C204.663 59.2734 204.935 59.1823 205.298 59.1823H287.435C288.161 59.1823 288.705 59.7294 288.705 60.4589C288.705 61.1884 288.161 61.7356 287.435 61.7356H205.842L194.77 72.8607C194.498 73.1343 194.134 73.2255 193.862 73.2255Z" fill="#510066"/>
<path d="M107.095 109.793H86.4025C85.6764 109.793 85.1318 109.246 85.1318 108.516C85.1318 107.786 85.6764 107.239 86.4025 107.239H107.095C107.822 107.239 108.366 107.786 108.366 108.516C108.366 109.246 107.731 109.793 107.095 109.793Z" fill="#510066"/>
<path d="M220.181 122.286C220 122.286 219.818 122.286 219.637 122.194L200.577 113.167C199.942 112.893 199.67 112.072 199.942 111.525C200.214 110.887 201.031 110.613 201.576 110.887L220.635 119.915C221.27 120.188 221.543 121.009 221.27 121.556C221.089 122.012 220.635 122.286 220.181 122.286Z" fill="#510066"/>
</g>
<defs>
<clipPath id="clip0">
<rect width="330" height="211.834" fill="white"/>
</clipPath>
</defs>
</svg>
