<svg width="340" height="205" viewBox="0 0 340 205" fill="none" xmlns="http://www.w3.org/2000/svg">
<g clip-path="url(#clip0)">
<path d="M309.463 169.709H13.7191C11.6169 169.709 9.84668 167.914 9.84668 165.783V49.4658C9.84668 47.3346 11.6169 45.5399 13.7191 45.5399H309.463C311.565 45.5399 313.335 47.3346 313.335 49.4658V165.783C313.335 167.914 311.565 169.709 309.463 169.709Z" fill="#ECEDDA"/>
<path d="M304.596 126.412H301.166C300.502 126.412 299.949 125.852 299.949 125.179C299.949 124.506 300.502 123.945 301.166 123.945H304.596C305.259 123.945 305.813 124.506 305.813 125.179C305.923 125.852 305.37 126.412 304.596 126.412ZM294.859 126.412H291.429C290.765 126.412 290.212 125.852 290.212 125.179C290.212 124.506 290.765 123.945 291.429 123.945H294.859C295.523 123.945 296.076 124.506 296.076 125.179C296.187 125.852 295.634 126.412 294.859 126.412ZM285.123 126.412H281.693C281.029 126.412 280.476 125.852 280.476 125.179C280.476 124.506 281.029 123.945 281.693 123.945H285.123C285.787 123.945 286.34 124.506 286.34 125.179C286.45 125.852 285.787 126.412 285.123 126.412ZM275.386 126.412H271.956C271.293 126.412 270.739 125.852 270.739 125.179C270.739 124.506 271.293 123.945 271.956 123.945H275.386C276.05 123.945 276.603 124.506 276.603 125.179C276.714 125.852 276.05 126.412 275.386 126.412ZM265.65 126.412H262.22C261.556 126.412 261.003 125.852 261.003 125.179C261.003 124.506 261.556 123.945 262.22 123.945H265.65C266.314 123.945 266.867 124.506 266.867 125.179C266.978 125.852 266.314 126.412 265.65 126.412ZM255.913 126.412H252.484C251.82 126.412 251.267 125.852 251.267 125.179C251.267 124.506 251.82 123.945 252.484 123.945H255.913C256.577 123.945 257.131 124.506 257.131 125.179C257.131 125.852 256.577 126.412 255.913 126.412ZM246.177 126.412H242.747C242.083 126.412 241.53 125.852 241.53 125.179C241.53 124.506 242.083 123.945 242.747 123.945H246.177C246.841 123.945 247.394 124.506 247.394 125.179C247.394 125.852 246.841 126.412 246.177 126.412ZM236.441 126.412H233.011C232.347 126.412 231.794 125.852 231.794 125.179C231.794 124.506 232.347 123.945 233.011 123.945H236.441C237.104 123.945 237.658 124.506 237.658 125.179C237.658 125.852 237.104 126.412 236.441 126.412ZM226.704 126.412H223.274C222.61 126.412 222.057 125.852 222.057 125.179C222.057 124.506 222.61 123.945 223.274 123.945H226.704C227.368 123.945 227.921 124.506 227.921 125.179C227.921 125.852 227.368 126.412 226.704 126.412ZM216.968 126.412H213.538C212.874 126.412 212.321 125.852 212.321 125.179C212.321 124.506 212.874 123.945 213.538 123.945H216.968C217.632 123.945 218.185 124.506 218.185 125.179C218.185 125.852 217.632 126.412 216.968 126.412ZM207.231 126.412H203.802C203.138 126.412 202.584 125.852 202.584 125.179C202.584 124.506 203.138 123.945 203.802 123.945H207.231C207.895 123.945 208.448 124.506 208.448 125.179C208.448 125.852 207.895 126.412 207.231 126.412ZM197.495 126.412H194.065C193.401 126.412 192.848 125.852 192.848 125.179C192.848 124.506 193.401 123.945 194.065 123.945H197.495C198.159 123.945 198.712 124.506 198.712 125.179C198.712 125.852 198.159 126.412 197.495 126.412ZM187.759 126.412H184.329C183.665 126.412 183.112 125.852 183.112 125.179C183.112 124.506 183.665 123.945 184.329 123.945H187.759C188.422 123.945 188.976 124.506 188.976 125.179C188.976 125.852 188.422 126.412 187.759 126.412ZM178.022 126.412H174.592C173.928 126.412 173.375 125.852 173.375 125.179C173.375 124.506 173.928 123.945 174.592 123.945H178.022C178.686 123.945 179.239 124.506 179.239 125.179C179.239 125.852 178.686 126.412 178.022 126.412ZM168.286 126.412H164.856C164.524 126.412 164.303 126.3 164.081 126.188C163.86 126.3 163.639 126.412 163.307 126.412C162.09 126.412 160.873 126.3 159.766 126.076C159.103 125.964 158.66 125.291 158.66 124.618C158.771 123.945 159.434 123.496 160.098 123.496C161.205 123.608 162.311 123.72 163.418 123.833C163.639 123.833 163.86 123.945 164.081 124.057C164.303 123.945 164.524 123.833 164.745 123.833H168.175C168.839 123.833 169.392 124.393 169.392 125.066C169.503 125.852 168.95 126.412 168.286 126.412ZM310.902 125.852C310.349 125.852 309.796 125.403 309.685 124.842C309.574 124.169 310.017 123.496 310.681 123.384C311.787 123.16 312.894 122.935 313.889 122.599C314.553 122.374 315.217 122.823 315.438 123.496C315.66 124.169 315.217 124.842 314.553 125.066C313.447 125.403 312.23 125.627 311.013 125.852H310.902ZM153.902 124.506C153.792 124.506 153.681 124.506 153.46 124.393C152.353 123.945 151.247 123.496 150.141 123.047C149.477 122.711 149.255 122.038 149.587 121.365C149.919 120.692 150.583 120.468 151.247 120.804C152.243 121.253 153.239 121.701 154.345 122.038C155.009 122.262 155.341 123.047 155.119 123.608C154.898 124.169 154.345 124.506 153.902 124.506ZM320.085 122.823C319.643 122.823 319.2 122.599 318.979 122.15C318.647 121.477 318.868 120.804 319.532 120.468C320.528 120.019 321.524 119.458 322.409 118.785C322.962 118.449 323.736 118.561 324.179 119.122C324.511 119.682 324.4 120.468 323.847 120.916C322.851 121.589 321.745 122.15 320.749 122.711C320.528 122.823 320.307 122.823 320.085 122.823ZM145.272 120.019C145.051 120.019 144.719 119.907 144.498 119.795C143.502 119.122 142.617 118.336 141.732 117.551C141.179 117.103 141.179 116.317 141.621 115.757C142.064 115.196 142.838 115.196 143.391 115.644C144.166 116.43 145.051 117.103 145.936 117.776C146.489 118.224 146.6 119.009 146.268 119.57C146.047 119.795 145.604 120.019 145.272 120.019ZM328.051 117.215C327.72 117.215 327.388 117.103 327.166 116.766C326.724 116.205 326.724 115.42 327.277 114.971C328.051 114.186 328.826 113.401 329.6 112.504C330.043 111.943 330.817 111.943 331.371 112.391C331.924 112.84 331.924 113.625 331.481 114.186C330.707 115.084 329.822 115.981 328.937 116.766C328.715 117.103 328.383 117.215 328.051 117.215ZM138.302 113.177C137.97 113.177 137.527 112.952 137.306 112.728C136.532 111.831 135.868 110.821 135.204 109.699C134.872 109.139 134.983 108.353 135.647 107.905C136.2 107.568 136.974 107.68 137.417 108.353C137.97 109.251 138.634 110.26 139.298 111.158C139.74 111.718 139.63 112.504 139.076 112.952C138.855 113.065 138.523 113.177 138.302 113.177ZM334.137 109.475C333.915 109.475 333.694 109.363 333.473 109.251C332.92 108.914 332.698 108.129 333.03 107.456C333.584 106.447 334.137 105.437 334.579 104.428C334.911 103.755 335.575 103.53 336.239 103.755C336.903 104.091 337.124 104.764 336.903 105.437C336.46 106.559 335.796 107.568 335.243 108.69C335.022 109.251 334.579 109.475 334.137 109.475ZM133.434 104.54C132.881 104.54 132.438 104.203 132.217 103.755C131.774 102.633 131.442 101.511 131.11 100.277C130.889 99.6044 131.332 98.9314 131.995 98.7071C132.659 98.4828 133.323 98.9314 133.544 99.6044C133.876 100.726 134.208 101.736 134.54 102.857C134.761 103.53 134.43 104.203 133.876 104.54C133.766 104.54 133.655 104.54 133.434 104.54ZM337.788 100.39C337.677 100.39 337.567 100.39 337.456 100.39C336.792 100.165 336.35 99.4923 336.571 98.8193C336.792 97.6976 337.013 96.5759 337.235 95.5664C337.345 94.8934 338.009 94.3326 338.673 94.4447C339.337 94.5569 339.89 95.2299 339.779 95.9029C339.669 97.1368 339.337 98.2584 339.116 99.4923C338.894 100.053 338.341 100.39 337.788 100.39ZM131.332 95.0056C130.668 95.0056 130.115 94.4447 130.115 93.8839C130.004 92.9866 130.004 91.9771 130.004 91.0797C130.004 90.7432 130.004 90.5189 130.004 90.2946C130.004 89.6216 130.557 89.0607 131.221 89.0607C131.885 89.0607 132.438 89.6216 132.438 90.4067C132.438 90.6311 132.438 90.9676 132.438 91.1919C132.438 92.0892 132.438 92.8744 132.549 93.7717C132.659 94.3326 132.106 94.8934 131.332 95.0056ZM338.784 90.6311C338.12 90.6311 337.567 90.0702 337.567 89.3972C337.567 88.2756 337.345 87.1539 337.235 86.0322C337.124 85.3592 337.567 84.6862 338.341 84.574C339.005 84.4619 339.669 84.9105 339.779 85.6957C340.001 86.9296 340.111 88.0512 340.111 89.2851C340.001 89.9581 339.447 90.6311 338.784 90.6311ZM131.995 85.1349C131.885 85.1349 131.774 85.1349 131.774 85.1349C131.11 85.0227 130.668 84.3497 130.778 83.6767C131 82.4429 131.332 81.3212 131.664 80.1995C131.885 79.5265 132.549 79.19 133.212 79.4144C133.876 79.6387 134.208 80.3117 133.987 80.9847C133.655 81.9942 133.323 83.1159 133.102 84.2375C133.102 84.7984 132.549 85.1349 131.995 85.1349ZM336.903 80.9847C336.35 80.9847 335.907 80.6482 335.686 80.0874C335.354 79.0778 334.911 77.9562 334.358 76.9467C334.026 76.2737 334.358 75.6007 334.911 75.2642C335.575 74.9277 336.239 75.2642 336.571 75.825C337.124 76.9467 337.567 78.0683 337.898 79.19C338.12 79.863 337.788 80.536 337.124 80.8725C337.124 80.9847 337.013 80.9847 336.903 80.9847ZM135.315 75.9372C135.093 75.9372 134.872 75.9372 134.761 75.825C134.208 75.4885 133.987 74.7033 134.319 74.1425C134.872 73.133 135.536 72.0113 136.2 71.0018C136.642 70.441 137.417 70.3288 137.97 70.6653C138.523 71.114 138.634 71.8991 138.302 72.46C137.638 73.3573 137.085 74.3668 136.532 75.3763C136.2 75.7128 135.757 75.9372 135.315 75.9372ZM332.366 72.2356C331.924 72.2356 331.592 72.0113 331.371 71.6748C330.707 70.7775 330.043 69.8801 329.269 69.095C328.826 68.5341 328.826 67.749 329.379 67.3003C329.932 66.8516 330.707 66.8516 331.149 67.4125C331.924 68.3098 332.698 69.2071 333.362 70.2166C333.805 70.7775 333.694 71.5626 333.141 72.0113C332.809 72.2356 332.588 72.2356 332.366 72.2356ZM141.179 68.0855C140.847 68.0855 140.515 67.9733 140.294 67.749C139.851 67.3003 139.851 66.403 140.294 65.9543C141.179 65.0569 142.064 64.2718 142.949 63.4866C143.502 63.0379 144.277 63.1501 144.719 63.7109C145.162 64.2718 145.051 65.0569 144.498 65.5056C143.613 66.1786 142.838 66.9638 142.064 67.749C141.842 67.9733 141.511 68.0855 141.179 68.0855ZM325.507 65.2813C325.285 65.2813 324.954 65.1691 324.732 65.0569C323.847 64.3839 322.962 63.7109 321.966 63.1501C321.413 62.8136 321.192 62.0284 321.524 61.3554C321.856 60.7946 322.63 60.5703 323.294 60.9068C324.29 61.5798 325.285 62.2528 326.281 62.9258C326.834 63.3744 326.945 64.1596 326.502 64.7204C326.281 65.0569 325.949 65.2813 325.507 65.2813ZM149.034 62.2528C148.592 62.2528 148.149 62.0284 147.928 61.5798C147.596 60.9068 147.817 60.2338 148.481 59.8973C149.477 59.3364 150.583 58.7756 151.69 58.3269C152.353 58.1026 153.017 58.3269 153.349 58.9999C153.57 59.6729 153.349 60.3459 152.685 60.6824C151.69 61.1311 150.694 61.5798 149.698 62.1406C149.366 62.2528 149.145 62.2528 149.034 62.2528ZM317.098 60.4581C316.987 60.4581 316.766 60.4581 316.655 60.3459C315.66 59.8973 314.553 59.5608 313.447 59.3364C312.783 59.1121 312.34 58.4391 312.562 57.7661C312.783 57.0931 313.447 56.6444 314.111 56.8687C315.217 57.2052 316.434 57.5417 317.541 57.9904C318.204 58.2147 318.536 58.9999 318.315 59.6729C318.094 60.1216 317.541 60.4581 317.098 60.4581ZM158.107 58.8878C157.554 58.8878 157 58.4391 156.89 57.8782C156.779 57.2052 157.222 56.5322 157.885 56.4201C159.103 56.1957 160.209 55.9714 161.426 55.8592C162.09 55.7471 162.754 56.3079 162.754 56.9809C162.864 57.6539 162.311 58.3269 161.647 58.3269C160.541 58.4391 159.434 58.5513 158.328 58.7756C158.328 58.8878 158.217 58.8878 158.107 58.8878ZM307.583 58.3269C306.698 58.2147 305.923 58.2147 305.149 58.2147H304.153C303.489 58.2147 302.936 57.6539 302.936 56.9809C302.936 56.3079 303.489 55.7471 304.153 55.7471H305.149C306.034 55.7471 306.808 55.7471 307.693 55.8592C308.357 55.8592 308.911 56.5322 308.911 57.2052C308.8 57.7661 308.247 58.3269 307.583 58.3269ZM297.846 58.2147H294.417C293.753 58.2147 293.2 57.6539 293.2 56.9809C293.2 56.3079 293.753 55.7471 294.417 55.7471H297.846C298.51 55.7471 299.063 56.3079 299.063 56.9809C299.063 57.6539 298.51 58.2147 297.846 58.2147ZM288.11 58.2147H284.68C284.016 58.2147 283.463 57.6539 283.463 56.9809C283.463 56.3079 284.016 55.7471 284.68 55.7471H288.11C288.774 55.7471 289.327 56.3079 289.327 56.9809C289.327 57.6539 288.774 58.2147 288.11 58.2147ZM278.374 58.2147H274.944C274.28 58.2147 273.727 57.6539 273.727 56.9809C273.727 56.3079 274.28 55.7471 274.944 55.7471H278.374C279.037 55.7471 279.591 56.3079 279.591 56.9809C279.591 57.6539 279.037 58.2147 278.374 58.2147ZM268.637 58.2147H265.207C264.543 58.2147 263.99 57.6539 263.99 56.9809C263.99 56.3079 264.543 55.7471 265.207 55.7471H268.637C269.301 55.7471 269.854 56.3079 269.854 56.9809C269.854 57.6539 269.301 58.2147 268.637 58.2147ZM258.901 58.2147H255.471C254.807 58.2147 254.254 57.6539 254.254 56.9809C254.254 56.3079 254.807 55.7471 255.471 55.7471H258.901C259.565 55.7471 260.118 56.3079 260.118 56.9809C260.118 57.6539 259.565 58.2147 258.901 58.2147ZM249.164 58.2147H245.734C245.071 58.2147 244.517 57.6539 244.517 56.9809C244.517 56.3079 245.071 55.7471 245.734 55.7471H249.164C249.828 55.7471 250.381 56.3079 250.381 56.9809C250.381 57.6539 249.828 58.2147 249.164 58.2147ZM239.428 58.2147H235.998C235.334 58.2147 234.781 57.6539 234.781 56.9809C234.781 56.3079 235.334 55.7471 235.998 55.7471H239.428C240.092 55.7471 240.645 56.3079 240.645 56.9809C240.645 57.6539 240.092 58.2147 239.428 58.2147ZM229.692 58.2147H226.262C225.598 58.2147 225.045 57.6539 225.045 56.9809C225.045 56.3079 225.598 55.7471 226.262 55.7471H229.692C230.355 55.7471 230.909 56.3079 230.909 56.9809C230.909 57.6539 230.355 58.2147 229.692 58.2147ZM219.955 58.2147H216.525C215.861 58.2147 215.308 57.6539 215.308 56.9809C215.308 56.3079 215.861 55.7471 216.525 55.7471H219.955C220.619 55.7471 221.172 56.3079 221.172 56.9809C221.172 57.6539 220.619 58.2147 219.955 58.2147ZM210.219 58.2147H206.789C206.125 58.2147 205.572 57.6539 205.572 56.9809C205.572 56.3079 206.125 55.7471 206.789 55.7471H210.219C210.883 55.7471 211.436 56.3079 211.436 56.9809C211.436 57.6539 210.883 58.2147 210.219 58.2147ZM200.482 58.2147H197.052C196.389 58.2147 195.835 57.6539 195.835 56.9809C195.835 56.3079 196.389 55.7471 197.052 55.7471H200.482C201.146 55.7471 201.699 56.3079 201.699 56.9809C201.699 57.6539 201.146 58.2147 200.482 58.2147ZM190.746 58.2147H187.316C186.652 58.2147 186.099 57.6539 186.099 56.9809C186.099 56.3079 186.652 55.7471 187.316 55.7471H190.746C191.41 55.7471 191.963 56.3079 191.963 56.9809C191.963 57.6539 191.41 58.2147 190.746 58.2147ZM181.009 58.2147H177.58C176.916 58.2147 176.363 57.6539 176.363 56.9809C176.363 56.3079 176.916 55.7471 177.58 55.7471H181.009C181.673 55.7471 182.226 56.3079 182.226 56.9809C182.226 57.6539 181.673 58.2147 181.009 58.2147ZM171.273 58.2147H167.843C167.179 58.2147 166.626 57.6539 166.626 56.9809C166.626 56.3079 167.179 55.7471 167.843 55.7471H171.273C171.937 55.7471 172.49 56.3079 172.49 56.9809C172.49 57.6539 171.937 58.2147 171.273 58.2147Z" fill="#510066"/>
<path d="M185.877 102.296V77.3954C185.877 74.2547 183.333 71.787 180.345 71.787H89.1771H38.946C37.397 71.787 36.0693 73.133 36.0693 74.7033V102.296H185.877Z" fill="#FF6030"/>
<path d="M185.877 103.643H36.0689C35.2944 103.643 34.7412 102.97 34.7412 102.297V74.7034C34.7412 72.3479 36.6221 70.441 38.9456 70.441H180.345C184.217 70.441 187.315 73.5817 187.315 77.5076V102.409C187.315 103.082 186.651 103.643 185.877 103.643ZM37.3966 100.838H184.439V77.3954C184.439 75.0399 182.558 73.133 180.234 73.133H38.9456C38.1711 73.133 37.3966 73.8061 37.3966 74.7034V100.838Z" fill="#510066"/>
<path d="M185.877 102.296V184.627C185.877 186.198 184.55 187.544 183.001 187.544H38.946C37.397 187.544 36.0693 186.198 36.0693 184.627V171.616V102.296H185.877Z" fill="white"/>
<path d="M183 188.89H38.9456C36.6221 188.89 34.7412 186.983 34.7412 184.627V102.296C34.7412 101.511 35.4051 100.95 36.0689 100.95H185.877C186.651 100.95 187.205 101.623 187.205 102.296V184.627C187.315 186.983 185.324 188.89 183 188.89ZM37.3966 103.642V184.515C37.3966 185.3 38.0604 186.085 38.9456 186.085H183C183.775 186.085 184.549 185.412 184.549 184.515V103.642H37.3966Z" fill="#510066"/>
<path d="M95.8147 93.4353H86.9634C86.1889 93.4353 85.6357 92.7623 85.6357 92.0893C85.6357 91.3041 86.2996 90.7433 86.9634 90.7433H95.8147C96.5892 90.7433 97.1424 91.4163 97.1424 92.0893C97.1424 92.8744 96.5892 93.4353 95.8147 93.4353Z" fill="#510066"/>
<path d="M67.6505 92.038L78.0508 92.038L78.0508 81.4942L67.6505 81.4942L67.6505 92.038Z" fill="white"/>
<path d="M78.1127 93.4353H67.7125C66.938 93.4353 66.3848 92.7623 66.3848 92.0893V81.5456C66.3848 80.7604 67.0486 80.1996 67.7125 80.1996H78.1127C78.8872 80.1996 79.4404 80.8726 79.4404 81.5456V92.0893C79.4404 92.8745 78.8872 93.4353 78.1127 93.4353ZM69.0402 90.6311H76.6744V82.8916H69.0402V90.6311Z" fill="#510066"/>
<path d="M49.0142 93.0988C48.6823 93.0988 48.3503 92.9867 48.0184 92.6502C47.4652 92.0893 47.4652 91.192 48.0184 90.6311L57.9761 80.5361C58.5293 79.9753 59.4144 79.9753 59.9676 80.5361C60.5209 81.0969 60.5209 81.9943 59.9676 82.5551L50.01 92.6502C49.7887 92.9867 49.3461 93.0988 49.0142 93.0988Z" fill="#510066"/>
<path d="M58.9719 93.0988C58.64 93.0988 58.308 92.9867 57.9761 92.6502L48.0184 82.5551C47.4652 81.9943 47.4652 81.0969 48.0184 80.5361C48.5716 79.9753 49.4568 79.9753 50.01 80.5361L59.9676 90.6311C60.5209 91.192 60.5209 92.0893 59.9676 92.6502C59.7464 92.9867 59.4144 93.0988 58.9719 93.0988Z" fill="#510066"/>
<path d="M185.545 70.7775V153.108C185.545 154.679 185.655 156.025 185.655 156.025H119.824C118.275 156.025 116.947 154.679 116.947 153.108V140.097V70.7775H185.545Z" fill="#510066"/>
<path d="M104.002 53.0551L100.683 48.5684L96.3682 45.2034L100.683 41.8384L104.002 37.4639L107.322 41.8384L111.747 45.2034L107.322 48.5684L104.002 53.0551Z" fill="#FF6030"/>
<path d="M104.003 54.2889C103.56 54.2889 103.228 54.0646 103.007 53.7281L99.7983 49.4657L95.5939 46.2129C95.262 45.9885 95.1514 45.652 95.1514 45.2033C95.1514 44.7547 95.3726 44.4182 95.7046 44.1938L99.9089 40.941L103.118 36.6786C103.339 36.3421 103.781 36.1178 104.113 36.1178C104.445 36.1178 104.888 36.3421 105.109 36.6786L108.318 40.941L112.522 44.1938C112.854 44.4182 113.075 44.8668 113.075 45.2033C113.075 45.652 112.854 45.9885 112.522 46.2129L108.318 49.4657L105.109 53.7281C104.777 54.0646 104.445 54.2889 104.003 54.2889ZM98.4706 45.2033L101.569 47.5589C101.679 47.671 101.79 47.671 101.79 47.7832L104.113 50.9239L106.437 47.7832C106.547 47.671 106.547 47.5589 106.658 47.5589L109.756 45.2033L106.658 42.8478C106.547 42.7357 106.437 42.7357 106.437 42.6235L104.003 39.595L101.79 42.6235C101.679 42.7357 101.679 42.8478 101.569 42.8478L98.4706 45.2033Z" fill="#510066"/>
<path d="M313.335 157.146L310.127 152.772L305.701 149.407L310.127 146.042L313.335 141.667L316.655 146.042L321.08 149.407L316.655 152.772L313.335 157.146Z" fill="#FF6030"/>
<path d="M313.335 158.492C312.892 158.492 312.56 158.268 312.339 157.932L309.131 153.669L304.926 150.416C304.594 150.192 304.373 149.743 304.373 149.407C304.373 149.07 304.594 148.622 304.926 148.397L309.131 145.144L312.339 140.882C312.56 140.546 313.003 140.321 313.335 140.321C313.667 140.321 314.109 140.546 314.331 140.882L317.539 145.144L321.744 148.397C322.076 148.622 322.297 149.07 322.297 149.407C322.297 149.743 322.076 150.192 321.744 150.416L317.539 153.669L314.331 157.932C314.109 158.268 313.778 158.492 313.335 158.492ZM307.803 149.407L310.901 151.762C311.012 151.875 311.122 151.875 311.122 151.987L313.446 155.127L315.769 151.987C315.88 151.875 315.88 151.762 315.99 151.762L319.088 149.407L315.99 147.051C315.88 146.939 315.769 146.939 315.769 146.827L313.446 143.686L311.122 146.827C311.012 146.939 311.012 147.051 310.901 147.051L307.803 149.407Z" fill="#510066"/>
<path d="M277.155 56.8689V29.2757C277.155 27.7054 275.827 26.3594 274.278 26.3594H180.344H130.113C128.564 26.3594 127.236 27.7054 127.236 29.2757V56.8689H277.155Z" fill="#F6DF4A"/>
<path d="M277.155 58.327H127.347C126.573 58.327 126.02 57.654 126.02 56.981V29.2757C126.02 26.9202 127.9 25.0133 130.224 25.0133H274.279C276.602 25.0133 278.483 26.9202 278.483 29.2757V56.8688C278.483 57.654 277.93 58.327 277.155 58.327ZM128.675 55.5228H275.717V29.2757C275.717 28.4905 275.053 27.7053 274.168 27.7053H130.224C129.449 27.7053 128.675 28.3783 128.675 29.2757V55.5228Z" fill="#510066"/>
<path d="M277.156 56.8688V142.452C277.156 144.023 275.828 145.369 274.279 145.369H130.224C128.675 145.369 127.348 144.023 127.348 142.452V129.441V56.8688H277.156Z" fill="white"/>
<path d="M274.279 146.715H130.224C127.9 146.715 126.02 144.808 126.02 142.452V56.8688C126.02 56.0837 126.683 55.5228 127.347 55.5228H277.155C277.93 55.5228 278.483 56.1958 278.483 56.8688V142.452C278.483 144.808 276.602 146.715 274.279 146.715ZM128.675 58.327V142.452C128.675 143.238 129.339 144.023 130.224 144.023H274.279C275.053 144.023 275.828 143.35 275.828 142.452V58.327H128.675Z" fill="#510066"/>
<path d="M224.712 48.1198H215.861C215.086 48.1198 214.533 47.4467 214.533 46.7737C214.533 46.1007 215.197 45.4277 215.861 45.4277H224.712C225.487 45.4277 226.04 46.1007 226.04 46.7737C226.04 47.4467 225.487 48.1198 224.712 48.1198Z" fill="#510066"/>
<path d="M243.964 36.1179H233.563V46.6616H243.964V36.1179Z" fill="white"/>
<path d="M243.963 48.1198H233.563C232.789 48.1198 232.235 47.4468 232.235 46.7738V36.23C232.235 35.4449 232.899 34.884 233.563 34.884H243.963C244.738 34.884 245.291 35.557 245.291 36.23V46.7738C245.291 47.4468 244.738 48.1198 243.963 48.1198ZM234.891 45.3156H242.525V37.576H234.891V45.3156Z" fill="#510066"/>
<path d="M262.551 47.7833C262.219 47.7833 261.887 47.6711 261.555 47.3346L251.598 37.2396C251.044 36.6787 251.044 35.7814 251.598 35.2206C252.151 34.6597 253.036 34.6597 253.589 35.2206L263.547 45.3156C264.1 45.8764 264.1 46.7738 263.547 47.3346C263.325 47.6711 262.994 47.7833 262.551 47.7833Z" fill="#510066"/>
<path d="M252.593 47.7833C252.261 47.7833 251.929 47.6711 251.598 47.3346C251.044 46.7738 251.044 45.8764 251.598 45.3156L261.555 35.2206C262.108 34.6597 262.994 34.6597 263.547 35.2206C264.1 35.7814 264.1 36.6787 263.547 37.2396L253.589 47.3346C253.368 47.6711 252.925 47.7833 252.593 47.7833Z" fill="#510066"/>
<path d="M237.768 113.625H164.303C153.46 113.625 144.608 104.652 144.608 93.6596C144.608 82.6672 153.46 73.6938 164.303 73.6938H237.768C248.611 73.6938 257.462 82.6672 257.462 93.6596C257.462 104.652 248.611 113.625 237.768 113.625Z" fill="#F6DF4A"/>
<path d="M238.1 112.279C248.243 112.279 256.466 103.943 256.466 93.6597C256.466 83.3763 248.243 75.0399 238.1 75.0399C227.956 75.0399 219.733 83.3763 219.733 93.6597C219.733 103.943 227.956 112.279 238.1 112.279Z" fill="#FF6030"/>
<path d="M238.099 113.625C227.257 113.625 218.405 104.652 218.405 93.6596C218.405 82.6672 227.257 73.6938 238.099 73.6938C248.942 73.6938 257.793 82.6672 257.793 93.6596C257.793 104.652 248.942 113.625 238.099 113.625ZM238.099 76.498C228.806 76.498 221.171 84.2376 221.171 93.6596C221.171 103.082 228.806 110.821 238.099 110.821C247.393 110.821 255.027 103.082 255.027 93.6596C255.027 84.2376 247.504 76.498 238.099 76.498Z" fill="#510066"/>
<path d="M153.791 102.184C153.349 102.184 153.017 101.96 152.795 101.624C151.246 99.268 150.361 96.576 150.361 93.6596C150.361 90.4068 151.357 87.3783 153.349 84.7984C153.791 84.2376 154.566 84.1254 155.119 84.5741C155.672 85.0228 155.783 85.8079 155.34 86.3688C153.681 88.3878 152.906 90.9676 152.906 93.5475C152.906 95.903 153.57 98.1463 154.898 100.053C155.34 100.614 155.119 101.399 154.566 101.848C154.234 102.072 154.013 102.184 153.791 102.184Z" fill="white"/>
<path d="M278.152 124.281V127.758C278.152 127.758 278.152 124.506 278.152 120.692C278.152 115.42 274.833 112.504 270.518 112.504C266.203 112.504 262.552 115.644 262.552 119.122C262.552 122.599 262.552 126.749 262.552 126.749C262.552 123.833 262.552 119.122 262.552 118C262.552 112.728 258.458 110.148 254.364 110.148C250.271 110.148 245.956 112.055 245.956 117.776C245.956 119.009 245.956 118.112 245.956 123.16V124.393C245.956 124.393 245.956 99.8288 245.956 94.5569C245.956 89.285 242.304 86.7052 238.653 86.7052C235.002 86.7052 231.13 88.612 231.13 94.3326C231.13 100.053 231.13 148.285 231.13 148.285C231.13 148.285 223.606 141.106 219.844 137.629C215.861 134.04 210.108 134.601 207.121 137.629C203.691 141.106 202.916 147.276 207.895 152.211C212.874 157.146 227.147 170.831 233.342 176.551C245.845 188.217 259.786 193.264 274.612 187.095C288.442 181.374 291.429 167.914 291.429 155.352C291.429 140.209 291.429 133.255 291.429 127.646C291.429 122.15 288.22 119.795 284.68 119.795C281.471 119.795 279.48 121.477 278.152 124.281Z" fill="#ECEDDA"/>
<path d="M261.777 190.909C251.93 190.909 242.194 186.422 232.457 177.336C226.372 171.728 212.099 157.931 206.899 152.884C203.691 149.743 202.916 146.378 202.916 144.247C202.916 141.331 204.022 138.527 206.014 136.508C209.333 133.142 215.75 132.245 220.397 136.508C222.942 138.751 227.036 142.677 229.581 145.144V94.2205C229.581 87.7148 234.117 85.3593 238.321 85.3593C242.526 85.3593 246.841 88.4999 246.841 94.4448V111.158C248.721 109.363 251.487 108.578 254.143 108.578C257.794 108.578 261.445 110.485 262.994 114.186C264.654 112.279 267.42 111.046 270.296 111.046C275.607 111.046 279.148 114.747 279.258 120.355C280.697 119.009 282.467 118.449 284.569 118.449C288.22 118.449 292.535 120.804 292.535 127.534V155.239C292.535 172.401 286.782 183.169 274.943 188.217C270.628 190.011 266.203 190.909 261.777 190.909ZM213.316 136.283C211.214 136.283 209.223 137.068 207.895 138.414C206.346 139.985 205.461 142.116 205.461 144.359C205.461 146.827 206.567 149.182 208.669 151.201C213.759 156.137 228.032 169.933 234.117 175.542C247.394 187.88 260.781 191.357 274.058 185.861C284.901 181.374 290.101 171.392 290.101 155.352V127.646C290.101 123.496 287.999 121.028 284.569 121.028C282.246 121.028 280.586 122.15 279.258 124.506V127.646C279.258 128.319 278.705 128.88 278.041 128.88C277.377 128.88 276.824 128.319 276.824 127.646V120.468C276.824 116.205 274.39 113.513 270.407 113.513C266.867 113.513 263.769 115.981 263.769 118.897V126.525C263.769 127.198 263.215 127.758 262.552 127.758C261.888 127.758 261.335 127.198 261.335 126.525V117.776C261.335 113.177 257.905 111.158 254.364 111.158C252.151 111.158 247.172 111.831 247.172 117.551V122.935V124.169C247.172 124.842 246.619 125.403 245.955 125.403C245.292 125.403 244.738 124.842 244.738 124.169V94.4448C244.738 89.8459 241.751 87.8269 238.764 87.8269C236.44 87.8269 232.457 88.6121 232.457 94.2205V148.061C232.457 148.622 232.125 149.07 231.683 149.182C231.24 149.407 230.687 149.295 230.355 148.958C230.244 148.846 222.831 141.667 219.07 138.414C217.189 136.956 215.197 136.283 213.316 136.283Z" fill="#510066"/>
<path d="M164.413 44.4182C176.145 44.4182 185.656 34.7761 185.656 22.8821C185.656 10.988 176.145 1.34595 164.413 1.34595C152.681 1.34595 143.17 10.988 143.17 22.8821C143.17 34.7761 152.681 44.4182 164.413 44.4182Z" fill="#ECEDDA"/>
<path d="M164.413 45.6521C152.021 45.6521 141.842 35.4448 141.842 22.7699C141.842 10.2072 151.91 -0.112183 164.413 -0.112183C176.915 -0.112183 186.983 10.2072 186.983 22.8821C186.983 35.4448 176.915 45.6521 164.413 45.6521ZM164.413 2.57983C153.348 2.57983 144.387 11.6654 144.387 22.8821C144.387 34.0988 153.348 43.1844 164.413 43.1844C175.477 43.1844 184.439 34.0988 184.439 22.8821C184.439 11.6654 175.477 2.57983 164.413 2.57983Z" fill="#510066"/>
<path d="M167.51 32.192H174.37C174.37 32.192 174.37 30.3974 174.37 28.827C174.37 25.5742 172.157 22.5457 167.621 22.5457H161.315C156.668 22.5457 154.565 25.5742 154.565 28.827C154.565 30.5095 154.565 32.192 154.565 32.192H161.425H167.51Z" fill="#FF6030"/>
<path d="M174.37 33.538H154.454C153.791 33.538 153.237 32.9772 153.237 32.3042V28.9391C153.237 25.1255 155.671 21.3118 161.314 21.3118H167.621C173.153 21.3118 175.698 25.1255 175.698 28.9391V32.3042C175.698 32.865 175.034 33.538 174.37 33.538ZM155.782 30.9582H173.153V28.827C173.153 26.3593 171.714 23.7794 167.621 23.7794H161.314C157.22 23.7794 155.782 26.3593 155.782 28.827V30.9582Z" fill="#510066"/>
<path d="M164.413 22.4334C167.53 22.4334 170.056 19.8722 170.056 16.7128C170.056 13.5535 167.53 10.9923 164.413 10.9923C161.297 10.9923 158.771 13.5535 158.771 16.7128C158.771 19.8722 161.297 22.4334 164.413 22.4334Z" fill="white"/>
<path d="M164.413 23.6672C160.54 23.6672 157.442 20.5266 157.442 16.6007C157.442 12.6749 160.54 9.53418 164.413 9.53418C168.285 9.53418 171.383 12.6749 171.383 16.6007C171.383 20.5266 168.285 23.6672 164.413 23.6672ZM164.413 12.2262C161.979 12.2262 159.987 14.2452 159.987 16.7129C159.987 19.1806 161.979 21.1996 164.413 21.1996C166.847 21.1996 168.838 19.1806 168.838 16.7129C168.838 14.2452 166.847 12.2262 164.413 12.2262Z" fill="#510066"/>
<path d="M75.0155 161.184C86.7478 161.184 96.2586 151.542 96.2586 139.648C96.2586 127.754 86.7478 118.112 75.0155 118.112C63.2833 118.112 53.7725 127.754 53.7725 139.648C53.7725 151.542 63.2833 161.184 75.0155 161.184Z" fill="#ECEDDA"/>
<path d="M75.0151 162.53C62.6233 162.53 52.4443 152.323 52.4443 139.648C52.4443 127.086 62.5127 116.766 75.0151 116.766C87.5175 116.766 97.5859 126.973 97.5859 139.648C97.4752 152.211 87.4069 162.53 75.0151 162.53ZM75.0151 119.346C63.951 119.346 54.9891 128.432 54.9891 139.648C54.9891 150.865 63.951 159.951 75.0151 159.951C86.0792 159.951 95.0411 150.865 95.0411 139.648C95.0411 128.432 85.9686 119.346 75.0151 119.346Z" fill="#510066"/>
<path d="M78.113 149.07H84.9727C84.9727 149.07 84.9727 147.276 84.9727 145.705C84.9727 142.452 82.7599 139.424 78.2236 139.424H71.9171C67.2701 139.424 65.168 142.452 65.168 145.705C65.168 147.388 65.168 149.07 65.168 149.07H71.9171H78.113Z" fill="#F6DF4A"/>
<path d="M84.9726 150.416H65.0572C64.2827 150.416 63.7295 149.743 63.7295 149.07V145.705C63.7295 141.892 66.2742 137.966 71.9169 137.966H78.2235C83.8662 137.966 86.4109 141.892 86.4109 145.705V149.07C86.3003 149.855 85.6364 150.416 84.9726 150.416ZM66.3849 147.612H83.5342V145.593C83.5342 143.238 82.0959 140.658 78.1128 140.658H71.8063C67.8232 140.658 66.3849 143.238 66.3849 145.593V147.612Z" fill="#510066"/>
<path d="M75.0157 139.199C78.1321 139.199 80.6584 136.638 80.6584 133.479C80.6584 130.32 78.1321 127.758 75.0157 127.758C71.8994 127.758 69.373 130.32 69.373 133.479C69.373 136.638 71.8994 139.199 75.0157 139.199Z" fill="white"/>
<path d="M75.0153 140.546C71.1429 140.546 68.0449 137.405 68.0449 133.479C68.0449 129.553 71.1429 126.412 75.0153 126.412C78.8878 126.412 81.9857 129.553 81.9857 133.479C81.9857 137.405 78.7771 140.546 75.0153 140.546ZM75.0153 128.992C72.5812 128.992 70.5897 131.011 70.5897 133.479C70.5897 135.947 72.5812 137.966 75.0153 137.966C77.4494 137.966 79.441 135.947 79.441 133.479C79.441 131.011 77.4494 128.992 75.0153 128.992Z" fill="#510066"/>
<path d="M173.928 201.789H141.732C139.629 201.789 137.97 200.106 137.97 197.975V132.133C137.97 130.002 139.629 128.319 141.732 128.319H173.928C176.03 128.319 177.69 130.002 177.69 132.133V197.975C177.69 200.106 176.03 201.789 173.928 201.789Z" fill="#F6DF4A"/>
<path d="M173.928 203.247H141.731C138.854 203.247 136.642 200.891 136.642 198.087V132.245C136.642 129.329 138.965 127.085 141.731 127.085H173.928C176.804 127.085 179.017 129.441 179.017 132.245V198.087C179.017 200.891 176.694 203.247 173.928 203.247ZM141.731 129.665C140.403 129.665 139.297 130.787 139.297 132.133V197.975C139.297 199.321 140.403 200.443 141.731 200.443H173.928C175.255 200.443 176.362 199.321 176.362 197.975V132.133C176.362 130.787 175.255 129.665 173.928 129.665H141.731Z" fill="#510066"/>
<path d="M147.816 160.399C147.484 160.399 147.152 160.287 146.931 160.063C146.488 159.614 146.488 158.717 146.931 158.268L156.446 148.622C156.888 148.173 157.773 148.173 158.216 148.622C158.658 149.07 158.658 149.968 158.216 150.416L148.701 160.063C148.369 160.287 148.148 160.399 147.816 160.399Z" fill="white"/>
<path d="M159.544 178.121C159.212 178.121 158.88 178.009 158.659 177.785C158.217 177.336 158.217 176.439 158.659 175.99L168.174 166.344C168.617 165.895 169.502 165.895 169.944 166.344C170.387 166.793 170.387 167.69 169.944 168.139L160.429 177.785C160.208 178.009 159.876 178.121 159.544 178.121Z" fill="white"/>
<path d="M147.816 174.644C147.484 174.644 147.152 174.532 146.931 174.308C146.488 173.859 146.488 172.962 146.931 172.513L168.616 150.528C169.059 150.08 169.944 150.08 170.386 150.528C170.829 150.977 170.829 151.874 170.386 152.323L148.701 174.308C148.369 174.42 148.148 174.644 147.816 174.644Z" fill="white"/>
<path d="M165.298 195.283H150.362C149.698 195.283 149.145 194.722 149.145 194.049C149.145 193.376 149.698 192.815 150.362 192.815H165.298C165.962 192.815 166.515 193.376 166.515 194.049C166.515 194.722 165.962 195.283 165.298 195.283Z" fill="#510066"/>
<path d="M146.268 140.209C148.162 140.209 149.698 138.652 149.698 136.732C149.698 134.811 148.162 133.255 146.268 133.255C144.373 133.255 142.838 134.811 142.838 136.732C142.838 138.652 144.373 140.209 146.268 140.209Z" fill="#510066"/>
<path d="M57.3118 151.762L5.42116 167.69L19.9151 176.663L1.2168 193.825L9.62552 203.359L28.4345 186.31L35.4049 201.901L57.3118 151.762Z" fill="#FF6030"/>
<path d="M9.62579 204.593C9.29387 204.593 8.96195 204.481 8.74067 204.144L0.331943 194.722C-0.110621 194.161 -0.110621 193.376 0.442584 192.928L17.9239 176.776L4.86823 168.699C4.42566 168.475 4.20438 167.914 4.31502 167.466C4.42566 167.017 4.75759 166.568 5.20015 166.456L56.9802 150.528C57.4227 150.416 57.976 150.528 58.3079 150.865C58.6398 151.201 58.7504 151.762 58.5292 152.211L36.7329 202.35C36.5116 202.798 36.069 203.135 35.6264 203.135C35.1839 203.135 34.7413 202.798 34.52 202.35L27.9922 188.441L10.5109 204.257C10.2896 204.481 9.95772 204.593 9.62579 204.593ZM2.98733 193.937L9.73644 201.452L27.6603 185.412C27.9922 185.188 28.3241 185.076 28.7667 185.076C29.2093 185.188 29.4305 185.412 29.6518 185.749L35.4052 198.648L54.9886 153.669L8.51938 168.026L20.5793 175.43C20.9112 175.654 21.1325 175.99 21.1325 176.439C21.1325 176.888 21.0218 177.224 20.6899 177.449L2.98733 193.937Z" fill="#510066"/>
<path d="M58.1977 151.762L52.7762 187.431C52.7762 187.431 47.7974 187.768 42.376 187.319L58.1977 151.762Z" fill="#510066"/>
<path d="M315.88 86.1444C314.11 86.1444 312.45 86.8174 311.233 87.8269C310.459 84.7984 307.803 82.5551 304.595 82.5551C301.165 82.5551 298.399 85.0227 297.846 88.3878H294.527C290.986 88.3878 288.109 91.3041 288.109 94.8935C288.109 98.4828 290.986 101.399 294.527 101.399H315.548C315.659 101.399 315.77 101.399 315.88 101.399C320.085 101.399 323.404 98.0341 323.404 93.7718C323.404 89.5094 319.974 86.1444 315.88 86.1444Z" fill="#510066"/>
<path d="M319.421 82.3308C317.651 82.3308 315.991 83.0038 314.774 84.0133C314 80.9848 311.345 78.7415 308.136 78.7415C304.706 78.7415 301.94 81.2091 301.387 84.5742H298.068C294.527 84.5742 291.65 87.4905 291.65 91.0799C291.65 94.6692 294.527 97.5856 298.068 97.5856H319.089C319.2 97.5856 319.311 97.5856 319.421 97.5856C323.626 97.5856 326.945 94.2205 326.945 89.9582C326.945 85.6958 323.515 82.3308 319.421 82.3308Z" fill="white"/>
<path d="M319.421 98.595C319.31 98.595 319.2 98.595 319.089 98.595H298.067C293.974 98.595 290.654 95.23 290.654 91.0798C290.654 86.9296 293.974 83.5646 298.067 83.5646H300.612C301.497 80.1996 304.595 77.7319 308.136 77.7319C311.234 77.7319 314 79.6388 315.217 82.443C316.434 81.6578 317.872 81.3213 319.421 81.3213C324.068 81.3213 327.83 85.135 327.83 89.846C327.83 94.6692 324.068 98.595 319.421 98.595ZM297.957 85.4715C294.969 85.4715 292.425 87.9391 292.425 91.0798C292.425 94.1083 294.859 96.6882 297.957 96.6882H318.978C319.089 96.6882 319.2 96.6882 319.31 96.6882C322.962 96.6882 325.949 93.6597 325.949 89.9582C325.949 86.2566 322.962 83.2281 319.31 83.2281C317.761 83.2281 316.434 83.6768 315.217 84.6863C314.995 84.9106 314.663 84.9106 314.332 84.7985C314 84.6863 313.778 84.462 313.778 84.1255C313.114 81.4334 310.791 79.6388 308.025 79.6388C305.148 79.6388 302.714 81.77 302.161 84.5741C302.05 85.0228 301.718 85.3593 301.276 85.3593H297.957V85.4715Z" fill="#510066"/>
</g>
<defs>
<clipPath id="clip0">
<rect width="340" height="204.593" fill="white"/>
</clipPath>
</defs>
</svg>
