<svg width="315" height="209" viewBox="0 0 315 209" fill="none" xmlns="http://www.w3.org/2000/svg">
<path d="M112.745 190.567V205.098C112.745 207.144 111.12 208.781 109.088 208.781H12.2901C10.2586 208.781 8.63348 207.144 8.63348 205.098V99.5977C8.63348 97.5511 10.2586 95.9139 12.2901 95.9139H77.093" fill="#3C004B"/>
<path d="M120.972 182.995V197.525C120.972 199.572 119.347 201.209 117.315 201.209H20.5172C18.4858 201.209 16.8607 199.572 16.8607 197.525V92.1277C16.8607 90.0812 18.4858 88.4439 20.5172 88.4439H85.3201" fill="white"/>
<path d="M117.315 202.539H20.5172C17.7747 202.539 15.6417 200.288 15.6417 197.628V92.1277C15.6417 89.3649 17.8763 87.216 20.5172 87.216H85.3201C86.0311 87.216 86.5389 87.7276 86.5389 88.4439C86.5389 89.1602 86.0311 89.6719 85.3201 89.6719H20.5172C19.1967 89.6719 18.0794 90.7975 18.0794 92.1277V197.628C18.0794 198.958 19.1967 200.084 20.5172 200.084H117.315C118.636 200.084 119.753 198.958 119.753 197.628V183.097C119.753 182.381 120.261 181.869 120.972 181.869C121.683 181.869 122.191 182.381 122.191 183.097V197.628C122.191 200.288 120.058 202.539 117.315 202.539Z" fill="#3C004B"/>
<path d="M92.0239 114.231H16.8607V92.9463C16.8607 90.4905 18.8921 88.4439 21.3298 88.4439H85.3201L92.0239 114.231Z" fill="#ECEDDA"/>
<path d="M30.1995 103.765L36.5986 103.765L36.5986 97.3182L30.1995 97.3182L30.1995 103.765Z" fill="#FF6030"/>
<path d="M36.5658 105.021H30.1668C29.4558 105.021 28.9479 104.509 28.9479 103.793V97.3465C28.9479 96.6302 29.4558 96.1185 30.1668 96.1185H36.5658C37.2768 96.1185 37.7847 96.6302 37.7847 97.3465V103.793C37.7847 104.509 37.2768 105.021 36.5658 105.021ZM31.3857 102.565H35.347V98.5744H31.3857V102.565Z" fill="#3C004B"/>
<path d="M42.1981 103.765L48.5971 103.765L48.5971 97.3182L42.1981 97.3182L42.1981 103.765Z" fill="#F6DF4A"/>
<path d="M48.6526 105.021H42.2535C41.5425 105.021 41.0347 104.509 41.0347 103.793V97.3465C41.0347 96.6302 41.5425 96.1185 42.2535 96.1185H48.6526C49.3636 96.1185 49.8714 96.6302 49.8714 97.3465V103.793C49.8714 104.509 49.262 105.021 48.6526 105.021ZM43.4724 102.565H47.4337V98.5744H43.4724V102.565Z" fill="#3C004B"/>
<path d="M60.74 97.4488H54.341V103.895H60.74V97.4488Z" fill="#ECEDDA"/>
<path d="M60.6385 105.021H54.2394C53.5284 105.021 53.0206 104.509 53.0206 103.793V97.3465C53.0206 96.6302 53.5284 96.1185 54.2394 96.1185H60.6385C61.3495 96.1185 61.8573 96.6302 61.8573 97.3465V103.793C61.8573 104.509 61.3495 105.021 60.6385 105.021ZM55.5599 102.565H59.5212V98.5744H55.5599V102.565Z" fill="#3C004B"/>
<path d="M205.784 70.2296H295.371C297.199 70.2296 298.723 71.7645 298.723 73.6064V177.674C298.723 179.516 297.199 181.051 295.371 181.051H185.775C183.946 181.051 182.423 179.516 182.423 177.674V171.432" fill="#3C004B"/>
<path d="M197.964 62.4526H287.55C289.378 62.4526 290.902 63.9876 290.902 65.8295V169.897C290.902 171.739 289.378 173.274 287.55 173.274H177.954C176.126 173.274 174.602 171.739 174.602 169.897V160.892" fill="white"/>
<path d="M287.55 174.604H177.954C175.415 174.604 173.383 172.557 173.383 169.999V160.994C173.383 160.278 173.891 159.766 174.602 159.766C175.313 159.766 175.821 160.278 175.821 160.994V169.999C175.821 171.227 176.837 172.148 177.954 172.148H287.55C288.769 172.148 289.683 171.125 289.683 169.999V65.9318C289.683 64.7038 288.667 63.7829 287.55 63.7829H197.964C197.253 63.7829 196.745 63.2713 196.745 62.555C196.745 61.8387 197.253 61.327 197.964 61.327H287.55C290.089 61.327 292.121 63.3736 292.121 65.9318V169.897C292.222 172.455 290.089 174.604 287.55 174.604Z" fill="#3C004B"/>
<path d="M200.401 86.0904H287.245C289.277 86.0904 290.902 84.4531 290.902 82.4066V66.1364C290.902 64.0899 289.277 62.4526 287.245 62.4526H200.401C198.37 62.4526 196.745 64.0899 196.745 66.1364V82.4066C196.745 84.4531 198.37 86.0904 200.401 86.0904Z" fill="#FF6030"/>
<path d="M259.008 78.8251H253.625C252.914 78.8251 252.406 78.3134 252.406 77.5971C252.406 76.8808 252.914 76.3692 253.625 76.3692H259.008C259.719 76.3692 260.227 76.8808 260.227 77.5971C260.227 78.3134 259.618 78.8251 259.008 78.8251Z" fill="#3C004B"/>
<path d="M270.791 71.2529H264.392V77.6996H270.791V71.2529Z" fill="white"/>
<path d="M270.689 78.8252H264.29C263.579 78.8252 263.071 78.3135 263.071 77.5972V71.1506C263.071 70.4343 263.579 69.9227 264.29 69.9227H270.689C271.4 69.9227 271.908 70.4343 271.908 71.1506V77.5972C271.908 78.3135 271.4 78.8252 270.689 78.8252ZM265.61 76.3693H269.572V72.3785H265.61V76.3693Z" fill="#3C004B"/>
<path d="M280.744 74.3227L282.877 72.1738C283.385 71.6622 283.385 70.9459 282.877 70.4343C282.37 69.9226 281.659 69.9226 281.151 70.4343L279.018 72.5831L276.885 70.4343C276.377 69.9226 275.666 69.9226 275.158 70.4343C274.65 70.9459 274.65 71.6622 275.158 72.1738L277.291 74.3227L275.158 76.4716C274.65 76.9832 274.65 77.6995 275.158 78.2112C275.361 78.4158 275.666 78.6205 275.971 78.6205C276.275 78.6205 276.58 78.5182 276.783 78.2112L278.916 76.0623L281.049 78.2112C281.252 78.4158 281.557 78.6205 281.862 78.6205C282.166 78.6205 282.471 78.5182 282.674 78.2112C283.182 77.6995 283.182 76.9832 282.674 76.4716L280.744 74.3227Z" fill="#3C004B"/>
<path d="M290.496 87.3183H204.566C203.855 87.3183 203.347 86.8066 203.347 86.0904C203.347 85.3741 203.855 84.8624 204.566 84.8624H290.496C291.207 84.8624 291.715 85.3741 291.715 86.0904C291.715 86.8066 291.105 87.3183 290.496 87.3183Z" fill="#3C004B"/>
<path d="M170.234 42.908C169.828 42.908 169.523 42.7034 169.219 42.3964L166.883 39.2242L163.734 36.8707C163.429 36.666 163.226 36.2567 163.226 35.8474C163.226 35.4381 163.429 35.1311 163.734 34.8241L166.883 32.4706L169.219 29.2984C169.422 28.9915 169.828 28.7868 170.234 28.7868C170.641 28.7868 170.945 28.9915 171.25 29.2984L173.586 32.4706L176.735 34.8241C177.04 35.0288 177.243 35.4381 177.243 35.8474C177.243 36.2567 177.04 36.5637 176.735 36.8707L173.586 39.2242L171.25 42.3964C170.945 42.8057 170.539 42.908 170.234 42.908ZM166.476 35.9497L168.406 37.4847C168.508 37.587 168.609 37.587 168.609 37.6893L170.133 39.6335L171.656 37.6893C171.758 37.587 171.758 37.4847 171.86 37.4847L173.79 35.9497L171.86 34.4148C171.758 34.3125 171.656 34.3125 171.656 34.2102L170.133 32.2659L168.609 34.2102C168.508 34.3125 168.508 34.4148 168.406 34.4148L166.476 35.9497Z" fill="#3C004B"/>
<path d="M79.4289 69.9226C79.0226 69.9226 78.7179 69.7179 78.4131 69.4109L76.1786 66.2388L73.0298 63.8852C72.7251 63.6806 72.522 63.2713 72.522 62.862C72.522 62.4526 72.7251 62.1457 73.0298 61.8387L76.1786 59.4851L78.5147 56.313C78.7179 56.006 79.1241 55.8013 79.5304 55.8013C79.9367 55.8013 80.2414 56.006 80.5462 56.313L82.8823 59.4851L86.031 61.8387C86.3358 62.0433 86.5389 62.4526 86.5389 62.862C86.5389 63.2713 86.3358 63.5783 86.031 63.8852L82.8823 66.2388L80.5462 69.4109C80.2414 69.7179 79.8351 69.9226 79.4289 69.9226ZM75.7723 62.9643L77.7021 64.4992C77.8037 64.6015 77.9053 64.6015 77.9053 64.7039L79.4289 66.6481L80.9524 64.7039C81.054 64.6015 81.054 64.4992 81.1556 64.4992L83.0855 62.9643L81.1556 61.4294C81.054 61.327 80.9524 61.327 80.9524 61.2247L79.4289 59.2805L77.9053 61.2247C77.8037 61.327 77.8037 61.4294 77.7021 61.4294L75.7723 62.9643Z" fill="#3C004B"/>
<path d="M145.755 202.744C145.349 202.744 145.044 202.539 144.74 202.233L142.404 199.06L139.255 196.707C138.95 196.502 138.747 196.093 138.747 195.684C138.747 195.274 138.95 194.967 139.255 194.66L142.404 192.307L144.74 189.135C144.943 188.828 145.349 188.623 145.755 188.623C146.162 188.623 146.466 188.828 146.771 189.135L149.107 192.307L152.256 194.66C152.561 194.865 152.764 195.274 152.764 195.684C152.764 196.093 152.561 196.4 152.256 196.707L149.107 199.06L146.771 202.233C146.466 202.539 146.162 202.744 145.755 202.744ZM142.099 195.786L144.029 197.321C144.13 197.423 144.232 197.423 144.232 197.525L145.755 199.47L147.279 197.525C147.381 197.423 147.381 197.321 147.482 197.321L149.412 195.786L147.482 194.251C147.381 194.149 147.279 194.149 147.279 194.046L145.755 192.102L144.232 194.046C144.13 194.149 144.13 194.251 144.029 194.251L142.099 195.786Z" fill="#510066"/>
<path d="M144.537 45.6709C143.927 45.6709 143.318 45.1592 143.318 44.5453L142.201 23.5681C142.201 22.8518 142.708 22.3401 143.318 22.2378C144.029 22.2378 144.537 22.7494 144.638 23.3634L145.756 44.2383C145.756 45.0569 145.248 45.5685 144.537 45.6709Z" fill="#510066"/>
<path d="M252.609 190.567H223.255C222.544 190.567 222.036 190.055 222.036 189.339C222.036 188.623 222.544 188.111 223.255 188.111H252.609C253.32 188.111 253.828 188.623 253.828 189.339C253.828 190.055 253.218 190.567 252.609 190.567Z" fill="#3C004B"/>
<path d="M59.3178 80.2577H29.9635C29.2525 80.2577 28.7446 79.746 28.7446 79.0298C28.7446 78.3135 29.2525 77.8018 29.9635 77.8018H59.3178C60.0288 77.8018 60.5366 78.3135 60.5366 79.0298C60.5366 79.746 59.9272 80.2577 59.3178 80.2577Z" fill="#3C004B"/>
<path d="M119.855 41.5778L128.996 39.2242L121.886 1.26062L107.971 4.94442L119.855 41.5778Z" fill="#FF6030"/>
<path d="M119.855 42.8059C119.347 42.8059 118.839 42.4989 118.737 41.9873L106.853 5.35391C106.752 5.04693 106.752 4.63761 106.955 4.43296C107.158 4.12598 107.361 3.92132 107.666 3.81899L121.581 0.0328641C121.886 -0.0694637 122.292 0.0328641 122.495 0.135192C122.8 0.339847 123.003 0.646831 123.003 0.953814L130.113 38.9174C130.215 39.5314 129.809 40.1454 129.199 40.35L120.058 42.8059C120.058 42.8059 119.956 42.8059 119.855 42.8059ZM109.596 5.76322L120.667 40.1454L127.574 38.3035L120.972 2.79571L109.596 5.76322Z" fill="#3C004B"/>
<path d="M109.698 55.085C109.291 55.085 108.885 54.8804 108.682 54.4711L98.3216 36.5637C98.0169 35.9497 98.22 35.2334 98.7279 34.9265C99.3373 34.6195 100.048 34.8241 100.353 35.3358L110.713 53.2431C111.018 53.8571 110.815 54.5734 110.307 54.8804C110.104 55.085 109.901 55.085 109.698 55.085Z" fill="#510066"/>
<path d="M170.234 188.009C169.93 188.009 169.625 187.907 169.32 187.6L160.179 177.571C159.772 177.06 159.772 176.344 160.28 175.832C160.788 175.423 161.499 175.423 162.007 175.934L171.148 185.962C171.555 186.474 171.555 187.19 171.047 187.702C170.742 187.907 170.539 188.009 170.234 188.009Z" fill="#510066"/>
<path d="M128.386 62.0433C132.145 62.0433 135.192 58.9738 135.192 55.1874C135.192 51.4009 132.145 48.3314 128.386 48.3314C124.628 48.3314 121.581 51.4009 121.581 55.1874C121.581 58.9738 124.628 62.0433 128.386 62.0433Z" fill="#FF6030"/>
<path d="M128.386 63.1689C126.964 63.1689 125.644 62.7596 124.324 62.0433C122.495 60.9177 121.175 59.1782 120.667 57.1316C119.55 52.8338 122.089 48.4337 126.355 47.3081C130.621 46.1825 134.989 48.7407 136.106 53.0385C136.614 55.085 136.309 57.2339 135.293 59.1782C134.176 61.0201 132.449 62.3503 130.418 62.862C129.707 63.0666 128.996 63.1689 128.386 63.1689ZM128.386 49.5593C127.879 49.5593 127.472 49.6617 126.964 49.764C125.542 50.1733 124.324 51.0943 123.613 52.3222C122.902 53.6525 122.698 55.085 123.003 56.5176C123.409 57.9502 124.324 59.1782 125.542 59.8945C126.863 60.6107 128.285 60.8154 129.707 60.5084C131.129 60.0991 132.348 59.1782 133.059 57.9502C133.77 56.62 133.973 55.1874 133.668 53.7548C133.059 51.1966 130.824 49.5593 128.386 49.5593Z" fill="#3C004B"/>
<path d="M273.228 144.315C273.127 144.315 271.298 144.827 268.353 145.543C268.251 145.543 268.048 145.543 268.048 145.441L222.849 105.226C222.747 105.123 223.661 103.793 210.965 107.17C210.863 107.17 210.761 107.17 210.761 107.17C210.66 107.17 210.66 107.068 210.66 106.965C208.933 100.314 200.503 66.7504 199.792 64.4992C198.268 59.0758 194.51 56.5176 189.635 57.5409C187.095 58.0525 185.267 59.2805 184.048 61.327C183.946 61.4294 183.845 61.5317 183.743 61.4294C183.642 61.4294 183.54 61.327 183.54 61.2247C183.337 60.5084 183.235 59.9968 183.134 59.5875C181.61 54.1641 177.243 51.5036 172.266 52.8338C170.336 53.3455 168.711 54.4711 167.39 56.2106C167.289 56.313 167.187 56.313 167.086 56.313C166.984 56.313 166.882 56.2106 166.882 56.1083C165.968 53.6524 164.343 51.6059 162.413 50.4803C160.483 49.3547 158.249 49.0477 155.913 49.764C150.326 51.4012 149.006 56.5176 150.123 60.9177C150.225 61.327 150.326 61.7363 150.428 62.1457C150.428 62.248 150.428 62.3503 150.326 62.4526C150.225 62.555 150.123 62.555 150.021 62.555C148.396 61.941 146.67 61.941 144.841 62.3503C142.708 62.862 140.88 64.1922 139.864 66.0341C138.544 68.2853 138.239 71.3552 138.95 74.425C138.95 74.5273 138.95 74.6297 138.849 74.732C138.747 74.8343 138.645 74.8343 138.544 74.8343C134.583 74.5273 132.246 76.2669 131.028 77.8018C130.926 77.9041 130.824 77.9041 130.723 77.9041C130.621 77.9041 130.52 77.8018 130.52 77.6995C129.606 75.1413 128.184 73.1971 126.254 72.1738C124.324 71.0482 122.089 70.7412 119.753 71.3552C117.62 71.8668 115.893 73.0947 114.776 74.732C114.674 74.8343 114.573 74.8343 114.471 74.8343C114.37 74.8343 114.268 74.732 114.268 74.6297C113.354 71.9691 111.83 69.9226 109.901 68.6946C107.971 67.569 105.736 67.2621 103.4 67.876C98.3214 69.2063 96.3915 73.811 97.0009 77.4948C97.2041 78.5181 97.4072 79.5414 97.5088 80.36C97.5088 80.4623 97.5088 80.5647 97.4072 80.667C97.3056 80.7693 97.2041 80.7693 97.1025 80.7693C95.3758 80.1554 93.3443 80.1554 91.4145 80.7693C87.5547 81.9973 83.8982 85.4764 85.4217 91.5137C86.6406 96.2208 92.6333 120.063 95.1726 130.091C95.1726 130.194 95.1726 130.398 95.0711 130.398C94.9695 130.501 94.7663 130.501 94.6648 130.398C92.938 128.761 91.6176 127.635 90.7035 126.919C85.5233 122.621 79.9368 122.417 75.6708 126.612C73.9441 128.249 73.03 130.808 73.03 133.468C73.03 136.436 74.2488 139.199 76.2803 141.245C76.6865 141.552 77.0928 142.064 77.6007 142.473C77.7023 142.575 77.7023 142.678 77.7023 142.78C77.7023 142.882 77.6007 142.985 77.4991 142.985C77.4991 142.985 51.3951 151.069 51.3951 151.171L94.4616 190.26C94.5632 190.362 121.988 184.223 140.778 179.106C148.904 176.855 155.1 171.534 158.858 163.655C160.89 159.459 161.601 155.673 161.905 153.729C161.905 153.627 162.007 153.524 162.109 153.524C162.21 153.524 162.312 153.524 162.413 153.524C165.562 155.776 168.508 157.822 170.945 159.459C177.04 163.757 183.743 165.804 191.564 165.804C196.44 165.804 201.722 164.985 207.917 163.45C215.738 161.404 271.501 146.975 273.939 146.361C274.447 146.259 274.752 145.747 274.549 145.236C274.244 144.52 273.736 144.213 273.228 144.315Z" fill="#F6DF4A"/>
<path d="M87.6562 192.921C87.1484 192.921 86.6405 192.511 86.4374 192C86.2342 191.386 86.6405 190.669 87.3515 190.465C87.6562 190.362 121.175 181.869 140.067 176.65C147.584 174.604 153.272 169.795 156.725 162.427C159.366 156.901 159.772 151.785 159.772 151.785C159.874 151.069 160.382 150.557 161.093 150.659C161.804 150.762 162.312 151.273 162.21 151.989C162.21 152.194 161.804 157.413 158.96 163.45C155.202 171.432 148.803 176.855 140.677 179.106C121.784 184.325 88.2657 192.818 87.8594 192.921C87.8594 192.921 87.7578 192.921 87.6562 192.921Z" fill="#3C004B"/>
<path d="M191.361 165.804C183.438 165.804 176.735 163.655 170.64 159.357C167.796 157.311 164.241 154.855 160.382 152.092C146.263 142.268 128.691 129.989 124.933 127.022C122.698 125.18 121.276 122.519 121.175 119.654C120.972 116.686 122.089 113.821 124.324 111.672C129.098 106.863 134.989 108.603 137.833 110.956C139.559 112.389 146.162 117.096 150.021 119.859C147.38 109.728 139.458 78.7228 138.442 74.7321C137.63 71.5599 137.934 68.3877 139.356 65.9319C140.474 63.9876 142.302 62.6574 144.536 62.1457C150.428 60.7131 154.287 64.4993 155.608 68.8994C156.827 72.9925 163.327 99.8024 163.632 101.03C163.835 101.644 163.429 102.361 162.718 102.565C162.108 102.77 161.397 102.361 161.194 101.644C161.093 101.337 154.389 73.7088 153.17 69.6157C152.256 66.5458 149.615 63.476 145.044 64.6016C143.419 65.0109 142.2 65.9319 141.388 67.2621C140.27 69.104 140.067 71.5599 140.778 74.1181C141.997 78.9275 153.068 122.008 153.17 122.417C153.272 122.928 153.068 123.44 152.662 123.747C152.256 124.054 151.646 124.054 151.24 123.747C150.732 123.338 138.645 114.947 136.208 112.798C134.075 111.058 129.605 109.728 125.949 113.412C124.222 115.152 123.409 117.3 123.511 119.552C123.613 121.803 124.73 123.849 126.355 125.18C130.012 128.147 147.482 140.427 161.601 150.25C165.46 153.013 169.015 155.469 171.859 157.515C181.204 164.064 191.666 165.19 207.003 161.199C214.824 159.153 277.494 143.087 278.104 142.882C278.713 142.678 279.424 143.087 279.627 143.803C279.83 144.417 279.424 145.134 278.713 145.338C278.104 145.543 215.535 161.506 207.613 163.655C201.721 164.985 196.237 165.804 191.361 165.804Z" fill="#3C004B"/>
<path d="M262.462 162.939C261.954 162.939 261.446 162.529 261.243 162.018C261.04 161.404 261.446 160.687 262.157 160.483C283.182 155.059 313.045 147.385 313.349 147.385C313.959 147.18 314.67 147.589 314.873 148.306C315.076 148.92 314.67 149.636 313.959 149.841C313.654 149.943 283.792 157.618 262.766 162.939C262.665 162.939 262.563 162.939 262.462 162.939Z" fill="#3C004B"/>
<path d="M251.39 137.05C250.882 137.05 250.374 136.64 250.171 136.129C249.968 135.515 250.374 134.798 251.085 134.594L260.836 132.036C261.446 131.831 262.157 132.24 262.36 132.957C262.563 133.57 262.157 134.287 261.446 134.491L251.695 137.05C251.593 137.05 251.492 137.05 251.39 137.05Z" fill="#3C004B"/>
<path d="M56.6767 165.804C56.1689 165.804 55.661 165.394 55.4579 164.883C55.2547 164.269 55.661 163.553 56.372 163.348L66.1229 160.79C66.7324 160.585 67.4434 160.994 67.6465 161.711C67.8497 162.325 67.4434 163.041 66.7324 163.246L56.9815 165.804C56.8799 165.804 56.7783 165.804 56.6767 165.804Z" fill="#3C004B"/>
<path d="M1.21854 150.045C0.710684 150.045 0.202825 149.636 -0.000319302 149.124C-0.203463 148.51 0.202825 147.794 0.913828 147.589C21.9392 142.166 58.0988 132.957 58.4035 132.854C59.013 132.65 59.724 133.059 59.9271 133.775C60.1303 134.389 59.724 135.105 59.013 135.31C58.6067 135.412 22.4471 144.724 1.52326 150.045C1.42169 150.045 1.32012 150.045 1.21854 150.045Z" fill="#3C004B"/>
<path d="M176.125 98.9837C175.617 98.9837 175.11 98.5744 174.906 98.0628C174.805 97.7558 166.273 63.0666 165.054 58.3596C164.343 55.5967 162.921 53.4478 161.093 52.3222C159.671 51.5036 158.046 51.2989 156.217 51.8106C151.748 53.0385 151.037 57.0293 151.85 60.3038C152.459 62.7597 152.967 64.4992 152.967 64.4992C153.17 65.1132 152.764 65.8295 152.154 66.0342C151.545 66.2388 150.834 65.8295 150.631 65.2155C150.631 65.2155 150.123 63.476 149.513 60.9178C148.396 56.4153 149.818 51.0943 155.608 49.457C157.944 48.7407 160.28 49.0477 162.312 50.1733C164.749 51.6059 166.679 54.3688 167.492 57.7456C168.609 62.4527 177.243 97.1418 177.344 97.4488C177.547 98.0628 177.141 98.779 176.43 98.9837C176.328 98.9837 176.227 98.9837 176.125 98.9837Z" fill="#3C004B"/>
<path d="M190.854 95.5045C190.346 95.5045 189.838 95.0952 189.635 94.5835C189.533 94.2765 182.017 64.0898 180.798 60.099C179.579 55.8013 176.329 53.7547 172.571 54.778C168.914 55.8013 167.797 59.3828 167.695 59.5874C167.492 60.2014 166.781 60.6107 166.172 60.406C165.562 60.2014 165.156 59.4851 165.359 58.8711C165.461 58.6665 166.984 53.8571 171.86 52.4245C176.938 50.9919 181.509 53.8571 183.032 59.3828C184.251 63.4759 191.565 92.7416 191.869 93.9696C192.072 94.5835 191.666 95.2998 190.955 95.5045C191.057 95.5045 190.955 95.5045 190.854 95.5045Z" fill="#3C004B"/>
<path d="M209.949 109.523C209.441 109.523 208.933 109.114 208.73 108.603C208.628 108.193 198.268 67.4668 197.557 65.0109C196.643 61.9411 194.611 58.5642 189.837 59.4852C184.657 60.5085 184.759 65.4202 184.759 65.6249C184.759 66.3412 184.251 66.8528 183.54 66.8528C182.829 66.8528 182.321 66.3412 182.321 65.7272C182.22 63.2713 183.54 58.2573 189.33 57.0293C194.408 56.0061 198.268 58.6666 199.893 64.1923C200.604 66.7505 210.66 106.147 211.066 107.886C211.269 108.5 210.863 109.217 210.152 109.421C210.152 109.523 210.05 109.523 209.949 109.523Z" fill="#3C004B"/>
<path d="M194.611 112.9C188.923 112.9 186.689 110.137 186.486 109.933C186.079 109.421 186.181 108.602 186.689 108.193C187.197 107.784 188.009 107.886 188.416 108.398C188.517 108.602 191.463 111.877 199.69 109.728C208.832 107.374 231.888 101.542 232.091 101.439C232.701 101.235 233.412 101.644 233.615 102.36C233.818 103.077 233.412 103.691 232.701 103.895C232.498 103.998 209.441 109.83 200.299 112.184C198.166 112.696 196.237 112.9 194.611 112.9Z" fill="#3C004B"/>
<path d="M123.41 116.175C122.902 116.175 122.394 115.765 122.191 115.254C122.089 114.947 113.76 82.202 112.338 76.3693C111.627 73.6064 110.307 71.5599 108.58 70.5366C107.158 69.718 105.533 69.5133 103.705 69.9226C99.4388 71.0482 98.5246 74.8344 98.9309 77.0856C99.5403 80.1554 99.9466 82.509 99.9466 82.509C100.048 83.1229 99.6419 83.8392 99.0325 83.9415C98.3215 84.0439 97.712 83.6346 97.6105 83.0206C97.6105 83.0206 97.1026 80.6671 96.5947 77.5972C95.8837 73.8111 97.9152 69.0017 103.197 67.6714C105.635 67.0574 107.971 67.3644 109.901 68.49C112.237 69.9226 113.862 72.4808 114.776 75.8576C116.198 81.6903 124.527 114.333 124.629 114.742C124.832 115.356 124.425 116.072 123.714 116.277C123.613 116.175 123.511 116.175 123.41 116.175Z" fill="#3C004B"/>
<path d="M138.341 113.924C137.833 113.924 137.325 113.514 137.122 113.003C134.989 104.509 129.809 84.2485 128.692 79.746C127.981 76.9832 126.66 74.9366 124.933 73.9133C123.511 73.0947 121.886 72.8901 120.058 73.2994C116.3 74.2203 115.487 77.1878 115.284 78.4158C115.183 79.1321 114.573 79.5414 113.862 79.439C113.151 79.3367 112.745 78.7227 112.846 78.0064C113.354 74.5273 115.894 71.8668 119.449 70.9458C121.886 70.3319 124.222 70.6388 126.152 71.7645C128.489 73.197 130.114 75.7552 131.028 79.1321C132.145 83.5322 137.325 103.895 139.458 112.389C139.661 113.003 139.255 113.719 138.544 113.924C138.544 113.924 138.443 113.924 138.341 113.924Z" fill="#3C004B"/>
<path d="M140.067 75.96C132.246 74.4251 130.215 80.5647 130.215 80.5647L138.239 112.286L152.053 122.621L140.067 75.96Z" fill="#3C004B"/>
<path d="M152.053 123.849C151.748 123.849 151.545 123.747 151.342 123.645L137.528 113.31C137.325 113.105 137.122 112.9 137.122 112.593L128.996 80.8716C128.894 80.667 128.996 80.36 128.996 80.1554C128.996 80.053 131.434 72.8901 140.271 74.732C140.778 74.8343 141.083 75.1413 141.185 75.6529L153.17 122.314C153.272 122.826 153.069 123.338 152.662 123.645C152.459 123.747 152.256 123.849 152.053 123.849ZM139.255 111.57L149.92 119.552L139.052 76.9832C133.872 76.2669 131.942 79.5414 131.434 80.667L139.255 111.57Z" fill="#3C004B"/>
<path d="M96.8993 134.901C96.3914 134.901 95.8836 134.491 95.6804 133.98C95.5788 133.57 86.4374 97.3464 84.9138 91.4114C83.2886 85.1694 87.0468 81.588 91.1097 80.2577C93.5474 79.4391 96.1883 79.6437 98.2197 80.7693C100.353 81.8949 101.775 83.9415 102.587 86.7043C104.314 93.0487 110.713 119.04 110.713 119.245C110.916 119.859 110.51 120.575 109.799 120.78C109.189 120.984 108.478 120.575 108.275 119.859C108.174 119.552 101.876 93.6626 100.15 87.3183C99.5401 85.1694 98.5244 83.7368 97.0009 82.9182C95.4773 82.0996 93.5474 81.9973 91.7191 82.5089C89.8908 83.1229 85.7264 85.0671 87.1484 90.6951C88.672 96.6301 97.8134 132.854 97.915 133.264C98.1181 133.877 97.7119 134.594 97.0009 134.798C97.1024 134.901 97.0009 134.901 96.8993 134.901Z" fill="#3C004B"/>
<path d="M43.6756 153.831C43.1678 153.831 42.6599 153.422 42.4568 152.91C42.2536 152.296 42.6599 151.58 43.3709 151.376L79.2258 141.961C79.8352 141.757 80.5462 142.166 80.7494 142.882C80.9525 143.496 80.5462 144.213 79.8352 144.417L43.9804 153.831C43.8788 153.729 43.7772 153.831 43.6756 153.831Z" fill="#3C004B"/>
<path d="M131.434 180.539C125.949 180.539 119.245 178.697 111.526 172.353C96.5945 159.971 80.4446 145.645 75.8738 141.245C73.7408 139.199 72.522 136.333 72.522 133.263C72.522 130.501 73.5377 127.942 75.2644 126.203C79.632 121.905 85.4216 122.007 90.7033 126.51C92.4301 127.942 95.1725 130.501 97.5087 132.65C99.5401 134.491 101.47 136.333 102.384 137.05C108.072 141.757 112.744 142.473 117.721 139.301C118.331 138.994 119.042 139.096 119.448 139.71C119.753 140.324 119.651 141.04 119.042 141.45C111.322 146.259 104.923 142.371 100.861 138.994C99.8448 138.175 98.0165 136.436 95.8835 134.491C93.5474 132.343 90.9065 129.887 89.1798 128.454C84.9137 124.873 80.4446 124.668 76.9911 128.045C75.6707 129.273 74.9597 131.217 74.9597 133.366C74.9597 135.719 75.8738 137.971 77.499 139.608C82.0697 144.008 98.1181 158.334 112.948 170.613C125.847 181.255 135.192 178.288 141.489 176.344C141.997 176.241 142.403 176.037 142.81 175.934C143.419 175.73 144.13 176.139 144.333 176.753C144.536 177.367 144.13 178.083 143.521 178.288C143.114 178.39 142.708 178.595 142.2 178.697C139.559 179.413 135.903 180.539 131.434 180.539Z" fill="#3C004B"/>
<path d="M126.152 111.263C124.121 110.649 119.042 110.751 115.893 114.947C112.643 119.245 113.456 125.077 117.417 128.249C121.886 131.831 144.943 149.431 159.163 158.232C159.163 158.232 160.991 156.083 160.585 150.864C160.585 150.864 129.91 129.477 125.746 126.101C121.581 122.724 121.988 115.765 126.152 111.263Z" fill="#3C004B"/>
<path d="M291.003 89.6718C290.292 89.6718 289.784 89.1602 289.784 88.4439V65.9318C289.784 64.7038 288.769 63.7829 287.651 63.7829H198.065C197.354 63.7829 196.846 63.2713 196.846 62.555C196.846 61.8387 197.354 61.327 198.065 61.327H287.651C290.191 61.327 292.222 63.3736 292.222 65.9318V88.4439C292.222 89.0579 291.613 89.6718 291.003 89.6718Z" fill="#3C004B"/>
<path d="M16.8606 117.096C16.1496 117.096 15.6417 116.584 15.6417 115.868V92.1277C15.6417 89.3649 17.8763 87.216 20.5172 87.216H85.3201C86.0311 87.216 86.5389 87.7276 86.5389 88.4439C86.5389 89.1602 86.0311 89.6719 85.3201 89.6719H20.5172C19.1967 89.6719 18.0794 90.7975 18.0794 92.1277V115.868C18.0794 116.482 17.5716 117.096 16.8606 117.096Z" fill="#3C004B"/>
<path d="M91.6175 115.458H16.8606C16.1496 115.458 15.6417 114.947 15.6417 114.231C15.6417 113.514 16.1496 113.003 16.8606 113.003H91.6175C92.3285 113.003 92.8364 113.514 92.8364 114.231C92.8364 114.947 92.3285 115.458 91.6175 115.458Z" fill="#3C004B"/>
</svg>
