<svg width="249" height="279" viewBox="0 0 249 279" fill="none" xmlns="http://www.w3.org/2000/svg">
<g clip-path="url(#clip0_574:1155)">
<path d="M236.796 128.117C237.653 129.298 238.188 130.694 238.188 132.305C238.188 133.916 237.653 135.312 236.689 136.493" stroke="#E6E7E8" stroke-width="1.7804" stroke-miterlimit="10" stroke-linecap="round"/>
<path d="M242.256 124.358C243.969 126.184 245.039 129.083 245.039 132.305C245.039 135.634 243.862 138.641 242.042 140.466" stroke="#E6E7E8" stroke-width="1.7804" stroke-miterlimit="10" stroke-linecap="round"/>
<path d="M209.177 84.5162L204.574 81.4019C204.467 81.2945 204.36 81.1871 204.253 81.0797C204.146 80.9723 204.146 80.8649 204.146 80.7576V80.4354C204.146 80.328 204.146 80.2206 204.253 80.1132C204.36 80.0058 204.467 79.8984 204.574 79.791L209.177 76.6767C209.284 76.5693 209.391 76.5693 209.498 76.5693C209.605 76.5693 209.605 76.5693 209.712 76.6767C209.712 76.6767 209.819 76.7841 209.819 76.8915V77.9654C209.819 78.0728 209.819 78.1802 209.712 78.2876C209.605 78.395 209.605 78.395 209.498 78.5024L206.18 80.7576L209.498 83.0128C209.605 83.1202 209.712 83.1201 209.712 83.2275C209.819 83.3349 209.819 83.3349 209.819 83.4423V84.5162C209.819 84.6236 209.819 84.6236 209.712 84.731C209.605 84.731 209.605 84.8384 209.498 84.8384C209.284 84.6236 209.177 84.6236 209.177 84.5162Z" fill="#E6E7E8"/>
<path d="M210.569 86.4492C210.462 86.3418 210.462 86.3418 210.462 86.2344C210.462 86.127 210.462 86.127 210.462 86.127L215.065 74.9584C215.065 74.851 215.172 74.851 215.279 74.7436C215.386 74.6362 215.493 74.6362 215.6 74.6362H216.457C216.564 74.6362 216.564 74.6362 216.671 74.7436C216.778 74.851 216.778 74.851 216.778 74.9584C216.778 75.0658 216.778 75.0658 216.778 75.0658L212.175 86.2344C212.175 86.3418 212.068 86.3418 212.068 86.4492C211.96 86.5565 211.853 86.5565 211.746 86.5565H210.89C210.676 86.5565 210.569 86.4492 210.569 86.4492Z" fill="#E6E7E8"/>
<path d="M217.634 84.5162C217.527 84.5162 217.527 84.4088 217.527 84.3014V83.2275C217.527 83.1201 217.527 83.0127 217.634 83.0127C217.741 82.9053 217.741 82.9053 217.848 82.7979L221.167 80.5427L217.848 78.2875C217.741 78.1801 217.634 78.1801 217.634 78.0727C217.527 77.9653 217.527 77.858 217.527 77.7506V76.6767C217.527 76.5693 217.527 76.4619 217.634 76.4619C217.741 76.4619 217.741 76.3545 217.848 76.3545C217.955 76.3545 218.062 76.3545 218.169 76.4619L222.773 79.5762C222.88 79.6836 222.987 79.791 223.094 79.8984C223.201 80.0058 223.201 80.1132 223.201 80.2205V80.5427C223.201 80.6501 223.201 80.7575 223.094 80.8649C222.987 80.9723 222.88 81.0797 222.773 81.1871L218.169 84.3014C218.062 84.4088 217.955 84.4088 217.848 84.4088C217.741 84.6236 217.634 84.6235 217.634 84.5162Z" fill="#E6E7E8"/>
<path d="M29.2249 186V197.92" stroke="#F1673C" stroke-width="1.7804" stroke-miterlimit="10" stroke-linecap="round"/>
<path d="M35.4338 192.014H23.5511" stroke="#F1673C" stroke-width="1.7804" stroke-miterlimit="10" stroke-linecap="round"/>
<path d="M238.616 95.0403C239.917 95.0403 240.971 93.9826 240.971 92.6778C240.971 91.373 239.917 90.3152 238.616 90.3152C237.315 90.3152 236.261 91.373 236.261 92.6778C236.261 93.9826 237.315 95.0403 238.616 95.0403Z" fill="#F1673C"/>
<path d="M239.365 102.128C240.666 102.128 241.721 101.07 241.721 99.7657C241.721 98.4608 240.666 97.4031 239.365 97.4031C238.065 97.4031 237.01 98.4608 237.01 99.7657C237.01 101.07 238.065 102.128 239.365 102.128Z" fill="#F1673C"/>
<path d="M238.616 112.975C239.917 112.975 240.971 111.917 240.971 110.612C240.971 109.307 239.917 108.25 238.616 108.25C237.315 108.25 236.261 109.307 236.261 110.612C236.261 111.917 237.315 112.975 238.616 112.975Z" fill="#F1673C"/>
<path d="M246.645 103.954C247.946 103.954 249 102.896 249 101.591C249 100.287 247.946 99.2288 246.645 99.2288C245.344 99.2288 244.29 100.287 244.29 101.591C244.29 102.896 245.344 103.954 246.645 103.954Z" fill="#F1673C"/>
<path d="M21.7313 72.4883C23.032 72.4883 24.0864 71.4306 24.0864 70.1258C24.0864 68.821 23.032 67.7632 21.7313 67.7632C20.4306 67.7632 19.3762 68.821 19.3762 70.1258C19.3762 71.4306 20.4306 72.4883 21.7313 72.4883Z" fill="#F1673C"/>
<path d="M21.7313 81.4019C23.032 81.4019 24.0864 80.3442 24.0864 79.0393C24.0864 77.7345 23.032 76.6768 21.7313 76.6768C20.4306 76.6768 19.3762 77.7345 19.3762 79.0393C19.3762 80.3442 20.4306 81.4019 21.7313 81.4019Z" fill="#F1673C"/>
<path d="M13.7025 81.4019C15.0032 81.4019 16.0576 80.3442 16.0576 79.0393C16.0576 77.7345 15.0032 76.6768 13.7025 76.6768C12.4018 76.6768 11.3474 77.7345 11.3474 79.0393C11.3474 80.3442 12.4018 81.4019 13.7025 81.4019Z" fill="#F1673C"/>
<path d="M213.566 118.666C204.681 118.666 197.402 111.364 197.402 102.45V82.798C197.402 73.8846 204.681 66.582 213.566 66.582C222.451 66.582 229.731 73.8846 229.731 82.798V102.45C229.731 111.471 222.558 118.666 213.566 118.666Z" stroke="#E6E7E8" stroke-width="1.7804" stroke-miterlimit="10" stroke-linecap="round"/>
<path d="M69.583 157.971V172.147C69.583 178.805 74.9355 184.067 81.4656 184.067H92.3848C99.0219 184.067 104.267 189.437 104.267 195.987V265.898C104.267 272.557 98.9149 277.819 92.3848 277.819H61.8753" stroke="#E6E7E8" stroke-width="1.7804" stroke-miterlimit="10" stroke-linecap="round"/>
<path d="M169.997 121.781V172.254C169.997 178.912 164.644 184.174 158.114 184.174H146.767C140.129 184.174 134.884 189.544 134.884 196.095V266.006C134.884 272.664 140.236 277.926 146.767 277.926H176.634" stroke="#E6E7E8" stroke-width="1.7804" stroke-miterlimit="10" stroke-linecap="round"/>
<path d="M156.08 223.801V215.532C156.08 208.122 162.075 202.109 169.461 202.109H189.694" stroke="#F1673C" stroke-width="1.7804" stroke-miterlimit="10"/>
<path d="M119.79 166.885V145.729C119.79 136.708 127.069 129.513 135.954 129.513H169.997" stroke="#F1673C" stroke-width="1.7804" stroke-miterlimit="10" stroke-linecap="round"/>
<path d="M169.997 134.13C172.657 134.13 174.814 131.967 174.814 129.298C174.814 126.629 172.657 124.465 169.997 124.465C167.336 124.465 165.179 126.629 165.179 129.298C165.179 131.967 167.336 134.13 169.997 134.13Z" fill="#F1673C"/>
<path d="M191.728 170.214C194.388 170.214 196.545 168.05 196.545 165.381C196.545 162.712 194.388 160.549 191.728 160.549C189.067 160.549 186.911 162.712 186.911 165.381C186.911 168.05 189.067 170.214 191.728 170.214Z" fill="#F1673C"/>
<path d="M112.938 103.524C115.599 103.524 117.756 101.361 117.756 98.6917C117.756 96.0227 115.599 93.8591 112.938 93.8591C110.278 93.8591 108.121 96.0227 108.121 98.6917C108.121 101.361 110.278 103.524 112.938 103.524Z" fill="#F1673C"/>
<path d="M130.281 40.5935C130.281 50.1513 122.573 57.9908 112.939 57.9908C103.411 57.9908 95.5963 50.2587 95.5963 40.5935V28.6732C95.5963 21.2633 98.5937 14.1755 103.839 9.02079L112.939 0L122.038 9.02079C127.283 14.1755 130.281 21.2633 130.281 28.6732V40.5935Z" fill="#F1673C"/>
<path d="M76.2201 154.642H74.6144C73.0086 154.642 71.5099 154.427 70.0112 153.89C69.583 153.783 69.2619 153.783 68.8337 153.89C67.3349 154.427 65.8362 154.642 64.2305 154.642H62.6247C59.092 154.642 56.2017 151.957 56.2017 148.735V128.331C56.2017 122.103 69.2619 115.874 69.2619 115.874C69.2619 115.874 82.322 122.21 82.322 128.331V148.735C82.6432 152.065 79.7528 154.642 76.2201 154.642Z" fill="#F1673C"/>
<path d="M69.476 122.21V158.293" stroke="#E6E7E8" stroke-width="1.7804" stroke-miterlimit="10" stroke-linecap="round"/>
<path d="M62.1965 125.002L69.4759 129.405L76.8624 125.002" stroke="#E6E7E8" stroke-width="1.7804" stroke-miterlimit="10" stroke-linecap="round"/>
<path d="M59.4131 129.298L69.4759 135.419L79.6457 129.298" stroke="#E6E7E8" stroke-width="1.7804" stroke-miterlimit="10" stroke-linecap="round"/>
<path d="M59.092 134.238L69.4759 140.681L79.9669 134.238" stroke="#E6E7E8" stroke-width="1.7804" stroke-miterlimit="10" stroke-linecap="round"/>
<path d="M59.092 139.393L69.4759 145.729L79.9669 139.393" stroke="#E6E7E8" stroke-width="1.7804" stroke-miterlimit="10" stroke-linecap="round"/>
<path d="M59.092 144.547L69.4759 150.883L79.9669 144.547" stroke="#E6E7E8" stroke-width="1.7804" stroke-miterlimit="10" stroke-linecap="round"/>
<path d="M106.837 16.4307L112.938 20.0819L119.04 16.4307" stroke="#E6E7E8" stroke-width="1.7804" stroke-miterlimit="10" stroke-linecap="round"/>
<path d="M112.939 10.4167V58.9572" stroke="#E6E7E8" stroke-width="1.7804" stroke-miterlimit="10" stroke-linecap="round"/>
<path d="M99.7713 26.9551L112.939 35.0094L126.106 26.9551" stroke="#E6E7E8" stroke-width="1.7804" stroke-miterlimit="10" stroke-linecap="round"/>
<path d="M102.983 20.8337L112.939 26.955L122.894 20.8337" stroke="#E6E7E8" stroke-width="1.7804" stroke-miterlimit="10" stroke-linecap="round"/>
<path d="M99.0219 34.2576L112.939 42.7414L126.855 34.2576" stroke="#E6E7E8" stroke-width="1.7804" stroke-miterlimit="10" stroke-linecap="round"/>
<path d="M99.0219 41.5601L112.939 50.0439L126.855 41.5601" stroke="#E6E7E8" stroke-width="1.7804" stroke-miterlimit="10" stroke-linecap="round"/>
<path d="M81.1444 54.8765C81.1444 61.32 76.006 66.5821 69.583 66.5821C63.1599 66.5821 57.9144 61.32 57.9144 54.8765V46.9297C57.9144 41.9897 59.9484 37.1571 63.4811 33.7206L69.583 27.7068L75.6848 33.7206C79.2175 37.2645 81.2515 41.9897 81.2515 46.9297V54.8765H81.1444Z" fill="#F1673C"/>
<path d="M69.583 39.1975V64.0047" stroke="#E6E7E8" stroke-width="1.7804" stroke-miterlimit="10" stroke-linecap="round"/>
<path d="M63.374 48.7551L69.583 52.5138L75.6849 48.7551" stroke="#E6E7E8" stroke-width="1.7804" stroke-miterlimit="10" stroke-linecap="round"/>
<path d="M64.8727 44.03L69.583 46.8222L74.1862 44.03" stroke="#E6E7E8" stroke-width="1.7804" stroke-miterlimit="10" stroke-linecap="round"/>
<path d="M63.0529 53.6951L69.5829 57.6685L76.006 53.6951" stroke="#E6E7E8" stroke-width="1.7804" stroke-miterlimit="10" stroke-linecap="round"/>
<path d="M20.6608 155.394C20.6608 153.139 16.0576 147.017 13.8095 144.225C13.2743 143.473 11.9897 143.473 11.4544 144.225C9.20634 147.125 4.71021 153.246 4.71021 155.501C4.71021 157.542 8.56403 161.3 10.9191 163.448C11.8826 164.307 13.5954 164.307 14.4518 163.448C16.8069 161.3 20.6608 157.542 20.6608 155.394Z" fill="#F1673C"/>
<path d="M9.84869 153.353L12.7391 155.394L15.5224 153.353" stroke="#E6E7E8" stroke-width="1.7804" stroke-miterlimit="10" stroke-linecap="round"/>
<path d="M9.84869 157.434L12.7391 159.582L15.5224 157.434" stroke="#E6E7E8" stroke-width="1.7804" stroke-miterlimit="10" stroke-linecap="round"/>
<path d="M213.138 171.932C213.138 169.784 217.42 163.877 219.561 161.193C220.096 160.548 221.274 160.548 221.809 161.193C223.95 163.985 228.125 169.891 228.125 172.039C228.125 174.08 224.485 177.623 222.237 179.664C221.381 180.523 219.775 180.523 218.919 179.664C216.778 177.516 213.138 173.865 213.138 171.932Z" fill="#F1673C"/>
<path d="M223.522 169.891L220.739 172.039L217.848 169.891" stroke="#E6E7E8" stroke-width="1.7804" stroke-miterlimit="10" stroke-linecap="round"/>
<path d="M223.522 174.08L220.739 176.12L217.848 174.08" stroke="#E6E7E8" stroke-width="1.7804" stroke-miterlimit="10" stroke-linecap="round"/>
<path d="M100.949 222.513C107.586 222.513 112.831 217.143 112.831 210.592V59.9238" stroke="#E6E7E8" stroke-width="1.7804" stroke-miterlimit="10" stroke-linecap="round"/>
<path d="M69.476 83.8719V75.925" stroke="#E6E7E8" stroke-width="1.7804" stroke-miterlimit="10" stroke-linecap="round"/>
<path d="M112.938 155.179H108.442C101.805 155.179 96.5597 149.81 96.5597 143.259V118.129C96.5597 111.471 91.2072 106.209 84.6771 106.209H81.5726C74.9355 106.209 69.69 100.84 69.69 94.2887V83.9792" stroke="#E6E7E8" stroke-width="1.7804" stroke-miterlimit="10" stroke-linecap="round"/>
<path d="M91.4213 66.6894C93.7271 66.6894 95.5963 64.8143 95.5963 62.5012C95.5963 60.1881 93.7271 58.313 91.4213 58.313C89.1155 58.313 87.2463 60.1881 87.2463 62.5012C87.2463 64.8143 89.1155 66.6894 91.4213 66.6894Z" stroke="#E6E7E8" stroke-width="1.7804" stroke-miterlimit="10" stroke-linecap="round"/>
<path d="M191.514 59.8165C195.534 59.8165 198.793 56.5471 198.793 52.514C198.793 48.4809 195.534 45.2114 191.514 45.2114C187.493 45.2114 184.234 48.4809 184.234 52.514C184.234 56.5471 187.493 59.8165 191.514 59.8165Z" stroke="#E6E7E8" stroke-width="1.7804" stroke-miterlimit="10" stroke-linecap="round"/>
<path d="M169.997 144.547H152.868C143.876 144.547 136.704 137.245 136.704 128.331V102.88" stroke="#E6E7E8" stroke-width="1.7804" stroke-miterlimit="10" stroke-linecap="round"/>
<path d="M179.631 35.4389C179.631 32.3246 174.172 24.0555 171.495 20.1895C170.853 19.223 169.247 19.223 168.605 20.1895C165.929 24.0555 160.576 32.432 160.576 35.5463C160.576 38.3384 165.179 43.4932 167.963 46.3927C169.14 47.574 171.067 47.574 172.245 46.3927C175.028 43.4932 179.631 38.3384 179.631 35.4389Z" fill="#F1673C"/>
<path d="M166.357 32.7542L170.104 35.4389L173.743 32.7542" stroke="#E6E7E8" stroke-width="1.7804" stroke-miterlimit="10" stroke-linecap="round"/>
<path d="M166.357 37.8015L170.104 40.3789L173.743 37.8015" stroke="#E6E7E8" stroke-width="1.7804" stroke-miterlimit="10" stroke-linecap="round"/>
<path d="M170.104 29.7471V46.8221C170.104 46.8221 171.816 60.7829 155.759 60.7829" stroke="#E6E7E8" stroke-width="1.7804" stroke-miterlimit="10" stroke-linecap="round"/>
<path d="M191.621 155.179V140.467C191.621 134.345 196.545 129.405 202.647 129.405C209.712 129.405 213.673 125.969 213.673 118.881" stroke="#E6E7E8" stroke-width="1.7804" stroke-miterlimit="10" stroke-linecap="round"/>
<path d="M47.9587 66.0451C47.9587 62.9308 42.4991 54.6617 39.8229 50.7957C39.1806 49.8292 37.5748 49.8292 36.9325 50.7957C34.3633 54.6617 28.9037 63.0382 28.9037 66.0451C28.9037 68.8373 33.5069 73.992 36.2902 76.8915C37.4677 78.0728 39.3947 78.0728 40.5722 76.8915C43.3555 73.992 47.9587 68.8373 47.9587 66.0451Z" fill="#F1673C"/>
<path d="M34.7915 62.8232L38.4312 65.508L42.178 62.8232" stroke="#E6E7E8" stroke-width="1.7804" stroke-miterlimit="10" stroke-linecap="round"/>
<path d="M34.7915 67.7632L38.4312 70.4479L42.178 67.7632" stroke="#E6E7E8" stroke-width="1.7804" stroke-miterlimit="10" stroke-linecap="round"/>
<path d="M38.4312 59.8164V86.9862" stroke="#E6E7E8" stroke-width="1.7804" stroke-miterlimit="10" stroke-linecap="round"/>
<path d="M70.0112 78.395H79.3246C85.9617 78.395 91.4213 72.9181 91.4213 66.2599V62.5012" stroke="#E6E7E8" stroke-width="1.7804" stroke-miterlimit="10" stroke-linecap="round"/>
<path d="M213.566 66.582V63.4677C213.566 57.6686 209.391 52.4065 202.54 52.4065H191.621" stroke="#E6E7E8" stroke-width="1.7804" stroke-miterlimit="10" stroke-linecap="round"/>
<path d="M42.178 137.352H8.99224C4.49611 137.352 0.856384 133.701 0.856384 129.191V95.3626C0.856384 90.8522 4.49611 87.2009 8.99224 87.2009H42.178C46.6741 87.2009 50.3138 90.8522 50.3138 95.3626V129.191C50.3138 133.701 46.6741 137.352 42.178 137.352Z" stroke="#E6E7E8" stroke-width="1.7912" stroke-miterlimit="10" stroke-linecap="round"/>
<path d="M32.2223 128.546C35.5922 128.546 38.3241 125.806 38.3241 122.425C38.3241 119.044 35.5922 116.304 32.2223 116.304C28.8523 116.304 26.1204 119.044 26.1204 122.425C26.1204 125.806 28.8523 128.546 32.2223 128.546Z" fill="#F1673C"/>
<path d="M69.4759 166.885H48.3869C39.3947 166.885 32.2223 159.582 32.2223 150.669V122.318" stroke="#E6E7E8" stroke-width="1.7804" stroke-miterlimit="10" stroke-linecap="round"/>
<path d="M69.583 77.7505V61.9641" stroke="#E6E7E8" stroke-width="1.7804" stroke-miterlimit="10" stroke-linecap="round"/>
<path d="M17.1281 104.383H8.13586V113.404H17.1281V104.383Z" stroke="#E6E7E8" stroke-width="1.7804" stroke-miterlimit="10" stroke-linecap="round"/>
<path d="M92.9201 161.085H81.3586V172.684H92.9201V161.085Z" stroke="#F1673C" stroke-width="1.7804" stroke-miterlimit="10"/>
<path d="M17.1281 113.511H8.13586V122.532H17.1281V113.511Z" stroke="#E6E7E8" stroke-width="1.7804" stroke-miterlimit="10" stroke-linecap="round"/>
<path d="M17.1281 122.532H8.13586V131.553H17.1281V122.532Z" stroke="#E6E7E8" stroke-width="1.7804" stroke-miterlimit="10" stroke-linecap="round"/>
<path d="M221.488 130.157V138.748C221.488 143.688 217.527 147.769 212.496 147.769H209.284C208.214 147.769 207.678 146.588 208.321 145.729L221.488 130.157Z" fill="#F1673C"/>
<path d="M225.771 127.687C224.379 127.58 223.202 128.224 222.452 129.19L208.536 145.836C207.894 146.695 208.429 147.876 209.499 147.876H220.204C225.236 147.876 229.304 143.796 229.304 138.748V131.66C229.304 129.62 227.698 127.794 225.771 127.687Z" stroke="#E6E7E8" stroke-width="1.7804" stroke-miterlimit="10" stroke-linecap="round"/>
<path d="M229.731 130.586V133.379L231.979 131.983L229.731 130.586Z" stroke="#E6E7E8" stroke-width="1.7804" stroke-miterlimit="10" stroke-linecap="round"/>
<path d="M221.488 145.299V154.642" stroke="#E6E7E8" stroke-width="1.7804" stroke-miterlimit="10" stroke-linecap="round"/>
<path d="M224.592 145.299V154.642" stroke="#E6E7E8" stroke-width="1.7804" stroke-miterlimit="10" stroke-linecap="round"/>
<path d="M225.77 131.768C226.066 131.768 226.305 131.527 226.305 131.231C226.305 130.934 226.066 130.694 225.77 130.694C225.474 130.694 225.235 130.934 225.235 131.231C225.235 131.527 225.474 131.768 225.77 131.768Z" stroke="#E6E7E8" stroke-width="1.7804" stroke-miterlimit="10" stroke-linecap="round"/>
<path d="M87.1393 166.885H139.915C148.908 166.885 156.08 174.187 156.08 183.1V223.801" stroke="#F1673C" stroke-width="1.7804" stroke-miterlimit="10" stroke-linecap="round"/>
<path d="M191.621 187.826C194.991 187.826 197.723 185.085 197.723 181.704C197.723 178.324 194.991 175.583 191.621 175.583C188.251 175.583 185.519 178.324 185.519 181.704C185.519 185.085 188.251 187.826 191.621 187.826Z" stroke="#E6E7E8" stroke-width="1.7804" stroke-miterlimit="10" stroke-linecap="round"/>
<path d="M138.631 223.801H175.563C184.555 223.801 191.728 216.499 191.728 207.585V181.597" stroke="#E6E7E8" stroke-width="1.7804" stroke-miterlimit="10" stroke-linecap="round"/>
<path d="M96.4527 122.21V114.908C96.4527 105.887 103.732 98.6917 112.617 98.6917H112.939" stroke="#E6E7E8" stroke-width="1.7804" stroke-miterlimit="10" stroke-linecap="round"/>
<path d="M244.183 160.012C246.843 160.012 249 157.848 249 155.179C249 152.51 246.843 150.346 244.183 150.346C241.522 150.346 239.365 152.51 239.365 155.179C239.365 157.848 241.522 160.012 244.183 160.012Z" fill="#F1673C"/>
<path d="M220.739 166.777V186.966C220.739 198.887 213.031 202.216 204.681 202.216H192.156" stroke="#E6E7E8" stroke-width="1.7804" stroke-miterlimit="10" stroke-linecap="round"/>
<path d="M213.566 118.666V93" stroke="#E6E7E8" stroke-width="1.7804" stroke-miterlimit="10" stroke-linecap="round"/>
<path d="M222.773 105.994C222.344 106.316 221.702 106.102 221.488 105.672L213.566 93.4296L205.752 105.78C205.43 106.209 204.895 106.316 204.467 106.102C204.039 105.78 203.932 105.243 204.146 104.813L212.817 91.1744C213.031 90.8523 213.245 90.7449 213.673 90.7449C214.101 90.7449 214.316 90.9597 214.53 91.1744L223.201 104.813C223.308 104.92 223.308 105.135 223.308 105.35C223.201 105.565 222.987 105.887 222.773 105.994Z" fill="#E6E7E8"/>
<path d="M80.5022 221.761V204.042C80.5022 197.598 77.9329 194.269 72.2592 194.269H68.4054C62.7317 194.269 59.6273 190.296 59.6273 185.033V175.368C59.6273 170.751 63.4811 166.885 68.0843 166.885H81.3586" stroke="#F1673C" stroke-width="1.7804" stroke-miterlimit="10" stroke-linecap="round"/>
<path d="M1.39166 99.7656H49.8856" stroke="#E6E7E8" stroke-width="1.7804" stroke-miterlimit="10" stroke-linecap="round"/>
<path d="M188.088 112.76V124.68" stroke="#F1673C" stroke-width="1.7804" stroke-miterlimit="10" stroke-linecap="round"/>
<path d="M194.297 118.666H182.414" stroke="#F1673C" stroke-width="1.7804" stroke-miterlimit="10" stroke-linecap="round"/>
<path d="M142.913 22.3372V34.2575" stroke="#E6E7E8" stroke-width="1.7804" stroke-miterlimit="10" stroke-linecap="round"/>
<path d="M148.908 22.3372V34.2575" stroke="#E6E7E8" stroke-width="1.7804" stroke-miterlimit="10" stroke-linecap="round"/>
<path d="M95.5963 93.8591H83.8207" stroke="#E6E7E8" stroke-width="1.7804" stroke-miterlimit="10" stroke-linecap="round"/>
<path d="M95.5963 87.8452H83.8207" stroke="#E6E7E8" stroke-width="1.7804" stroke-miterlimit="10" stroke-linecap="round"/>
<path d="M148.372 69.3742V94.6109C148.372 99.1213 144.733 102.773 140.236 102.773H133.706C129.21 102.773 125.57 99.1213 125.57 94.6109V68.9446C125.57 64.4342 129.21 60.783 133.706 60.783H138.845" stroke="#E6E7E8" stroke-width="1.7804" stroke-miterlimit="10" stroke-linecap="round"/>
<path d="M155.736 69.0052V52.5745H139.358V69.0052H155.736Z" stroke="#E6E7E8" stroke-width="1.7804" stroke-miterlimit="10" stroke-linecap="round"/>
<path d="M148.051 69.052H139.38V60.783H135.205V69.052V71.522V73.1328H148.051V69.052Z" fill="#E6E7E8"/>
<path d="M151.691 60.6755H144.197" stroke="#E6E7E8" stroke-width="1.7804" stroke-miterlimit="10" stroke-linecap="round"/>
<path d="M147.944 64.5415V57.0242" stroke="#E6E7E8" stroke-width="1.7804" stroke-miterlimit="10" stroke-linecap="round"/>
<path d="M12.739 150.883V163.126C12.739 171.395 19.3762 178.053 27.6191 178.053H32.9716C39.6087 178.053 44.8542 183.423 44.8542 189.973V210.378C44.8542 217.036 50.2068 222.298 56.7369 222.298H100.949" stroke="#E6E7E8" stroke-width="1.7804" stroke-miterlimit="10" stroke-linecap="round"/>
<path d="M243.755 155.179H138.631C131.672 155.179 126.106 160.763 126.106 167.744V211.344C126.106 218.324 131.672 223.909 138.631 223.909" stroke="#E6E7E8" stroke-width="1.7804" stroke-miterlimit="10" stroke-linecap="round"/>
<path d="M185.305 99.7657C185.305 108.249 178.454 115.122 169.997 115.122V109.86V115.122C161.54 115.122 154.688 108.249 154.688 99.7657V94.5035C154.688 87.9527 157.258 81.7241 161.968 77.1063L169.997 69.1594L178.025 77.1063C182.629 81.7241 185.305 87.9527 185.305 94.5035V99.7657Z" fill="#F1673C"/>
<path d="M170.104 78.9319V123.821" stroke="#E6E7E8" stroke-width="1.7804" stroke-miterlimit="10" stroke-linecap="round"/>
<path d="M161.754 91.926L170.104 96.9734L178.454 91.926" stroke="#E6E7E8" stroke-width="1.7804" stroke-miterlimit="10" stroke-linecap="round"/>
<path d="M164.751 84.8384L170.104 88.1675L175.456 84.8384" stroke="#E6E7E8" stroke-width="1.7804" stroke-miterlimit="10" stroke-linecap="round"/>
<path d="M159.827 99.2288L170.104 105.457L180.273 99.2288" stroke="#E6E7E8" stroke-width="1.7804" stroke-miterlimit="10" stroke-linecap="round"/>
</g>
<defs>
<clipPath id="clip0_574:1155">
<rect width="249" height="279" fill="white"/>
</clipPath>
</defs>
</svg>
