<svg width="532" height="376" viewBox="0 0 532 376" fill="none" xmlns="http://www.w3.org/2000/svg">
<g clip-path="url(#clip0_645:321)">
<path d="M431.508 346.269H70.8661C67.1014 346.269 64.001 343.175 64.001 339.417V121.686C64.001 117.928 67.1014 114.834 70.8661 114.834H431.508C435.273 114.834 438.373 117.928 438.373 121.686V339.306C438.373 343.175 435.273 346.269 431.508 346.269Z" fill="#44DC00"/>
<path d="M398.732 117.928V70.4034C398.732 64.4352 393.86 59.5721 387.881 59.5721H211.159H165.649C159.67 59.5721 154.798 64.4352 154.798 70.4034V117.928H398.732Z" fill="#44DC00"/>
<path d="M398.732 120.581H154.908C153.469 120.581 152.251 119.365 152.251 117.928V70.4034C152.251 62.9983 158.341 56.9196 165.76 56.9196H387.992C395.41 56.9196 401.5 62.9983 401.5 70.4034V117.928C401.39 119.476 400.172 120.581 398.732 120.581ZM157.566 115.276H396.075V70.5139C396.075 65.9825 392.421 62.3352 387.881 62.3352H165.649C161.109 62.3352 157.455 65.9825 157.455 70.5139V115.276H157.566Z" fill="#0F1319"/>
<path d="M398.732 117.928V229.336C398.732 235.304 393.86 240.167 387.881 240.167H165.649C159.67 240.167 154.798 235.304 154.798 229.336V209.773V117.928H398.732Z" fill="white"/>
<path d="M387.881 242.82H165.649C158.231 242.82 152.141 236.741 152.141 229.336V117.928C152.141 116.492 153.359 115.276 154.798 115.276H398.622C400.061 115.276 401.279 116.492 401.279 117.928V229.336C401.39 236.741 395.3 242.82 387.881 242.82ZM157.566 120.581V229.336C157.566 233.867 161.22 237.514 165.76 237.514H387.992C392.532 237.514 396.186 233.867 396.186 229.336V120.581H157.566Z" fill="#0F1319"/>
<path d="M501.82 60.8984V13.3734C501.82 7.40514 496.948 2.54211 490.968 2.54211H314.357H268.847C262.868 2.54211 257.996 7.40514 257.996 13.3734V60.8984H501.82Z" fill="#44DC00"/>
<path d="M501.82 63.5509H257.996C256.557 63.5509 255.339 62.3351 255.339 60.8983V13.3734C255.339 5.9683 261.429 -0.110474 268.848 -0.110474H491.079C498.498 -0.110474 504.588 5.9683 504.588 13.3734V60.8983C504.478 62.3351 503.26 63.5509 501.82 63.5509ZM260.654 58.2458H499.163V13.4839C499.163 8.95243 495.509 5.30516 490.969 5.30516H268.848C264.308 5.30516 260.654 8.95243 260.654 13.4839V58.2458Z" fill="#0F1319"/>
<path d="M501.82 60.8984V188.884C501.82 194.853 496.948 199.716 490.968 199.716H268.847C262.868 199.716 257.996 194.853 257.996 188.884V169.322V60.8984H501.82Z" fill="white"/>
<path d="M491.079 202.368H268.848C261.429 202.368 255.339 196.289 255.339 188.884V60.8984C255.339 59.4616 256.557 58.2458 257.996 58.2458H501.82C503.259 58.2458 504.477 59.4616 504.477 60.8984V188.884C504.477 196.4 498.498 202.368 491.079 202.368ZM260.654 63.551V188.884C260.654 193.416 264.308 197.063 268.848 197.063H491.079C495.619 197.063 499.273 193.416 499.273 188.884V63.551H260.654Z" fill="#0F1319"/>
<path d="M424.2 42.3304H410.027C408.587 42.3304 407.369 41.1146 407.369 39.6778C407.369 38.241 408.587 37.0253 410.027 37.0253H424.2C425.639 37.0253 426.857 38.241 426.857 39.6778C426.857 41.2252 425.75 42.3304 424.2 42.3304Z" fill="#0F1319"/>
<path d="M455.092 23.0995H438.372V39.7885H455.092V23.0995Z" fill="white"/>
<path d="M455.092 42.3305H438.372C436.933 42.3305 435.715 41.1147 435.715 39.6779V23.0995C435.715 21.6627 436.933 20.4469 438.372 20.4469H455.092C456.532 20.4469 457.75 21.6627 457.75 23.0995V39.7885C457.75 41.2253 456.643 42.3305 455.092 42.3305ZM441.141 37.0254H452.546V25.752H441.141V37.0254Z" fill="#0F1319"/>
<path d="M484.99 41.8884C484.325 41.8884 483.661 41.6673 483.107 41.1147L467.162 25.1994C466.166 24.2047 466.166 22.4363 467.162 21.4416C468.159 20.4469 469.931 20.4469 470.927 21.4416L486.872 37.3569C487.869 38.3516 487.869 40.12 486.872 41.1147C486.318 41.5568 485.654 41.8884 484.99 41.8884Z" fill="#0F1319"/>
<path d="M469.045 41.8884C468.38 41.8884 467.716 41.6673 467.162 41.1147C466.166 40.12 466.166 38.3516 467.162 37.3569L483.107 21.4416C484.104 20.4469 485.876 20.4469 486.872 21.4416C487.869 22.4363 487.869 24.2047 486.872 25.1994L470.927 41.1147C470.374 41.5568 469.709 41.8884 469.045 41.8884Z" fill="#0F1319"/>
<path d="M456.532 152.191L526.734 181.479L505.253 191.758L529.059 218.062L515.993 229.888L491.965 203.915L480.117 224.362L456.532 152.191Z" fill="white"/>
<path d="M515.994 232.541C515.329 232.541 514.554 232.209 514 231.657L492.519 208.336L482.443 225.688C481.889 226.573 480.893 227.125 479.896 227.015C478.9 226.904 478.014 226.241 477.682 225.246L453.986 153.075C453.654 152.08 453.986 150.975 454.761 150.312C455.536 149.648 456.643 149.427 457.64 149.759L527.952 178.937C528.949 179.379 529.613 180.263 529.613 181.369C529.613 182.363 529.059 183.358 528.063 183.8L509.793 192.531L531.163 216.294C532.16 217.399 532.049 219.057 530.942 220.052L517.876 231.878C517.212 232.32 516.658 232.541 515.994 232.541ZM491.965 201.263C492.741 201.263 493.405 201.594 493.959 202.147L516.104 226.241L525.295 217.952L503.26 193.526C502.706 192.863 502.485 192.089 502.595 191.205C502.706 190.432 503.26 189.658 504.035 189.326L520.201 181.59L460.851 156.943L480.782 217.841L489.64 202.589C490.083 201.815 490.858 201.373 491.633 201.263C491.855 201.263 491.855 201.263 491.965 201.263Z" fill="#0F1319"/>
<path d="M257.997 58.0248C257.997 58.0248 257.997 178.716 257.997 188.884C257.997 199.052 265.305 199.716 268.848 199.716C272.281 199.716 398.733 199.716 398.733 199.716V213.973C398.733 213.973 281.914 213.973 268.405 213.973C254.897 213.973 243.381 203.915 243.381 187.779C243.381 163.906 243.381 58.1353 243.381 58.1353H257.997V58.0248Z" fill="#0F1319"/>
<path d="M371.161 320.296H296.309C281.471 320.296 269.291 308.139 269.291 293.329C269.291 278.519 281.471 266.361 296.309 266.361H371.161C385.999 266.361 398.179 278.519 398.179 293.329C398.179 308.139 385.999 320.296 371.161 320.296Z" fill="white"/>
<path d="M371.161 322.949H296.309C279.921 322.949 266.634 309.686 266.634 293.329C266.634 276.971 279.921 263.708 296.309 263.708H371.161C387.549 263.708 400.836 276.971 400.836 293.329C400.836 309.686 387.549 322.949 371.161 322.949ZM296.309 269.014C282.911 269.014 271.949 279.955 271.949 293.329C271.949 306.702 282.911 317.644 296.309 317.644H371.161C384.559 317.644 395.522 306.702 395.522 293.329C395.522 279.955 384.559 269.014 371.161 269.014H296.309Z" fill="#0F1319"/>
<path d="M370.607 311.344C380.575 311.344 388.656 303.278 388.656 293.329C388.656 283.379 380.575 275.313 370.607 275.313C360.639 275.313 352.559 283.379 352.559 293.329C352.559 303.278 360.639 311.344 370.607 311.344Z" fill="#44DC00"/>
<path d="M233.083 373.348H37.7584C28.568 373.348 20.9277 365.832 20.9277 356.548V337.096C20.9277 327.923 28.4573 320.296 37.7584 320.296H233.083V373.348Z" fill="#44DC00"/>
<path d="M233.083 376H37.7587C27.018 376 18.2705 367.269 18.2705 356.548V337.096C18.2705 326.375 27.018 317.644 37.7587 317.644H233.083C234.523 317.644 235.741 318.86 235.741 320.296V373.237C235.741 374.895 234.634 376 233.083 376ZM37.7587 323.059C30.0077 323.059 23.5855 329.359 23.5855 337.206V356.659C23.5855 364.395 29.897 370.805 37.7587 370.805H230.426V323.17H37.7587V323.059Z" fill="#0F1319"/>
<path d="M233.083 373.348H189.677C180.487 373.348 172.847 365.832 172.847 356.548V337.096C172.847 327.923 180.376 320.296 189.677 320.296H233.083V373.348Z" fill="white"/>
<path d="M233.083 376H189.678C178.937 376 170.189 367.269 170.189 356.548V337.096C170.189 326.375 178.937 317.644 189.678 317.644H233.083C234.523 317.644 235.741 318.86 235.741 320.296V373.237C235.741 374.895 234.633 376 233.083 376ZM189.678 323.059C181.927 323.059 175.504 329.359 175.504 337.206V356.659C175.504 364.395 181.816 370.805 189.678 370.805H230.426V323.17H189.678V323.059Z" fill="#0F1319"/>
<path d="M214.813 320.407H19.4879C10.2975 320.407 2.65723 312.891 2.65723 303.607V284.155C2.65723 274.982 10.1867 267.356 19.4879 267.356H214.813V320.407Z" fill="#0F1319"/>
<path d="M214.813 323.059H19.4882C8.74753 323.059 0 314.328 0 303.607V284.155C0 273.434 8.74753 264.703 19.4882 264.703H214.813C216.252 264.703 217.47 265.919 217.47 267.356V320.296C217.47 321.954 216.252 323.059 214.813 323.059ZM19.4882 270.229C11.7372 270.229 5.31496 276.529 5.31496 284.376V303.828C5.31496 311.565 11.6265 317.975 19.4882 317.975H212.155V270.34H19.4882V270.229Z" fill="#0F1319"/>
<path d="M214.812 320.407H171.407C162.216 320.407 154.576 312.891 154.576 303.607V284.155C154.576 274.982 162.106 267.356 171.407 267.356H214.812V320.407Z" fill="white"/>
<path d="M214.813 323.059H171.407C160.666 323.059 151.919 314.328 151.919 303.607V284.155C151.919 273.434 160.666 264.703 171.407 264.703H214.813C216.252 264.703 217.47 265.919 217.47 267.356V320.296C217.47 321.954 216.252 323.059 214.813 323.059ZM171.296 270.229C163.545 270.229 157.123 276.529 157.123 284.376V303.828C157.123 311.565 163.435 317.975 171.296 317.975H212.044V270.34H171.296V270.229Z" fill="#0F1319"/>
<path d="M214.37 172.748H191.338C183.144 176.948 177.497 185.458 177.497 195.295C177.497 209.331 188.902 220.604 202.854 220.604C216.916 220.604 228.211 209.221 228.211 195.295C228.211 185.458 222.563 176.948 214.37 172.748Z" fill="#44DC00"/>
<path d="M202.744 223.368C187.242 223.368 174.729 210.768 174.729 195.405C174.729 185.79 180.155 176.395 188.571 171.311V141.47C188.571 140.033 189.789 138.817 191.228 138.817H214.259C215.699 138.817 216.917 140.033 216.917 141.47V171.311C225.554 176.285 230.758 185.458 230.758 195.516C230.869 210.878 218.246 223.368 202.744 223.368ZM193.885 144.012V172.748C193.885 173.743 193.332 174.627 192.446 175.069C184.916 179.158 179.934 187.005 179.934 195.295C179.934 207.784 190.121 217.952 202.633 217.952C215.145 217.952 225.332 207.784 225.332 195.295C225.332 186.674 220.571 178.937 212.931 175.069C212.045 174.627 211.491 173.743 211.491 172.748V144.012H193.885Z" fill="#0F1319"/>
<path d="M224.003 144.012H181.594C180.155 144.012 178.937 142.796 178.937 141.359C178.937 139.922 180.155 138.707 181.594 138.707H224.003C225.442 138.707 226.66 139.922 226.66 141.359C226.66 142.796 225.442 144.012 224.003 144.012Z" fill="#0F1319"/>
<path d="M427.964 145.228H372.711L386.109 176.285H414.123C414.123 176.285 437.93 172.527 429.182 145.228" fill="#44DC00"/>
<path d="M410.58 178.937H366.731C358.205 178.937 350.676 174.516 346.468 167.001C342.371 159.485 342.592 150.754 347.132 143.57C347.243 143.459 347.243 143.349 347.354 143.349L374.482 110.081V83.445C374.482 82.0082 375.7 80.7925 377.14 80.7925H400.393C401.832 80.7925 403.05 82.0082 403.05 83.445V109.75L429.957 143.57C430.068 143.68 430.068 143.791 430.178 143.791C434.608 150.975 434.829 159.706 430.621 167.111C426.524 174.516 418.995 178.937 410.58 178.937ZM351.561 146.554C348.129 152.08 347.907 158.711 351.118 164.459C354.33 170.206 360.087 173.632 366.62 173.632H410.469C417.002 173.632 422.76 170.206 425.971 164.569C429.182 158.932 429.071 152.301 425.639 146.775L398.289 112.292C397.957 111.85 397.735 111.186 397.735 110.634V86.0976H379.797V110.965C379.797 111.628 379.576 112.181 379.243 112.623L351.561 146.554Z" fill="#0F1319"/>
<path d="M365.845 124.891C365.845 124.891 384.448 153.517 388.655 159.596C392.752 165.674 393.195 174.516 388.655 176.285H355.326L351.562 142.575L365.845 124.891Z" fill="#0F1319"/>
<path d="M353.334 126.881H308.6L282.689 166.669C280.032 170.758 283.021 176.174 288.004 176.174H373.929C378.801 176.174 381.791 170.869 379.244 166.669L353.334 126.881Z" fill="#44DC00"/>
<path d="M346.136 115.828V30.5045H315.797V115.828L308.6 126.881H353.334L346.136 115.828Z" fill="white"/>
<path d="M373.929 178.937H288.004C284.682 178.937 281.803 177.169 280.253 174.295C278.703 171.422 278.813 167.995 280.474 165.232L313.139 114.944V30.5045C313.139 29.0677 314.357 27.8519 315.797 27.8519H346.025C347.465 27.8519 348.683 29.0677 348.683 30.5045V115.055L381.459 165.343C383.23 168.216 383.23 171.532 381.68 174.406C380.13 177.279 377.251 178.937 373.929 178.937ZM318.454 33.157V115.828C318.454 116.381 318.343 116.823 318.011 117.265L284.903 168.216C284.239 169.322 284.128 170.648 284.793 171.864C285.457 172.969 286.564 173.743 287.893 173.743H373.818C375.147 173.743 376.254 173.079 376.919 171.974C377.583 170.869 377.583 169.432 376.808 168.327L343.7 117.376C343.368 116.934 343.257 116.492 343.257 115.939V33.157H318.454Z" fill="#0F1319"/>
<path d="M355.769 33.157H306.274C304.834 33.157 303.616 31.9413 303.616 30.5045C303.616 29.0677 304.834 27.8519 306.274 27.8519H355.769C357.209 27.8519 358.427 29.0677 358.427 30.5045C358.427 31.9413 357.209 33.157 355.769 33.157Z" fill="#0F1319"/>
<path d="M313.804 163.685C308.932 163.685 304.945 159.706 304.945 154.843C304.945 149.98 308.932 146.001 313.804 146.001C318.676 146.001 322.662 149.98 322.662 154.843C322.662 159.706 318.676 163.685 313.804 163.685ZM313.804 151.417C311.921 151.417 310.26 152.964 310.26 154.954C310.26 156.832 311.81 158.49 313.804 158.49C315.686 158.49 317.347 156.943 317.347 154.954C317.347 152.964 315.797 151.417 313.804 151.417Z" fill="white"/>
<path d="M337.168 150.201C332.296 150.201 328.31 146.222 328.31 141.359C328.31 136.496 332.296 132.517 337.168 132.517C342.04 132.517 346.026 136.496 346.026 141.359C345.915 146.222 342.04 150.201 337.168 150.201ZM337.168 137.933C335.285 137.933 333.625 139.48 333.625 141.47C333.625 143.349 335.175 145.007 337.168 145.007C339.05 145.007 340.711 143.459 340.711 141.47C340.6 139.48 339.05 137.933 337.168 137.933Z" fill="white"/>
<path d="M203.186 210.989C194.107 210.989 190.674 205.352 190.453 205.131C189.678 203.915 190.12 202.258 191.449 201.484C192.667 200.71 194.328 201.152 195.103 202.368C195.214 202.589 197.318 205.684 203.186 205.684C206.287 205.684 209.166 204.357 211.38 201.926C212.377 200.821 214.038 200.71 215.145 201.705C216.252 202.7 216.363 204.357 215.367 205.463C212.045 209.11 207.837 210.989 203.186 210.989Z" fill="white"/>
<path d="M85.261 60.4563C80.9426 60.4563 76.9564 62.0036 73.856 64.4351C71.9736 57.2511 65.3299 51.8354 57.5789 51.8354C49.2743 51.8354 42.4091 57.8037 41.0804 65.7614H32.8865C24.139 65.7614 17.1631 72.8349 17.1631 81.4557C17.1631 90.0765 24.139 97.2605 32.8865 97.2605H84.4859C84.7073 97.2605 85.0395 97.2605 85.261 97.2605C95.448 97.2605 103.642 89.0818 103.642 78.9136C103.642 68.7455 95.3373 60.4563 85.261 60.4563Z" fill="#0F1319"/>
<path d="M93.7873 49.9566C89.4689 49.9566 85.4827 51.504 82.3823 53.9355C80.6107 46.6409 73.967 41.3358 66.1053 41.3358C57.8007 41.3358 50.9355 47.3041 49.6068 55.2617H41.4129C32.6653 55.2617 25.6895 62.3352 25.6895 70.956C25.6895 79.5769 32.7761 86.6503 41.4129 86.6503H93.0122C93.2337 86.6503 93.5659 86.6503 93.7873 86.6503C103.974 86.6503 112.168 78.4716 112.168 68.3035C112.168 58.1353 103.974 49.9566 93.7873 49.9566Z" fill="white"/>
<path d="M93.7872 89.4134C93.455 89.4134 93.2336 89.4134 92.9014 89.4134H41.5235C31.3365 89.4134 23.1426 81.1241 23.1426 71.0665C23.1426 60.8984 31.4472 52.7197 41.5235 52.7197H47.6135C49.9388 44.4304 57.3576 38.6832 66.1052 38.6832C73.7454 38.6832 80.6106 43.1042 83.7109 49.8461C86.8113 48.1882 90.2439 47.304 93.7872 47.304C105.414 47.304 114.826 56.6985 114.826 68.3034C114.826 79.9084 105.414 89.4134 93.7872 89.4134ZM41.5235 57.9143C34.3261 57.9143 28.4575 63.772 28.4575 70.956C28.4575 78.14 34.3261 83.9977 41.5235 83.9977H93.0121H93.1229C93.3443 83.9977 93.5658 83.9977 93.7872 83.9977C102.424 83.9977 109.511 76.9243 109.511 68.3034C109.511 59.6826 102.424 52.6091 93.7872 52.6091C90.2439 52.6091 86.8113 53.8249 84.0431 56.0354C83.3788 56.588 82.3822 56.809 81.4964 56.4775C80.6106 56.1459 79.9462 55.4828 79.7247 54.5986C78.1745 48.2987 72.5274 43.9883 66.1052 43.9883C59.24 43.9883 53.3714 48.9619 52.2641 55.7038C52.0427 57.0301 50.9354 57.9143 49.6066 57.9143H41.5235Z" fill="#0F1319"/>
<path d="M78.7279 201.815C84.2643 197.395 87.6969 190.763 87.6969 183.137C87.6969 169.985 76.9563 159.264 63.7796 159.264C50.6029 159.264 39.8623 169.985 39.8623 183.137C39.8623 190.653 43.4056 197.395 48.8313 201.815C43.2949 206.236 39.8623 212.868 39.8623 220.494C39.8623 233.646 50.6029 244.367 63.7796 244.367C76.9563 244.367 87.6969 233.646 87.6969 220.494C87.8076 212.868 84.2643 206.126 78.7279 201.815Z" fill="#44DC00"/>
<path d="M63.8902 246.909C49.2741 246.909 37.3154 234.972 37.3154 220.383C37.3154 213.31 40.0836 206.678 45.0664 201.705C40.1944 196.731 37.3154 190.1 37.3154 183.027C37.3154 168.437 49.2741 156.501 63.8902 156.501C78.5063 156.501 90.465 168.437 90.465 183.027C90.465 190.1 87.6968 196.731 82.714 201.705C87.5861 206.678 90.465 213.31 90.465 220.383C90.465 235.083 78.5063 246.909 63.8902 246.909ZM63.8902 162.027C52.153 162.027 42.6304 171.532 42.6304 183.248C42.6304 189.768 45.5093 195.737 50.6028 199.826C51.2672 200.379 51.5994 201.042 51.5994 201.926C51.5994 202.81 51.2672 203.473 50.6028 204.026C45.5093 208.115 42.6304 214.084 42.6304 220.604C42.6304 232.32 52.153 241.825 63.8902 241.825C75.6274 241.825 85.15 232.32 85.15 220.604C85.15 214.084 82.2711 208.115 77.1776 204.026C76.5132 203.473 76.181 202.81 76.181 201.926C76.181 201.042 76.5132 200.379 77.1776 199.826C82.2711 195.737 85.15 189.768 85.15 183.248C85.15 171.532 75.6274 162.027 63.8902 162.027Z" fill="#0F1319"/>
<path d="M63.8899 271.334C62.4504 271.334 61.2324 270.119 61.2324 268.682V174.516C61.2324 173.079 62.4504 171.864 63.8899 171.864C65.3294 171.864 66.5474 173.079 66.5474 174.516V268.682C66.5474 270.119 65.3294 271.334 63.8899 271.334Z" fill="#0F1319"/>
<path d="M64.1116 194.963C63.4472 194.963 62.7829 194.742 62.2292 194.189L49.4955 181.479C48.4989 180.484 48.4989 178.716 49.4955 177.721C50.492 176.727 52.2637 176.727 53.2602 177.721L64.1116 188.553L73.8557 178.827C74.8522 177.832 76.6239 177.832 77.6204 178.827C78.617 179.821 78.617 181.59 77.6204 182.584L65.994 194.189C65.5511 194.631 64.776 194.963 64.1116 194.963Z" fill="#0F1319"/>
<path d="M64.1116 230.551C63.4472 230.551 62.7829 230.33 62.2292 229.778L49.4955 217.068C48.4989 216.073 48.4989 214.305 49.4955 213.31C50.492 212.315 52.2637 212.315 53.2602 213.31L64.1116 224.141L73.8557 214.415C74.8522 213.42 76.6239 213.42 77.6204 214.415C78.617 215.41 78.617 217.178 77.6204 218.173L65.994 229.778C65.5511 230.33 64.776 230.551 64.1116 230.551Z" fill="#0F1319"/>
<path d="M471.038 198.279L453.875 152.08L458.193 199.716L471.038 198.279Z" fill="#0F1319"/>
</g>
<defs>
<clipPath id="clip0_645:321">
<rect width="531.717" height="376" fill="white"/>
</clipPath>
</defs>
</svg>
