<svg width="320" height="220" viewBox="0 0 320 220" fill="none" xmlns="http://www.w3.org/2000/svg">
<g clip-path="url(#clip0)">
<path d="M182.813 84.646C206.21 84.646 225.178 65.6973 225.178 42.323C225.178 18.9486 206.21 0 182.813 0C159.415 0 140.447 18.9486 140.447 42.323C140.447 65.6973 159.415 84.646 182.813 84.646Z" fill="#ECEDDA"/>
<path d="M160.001 171.077H128.253C127.412 171.077 126.781 170.447 126.781 169.607V137.891C126.781 137.051 127.412 136.421 128.253 136.421H160.001C160.842 136.421 161.472 137.051 161.472 137.891V169.607C161.472 170.342 160.842 171.077 160.001 171.077ZM129.83 168.137H158.634V139.361H129.83V168.137Z" fill="#F6DF4A"/>
<path d="M160.001 139.361H128.253C127.412 139.361 126.781 138.731 126.781 137.891V106.175C126.781 105.335 127.412 104.705 128.253 104.705H160.001C160.842 104.705 161.472 105.335 161.472 106.175V137.891C161.472 138.731 160.842 139.361 160.001 139.361ZM129.83 136.421H158.634V107.645H129.83V136.421Z" fill="#F6DF4A"/>
<path d="M191.748 171.077H160C159.159 171.077 158.528 170.447 158.528 169.607V137.891C158.528 137.051 159.159 136.421 160 136.421H191.748C192.589 136.421 193.22 137.051 193.22 137.891V169.607C193.22 170.342 192.589 171.077 191.748 171.077ZM161.472 168.137H190.276V139.361H161.472V168.137Z" fill="#F6DF4A"/>
<path d="M191.748 139.361H160C159.159 139.361 158.528 138.731 158.528 137.891V106.175C158.528 105.335 159.159 104.705 160 104.705H191.748C192.589 104.705 193.22 105.335 193.22 106.175V137.891C193.22 138.731 192.589 139.361 191.748 139.361ZM161.472 136.421H190.276V107.645H161.472V136.421Z" fill="#F6DF4A"/>
<path d="M191.748 107.645H160C159.159 107.645 158.528 107.015 158.528 106.175V74.5641C158.528 73.7239 159.159 73.0938 160 73.0938H191.748C192.589 73.0938 193.22 73.7239 193.22 74.5641V106.28C193.22 107.015 192.589 107.645 191.748 107.645ZM161.472 104.705H190.276V76.0344H161.472V104.705Z" fill="#F6DF4A"/>
<path d="M191.748 76.0344H160C159.159 76.0344 158.528 75.4042 158.528 74.5641V42.8481C158.528 42.0079 159.159 41.3778 160 41.3778H191.748C192.589 41.3778 193.22 42.0079 193.22 42.8481V74.5641C193.22 75.2992 192.589 76.0344 191.748 76.0344ZM161.472 73.0938H190.276V44.3184H161.472V73.0938Z" fill="#F6DF4A"/>
<path d="M223.496 139.361H191.748C190.907 139.361 190.276 138.731 190.276 137.891V106.175C190.276 105.335 190.907 104.705 191.748 104.705H223.496C224.337 104.705 224.968 105.335 224.968 106.175V137.891C224.862 138.731 224.232 139.361 223.496 139.361ZM193.22 136.421H222.024V107.645H193.22V136.421Z" fill="#F6DF4A"/>
<path d="M223.496 107.645H191.748C190.907 107.645 190.276 107.015 190.276 106.175V74.5641C190.276 73.7239 190.907 73.0938 191.748 73.0938H223.496C224.337 73.0938 224.968 73.7239 224.968 74.5641V106.28C224.862 107.015 224.232 107.645 223.496 107.645ZM193.22 104.705H222.024V76.0344H193.22V104.705Z" fill="#F6DF4A"/>
<path d="M223.496 76.0344H191.748C190.907 76.0344 190.276 75.4042 190.276 74.5641V42.8481C190.276 42.0079 190.907 41.3778 191.748 41.3778H223.496C224.337 41.3778 224.968 42.0079 224.968 42.8481V74.5641C224.862 75.2992 224.232 76.0344 223.496 76.0344ZM193.22 73.0938H222.024V44.3184H193.22V73.0938Z" fill="#F6DF4A"/>
<path d="M255.138 107.645H223.391C222.55 107.645 221.919 107.015 221.919 106.175V74.5641C221.919 73.7239 222.55 73.0938 223.391 73.0938H255.138C255.979 73.0938 256.61 73.7239 256.61 74.5641V106.28C256.61 107.015 255.979 107.645 255.138 107.645ZM224.862 104.705H253.667V76.0344H224.862V104.705Z" fill="#F6DF4A"/>
<path d="M255.138 76.0344H223.391C222.55 76.0344 221.919 75.4042 221.919 74.5641V42.8481C221.919 42.0079 222.55 41.3778 223.391 41.3778H255.138C255.979 41.3778 256.61 42.0079 256.61 42.8481V74.5641C256.61 75.2992 255.979 76.0344 255.138 76.0344ZM224.862 73.0938H253.667V44.3184H224.862V73.0938Z" fill="#F6DF4A"/>
<path d="M286.886 76.0344H255.139C254.298 76.0344 253.667 75.4042 253.667 74.5641V42.8481C253.667 42.0079 254.298 41.3778 255.139 41.3778H286.886C287.727 41.3778 288.358 42.0079 288.358 42.8481V74.5641C288.358 75.2992 287.727 76.0344 286.886 76.0344ZM256.61 73.0938H285.415V44.3184H256.61V73.0938Z" fill="#F6DF4A"/>
<path d="M286.886 44.3184H255.139C254.298 44.3184 253.667 43.6882 253.667 42.8481V11.1321C253.667 10.2919 254.298 9.66182 255.139 9.66182H286.886C287.727 9.66182 288.358 10.2919 288.358 11.1321V42.8481C288.358 43.6882 287.727 44.3184 286.886 44.3184ZM256.61 41.3778H285.415V12.6024H256.61V41.3778Z" fill="#F6DF4A"/>
<path d="M318.634 44.3184H286.886C286.045 44.3184 285.414 43.6882 285.414 42.8481V11.1321C285.414 10.2919 286.045 9.66182 286.886 9.66182H318.634C319.475 9.66182 320.105 10.2919 320.105 11.1321V42.8481C320 43.6882 319.369 44.3184 318.634 44.3184ZM288.358 41.3778H317.162V12.6024H288.358V41.3778Z" fill="#F6DF4A"/>
<path d="M128.357 139.361H96.6094C95.7684 139.361 95.1377 138.731 95.1377 137.891V106.175C95.1377 105.335 95.7684 104.705 96.6094 104.705H128.357C129.198 104.705 129.829 105.335 129.829 106.175V137.891C129.829 138.731 129.093 139.361 128.357 139.361ZM98.0812 136.421H126.885V107.645H98.0812V136.421Z" fill="#F6DF4A"/>
<path d="M128.357 171.077H96.6094C95.7684 171.077 95.1377 170.447 95.1377 169.607V137.891C95.1377 137.051 95.7684 136.421 96.6094 136.421H128.357C129.198 136.421 129.829 137.051 129.829 137.891V169.607C129.829 170.342 129.093 171.077 128.357 171.077ZM98.0812 168.137H126.885V139.361H98.0812V168.137Z" fill="#F6DF4A"/>
<path d="M96.6101 139.361H64.8624C64.0214 139.361 63.3906 138.731 63.3906 137.891V106.175C63.3906 105.335 64.0214 104.705 64.8624 104.705H96.6101C97.4511 104.705 98.0818 105.335 98.0818 106.175V137.891C98.0818 138.731 97.4511 139.361 96.6101 139.361ZM66.3341 136.421H95.1383V107.645H66.3341V136.421Z" fill="#F6DF4A"/>
<path d="M96.6101 171.077H64.8624C64.0214 171.077 63.3906 170.447 63.3906 169.607V137.891C63.3906 137.051 64.0214 136.421 64.8624 136.421H96.6101C97.4511 136.421 98.0818 137.051 98.0818 137.891V169.607C98.0818 170.342 97.4511 171.077 96.6101 171.077ZM66.3341 168.137H95.1383V139.361H66.3341V168.137Z" fill="#F6DF4A"/>
<path d="M64.8614 171.077H33.2188C32.3778 171.077 31.7471 170.447 31.7471 169.607V137.891C31.7471 137.051 32.3778 136.421 33.2188 136.421H64.9665C65.8075 136.421 66.4382 137.051 66.4382 137.891V169.607C66.3331 170.342 65.7024 171.077 64.8614 171.077ZM34.6906 168.137H63.4948V139.361H34.6906V168.137Z" fill="#F6DF4A"/>
<path d="M64.8614 202.688H33.2188C32.3778 202.688 31.7471 202.058 31.7471 201.218V169.502C31.7471 168.662 32.3778 168.032 33.2188 168.032H64.9665C65.8075 168.032 66.4382 168.662 66.4382 169.502V201.218C66.3331 202.058 65.7024 202.688 64.8614 202.688ZM34.6906 199.748H63.4948V170.972H34.6906V199.748Z" fill="#F6DF4A"/>
<path d="M33.2195 202.688H1.47175C0.630749 202.688 0 202.058 0 201.218V169.502C0 168.662 0.630749 168.032 1.47175 168.032H33.2195C34.0605 168.032 34.6912 168.662 34.6912 169.502V201.218C34.6912 202.058 33.9553 202.688 33.2195 202.688ZM2.9435 199.748H31.7477V170.972H2.9435V199.748Z" fill="#F6DF4A"/>
<path d="M145.283 66.3725C134.981 66.3725 126.466 74.354 125.835 84.541C115.743 85.2761 107.648 93.6777 107.648 103.97C107.648 104.39 107.648 104.705 107.648 105.125C101.341 109.221 97.1357 116.362 97.1357 124.343C97.1357 134.11 103.233 142.512 111.853 145.768C106.912 149.443 103.969 155.219 103.969 161.415C103.969 172.233 112.694 180.949 123.522 180.949C124.784 180.949 125.94 180.844 127.201 180.634C126.255 182.945 125.625 185.57 125.625 188.196C125.625 199.013 134.35 207.729 145.178 207.729C156.006 207.729 164.731 199.013 164.731 188.196V157.005V85.9062C164.836 75.1942 156.006 66.3725 145.283 66.3725Z" fill="#510066"/>
<path d="M237.057 149.758C237.057 139.991 230.96 131.59 222.34 128.334C227.281 124.659 230.224 118.882 230.224 112.686C230.224 101.869 221.499 93.1526 210.671 93.1526C209.409 93.1526 208.253 93.2576 206.991 93.4677C207.938 91.1572 208.568 88.5317 208.568 85.9062C208.568 75.0892 199.843 66.3725 189.015 66.3725C178.187 66.3725 169.462 75.0892 169.462 85.9062V117.097V188.301C169.462 199.118 178.187 207.834 189.015 207.834C199.317 207.834 207.833 199.853 208.463 189.666C218.555 188.931 226.65 180.529 226.65 170.237C226.65 169.817 226.65 169.502 226.65 169.082C232.852 164.986 237.057 157.845 237.057 149.758Z" fill="#510066"/>
<path d="M138.765 58.391C128.568 58.391 120.158 66.3725 119.422 76.3494C109.435 77.0846 101.445 85.3811 101.445 95.6731C101.445 96.0931 101.445 96.4082 101.445 96.8283C95.2431 100.924 91.0381 107.96 91.0381 115.837C91.0381 125.499 97.0302 134.11 107.122 137.051C102.286 140.622 97.8712 145.032 97.8712 152.594C97.8712 163.201 106.597 171.602 117.214 171.602C118.476 171.602 120.053 171.497 121.209 171.287C120.263 173.598 119.632 176.538 119.632 179.164C119.632 189.771 127.937 198.487 138.66 198.487C149.277 198.487 157.687 189.771 157.687 179.164V148.288V77.7147C157.792 67.1077 149.382 58.391 138.765 58.391Z" fill="white"/>
<path d="M229.277 141.357C229.277 131.695 222.128 123.398 213.613 120.143C218.449 116.572 222.444 110.796 222.444 104.6C222.444 93.9927 214.454 85.5912 203.837 85.5912C202.575 85.5912 200.998 85.6962 199.842 85.9062C200.788 83.5958 200.998 80.6552 200.998 78.0297C200.998 67.4227 193.009 58.7061 182.391 58.7061C171.774 58.7061 163.784 67.4227 163.784 78.0297V108.906V179.479C163.784 190.086 171.774 198.067 182.391 198.067C192.588 198.067 200.683 190.506 201.314 180.424C211.301 179.689 218.975 171.707 218.975 161.521C218.975 161.1 219.29 160.365 219.29 159.945C225.492 155.954 229.277 149.338 229.277 141.357Z" fill="#F6DF4A"/>
<path d="M138.66 199.538C127.832 199.538 119.106 190.716 119.106 180.004C119.106 169.292 127.937 160.47 138.66 160.47C139.501 160.47 140.131 161.1 140.131 161.941C140.131 162.781 139.501 163.411 138.66 163.411C129.514 163.411 122.05 170.867 122.05 180.004C122.05 189.141 129.514 196.597 138.66 196.597C147.806 196.597 155.269 189.141 155.269 180.004V77.6097C155.269 68.4729 147.806 61.0165 138.66 61.0165C129.514 61.0165 122.05 68.4729 122.05 77.6097C122.05 78.4498 121.419 79.0799 120.578 79.0799C119.737 79.0799 119.106 78.4498 119.106 77.6097C119.106 66.7926 127.937 58.076 138.66 58.076C149.382 58.076 158.213 66.8976 158.213 77.6097V180.004C158.318 190.821 149.488 199.538 138.66 199.538Z" fill="#510066"/>
<path d="M117.003 172.758C106.176 172.758 97.4502 163.936 97.4502 153.224C97.4502 145.873 101.55 139.151 108.068 135.791C108.804 135.371 109.645 135.686 110.065 136.421C110.486 137.156 110.17 137.996 109.434 138.416C103.863 141.252 100.394 146.923 100.394 153.224C100.394 162.361 107.858 169.817 117.003 169.817C119.001 169.817 121.103 169.502 122.996 168.767C123.731 168.452 124.572 168.872 124.888 169.607C125.203 170.342 124.783 171.182 124.047 171.497C121.839 172.338 119.421 172.758 117.003 172.758Z" fill="#510066"/>
<path d="M102.601 99.1387C101.865 99.1387 101.235 98.6136 101.13 97.8785C101.024 97.1433 101.024 96.5132 101.024 95.7781C101.024 84.961 109.855 76.2444 120.578 76.2444C120.683 76.2444 120.683 76.2444 120.788 76.2444C120.893 76.2444 128.777 77.2946 133.193 72.0436C133.718 71.4135 134.664 71.3085 135.295 71.8336C135.926 72.3587 136.031 73.3038 135.505 73.934C130.249 80.1301 121.629 79.29 120.473 79.185C111.327 79.185 103.863 86.6414 103.863 95.7781C103.863 96.4082 103.863 97.0383 103.968 97.5634C104.073 98.4036 103.442 99.1387 102.706 99.1387H102.601Z" fill="#510066"/>
<path d="M113.64 139.151C100.919 139.151 90.6172 128.859 90.6172 116.152C90.6172 103.445 100.919 93.1526 113.64 93.1526C121.944 93.1526 129.618 97.5634 133.718 104.81C134.139 105.545 133.823 106.385 133.193 106.805C132.457 107.225 131.616 106.91 131.195 106.28C127.621 99.9789 120.893 96.0931 113.745 96.0931C102.707 96.0931 93.6658 105.125 93.6658 116.152C93.6658 127.179 102.707 136.211 113.745 136.211C114.586 136.211 115.216 136.841 115.216 137.681C115.111 138.521 114.375 139.151 113.64 139.151Z" fill="#510066"/>
<path d="M156.845 150.283C146.017 150.283 137.292 141.462 137.292 130.75C137.292 129.91 137.923 129.279 138.764 129.279C139.605 129.279 140.235 129.91 140.235 130.75C140.235 139.886 147.699 147.343 156.845 147.343C157.686 147.343 158.317 147.973 158.317 148.813C158.317 149.653 157.581 150.283 156.845 150.283Z" fill="#510066"/>
<path d="M118.055 148.183C117.635 148.183 117.109 147.973 116.899 147.553C112.904 141.777 112.273 134.32 115.217 128.019C115.532 127.284 116.478 126.969 117.214 127.284C117.95 127.599 118.265 128.544 117.95 129.279C115.427 134.635 115.953 141.042 119.317 145.873C119.737 146.503 119.632 147.448 118.896 147.868C118.581 148.078 118.371 148.183 118.055 148.183Z" fill="#510066"/>
<path d="M126.255 115.207C126.045 115.207 125.834 115.207 125.729 115.102C124.993 114.787 124.678 113.947 124.888 113.211C127.621 106.805 133.508 102.184 140.447 101.344C141.288 101.239 142.024 101.764 142.129 102.604C142.234 103.445 141.708 104.18 140.867 104.285C134.98 105.02 129.934 108.906 127.621 114.367C127.306 114.787 126.78 115.207 126.255 115.207Z" fill="#510066"/>
<path d="M182.391 199.538C171.563 199.538 162.838 190.716 162.838 180.004V77.6097C162.838 66.7926 171.668 58.076 182.391 58.076C193.114 58.076 201.944 66.8976 201.944 77.6097C201.944 88.3217 193.114 97.1433 182.391 97.1433C181.55 97.1433 180.919 96.5132 180.919 95.6731C180.919 94.8329 181.55 94.2028 182.391 94.2028C191.537 94.2028 199.001 86.7464 199.001 77.6097C199.001 68.4729 191.537 60.9115 182.391 60.9115C173.245 60.9115 165.781 68.3679 165.781 77.5046V179.899C165.781 189.036 173.245 196.492 182.391 196.492C191.537 196.492 199.001 189.036 199.001 179.899C199.001 179.059 199.632 178.429 200.473 178.429C201.314 178.429 201.944 179.059 201.944 179.899C201.944 190.821 193.114 199.538 182.391 199.538Z" fill="#510066"/>
<path d="M212.352 121.928C211.827 121.928 211.301 121.613 211.091 121.088C210.67 120.353 210.986 119.513 211.721 119.092C217.293 116.257 220.762 110.586 220.762 104.285C220.762 95.148 213.298 87.6916 204.152 87.6916C202.155 87.6916 200.053 88.0066 198.16 88.7418C197.424 89.0568 196.583 88.6367 196.268 87.9016C195.953 87.1665 196.373 86.3263 197.109 86.0112C199.317 85.1711 201.735 84.751 204.152 84.751C214.98 84.751 223.706 93.5727 223.706 104.285C223.706 111.636 219.606 118.357 213.088 121.718C212.773 121.928 212.562 121.928 212.352 121.928Z" fill="#510066"/>
<path d="M186.702 186.2C186.387 186.2 186.071 186.095 185.756 185.885C185.125 185.36 185.02 184.415 185.546 183.785C190.802 177.589 199.422 178.429 200.578 178.534C209.724 178.534 217.188 171.077 217.188 161.941C217.188 161.31 217.188 160.68 217.083 160.155C216.978 159.315 217.609 158.58 218.344 158.58C219.185 158.475 219.921 159.105 219.921 159.84C220.026 160.575 220.027 161.205 220.027 161.941C220.027 172.758 211.196 181.474 200.473 181.474C200.368 181.474 200.368 181.474 200.263 181.474C200.158 181.474 192.274 180.424 187.858 185.675C187.543 185.99 187.122 186.2 186.702 186.2Z" fill="#510066"/>
<path d="M207.411 164.461C199.106 164.461 191.432 160.05 187.332 152.804C186.912 152.069 187.227 151.229 187.858 150.808C188.594 150.388 189.435 150.703 189.855 151.334C193.429 157.635 200.157 161.521 207.306 161.521C218.344 161.521 227.385 152.489 227.385 141.462C227.385 130.435 218.344 121.403 207.306 121.403C206.465 121.403 205.834 120.773 205.834 119.933C205.834 119.093 206.465 118.462 207.306 118.462C220.026 118.462 230.328 128.754 230.328 141.462C230.328 154.169 220.131 164.461 207.411 164.461Z" fill="#510066"/>
<path d="M182.391 128.334C181.55 128.334 180.919 127.704 180.919 126.864C180.919 117.727 173.456 110.271 164.31 110.271C163.469 110.271 162.838 109.641 162.838 108.801C162.838 107.96 163.469 107.33 164.31 107.33C175.138 107.33 183.863 116.152 183.863 126.864C183.863 127.704 183.127 128.334 182.391 128.334Z" fill="#510066"/>
<path d="M204.572 130.435C204.362 130.435 204.151 130.435 203.941 130.33C203.205 130.015 202.89 129.069 203.205 128.334C205.728 122.978 205.203 116.572 201.839 111.741C201.418 111.111 201.523 110.166 202.259 109.746C202.89 109.326 203.836 109.431 204.257 110.166C208.251 115.942 208.882 123.398 205.939 129.699C205.623 130.12 205.098 130.435 204.572 130.435Z" fill="#510066"/>
<path d="M180.393 156.375C179.657 156.375 179.027 155.849 178.922 155.114C178.816 154.274 179.342 153.539 180.183 153.434C186.07 152.699 191.116 148.813 193.429 143.352C193.744 142.617 194.585 142.302 195.321 142.512C196.057 142.827 196.372 143.667 196.162 144.402C193.429 150.808 187.542 155.429 180.604 156.27C180.604 156.375 180.498 156.375 180.393 156.375Z" fill="#510066"/>
<path d="M113.115 155.534L86.9386 207.834L80.2106 190.821L58.66 207.624L50.25 197.017L71.4852 180.004L56.4524 169.817L113.115 155.534Z" fill="#FF6030"/>
<path d="M86.9383 209.305C86.3076 209.305 85.7819 208.884 85.5717 208.359L79.5796 193.131L59.6059 208.779C58.9751 209.305 58.029 209.2 57.5034 208.569L49.0934 197.962C48.5678 197.332 48.6729 196.387 49.3036 195.862L69.0671 180.109L55.6111 170.972C55.0855 170.657 54.8752 170.027 54.9804 169.502C55.0855 168.977 55.506 168.452 56.0316 168.347L112.694 154.064C113.22 153.959 113.85 154.169 114.166 154.589C114.481 155.009 114.586 155.639 114.376 156.164L88.1998 208.464C87.9896 208.989 87.4639 209.305 86.9383 209.305ZM52.3522 197.227L58.9751 205.629L79.3693 189.771C79.6847 189.456 80.2103 189.351 80.6308 189.561C81.0513 189.666 81.4718 189.981 81.5769 190.401L87.1486 204.369L110.486 157.845L60.1315 170.552L72.4311 178.954C72.8516 179.164 73.0618 179.689 73.0618 180.109C73.0618 180.529 72.8516 181.054 72.5362 181.264L52.3522 197.227Z" fill="#510066"/>
<path d="M219.921 95.6731C219.501 95.6731 219.185 95.568 218.87 95.253C218.344 94.7279 218.344 93.7827 218.87 93.1526L238.528 73.5139C238.844 73.1988 239.159 73.0938 239.579 73.0938H298.554C299.395 73.0938 300.026 73.7239 300.026 74.5641C300.026 75.4042 299.395 76.0344 298.554 76.0344H240.105L220.972 95.148C220.657 95.463 220.342 95.6731 219.921 95.6731Z" fill="#510066"/>
<path d="M231.065 148.078C230.644 148.078 230.329 147.973 230.013 147.658C229.488 147.133 229.488 146.188 230.013 145.557L248.62 126.969C248.936 126.654 249.251 126.549 249.672 126.549H275.953C276.794 126.549 277.425 127.179 277.425 128.019C277.425 128.859 276.794 129.489 275.953 129.489H250.197L232.011 147.658C231.8 147.868 231.38 148.078 231.065 148.078Z" fill="#510066"/>
<path d="M97.9765 150.808C97.556 150.808 97.2406 150.703 96.9252 150.388L85.782 139.256H20.92C20.079 139.256 19.4482 138.626 19.4482 137.786C19.4482 136.946 20.079 136.316 20.92 136.316H86.4128C86.8333 136.316 87.1486 136.421 87.464 136.736L99.0277 148.288C99.5534 148.813 99.5534 149.758 99.0277 150.388C98.7124 150.703 98.397 150.808 97.9765 150.808Z" fill="#510066"/>
<path d="M110.802 81.6004C110.381 81.6004 110.066 81.4954 109.751 81.1803L90.8282 62.2767H79.7901C78.9491 62.2767 78.3184 61.6466 78.3184 60.8065C78.3184 59.9663 78.9491 59.3362 79.7901 59.3362H91.459C91.8795 59.3362 92.1948 59.4412 92.5102 59.7563L111.853 79.0799C112.379 79.605 112.379 80.5502 111.853 81.1803C111.643 81.4954 111.222 81.6004 110.802 81.6004Z" fill="#510066"/>
<path d="M49.0933 52.5099C50.9855 52.5099 52.7727 53.14 54.1393 54.2953C54.9803 51.0396 57.8187 48.6242 61.3929 48.6242C65.0723 48.6242 68.1209 51.3547 68.7516 54.8204H72.431C76.3206 54.8204 79.4744 57.971 79.4744 61.8567C79.4744 65.7424 76.3206 68.893 72.431 68.893H49.4087C49.3035 68.893 49.1984 68.893 49.0933 68.893C44.5729 68.893 40.8936 65.2173 40.8936 60.7015C40.8936 56.1856 44.5729 52.5099 49.0933 52.5099Z" fill="#FF6030"/>
<path d="M49.0934 70.3633C43.732 70.3633 39.4219 66.0575 39.4219 60.7015C39.4219 55.3454 43.732 51.0396 49.0934 51.0396C50.5651 51.0396 52.142 51.3547 53.4035 52.0898C54.8752 49.1493 57.9238 47.1539 61.393 47.1539C65.2826 47.1539 68.7517 49.6744 69.9081 53.3501H72.4311C77.0566 53.3501 80.9462 57.1308 80.9462 61.8567C80.9462 66.5826 77.1617 70.3633 72.4311 70.3633H49.4087C49.3036 70.3633 49.1985 70.3633 49.0934 70.3633ZM49.0934 53.9802C45.414 53.9802 42.3654 57.0258 42.3654 60.7015C42.3654 64.3772 45.414 67.4227 49.0934 67.4227C49.1985 67.4227 49.3036 67.4227 49.4087 67.4227C49.4087 67.4227 49.4087 67.4227 49.5139 67.4227H72.4311C75.4797 67.4227 78.0027 64.9023 78.0027 61.8567C78.0027 58.8111 75.4797 56.2906 72.4311 56.2906H68.7517C68.0158 56.2906 67.3851 55.7655 67.28 55.0304C66.7543 52.1949 64.3365 50.0945 61.393 50.0945C58.6597 50.0945 56.2418 51.9848 55.6111 54.6103C55.506 55.1354 55.0855 55.4505 54.665 55.6605C54.2445 55.8705 53.7189 55.7655 53.2984 55.4505C52.0369 54.5053 50.5651 53.9802 49.0934 53.9802Z" fill="#510066"/>
<path d="M254.192 170.762C256.925 170.762 259.553 171.707 261.551 173.283C262.707 168.662 266.912 165.196 271.958 165.196C277.319 165.196 281.629 169.082 282.576 174.123H287.832C293.403 174.123 297.924 178.639 297.924 184.205C297.924 189.771 293.403 194.287 287.832 194.287H254.823C254.612 194.287 254.507 194.287 254.297 194.287C247.779 194.287 242.523 189.036 242.523 182.524C242.418 176.118 247.674 170.762 254.192 170.762Z" fill="#FF6030"/>
<path d="M254.192 195.862C246.833 195.862 240.946 189.876 240.946 182.629C240.946 175.383 246.938 169.397 254.192 169.397C256.505 169.397 258.818 170.027 260.815 171.182C262.707 166.771 267.017 163.936 271.958 163.936C277.53 163.936 282.26 167.612 283.732 172.863H287.832C294.245 172.863 299.396 178.009 299.396 184.415C299.396 190.821 294.245 195.967 287.832 195.967H254.823C254.613 195.862 254.402 195.862 254.192 195.862ZM254.192 172.233C248.515 172.233 243.89 176.853 243.89 182.524C243.89 188.196 248.515 192.816 254.192 192.816C254.297 192.816 254.507 192.816 254.613 192.816C254.613 192.816 254.613 192.816 254.718 192.816H287.727C292.458 192.816 296.347 188.931 296.347 184.205C296.347 179.479 292.458 175.593 287.727 175.593H282.471C281.735 175.593 281.104 175.068 280.999 174.333C280.263 169.817 276.373 166.666 271.853 166.666C267.648 166.666 263.864 169.502 262.917 173.703C262.812 174.228 262.392 174.543 261.971 174.753C261.551 174.963 261.025 174.858 260.605 174.543C258.818 173.073 256.61 172.233 254.192 172.233Z" fill="#510066"/>
<path d="M192.904 32.7662C190.696 32.7662 188.699 33.5013 187.122 34.7616C186.176 31.0859 182.917 28.4604 179.027 28.4604C174.928 28.4604 171.458 31.5059 170.723 35.3917H166.623C162.313 35.3917 158.738 38.9624 158.738 43.2682C158.738 47.574 162.313 51.1447 166.623 51.1447H192.378C192.483 51.1447 192.588 51.1447 192.799 51.1447C197.845 51.1447 202.05 47.0489 202.05 41.9029C202.05 36.7569 197.95 32.7662 192.904 32.7662Z" fill="#510066"/>
<path d="M302.864 78.7649C305.187 78.7649 307.069 76.8841 307.069 74.5641C307.069 72.244 305.187 70.3633 302.864 70.3633C300.542 70.3633 298.659 72.244 298.659 74.5641C298.659 76.8841 300.542 78.7649 302.864 78.7649Z" fill="#F6DF4A"/>
<path d="M302.864 80.2351C299.71 80.2351 297.188 77.7147 297.188 74.5641C297.188 71.4135 299.71 68.893 302.864 68.893C306.018 68.893 308.541 71.4135 308.541 74.5641C308.541 77.7147 306.018 80.2351 302.864 80.2351ZM302.864 71.8336C301.287 71.8336 300.131 73.0938 300.131 74.5641C300.131 76.0343 301.392 77.2946 302.864 77.2946C304.441 77.2946 305.597 76.0343 305.597 74.5641C305.597 73.0938 304.336 71.8336 302.864 71.8336Z" fill="#510066"/>
<path d="M239.58 62.8019C241.902 62.8019 243.785 60.9211 243.785 58.6011C243.785 56.281 241.902 54.4003 239.58 54.4003C237.258 54.4003 235.375 56.281 235.375 58.6011C235.375 60.9211 237.258 62.8019 239.58 62.8019Z" fill="#F6DF4A"/>
<path d="M239.58 64.2721C236.426 64.2721 233.903 61.7517 233.903 58.6011C233.903 55.4505 236.426 52.93 239.58 52.93C242.734 52.93 245.257 55.4505 245.257 58.6011C245.257 61.7517 242.734 64.2721 239.58 64.2721ZM239.58 55.8705C238.003 55.8705 236.847 57.1308 236.847 58.6011C236.847 60.1764 238.108 61.3316 239.58 61.3316C241.052 61.3316 242.313 60.0713 242.313 58.6011C242.313 57.0258 241.052 55.8705 239.58 55.8705Z" fill="#510066"/>
<path d="M111.222 44.6334C113.544 44.6334 115.427 42.7527 115.427 40.4326C115.427 38.1126 113.544 36.2318 111.222 36.2318C108.899 36.2318 107.017 38.1126 107.017 40.4326C107.017 42.7527 108.899 44.6334 111.222 44.6334Z" fill="#F6DF4A"/>
<path d="M111.222 46.1037C108.068 46.1037 105.545 43.5832 105.545 40.4326C105.545 37.282 108.068 34.7616 111.222 34.7616C114.375 34.7616 116.898 37.282 116.898 40.4326C116.898 43.5832 114.375 46.1037 111.222 46.1037ZM111.222 37.7021C109.645 37.7021 108.488 38.9624 108.488 40.4326C108.488 41.9029 109.75 43.1631 111.222 43.1631C112.693 43.1631 113.955 41.9029 113.955 40.4326C113.955 38.9624 112.693 37.7021 111.222 37.7021Z" fill="#510066"/>
<path d="M280.368 132.22C282.69 132.22 284.573 130.339 284.573 128.019C284.573 125.699 282.69 123.818 280.368 123.818C278.046 123.818 276.163 125.699 276.163 128.019C276.163 130.339 278.046 132.22 280.368 132.22Z" fill="#F6DF4A"/>
<path d="M280.368 133.69C277.214 133.69 274.691 131.17 274.691 128.019C274.691 124.869 277.214 122.348 280.368 122.348C283.522 122.348 286.045 124.869 286.045 128.019C286.15 131.17 283.522 133.69 280.368 133.69ZM280.368 125.184C278.791 125.184 277.635 126.444 277.635 127.914C277.635 129.384 278.896 130.645 280.368 130.645C281.945 130.645 283.101 129.384 283.101 127.914C283.101 126.444 281.945 125.184 280.368 125.184Z" fill="#510066"/>
<path d="M16.7148 141.987C19.0371 141.987 20.9198 140.106 20.9198 137.786C20.9198 135.466 19.0371 133.585 16.7148 133.585C14.3924 133.585 12.5098 135.466 12.5098 137.786C12.5098 140.106 14.3924 141.987 16.7148 141.987Z" fill="#F6DF4A"/>
<path d="M16.7148 143.562C13.5611 143.562 11.0381 141.042 11.0381 137.891C11.0381 134.74 13.5611 132.22 16.7148 132.22C19.8686 132.22 22.3916 134.74 22.3916 137.891C22.3916 140.937 19.8686 143.562 16.7148 143.562ZM16.7148 135.055C15.138 135.055 13.9816 136.316 13.9816 137.786C13.9816 139.256 15.2431 140.517 16.7148 140.517C18.1866 140.517 19.4481 139.256 19.4481 137.786C19.4481 136.316 18.1866 135.055 16.7148 135.055Z" fill="#510066"/>
<path d="M91.4591 62.2768C91.0386 62.2768 90.7233 62.1717 90.4079 61.8567C89.8823 61.3316 89.8823 60.3864 90.4079 59.7563L107.333 42.8481C107.859 42.323 108.805 42.323 109.435 42.8481C109.961 43.3732 109.961 44.3184 109.435 44.9485L92.5104 61.8567C92.195 62.1717 91.8796 62.2768 91.4591 62.2768Z" fill="#510066"/>
<path d="M239.579 76.0344C238.738 76.0344 238.107 75.4042 238.107 74.5641V63.2219C238.107 62.3818 238.738 61.7517 239.579 61.7517C240.42 61.7517 241.051 62.3818 241.051 63.2219V74.5641C241.051 75.4042 240.315 76.0344 239.579 76.0344Z" fill="#510066"/>
<path d="M182.917 61.0165C182.076 61.0165 181.445 60.3864 181.445 59.5462V45.6836C181.445 44.8435 182.076 44.2133 182.917 44.2133C183.758 44.2133 184.389 44.8435 184.389 45.6836V59.4412C184.389 60.2814 183.758 61.0165 182.917 61.0165Z" fill="#510066"/>
<path d="M242.418 184.1H208.673C207.832 184.1 207.201 183.47 207.201 182.629C207.201 181.789 207.832 181.159 208.673 181.159H242.418C243.259 181.159 243.89 181.789 243.89 182.629C243.89 183.365 243.259 184.1 242.418 184.1Z" fill="#510066"/>
<path d="M64.8624 138.731C64.0214 138.731 63.3906 138.101 63.3906 137.261V106.175C63.3906 105.335 64.0214 104.705 64.8624 104.705C65.7034 104.705 66.3341 105.335 66.3341 106.175V137.261C66.3341 138.101 65.7034 138.731 64.8624 138.731Z" fill="#510066"/>
<path d="M197.214 28.2503C195.006 28.2503 193.009 28.9855 191.432 30.2457C190.486 26.57 187.227 23.9445 183.337 23.9445C179.237 23.9445 175.768 26.9901 175.032 30.8758H170.932C166.622 30.8758 163.048 34.4465 163.048 38.7523C163.048 43.0581 166.622 46.6288 170.932 46.6288H196.688C196.793 46.6288 196.898 46.6288 197.108 46.6288C202.154 46.6288 206.359 42.533 206.359 37.3871C206.359 32.2411 202.26 28.2503 197.214 28.2503Z" fill="white"/>
<path d="M197.214 48.0991C197.109 48.0991 196.898 48.0991 196.793 48.0991H171.038C165.887 48.0991 161.682 43.8983 161.682 38.7523C161.682 33.6063 165.887 29.4056 171.038 29.4056H173.981C175.243 25.3098 179.027 22.4742 183.442 22.4742C187.332 22.4742 190.696 24.6797 192.273 28.0403C193.85 27.2001 195.532 26.7801 197.214 26.7801C203.101 26.7801 207.937 31.611 207.937 37.4921C207.831 43.2682 203.101 48.0991 197.214 48.0991ZM171.038 32.3461C167.463 32.3461 164.625 35.1816 164.625 38.7523C164.625 42.323 167.463 45.1585 171.038 45.1585H196.793C196.793 45.1585 196.793 45.1585 196.898 45.1585C197.004 45.1585 197.109 45.1585 197.214 45.1585C201.524 45.1585 204.993 41.6929 204.993 37.3871C204.993 33.0812 201.524 29.6156 197.214 29.6156C195.427 29.6156 193.745 30.2457 192.378 31.2959C191.958 31.611 191.432 31.716 191.011 31.506C190.591 31.2959 190.17 30.9809 190.065 30.4558C189.329 27.4102 186.491 25.2048 183.337 25.2048C179.973 25.2048 177.135 27.6202 176.504 30.9809C176.399 31.716 175.768 32.2411 175.032 32.2411H171.038V32.3461Z" fill="#510066"/>
<path d="M64.8622 110.376C67.1846 110.376 69.0672 108.495 69.0672 106.175C69.0672 103.855 67.1846 101.974 64.8622 101.974C62.5399 101.974 60.6572 103.855 60.6572 106.175C60.6572 108.495 62.5399 110.376 64.8622 110.376Z" fill="#F6DF4A"/>
<path d="M64.8623 111.951C61.7085 111.951 59.1855 109.431 59.1855 106.28C59.1855 103.129 61.7085 100.609 64.8623 100.609C68.016 100.609 70.539 103.129 70.539 106.28C70.6441 109.326 68.016 111.951 64.8623 111.951ZM64.8623 103.445C63.2854 103.445 62.129 104.705 62.129 106.175C62.129 107.645 63.3905 108.906 64.8623 108.906C66.334 108.906 67.5955 107.645 67.5955 106.175C67.5955 104.705 66.4392 103.445 64.8623 103.445Z" fill="#510066"/>
<path d="M144.337 219.701C143.39 219.701 142.549 219.701 141.708 219.596C140.867 219.491 140.342 218.861 140.342 218.021C140.447 217.181 141.078 216.551 141.919 216.656C143.075 216.761 144.231 216.761 145.388 216.761C146.229 216.761 146.86 217.391 146.86 218.231C146.86 219.071 146.229 219.701 145.388 219.701C145.072 219.701 144.757 219.701 144.337 219.701ZM152.011 219.071C151.275 219.071 150.749 218.546 150.539 217.916C150.434 217.076 150.959 216.341 151.695 216.236C152.852 216.026 154.008 215.711 155.059 215.396C155.795 215.186 156.636 215.606 156.846 216.341C157.057 217.076 156.636 217.916 155.9 218.126C154.744 218.441 153.482 218.756 152.221 219.071C152.116 219.071 152.011 219.071 152.011 219.071ZM135.296 218.441C135.191 218.441 134.98 218.441 134.875 218.336C133.614 218.021 132.457 217.496 131.301 216.971C130.565 216.656 130.25 215.816 130.565 215.081C130.881 214.345 131.722 214.03 132.457 214.345C133.509 214.766 134.56 215.186 135.716 215.501C136.452 215.711 136.978 216.551 136.662 217.286C136.557 218.126 135.927 218.441 135.296 218.441ZM161.367 215.396C160.946 215.396 160.421 215.186 160.21 214.766C159.79 214.135 159.895 213.19 160.526 212.77C161.472 212.14 162.313 211.405 163.049 210.565C163.574 209.935 164.52 209.935 165.151 210.46C165.782 210.985 165.782 211.93 165.256 212.56C164.415 213.505 163.364 214.345 162.313 215.186C161.997 215.291 161.682 215.396 161.367 215.396ZM126.255 213.82C125.94 213.82 125.624 213.715 125.309 213.505C124.363 212.77 123.417 211.825 122.471 210.985C121.945 210.355 121.945 209.515 122.471 208.884C123.101 208.359 123.942 208.359 124.573 208.884C125.414 209.725 126.255 210.46 127.096 211.195C127.727 211.72 127.832 212.665 127.306 213.295C127.096 213.61 126.676 213.82 126.255 213.82ZM119.632 206.154C119.107 206.154 118.686 205.944 118.371 205.419C117.214 203.423 116.689 201.953 116.689 201.848C116.373 201.113 116.794 200.273 117.635 199.958C118.371 199.643 119.212 200.063 119.527 200.903C119.527 200.903 119.948 202.163 120.999 203.949C121.419 204.684 121.209 205.524 120.473 205.944C120.158 206.049 119.842 206.154 119.632 206.154Z" fill="#510066"/>
</g>
<defs>
<clipPath id="clip0">
<rect width="320" height="219.701" fill="white"/>
</clipPath>
</defs>
</svg>
