<svg width="463" height="242" viewBox="0 0 463 242" fill="none" xmlns="http://www.w3.org/2000/svg">
<path d="M391.708 220.977H99.8077C96.7184 220.977 94.1836 218.429 94.1836 215.323V35.7545C94.1836 32.6489 96.7184 30.1007 99.8077 30.1007H391.708C394.797 30.1007 397.332 32.6489 397.332 35.7545V215.323C397.332 218.429 394.797 220.977 391.708 220.977Z" fill="#44DC00"/>
<path d="M369.37 90.302V56.6179C369.37 52.3975 365.964 48.9733 361.766 48.9733H237.401H205.399C201.201 48.9733 197.795 52.3975 197.795 56.6179V90.302H369.37Z" fill="#44DC00"/>
<path d="M369.371 92.1336H197.796C196.766 92.1336 195.895 91.2576 195.895 90.2224V56.618C195.895 51.3623 200.172 47.0622 205.4 47.0622H361.767C366.995 47.0622 371.272 51.3623 371.272 56.618V90.3021C371.272 91.3373 370.401 92.1336 369.371 92.1336ZM199.697 88.3909H367.549V56.618C367.549 53.4327 365.014 50.8845 361.846 50.8845H205.4C202.232 50.8845 199.697 53.4327 199.697 56.618V88.3909Z" fill="#0F1319"/>
<path d="M369.37 90.3021V169.296C369.37 173.517 365.964 176.941 361.766 176.941H205.399C201.201 176.941 197.795 173.517 197.795 169.296V155.441V90.3817H369.37V90.3021Z" fill="white"/>
<path d="M361.767 178.773H205.4C200.172 178.773 195.895 174.473 195.895 169.217V90.2224C195.895 89.1872 196.766 88.3113 197.796 88.3113H369.371C370.401 88.3113 371.272 89.1872 371.272 90.2224V169.217C371.272 174.473 366.995 178.773 361.767 178.773ZM199.697 92.1336V169.217C199.697 172.402 202.232 174.95 205.4 174.95H361.767C364.935 174.95 367.47 172.402 367.47 169.217V92.1336H199.697Z" fill="#0F1319"/>
<path d="M441.929 49.8493V16.1652C441.929 11.9447 438.523 8.52057 434.324 8.52057H309.96H277.958C273.76 8.52057 270.354 11.9447 270.354 16.1652V49.8493H441.929Z" fill="#44DC00"/>
<path d="M441.93 51.7605H270.354C269.324 51.7605 268.453 50.8845 268.453 49.8493V16.1652C268.453 10.9095 272.731 6.60944 277.959 6.60944H434.325C439.553 6.60944 443.831 10.9095 443.831 16.1652V49.8493C443.831 50.8845 442.959 51.7605 441.93 51.7605ZM272.255 47.9382H440.108V16.1652C440.108 12.98 437.573 10.4317 434.404 10.4317H277.959C274.79 10.4317 272.255 12.98 272.255 16.1652V47.9382Z" fill="#0F1319"/>
<path d="M441.929 49.8493V140.55C441.929 144.77 438.523 148.194 434.324 148.194H277.958C273.76 148.194 270.354 144.77 270.354 140.55V126.694V49.8493H441.929Z" fill="white"/>
<path d="M434.325 150.105H277.959C272.731 150.105 268.453 145.805 268.453 140.55V49.8493C268.453 48.8141 269.324 47.9382 270.354 47.9382H441.93C442.959 47.9382 443.831 48.8141 443.831 49.8493V140.55C443.831 145.805 439.553 150.105 434.325 150.105ZM272.255 51.7605V140.629C272.255 143.814 274.79 146.363 277.959 146.363H434.325C437.494 146.363 440.029 143.814 440.029 140.629V51.7605H272.255Z" fill="#0F1319"/>
<path d="M387.353 36.7101H377.372C376.342 36.7101 375.471 35.8342 375.471 34.799C375.471 33.7638 376.342 32.8878 377.372 32.8878H387.353C388.382 32.8878 389.254 33.7638 389.254 34.799C389.254 35.8342 388.382 36.7101 387.353 36.7101Z" fill="#0F1319"/>
<path d="M409.056 23.0135H397.332V34.7989H409.056V23.0135Z" fill="white"/>
<path d="M409.056 36.7101H397.333C396.303 36.7101 395.432 35.8342 395.432 34.799V23.0135C395.432 21.9783 396.303 21.1024 397.333 21.1024H409.056C410.086 21.1024 410.957 21.9783 410.957 23.0135V34.799C410.957 35.8342 410.086 36.7101 409.056 36.7101ZM399.234 32.9674H407.234V24.9247H399.234V32.9674Z" fill="#0F1319"/>
<path d="M430.128 36.312C429.652 36.312 429.177 36.1527 428.781 35.7546L417.533 24.4469C416.82 23.7302 416.82 22.5358 417.533 21.8191C418.246 21.1024 419.434 21.1024 420.147 21.8191L431.395 33.1267C432.108 33.8434 432.108 35.0379 431.395 35.7546C431.078 36.1527 430.603 36.312 430.128 36.312Z" fill="#0F1319"/>
<path d="M418.879 36.312C418.404 36.312 417.929 36.1527 417.533 35.7546C416.82 35.0379 416.82 33.8434 417.533 33.1267L428.781 21.8191C429.494 21.1024 430.682 21.1024 431.395 21.8191C432.108 22.5358 432.108 23.7302 431.395 24.4469L420.147 35.7546C419.83 36.1527 419.355 36.312 418.879 36.312Z" fill="#0F1319"/>
<path d="M410.084 114.59L459.513 135.294L444.383 142.54L461.097 161.254L451.908 169.615L435.036 151.22L426.639 165.633L410.084 114.59Z" fill="white"/>
<path d="M451.909 171.526C451.434 171.526 450.88 171.287 450.563 170.889L435.433 154.326L428.304 166.589C427.908 167.226 427.195 167.624 426.482 167.545C425.769 167.465 425.136 166.987 424.898 166.27L408.263 115.147C408.026 114.43 408.263 113.714 408.738 113.156C409.293 112.679 410.085 112.519 410.719 112.838L460.148 133.542C460.861 133.86 461.257 134.498 461.336 135.214C461.336 135.931 460.94 136.648 460.306 136.966L447.394 143.177L462.445 159.98C463.158 160.776 463.078 161.97 462.286 162.607L453.098 170.969C452.781 171.367 452.385 171.526 451.909 171.526ZM435.037 149.309C435.592 149.309 436.067 149.548 436.384 149.946L451.989 166.987L458.405 161.094L442.958 143.814C442.562 143.337 442.404 142.779 442.483 142.222C442.562 141.664 442.958 141.107 443.513 140.868L454.84 135.373L413.016 117.855L427.037 161.015L433.294 150.185C433.611 149.707 434.087 149.309 434.72 149.229C434.879 149.309 434.958 149.309 435.037 149.309Z" fill="#0F1319"/>
<path d="M270.353 47.8585C270.353 47.8585 270.353 133.383 270.353 140.629C270.353 147.876 275.502 148.274 277.958 148.274C280.413 148.274 369.37 148.274 369.37 148.274V158.307C369.37 158.307 287.147 158.307 277.641 158.307C268.135 158.307 259.977 151.22 259.977 139.753C259.977 122.792 259.977 47.8585 259.977 47.8585H270.353Z" fill="#0F1319"/>
<path d="M205.557 240.089H152.88C142.424 240.089 133.869 231.489 133.869 220.977C133.869 210.466 142.424 201.866 152.88 201.866H205.557C216.013 201.866 224.568 210.466 224.568 220.977C224.568 231.489 216.013 240.089 205.557 240.089Z" fill="white"/>
<path d="M205.558 242H152.881C141.395 242 131.969 232.603 131.969 220.977C131.969 209.431 141.316 199.955 152.881 199.955H205.558C217.044 199.955 226.47 209.351 226.47 220.977C226.47 232.524 217.044 242 205.558 242ZM152.881 203.697C143.455 203.697 135.692 211.422 135.692 220.977C135.692 230.533 143.375 238.257 152.881 238.257H205.558C214.984 238.257 222.747 230.533 222.747 220.977C222.747 211.422 215.063 203.697 205.558 203.697H152.881Z" fill="#0F1319"/>
<path d="M205.082 233.718C212.082 233.718 217.756 228.014 217.756 220.977C217.756 213.941 212.082 208.236 205.082 208.236C198.083 208.236 192.408 213.941 192.408 220.977C192.408 228.014 198.083 233.718 205.082 233.718Z" fill="#44DC00"/>
<path d="M164.05 153.131H26.6152C20.1198 153.131 14.8125 147.796 14.8125 141.266V127.49C14.8125 120.96 20.1198 115.625 26.6152 115.625H164.05V153.131Z" fill="#44DC00"/>
<path d="M164.051 155.042H26.616C19.0907 155.042 12.9121 148.831 12.9121 141.266V127.49C12.9121 119.925 19.0907 113.714 26.616 113.714H164.051C165.08 113.714 165.952 114.59 165.952 115.625V153.131C165.952 154.167 165.08 155.042 164.051 155.042ZM26.616 117.536C21.1503 117.536 16.6351 121.995 16.6351 127.57V141.346C16.6351 146.84 21.071 151.379 26.616 151.379H162.229V117.616H26.616V117.536Z" fill="#0F1319"/>
<path d="M164.049 153.131H133.473C126.977 153.131 121.67 147.796 121.67 141.266V127.49C121.67 120.96 126.977 115.625 133.473 115.625H164.049V153.131Z" fill="white"/>
<path d="M164.05 155.042H133.473C125.948 155.042 119.77 148.831 119.77 141.266V127.49C119.77 119.925 125.948 113.714 133.473 113.714H164.05C165.079 113.714 165.951 114.59 165.951 115.625V153.131C165.951 154.167 165.079 155.042 164.05 155.042ZM133.473 117.536C128.008 117.536 123.493 121.995 123.493 127.57V141.346C123.493 146.84 127.928 151.379 133.473 151.379H162.148V117.616H133.473V117.536Z" fill="#0F1319"/>
<path d="M174.506 117.536H164.05C163.02 117.536 162.148 116.66 162.148 115.625C162.148 114.59 163.02 113.714 164.05 113.714H174.506C175.535 113.714 176.407 114.59 176.407 115.625C176.407 116.66 175.535 117.536 174.506 117.536Z" fill="#0F1319"/>
<path d="M174.506 155.042H164.05C163.02 155.042 162.148 154.167 162.148 153.131C162.148 152.096 163.02 151.22 164.05 151.22H174.506C175.535 151.22 176.407 152.096 176.407 153.131C176.407 154.167 175.535 155.042 174.506 155.042Z" fill="#0F1319"/>
<path d="M151.138 115.625H13.7031C7.20766 115.625 1.90039 110.29 1.90039 103.76V89.9835C1.90039 83.4537 7.20766 78.1184 13.7031 78.1184H151.138V115.625Z" fill="#0F1319"/>
<path d="M151.138 117.536H13.7038C6.17861 117.536 0 111.325 0 103.76V89.9835C0 82.4185 6.17861 76.2073 13.7038 76.2073H151.138C152.168 76.2073 153.04 77.0832 153.04 78.1184V115.625C153.04 116.66 152.168 117.536 151.138 117.536ZM13.7038 79.95C8.23815 79.95 3.72301 84.4093 3.72301 89.9835V103.76C3.72301 109.254 8.15894 113.793 13.7038 113.793H149.317V80.0296H13.7038V79.95Z" fill="#0F1319"/>
<path d="M151.137 115.625H120.561C114.065 115.625 108.758 110.29 108.758 103.76V89.9835C108.758 83.4537 114.065 78.1184 120.561 78.1184H151.137V115.625Z" fill="white"/>
<path d="M151.138 117.536H120.561C113.036 117.536 106.857 111.325 106.857 103.76V89.9835C106.857 82.4185 113.036 76.2073 120.561 76.2073H151.138C152.167 76.2073 153.039 77.0832 153.039 78.1184V115.625C153.039 116.66 152.167 117.536 151.138 117.536ZM120.561 79.95C115.096 79.95 110.58 84.4093 110.58 89.9835V103.76C110.58 109.254 115.016 113.793 120.561 113.793H149.236V80.0296H120.561V79.95Z" fill="#0F1319"/>
<path d="M161.594 79.95H151.137C150.108 79.95 149.236 79.0741 149.236 78.0388C149.236 77.0036 150.108 76.1277 151.137 76.1277H161.594C162.623 76.1277 163.495 77.0036 163.495 78.0388C163.495 79.1537 162.623 79.95 161.594 79.95Z" fill="#0F1319"/>
<path d="M161.594 117.536H151.137C150.108 117.536 149.236 116.66 149.236 115.625C149.236 114.59 150.108 113.714 151.137 113.714H161.594C162.623 113.714 163.495 114.59 163.495 115.625C163.495 116.66 162.623 117.536 161.594 117.536Z" fill="#0F1319"/>
<path d="M239.619 129.162H223.38C217.597 132.109 213.637 138.161 213.637 145.168C213.637 155.122 221.637 163.165 231.539 163.165C241.44 163.165 249.441 155.122 249.441 145.168C249.362 138.161 245.401 132.109 239.619 129.162Z" fill="#44DC00"/>
<path d="M231.54 164.996C220.688 164.996 211.816 156.078 211.816 145.168C211.816 138.32 215.619 131.71 221.56 128.047V106.865C221.56 105.83 222.431 104.954 223.461 104.954H239.699C240.729 104.954 241.601 105.83 241.601 106.865V128.047C247.621 131.631 251.344 138.081 251.344 145.168C251.265 156.078 242.393 164.996 231.54 164.996ZM225.283 108.777V129.162C225.283 129.879 224.887 130.516 224.253 130.835C218.946 133.701 215.46 139.355 215.46 145.168C215.46 154.007 222.669 161.254 231.461 161.254C240.254 161.254 247.462 154.007 247.462 145.168C247.462 139.116 244.135 133.622 238.749 130.835C238.115 130.516 237.719 129.879 237.719 129.162V108.777H225.283Z" fill="#0F1319"/>
<path d="M246.432 108.777H216.569C215.539 108.777 214.668 107.901 214.668 106.865C214.668 105.83 215.539 104.954 216.569 104.954H246.432C247.462 104.954 248.333 105.83 248.333 106.865C248.333 107.901 247.462 108.777 246.432 108.777Z" fill="#0F1319"/>
<path d="M389.966 109.573H351.072L360.499 131.551H380.223C380.223 131.551 396.937 128.844 390.837 109.573" fill="#44DC00"/>
<path d="M377.686 133.462H346.872C340.852 133.462 335.545 130.277 332.614 125.021C329.683 119.766 329.921 113.554 333.089 108.378C333.169 108.299 333.169 108.219 333.248 108.219L352.338 84.5686V65.7756C352.338 64.7404 353.209 63.8644 354.239 63.8644H370.636C371.666 63.8644 372.537 64.7404 372.537 65.7756V84.4094L391.469 108.378C391.549 108.458 391.548 108.538 391.628 108.538C394.717 113.634 394.875 119.845 391.945 125.021C388.934 130.357 383.627 133.462 377.686 133.462ZM336.258 110.528C333.881 114.43 333.723 119.208 335.941 123.19C338.159 127.251 342.278 129.72 346.872 129.72H377.686C382.281 129.72 386.32 127.331 388.618 123.27C390.836 119.288 390.756 114.59 388.38 110.688L369.131 86.2409C368.894 85.9224 368.735 85.5242 368.735 85.0464V67.6868H356.061V85.2853C356.061 85.6835 355.903 86.1613 355.665 86.4798L336.258 110.528Z" fill="#0F1319"/>
<path d="M346.24 95.1596C346.24 95.1596 359.389 115.466 362.241 119.766C365.172 124.066 365.409 130.357 362.241 131.631H338.794L336.18 107.741L346.24 95.1596Z" fill="#0F1319"/>
<path d="M337.447 96.6726H306L287.781 124.862C285.959 127.809 288.018 131.631 291.504 131.631H352.023C355.429 131.631 357.567 127.888 355.746 124.942L337.447 96.6726Z" fill="#44DC00"/>
<path d="M332.377 88.7891V28.2692H311.069V88.7891L305.92 96.6726H337.447L332.377 88.7891Z" fill="white"/>
<path d="M351.943 133.462H291.424C289.127 133.462 287.067 132.268 285.958 130.197C284.849 128.127 284.929 125.738 286.117 123.827L309.168 88.152V28.2692C309.168 27.234 310.039 26.358 311.069 26.358H332.377C333.407 26.358 334.278 27.234 334.278 28.2692V88.2317L357.329 123.907C358.597 125.897 358.597 128.286 357.488 130.277C356.299 132.268 354.24 133.462 351.943 133.462ZM312.891 30.1803V88.7891C312.891 89.1872 312.812 89.5058 312.574 89.8243L289.285 125.897C288.81 126.694 288.81 127.649 289.206 128.446C289.681 129.242 290.473 129.72 291.424 129.72H351.943C352.893 129.72 353.685 129.242 354.161 128.446C354.636 127.649 354.557 126.694 354.082 125.897L330.793 89.8243C330.634 89.5058 330.476 89.1872 330.476 88.7891V30.1803H312.891Z" fill="#0F1319"/>
<path d="M339.11 30.1803H304.257C303.227 30.1803 302.355 29.3044 302.355 28.2692C302.355 27.234 303.227 26.358 304.257 26.358H339.11C340.14 26.358 341.011 27.234 341.011 28.2692C341.011 29.3044 340.14 30.1803 339.11 30.1803Z" fill="#0F1319"/>
<path d="M309.643 122.712C306.237 122.712 303.465 119.925 303.465 116.501C303.465 113.077 306.237 110.29 309.643 110.29C313.05 110.29 315.822 113.077 315.822 116.501C315.901 119.845 313.129 122.712 309.643 122.712ZM309.643 113.953C308.297 113.953 307.188 115.067 307.188 116.421C307.188 117.775 308.297 118.89 309.643 118.89C310.99 118.89 312.099 117.775 312.099 116.421C312.099 115.067 310.99 113.953 309.643 113.953Z" fill="white"/>
<path d="M326.04 113.156C322.634 113.156 319.861 110.369 319.861 106.945C319.861 103.521 322.634 100.734 326.04 100.734C329.446 100.734 332.219 103.521 332.219 106.945C332.219 110.369 329.446 113.156 326.04 113.156ZM326.04 104.397C324.693 104.397 323.584 105.512 323.584 106.865C323.584 108.219 324.693 109.334 326.04 109.334C327.387 109.334 328.496 108.219 328.496 106.865C328.496 105.512 327.387 104.397 326.04 104.397Z" fill="white"/>
<path d="M231.778 156.237C225.361 156.237 222.906 152.255 222.827 152.016C222.272 151.141 222.589 149.946 223.46 149.468C224.332 148.911 225.441 149.229 225.995 150.105C226.074 150.265 227.579 152.415 231.698 152.415C233.916 152.415 235.897 151.539 237.481 149.787C238.194 148.99 239.382 148.99 240.095 149.628C240.887 150.344 240.887 151.539 240.253 152.255C238.036 154.883 235.025 156.237 231.778 156.237Z" fill="white"/>
<path d="M166.031 22.0579C163.021 22.0579 160.17 23.0931 157.952 24.9246C156.763 19.6689 152.09 15.9263 146.624 15.9263C140.762 15.9263 135.93 20.2264 134.98 25.8006H129.197C123.098 25.8006 118.107 30.8174 118.107 36.949C118.107 43.0806 123.098 48.0974 129.197 48.0974H165.556C165.714 48.0974 165.952 48.0974 166.11 48.0974C173.24 48.0974 179.101 42.2843 179.101 35.0378C179.101 27.7914 173.24 22.0579 166.031 22.0579Z" fill="#0F1319"/>
<path d="M172.13 14.5726C169.12 14.5726 166.268 15.6078 164.05 17.4393C162.783 12.2632 158.109 8.52057 152.644 8.52057C146.782 8.52057 141.95 12.8207 140.999 18.3949H135.217C129.117 18.3949 124.127 23.4116 124.127 29.5433C124.127 35.6749 129.117 40.6917 135.217 40.6917H171.496C171.655 40.6917 171.892 40.6917 172.051 40.6917C179.18 40.6917 185.042 34.8786 185.042 27.6321C185.042 20.3857 179.259 14.5726 172.13 14.5726Z" fill="white"/>
<path d="M172.13 42.5232C171.971 42.5232 171.734 42.5232 171.575 42.5232H135.296C128.166 42.5232 122.305 36.7101 122.305 29.4636C122.305 22.2968 128.087 16.4041 135.296 16.4041H139.573C141.237 10.591 146.544 6.52979 152.643 6.52979C158.03 6.52979 162.862 9.71504 165 14.4929C167.139 13.2985 169.595 12.6614 172.13 12.6614C180.289 12.6614 186.942 19.3504 186.942 27.5525C186.942 35.7545 180.289 42.5232 172.13 42.5232ZM135.296 20.2264C130.226 20.2264 126.107 24.3672 126.107 29.4636C126.107 34.5601 130.226 38.7009 135.296 38.7009H171.575H171.654C171.813 38.7009 171.971 38.7009 172.13 38.7009C178.229 38.7009 183.219 33.6841 183.219 27.5525C183.219 21.4209 178.229 16.4041 172.13 16.4041C169.595 16.4041 167.218 17.2004 165.238 18.793C164.763 19.1912 164.05 19.2708 163.495 19.1116C162.862 18.8727 162.466 18.3949 162.307 17.7578C161.198 13.2985 157.238 10.1928 152.722 10.1928C147.89 10.1928 143.771 13.6966 142.979 18.4745C142.821 19.3504 142.029 20.0671 141.157 20.0671H135.296V20.2264Z" fill="#0F1319"/>
<path d="M74.1418 32.0118C78.0233 28.9062 80.4789 24.1283 80.4789 18.793C80.4789 9.47612 72.9536 1.91113 63.6857 1.91113C54.4178 1.91113 46.8926 9.47612 46.8926 18.793C46.8926 24.1283 49.3482 28.9062 53.2296 32.0118C49.3482 35.1175 46.8926 39.8953 46.8926 45.2306C46.8926 54.5475 54.4178 62.1125 63.6857 62.1125C72.9536 62.1125 80.4789 54.5475 80.4789 45.2306C80.4789 39.8953 78.0233 35.1175 74.1418 32.0118Z" fill="#44DC00"/>
<path d="M63.6865 64.0237C53.3888 64.0237 44.9922 55.5828 44.9922 45.2307C44.9922 40.2139 46.9725 35.5156 50.3787 32.0118C46.8933 28.5081 44.9922 23.8098 44.9922 18.793C45.0714 8.44094 53.3888 0 63.6865 0C73.9841 0 82.3807 8.44094 82.3807 18.793C82.3807 23.8098 80.4004 28.5081 76.9942 32.0118C80.4796 35.5156 82.3807 40.2139 82.3807 45.2307C82.3807 55.5828 73.9841 64.0237 63.6865 64.0237ZM63.6865 3.74268C55.4483 3.74268 48.7944 10.5114 48.7944 18.7134C48.7944 23.332 50.8539 27.5525 54.4185 30.4988C54.8938 30.8174 55.1315 31.3748 55.1315 32.0118C55.1315 32.5693 54.8938 33.1267 54.4185 33.5248C50.8539 36.3916 48.7944 40.6917 48.7944 45.3103C48.7944 53.592 55.5275 60.281 63.6865 60.281C71.9246 60.281 78.5785 53.5123 78.5785 45.3103C78.5785 40.6917 76.519 36.4712 72.9544 33.5248C72.4791 33.2063 72.2415 32.6489 72.2415 32.0118C72.2415 31.4544 72.4791 30.897 72.9544 30.4988C76.519 27.6321 78.5785 23.332 78.5785 18.7134C78.6577 10.5114 71.9246 3.74268 63.6865 3.74268Z" fill="#0F1319"/>
<path d="M63.6882 81.3037C62.6585 81.3037 61.7871 80.4278 61.7871 79.3926V12.6614C61.7871 11.6262 62.6585 10.7502 63.6882 10.7502C64.718 10.7502 65.5893 11.6262 65.5893 12.6614V79.3926C65.5893 80.4278 64.718 81.3037 63.6882 81.3037Z" fill="#0F1319"/>
<path d="M63.845 27.1544C63.3697 27.1544 62.8944 26.9951 62.4983 26.5969L53.6265 17.5986C52.9136 16.8819 52.9136 15.6874 53.6265 14.9707C54.3394 14.2541 55.5276 14.2541 56.2405 14.9707L63.845 22.6154L70.7365 15.6874C71.4494 14.9707 72.6376 14.9707 73.3505 15.6874C74.0634 16.4041 74.0634 17.5986 73.3505 18.3153L65.1916 26.5969C64.8747 26.9155 64.3202 27.1544 63.845 27.1544Z" fill="#0F1319"/>
<path d="M63.845 52.3975C63.3697 52.3975 62.8944 52.2383 62.4983 51.8401L53.6265 42.8417C52.9136 42.1251 52.9136 40.9306 53.6265 40.2139C54.3394 39.4972 55.5276 39.4972 56.2405 40.2139L63.845 47.8585L70.7365 40.9306C71.4494 40.2139 72.6376 40.2139 73.3505 40.9306C74.0634 41.6473 74.0634 42.8417 73.3505 43.5584L65.1916 51.8401C64.8747 52.2383 64.3202 52.3975 63.845 52.3975Z" fill="#0F1319"/>
<path d="M420.224 147.239L408.184 114.51L411.273 148.194L420.224 147.239Z" fill="#0F1319"/>
</svg>
