<svg width="401" height="448" viewBox="0 0 401 448" fill="none" xmlns="http://www.w3.org/2000/svg">
<g clip-path="url(#clip0_841:384)">
<path d="M381.319 205.822C382.739 207.621 383.59 209.988 383.59 212.45C383.59 215.006 382.644 217.373 381.225 219.172" stroke="#510066" stroke-width="3.2433" stroke-miterlimit="10" stroke-linecap="round"/>
<path d="M390.025 199.763C392.674 202.698 394.472 207.337 394.472 212.45C394.472 217.846 392.58 222.58 389.646 225.515" stroke="#510066" stroke-width="3.2433" stroke-miterlimit="10" stroke-linecap="round"/>
<path d="M336.754 135.763L329.373 130.651C329.184 130.461 328.995 130.367 328.9 130.177C328.806 129.988 328.711 129.893 328.711 129.609V129.041C328.711 128.852 328.711 128.663 328.806 128.473C328.9 128.284 329.089 128.189 329.279 128L336.659 122.982C336.848 122.888 336.943 122.793 337.132 122.793C337.227 122.793 337.321 122.793 337.416 122.888C337.511 122.982 337.511 123.077 337.511 123.266V124.97C337.511 125.16 337.511 125.349 337.416 125.444C337.321 125.538 337.227 125.633 337.038 125.822L331.739 129.325L337.038 132.828C337.227 132.923 337.321 133.112 337.416 133.207C337.511 133.302 337.511 133.491 337.511 133.68V135.385C337.511 135.479 337.511 135.669 337.416 135.669C337.321 135.763 337.227 135.763 337.132 135.763C337.038 135.953 336.848 135.858 336.754 135.763Z" fill="#510066"/>
<path d="M339.024 138.793C338.93 138.698 338.93 138.604 338.93 138.509C338.93 138.414 338.93 138.32 338.93 138.225L346.405 120.331C346.499 120.237 346.594 120.142 346.689 120.047C346.783 119.953 346.972 119.858 347.162 119.858H348.581C348.676 119.858 348.865 119.858 348.865 119.953C348.959 120.047 348.959 120.142 348.959 120.237C348.959 120.331 348.959 120.426 348.959 120.521L341.484 138.414C341.484 138.509 341.39 138.604 341.295 138.698C341.201 138.793 341.011 138.888 340.822 138.888H339.403C339.214 138.982 339.119 138.888 339.024 138.793Z" fill="#510066"/>
<path d="M350.38 135.763C350.285 135.669 350.285 135.574 350.285 135.479V133.775C350.285 133.586 350.285 133.491 350.38 133.302C350.474 133.112 350.569 133.112 350.758 132.923L356.057 129.42L350.758 125.917C350.569 125.822 350.474 125.633 350.38 125.538C350.285 125.444 350.285 125.254 350.285 125.065V123.361C350.285 123.172 350.285 123.077 350.38 122.982C350.474 122.888 350.569 122.888 350.664 122.888C350.758 122.888 350.947 122.982 351.137 123.077L358.517 128.095C358.706 128.284 358.896 128.379 358.99 128.568C359.085 128.757 359.085 128.852 359.085 129.136V129.704C359.085 129.893 358.99 130.083 358.896 130.272C358.801 130.462 358.612 130.556 358.422 130.746L351.042 135.858C350.853 135.953 350.758 136.047 350.569 136.047C350.569 135.953 350.474 135.858 350.38 135.763Z" fill="#510066"/>
<path d="M47.0273 298.793V317.917" stroke="#F1673C" stroke-width="3.2433" stroke-miterlimit="10" stroke-linecap="round"/>
<path d="M57.0566 308.355H37.9434" stroke="#F1673C" stroke-width="3.2433" stroke-miterlimit="10" stroke-linecap="round"/>
<path d="M384.157 152.71C386.299 152.71 388.036 150.972 388.036 148.828C388.036 146.685 386.299 144.947 384.157 144.947C382.014 144.947 380.277 146.685 380.277 148.828C380.277 150.972 382.014 152.71 384.157 152.71Z" fill="#F1673C"/>
<path d="M385.387 164.071C387.53 164.071 389.267 162.333 389.267 160.189C389.267 158.046 387.53 156.308 385.387 156.308C383.245 156.308 381.508 158.046 381.508 160.189C381.508 162.333 383.245 164.071 385.387 164.071Z" fill="#F1673C"/>
<path d="M384.157 181.491C386.299 181.491 388.036 179.753 388.036 177.609C388.036 175.466 386.299 173.728 384.157 173.728C382.014 173.728 380.277 175.466 380.277 177.609C380.277 179.753 382.014 181.491 384.157 181.491Z" fill="#F1673C"/>
<path d="M397.122 167.101C399.264 167.101 401.001 165.363 401.001 163.219C401.001 161.075 399.264 159.337 397.122 159.337C394.979 159.337 393.242 161.075 393.242 163.219C393.242 165.363 394.979 167.101 397.122 167.101Z" fill="#F1673C"/>
<path d="M35.0103 116.544C37.1528 116.544 38.8897 114.806 38.8897 112.663C38.8897 110.519 37.1528 108.781 35.0103 108.781C32.8677 108.781 31.1309 110.519 31.1309 112.663C31.1309 114.806 32.8677 116.544 35.0103 116.544Z" fill="#F1673C"/>
<path d="M35.0103 130.935C37.1528 130.935 38.8897 129.197 38.8897 127.053C38.8897 124.909 37.1528 123.172 35.0103 123.172C32.8677 123.172 31.1309 124.909 31.1309 127.053C31.1309 129.197 32.8677 130.935 35.0103 130.935Z" fill="#F1673C"/>
<path d="M21.9517 130.935C24.0942 130.935 25.8311 129.197 25.8311 127.053C25.8311 124.909 24.0942 123.172 21.9517 123.172C19.8091 123.172 18.0723 124.909 18.0723 127.053C18.0723 129.197 19.8091 130.935 21.9517 130.935Z" fill="#F1673C"/>
<path d="M343.944 190.58C329.562 190.58 317.924 178.935 317.924 164.544V132.923C317.924 118.533 329.562 106.888 343.944 106.888C358.327 106.888 369.965 118.533 369.965 132.923V164.544C369.965 178.935 358.327 190.58 343.944 190.58Z" stroke="#510066" stroke-width="3.2433" stroke-miterlimit="10" stroke-linecap="round"/>
<path d="M111.935 253.822V276.639C111.935 287.243 120.546 295.858 131.143 295.858H148.743C159.34 295.858 167.95 304.473 167.95 315.077V427.266C167.95 437.87 159.34 446.485 148.743 446.485H99.6348" stroke="#510066" stroke-width="3.2433" stroke-miterlimit="10" stroke-linecap="round"/>
<path d="M273.831 195.503V276.544C273.831 287.148 265.22 295.763 254.623 295.763H236.266C225.669 295.763 217.059 304.379 217.059 314.982V427.172C217.059 437.775 225.669 446.39 236.266 446.39H284.334" stroke="#510066" stroke-width="3.2433" stroke-miterlimit="10" stroke-linecap="round"/>
<path d="M251.406 359.479V346.225C251.406 334.391 261.057 324.734 272.885 324.734H305.529" stroke="#F1673C" stroke-width="3.2433" stroke-miterlimit="10"/>
<path d="M192.93 267.929V233.941C192.93 219.55 204.568 207.811 219.045 207.811H273.925" stroke="#F1673C" stroke-width="3.2433" stroke-miterlimit="10" stroke-linecap="round"/>
<path d="M273.831 215.29C278.116 215.29 281.59 211.814 281.59 207.527C281.59 203.239 278.116 199.763 273.831 199.763C269.546 199.763 266.072 203.239 266.072 207.527C266.072 211.814 269.546 215.29 273.831 215.29Z" fill="#F1673C"/>
<path d="M308.745 273.42C313.03 273.42 316.504 269.944 316.504 265.657C316.504 261.369 313.03 257.893 308.745 257.893C304.46 257.893 300.986 261.369 300.986 265.657C300.986 269.944 304.46 273.42 308.745 273.42Z" fill="#F1673C"/>
<path d="M181.86 166.249C186.145 166.249 189.619 162.773 189.619 158.485C189.619 154.198 186.145 150.722 181.86 150.722C177.575 150.722 174.102 154.198 174.102 158.485C174.102 162.773 177.575 166.249 181.86 166.249Z" fill="#F1673C"/>
<path d="M209.678 65.1361C209.678 80.568 197.188 92.9704 181.859 92.9704C166.436 92.9704 154.041 80.4734 154.041 65.1361V46.1065C154.041 34.1775 158.772 22.8166 167.288 14.4852L181.859 0L196.525 14.4852C204.947 22.8166 209.772 34.1775 209.772 46.1065V65.1361H209.678Z" fill="#F1673C"/>
<path d="M122.723 248.426H120.168C117.708 248.426 115.153 248.047 112.882 247.195C112.315 247.006 111.652 247.006 110.99 247.195C108.625 248.047 106.164 248.426 103.704 248.426H101.15C95.4723 248.426 90.8359 244.166 90.8359 238.959V206.107C90.8359 196.166 111.936 186.036 111.936 186.036C111.936 186.036 133.037 196.166 133.037 206.107V238.959C133.037 244.166 128.4 248.426 122.723 248.426Z" fill="#F1673C"/>
<path d="M111.936 196.26V254.106" stroke="#510066" stroke-width="3.2433" stroke-miterlimit="10" stroke-linecap="round"/>
<path d="M100.203 200.71L111.936 207.905L123.764 200.71" stroke="#510066" stroke-width="3.2433" stroke-miterlimit="10" stroke-linecap="round"/>
<path d="M95.7559 207.527L111.936 217.467L128.211 207.621" stroke="#510066" stroke-width="3.2433" stroke-miterlimit="10" stroke-linecap="round"/>
<path d="M95.1875 215.669L111.935 225.893L128.778 215.669" stroke="#510066" stroke-width="3.2433" stroke-miterlimit="10" stroke-linecap="round"/>
<path d="M95.1875 223.811L111.935 234.035L128.778 223.811" stroke="#510066" stroke-width="3.2433" stroke-miterlimit="10" stroke-linecap="round"/>
<path d="M95.1875 232.047L111.935 242.272L128.778 232.047" stroke="#510066" stroke-width="3.2433" stroke-miterlimit="10" stroke-linecap="round"/>
<path d="M172.02 26.3195L181.86 32.284L191.606 26.3195" stroke="#510066" stroke-width="3.2433" stroke-miterlimit="10" stroke-linecap="round"/>
<path d="M181.859 16.6627V94.6746" stroke="#510066" stroke-width="3.2433" stroke-miterlimit="10" stroke-linecap="round"/>
<path d="M160.664 43.2663L181.859 56.142L203.054 43.2663" stroke="#510066" stroke-width="3.2433" stroke-miterlimit="10" stroke-linecap="round"/>
<path d="M165.773 33.4201L181.859 43.1716L197.944 33.4201" stroke="#510066" stroke-width="3.2433" stroke-miterlimit="10" stroke-linecap="round"/>
<path d="M159.529 54.9113L181.86 68.5444L204.19 54.9113" stroke="#510066" stroke-width="3.2433" stroke-miterlimit="10" stroke-linecap="round"/>
<path d="M159.436 66.6509L181.861 80.284L204.191 66.6509" stroke="#510066" stroke-width="3.2433" stroke-miterlimit="10" stroke-linecap="round"/>
<path d="M130.764 88.142C130.764 98.4615 122.343 106.888 112.03 106.888C101.716 106.888 93.2949 98.4615 93.2949 88.142V75.3609C93.2949 67.4083 96.512 59.7396 102.189 54.0592L112.03 44.3077L121.87 54.0592C127.547 59.645 130.764 67.3136 130.764 75.3609V88.142Z" fill="#F1673C"/>
<path d="M111.936 62.8639V102.817" stroke="#510066" stroke-width="3.2433" stroke-miterlimit="10" stroke-linecap="round"/>
<path d="M102.096 78.2958L111.936 84.2603L121.871 78.2958" stroke="#510066" stroke-width="3.2433" stroke-miterlimit="10" stroke-linecap="round"/>
<path d="M104.461 70.7219L111.936 75.2662L119.506 70.7219" stroke="#510066" stroke-width="3.2433" stroke-miterlimit="10" stroke-linecap="round"/>
<path d="M101.527 86.1538L111.936 92.497L122.344 86.1538" stroke="#510066" stroke-width="3.2433" stroke-miterlimit="10" stroke-linecap="round"/>
<path d="M33.307 249.657C33.307 246.059 25.9266 236.213 22.3311 231.669C21.4795 230.533 19.3032 230.533 18.4516 231.669C14.8561 236.213 7.57031 246.059 7.57031 249.751C7.57031 253.065 13.8152 259.124 17.6 262.533C19.114 263.858 21.858 263.858 23.3719 262.533C27.1567 259.03 33.307 252.97 33.307 249.657Z" fill="#F1673C"/>
<path d="M15.8965 246.249L20.4383 249.657L24.98 246.249" stroke="#510066" stroke-width="3.2433" stroke-miterlimit="10" stroke-linecap="round"/>
<path d="M15.8965 252.876L20.4383 256.284L24.98 252.876" stroke="#510066" stroke-width="3.2433" stroke-miterlimit="10" stroke-linecap="round"/>
<path d="M343.281 276.071C343.281 272.568 350.189 263.195 353.595 258.746C354.446 257.609 356.433 257.704 357.285 258.746C360.691 263.195 367.504 272.663 367.504 276.166C367.504 279.385 361.638 285.16 358.042 288.379C356.623 289.704 354.068 289.704 352.649 288.379C349.053 285.065 343.281 279.29 343.281 276.071Z" fill="#F1673C"/>
<path d="M359.84 272.947L355.393 276.26L350.852 272.947" stroke="#510066" stroke-width="3.2433" stroke-miterlimit="10" stroke-linecap="round"/>
<path d="M359.84 279.574L355.393 282.888L350.852 279.574" stroke="#510066" stroke-width="3.2433" stroke-miterlimit="10" stroke-linecap="round"/>
<path d="M162.652 357.396C173.25 357.396 181.86 348.781 181.86 338.177V96.1893" stroke="#510066" stroke-width="3.2433" stroke-miterlimit="10" stroke-linecap="round"/>
<path d="M111.936 134.627V121.941" stroke="#510066" stroke-width="3.2433" stroke-miterlimit="10" stroke-linecap="round"/>
<path d="M181.859 249.183H174.573C163.976 249.183 155.365 240.568 155.365 229.964V189.633C155.365 179.03 146.755 170.414 136.157 170.414H131.237C120.64 170.414 112.029 161.799 112.029 151.195V134.627" stroke="#510066" stroke-width="3.2433" stroke-miterlimit="10" stroke-linecap="round"/>
<path d="M147.135 107.266C150.897 107.266 153.948 104.214 153.948 100.45C153.948 96.685 150.897 93.6331 147.135 93.6331C143.372 93.6331 140.322 96.685 140.322 100.45C140.322 104.214 143.372 107.266 147.135 107.266Z" stroke="#510066" stroke-width="3.2433" stroke-miterlimit="10" stroke-linecap="round"/>
<path d="M308.461 96C314.941 96 320.194 90.744 320.194 84.2604C320.194 77.7768 314.941 72.5208 308.461 72.5208C301.982 72.5208 296.729 77.7768 296.729 84.2604C296.729 90.744 301.982 96 308.461 96Z" stroke="#510066" stroke-width="3.2433" stroke-miterlimit="10" stroke-linecap="round"/>
<path d="M273.83 232.047H246.201C231.819 232.047 220.086 220.402 220.086 205.917V165.112" stroke="#510066" stroke-width="3.2433" stroke-miterlimit="10" stroke-linecap="round"/>
<path d="M289.159 56.9941C289.159 52.071 280.359 38.7219 276.101 32.4734C275.06 30.9586 272.506 30.9586 271.465 32.4734C267.207 38.7219 258.502 52.1657 258.502 57.0888C258.502 61.6331 265.882 69.8698 270.424 74.4142C272.222 76.3077 275.439 76.3077 277.237 74.4142C281.778 69.7751 289.159 61.5385 289.159 56.9941Z" fill="#F1673C"/>
<path d="M267.869 52.639L273.83 56.8994L279.791 52.639" stroke="#510066" stroke-width="3.2433" stroke-miterlimit="10" stroke-linecap="round"/>
<path d="M267.869 60.6864L273.83 64.8521L279.791 60.6864" stroke="#510066" stroke-width="3.2433" stroke-miterlimit="10" stroke-linecap="round"/>
<path d="M273.831 47.8107V75.2663C273.831 75.2663 276.669 97.6095 250.838 97.6095" stroke="#510066" stroke-width="3.2433" stroke-miterlimit="10" stroke-linecap="round"/>
<path d="M308.65 249.183V225.609C308.65 215.858 316.598 207.905 326.344 207.905C337.699 207.905 344.038 202.414 344.038 190.959" stroke="#510066" stroke-width="3.2433" stroke-miterlimit="10" stroke-linecap="round"/>
<path d="M77.2097 106.036C77.2097 101.112 68.41 87.7633 64.1521 81.5148C63.1113 80 60.5565 80 59.5157 81.5148C55.2578 87.7633 46.5527 101.207 46.5527 106.13C46.5527 110.675 53.9331 118.911 58.4749 123.456C60.2727 125.349 63.4897 125.349 65.2875 123.456C69.9239 118.817 77.2097 110.58 77.2097 106.036Z" fill="#F1673C"/>
<path d="M56.0156 100.923L61.8821 105.183L67.8431 100.923" stroke="#510066" stroke-width="3.2433" stroke-miterlimit="10" stroke-linecap="round"/>
<path d="M56.0156 108.876L61.8821 113.136L67.8431 108.876" stroke="#510066" stroke-width="3.2433" stroke-miterlimit="10" stroke-linecap="round"/>
<path d="M61.8809 96.0947V139.74" stroke="#510066" stroke-width="3.2433" stroke-miterlimit="10" stroke-linecap="round"/>
<path d="M112.693 125.823H127.643C138.43 125.823 147.135 117.112 147.135 106.32V100.355" stroke="#510066" stroke-width="3.2433" stroke-miterlimit="10" stroke-linecap="round"/>
<path d="M343.849 106.888V101.965C343.849 92.5917 337.131 84.1657 326.06 84.1657H308.461" stroke="#510066" stroke-width="3.2433" stroke-miterlimit="10" stroke-linecap="round"/>
<path d="M68.0316 220.592H14.5712C7.38012 220.592 1.51367 214.722 1.51367 207.527V153.089C1.51367 145.894 7.38012 140.024 14.5712 140.024H67.937C75.1281 140.024 80.9946 145.894 80.9946 153.089V207.527C80.9946 214.722 75.2227 220.592 68.0316 220.592Z" stroke="#510066" stroke-width="3.2631" stroke-miterlimit="10" stroke-linecap="round"/>
<path d="M51.8513 206.296C57.2338 206.296 61.5972 201.93 61.5972 196.544C61.5972 191.159 57.2338 186.793 51.8513 186.793C46.4688 186.793 42.1055 191.159 42.1055 196.544C42.1055 201.93 46.4688 206.296 51.8513 206.296Z" fill="#F1673C"/>
<path d="M111.935 267.929H77.9667C63.5845 267.929 51.8516 256.284 51.8516 241.799V196.166" stroke="#510066" stroke-width="3.2433" stroke-miterlimit="10" stroke-linecap="round"/>
<path d="M111.936 124.876V99.5029" stroke="#510066" stroke-width="3.2433" stroke-miterlimit="10" stroke-linecap="round"/>
<path d="M27.7238 167.669H13.1523V182.249H27.7238V167.669Z" stroke="#510066" stroke-width="3.2433" stroke-miterlimit="10" stroke-linecap="round"/>
<path d="M149.594 258.651H131.049V277.207H149.594V258.651Z" stroke="#F1673C" stroke-width="3.2433" stroke-miterlimit="10"/>
<path d="M27.7238 182.249H13.1523V196.828H27.7238V182.249Z" stroke="#510066" stroke-width="3.2433" stroke-miterlimit="10" stroke-linecap="round"/>
<path d="M27.7238 196.828H13.1523V211.408H27.7238V196.828Z" stroke="#510066" stroke-width="3.2433" stroke-miterlimit="10" stroke-linecap="round"/>
<path d="M356.716 209.041V222.864C356.716 230.911 350.282 237.349 342.239 237.444H337.13C335.427 237.444 334.575 235.55 335.616 234.225L356.716 209.041Z" fill="#F1673C"/>
<path d="M363.435 205.065C361.259 204.876 359.272 205.917 358.042 207.432L335.617 234.13C334.481 235.456 335.427 237.444 337.131 237.444H354.446C362.583 237.444 369.112 230.817 369.112 222.769V211.408C369.112 208.095 366.747 205.254 363.435 205.065Z" stroke="#510066" stroke-width="3.2433" stroke-miterlimit="10" stroke-linecap="round"/>
<path d="M369.965 209.799V214.154L373.56 211.976L369.965 209.799Z" stroke="#510066" stroke-width="3.2433" stroke-miterlimit="10" stroke-linecap="round"/>
<path d="M356.717 233.467V248.426" stroke="#510066" stroke-width="3.2433" stroke-miterlimit="10" stroke-linecap="round"/>
<path d="M361.637 233.467V248.426" stroke="#510066" stroke-width="3.2433" stroke-miterlimit="10" stroke-linecap="round"/>
<path d="M363.53 211.692C364.053 211.692 364.476 211.268 364.476 210.746C364.476 210.223 364.053 209.799 363.53 209.799C363.008 209.799 362.584 210.223 362.584 210.746C362.584 211.268 363.008 211.692 363.53 211.692Z" stroke="#510066" stroke-width="3.2433" stroke-miterlimit="10" stroke-linecap="round"/>
<path d="M140.322 267.929H225.291C239.673 267.929 251.406 279.574 251.406 294.059V359.479" stroke="#F1673C" stroke-width="3.2433" stroke-miterlimit="10" stroke-linecap="round"/>
<path d="M308.65 301.633C314.033 301.633 318.396 297.267 318.396 291.882C318.396 286.496 314.033 282.13 308.65 282.13C303.268 282.13 298.904 286.496 298.904 291.882C298.904 297.267 303.268 301.633 308.65 301.633Z" stroke="#510066" stroke-width="3.2433" stroke-miterlimit="10" stroke-linecap="round"/>
<path d="M223.113 359.479H282.629C297.012 359.479 308.745 347.834 308.745 333.349V291.598" stroke="#510066" stroke-width="3.2433" stroke-miterlimit="10" stroke-linecap="round"/>
<path d="M155.271 196.26V184.615C155.271 170.225 166.91 158.485 181.387 158.485H181.86" stroke="#510066" stroke-width="3.2433" stroke-miterlimit="10" stroke-linecap="round"/>
<path d="M393.148 256.947C397.433 256.947 400.906 253.471 400.906 249.183C400.906 244.896 397.433 241.42 393.148 241.42C388.862 241.42 385.389 244.896 385.389 249.183C385.389 253.471 388.862 256.947 393.148 256.947Z" fill="#F1673C"/>
<path d="M355.394 267.834V300.213C355.394 319.432 342.998 324.639 329.562 324.639H309.408" stroke="#510066" stroke-width="3.2433" stroke-miterlimit="10" stroke-linecap="round"/>
<path d="M343.943 190.58V149.302" stroke="#510066" stroke-width="3.2433" stroke-miterlimit="10" stroke-linecap="round"/>
<path d="M358.61 170.32C357.853 170.793 356.907 170.604 356.529 169.846L343.944 150.059L331.36 169.846C330.886 170.604 329.94 170.793 329.278 170.32C328.521 169.846 328.332 168.899 328.805 168.237L342.714 146.367C342.998 145.893 343.471 145.609 344.039 145.609C344.606 145.609 345.079 145.893 345.363 146.367L359.273 168.237C359.462 168.521 359.556 168.805 359.556 169.089C359.367 169.562 359.083 170.036 358.61 170.32Z" fill="#510066"/>
<path d="M129.629 356.166V327.763C129.629 317.349 125.561 312.142 116.288 312.142H110.137C100.959 312.142 96.0391 305.799 96.0391 297.278V281.657C96.0391 274.178 102.189 268.024 109.664 268.024H131.143" stroke="#F1673C" stroke-width="3.2433" stroke-miterlimit="10" stroke-linecap="round"/>
<path d="M2.27148 160.189H80.3331" stroke="#510066" stroke-width="3.2433" stroke-miterlimit="10" stroke-linecap="round"/>
<path d="M302.785 181.018V200.142" stroke="#F1673C" stroke-width="3.2433" stroke-miterlimit="10" stroke-linecap="round"/>
<path d="M312.814 190.58H293.701" stroke="#F1673C" stroke-width="3.2433" stroke-miterlimit="10" stroke-linecap="round"/>
<path d="M230.115 35.8817V55.0059" stroke="#510066" stroke-width="3.2433" stroke-miterlimit="10" stroke-linecap="round"/>
<path d="M239.768 35.8817V55.0059" stroke="#510066" stroke-width="3.2433" stroke-miterlimit="10" stroke-linecap="round"/>
<path d="M153.947 150.722H134.834" stroke="#510066" stroke-width="3.2433" stroke-miterlimit="10" stroke-linecap="round"/>
<path d="M153.947 141.16H134.834" stroke="#510066" stroke-width="3.2433" stroke-miterlimit="10" stroke-linecap="round"/>
<path d="M238.917 111.432V151.953C238.917 159.148 233.05 165.018 225.859 165.018H215.356C208.165 165.018 202.299 159.148 202.299 151.953V110.675C202.299 103.479 208.165 97.6095 215.356 97.6095H223.588" stroke="#510066" stroke-width="3.2433" stroke-miterlimit="10" stroke-linecap="round"/>
<path d="M250.818 110.864V84.4493H224.419V110.864H250.818Z" stroke="#510066" stroke-width="3.2433" stroke-miterlimit="10" stroke-linecap="round"/>
<path d="M238.347 110.864H224.438V97.6095H217.814V110.864V114.935V117.491H238.347V110.864Z" fill="#510066"/>
<path d="M244.215 97.3254H232.104" stroke="#510066" stroke-width="3.2433" stroke-miterlimit="10" stroke-linecap="round"/>
<path d="M238.16 103.669V91.645" stroke="#510066" stroke-width="3.2433" stroke-miterlimit="10" stroke-linecap="round"/>
<path d="M20.4375 242.272V261.965C20.4375 275.219 31.2242 286.012 44.471 286.012H53.0814C63.6789 286.012 72.2893 294.627 72.2893 305.231V337.988C72.2893 348.592 80.8998 357.207 91.4972 357.207H162.652" stroke="#510066" stroke-width="3.2433" stroke-miterlimit="10" stroke-linecap="round"/>
<path d="M392.485 249.183H223.115C211.95 249.183 202.961 258.178 202.961 269.349V339.314C202.961 350.485 211.95 359.479 223.115 359.479" stroke="#510066" stroke-width="3.2433" stroke-miterlimit="10" stroke-linecap="round"/>
<path d="M298.431 160.189C298.431 173.728 287.455 184.805 273.83 184.805V176.379V184.805C260.299 184.805 249.229 173.822 249.229 160.189V151.763C249.229 141.254 253.392 131.219 260.867 123.834L273.83 111.053L286.793 123.834C294.268 131.219 298.431 141.254 298.431 151.763V160.189Z" fill="#F1673C"/>
<path d="M273.83 126.675V198.911" stroke="#510066" stroke-width="3.2433" stroke-miterlimit="10" stroke-linecap="round"/>
<path d="M260.395 147.598L273.831 155.74L287.267 147.598" stroke="#510066" stroke-width="3.2433" stroke-miterlimit="10" stroke-linecap="round"/>
<path d="M265.221 136.331L273.831 141.538L282.442 136.331" stroke="#510066" stroke-width="3.2433" stroke-miterlimit="10" stroke-linecap="round"/>
<path d="M257.367 159.337L273.831 169.373L290.295 159.337" stroke="#510066" stroke-width="3.2433" stroke-miterlimit="10" stroke-linecap="round"/>
</g>
<defs>
<clipPath id="clip0_841:384">
<rect width="401" height="448" fill="white"/>
</clipPath>
</defs>
</svg>
